<?xml version="1.0" encoding="UTF-8"?>
<svg id="projects_page_helper_image" data-name="projects page helper image" xmlns="http://www.w3.org/2000/svg" viewBox="0 0 340 100">
  <defs>
    <style>
      .cls-1 {
        fill: #f2f2f2;
      }

      .cls-2 {
        fill: #e6e6e6;
      }

      .cls-3 {
        fill: #fff;
      }

      .cls-4 {
        fill: #ffb9b9;
      }

      .cls-5 {
        fill: #ffb6b6;
      }

      .cls-6 {
        fill: #ffb8b8;
      }

      .cls-7 {
        fill: #fd6584;
      }

      .cls-8 {
        fill: #e4e4e4;
      }

      .cls-9 {
        fill: #ff6363;
      }

      .cls-10 {
        fill: #ff6366;
      }

      .cls-11 {
        fill: #9e616a;
      }

      .cls-12 {
        fill: #ccc;
      }

      .cls-13 {
        fill: #3f3d56;
      }

      .cls-14 {
        fill: #2f2e41;
      }
    </style>
  </defs>
  <path id="ground" class="cls-12" d="M338.39,98.12H1.33c-.18,0-.33-.06-.33-.12s.15-.12,.33-.12H338.39c.18,0,.33,.06,.33,.12s-.15,.12-.33,.12Z"/>
  <g id="people">
    <g id="girl_holding_chat" data-name="girl holding chat">
      <path class="cls-1" d="M32.38,84.96l-2.53,3.99,1.48-5.19c-3.12-3.25-7.43-5.63-7.43-5.63,0,0-5.31,8.73-3.88,14.11s5.12,6.4,9.06,5.35c3.94-1.05,6.63-3.78,5.2-9.15-.32-1.2-1.01-2.37-1.89-3.47Z"/>
      <path class="cls-3" d="M29.03,89.34l.07,.26c.8,3.08,.92,5.62,.36,7.59,0,.03-.02,.06-.03,.09l-.13-.04-.13-.04c.64-2.13,.36-4.82-.34-7.5-.02-.09-.04-.18-.07-.26-.31-1.14-.68-2.27-1.09-3.35-.03-.08-.06-.17-.1-.26-.55-1.43-1.14-2.78-1.7-3.94-.04-.08-.08-.16-.12-.25-.95-1.96-1.75-3.36-1.93-3.66-.02-.04-.03-.06-.04-.06l.12-.07h0s.12-.07,.12-.07c0,0,.04,.07,.12,.2,.28,.48,1.02,1.79,1.87,3.56,.04,.08,.08,.16,.12,.24,.45,.94,.93,2,1.38,3.13,.11,.28,.22,.56,.33,.84,.03,.09,.07,.17,.1,.25,.44,1.18,.81,2.29,1.09,3.34Z"/>
      <path class="cls-3" d="M26.01,81.53c-.08,.04-.17,.07-.26,.1-.24,.09-.48,.17-.73,.23-1.05,.28-2.15,.32-3.22,.12-.04,.08-.07,.17-.11,.25,1.13,.22,2.29,.18,3.4-.11,.26-.07,.52-.15,.78-.25,.09-.03,.17-.07,.26-.1,.7-.3,1.35-.7,1.92-1.19-.08-.06-.15-.11-.22-.17-.55,.46-1.16,.83-1.82,1.11Z"/>
      <path class="cls-3" d="M27.84,85.74c-.09,.03-.18,.06-.27,.08-.03,0-.06,.02-.08,.02-2.31,.62-4.78,.06-6.61-1.49-.03,.09-.06,.18-.09,.27,1.89,1.55,4.41,2.1,6.78,1.47,.04,0,.07-.02,.11-.03,.09-.03,.18-.05,.27-.08,1.38-.44,2.6-1.28,3.52-2.4-.06-.07-.13-.13-.19-.2-.89,1.1-2.08,1.91-3.43,2.34Z"/>
      <path class="cls-3" d="M29.03,89.34c-.09,.03-.18,.06-.27,.09-.1,.03-.19,.06-.29,.09-3.15,.83-6.47-.51-8.16-3.29-.03,.12-.06,.24-.09,.36,1.79,2.75,5.15,4.03,8.32,3.19,.1-.03,.2-.05,.29-.08,.09-.03,.18-.06,.27-.09,1.82-.64,3.32-1.94,4.21-3.65-.05-.09-.11-.18-.17-.27-.84,1.71-2.32,3.01-4.11,3.65Z"/>
      <path class="cls-1" d="M26.21,5.35l-1.55,2.43,.9-3.16c-1.9-1.98-4.53-3.44-4.53-3.44,0,0-3.24,5.33-2.37,8.6s3.12,3.9,5.53,3.26c2.4-.64,4.05-2.3,3.17-5.58-.19-.73-.62-1.45-1.15-2.12Z"/>
      <path class="cls-3" d="M24.16,8.02l.04,.16c.49,1.88,.56,3.43,.22,4.63,0,.02-.01,.03-.02,.05l-.08-.02-.08-.02c.39-1.3,.22-2.94-.21-4.58-.01-.05-.03-.11-.04-.16-.19-.69-.42-1.38-.67-2.05-.02-.05-.04-.1-.06-.16-.33-.87-.7-1.7-1.04-2.41-.02-.05-.05-.1-.07-.15-.58-1.2-1.07-2.05-1.18-2.23-.01-.02-.02-.04-.02-.04l.07-.04h0s.07-.04,.07-.04c0,0,.03,.04,.07,.12,.17,.29,.62,1.09,1.14,2.17,.02,.05,.05,.1,.07,.15,.27,.58,.57,1.22,.84,1.91,.07,.17,.14,.34,.2,.51,.02,.05,.04,.1,.06,.16,.27,.72,.49,1.4,.67,2.04Z"/>
      <path class="cls-3" d="M22.32,3.26c-.05,.02-.1,.04-.16,.06-.15,.06-.29,.1-.44,.14-.64,.17-1.31,.2-1.97,.07-.02,.05-.04,.1-.07,.15,.69,.14,1.4,.11,2.08-.07,.16-.04,.32-.09,.47-.15,.05-.02,.11-.04,.16-.06,.43-.18,.82-.43,1.17-.73-.05-.03-.09-.07-.14-.1-.33,.28-.71,.51-1.11,.68Z"/>
      <path class="cls-3" d="M23.44,5.83c-.05,.02-.11,.03-.16,.05-.02,0-.03,0-.05,.01-1.41,.38-2.92,.04-4.03-.91-.02,.06-.04,.11-.06,.17,1.15,.95,2.69,1.28,4.13,.9,.02,0,.04-.01,.07-.02,.06-.02,.11-.03,.17-.05,.84-.27,1.59-.78,2.15-1.46-.04-.04-.08-.08-.12-.12-.54,.67-1.27,1.17-2.09,1.43Z"/>
      <path class="cls-3" d="M24.16,8.02c-.05,.02-.11,.04-.17,.06-.06,.02-.12,.04-.18,.05-1.92,.51-3.95-.31-4.98-2.01-.02,.07-.04,.15-.05,.22,1.09,1.67,3.14,2.46,5.07,1.95,.06-.02,.12-.03,.18-.05,.06-.02,.11-.03,.17-.05,1.11-.39,2.02-1.18,2.57-2.23-.03-.05-.07-.11-.1-.16-.51,1.04-1.41,1.84-2.51,2.23Z"/>
      <polygon class="cls-11" points="51.86 95.35 54.58 95.35 55.87 84.88 51.86 84.88 51.86 95.35"/>
      <path class="cls-14" d="M51.17,94.46h5.34s0,0,0,0c1.88,0,3.41,1.52,3.41,3.41v.11h-8.75s0-3.52,0-3.52Z"/>
      <polygon class="cls-11" points="35.8 93.04 38.39 93.86 42.78 84.26 38.96 83.06 35.8 93.04"/>
      <path class="cls-14" d="M35.41,91.98l5.1,1.61h0c1.79,.57,2.79,2.48,2.22,4.27l-.03,.11-8.34-2.64,1.06-3.35Z"/>
      <path class="cls-14" d="M41.91,47.54l-1.51,4.25-.04,22.93-4.27,15.7,5.24,1.46,5.79-14.8,1.86-13,2.45,13.08-.34,15.54h5.5l.42-23.95c.12-6.73-1.06-13.41-3.47-19.7h0l-11.63-1.51Z"/>
      <polygon class="cls-10" points="40.12 30.33 49.01 30.33 52.72 34.05 53.83 49.4 40.41 51.56 36.09 36.91 38.44 30.68 40.12 30.33"/>
      <polygon class="cls-10" points="36.92 37.06 23.23 31.91 22.88 29.78 31.51 22.47 34.38 24.63 29.17 30.33 38.44 30.68 36.92 37.06"/>
      <circle class="cls-11" cx="33.17" cy="23.25" r="2.21"/>
      <path class="cls-14" d="M38.3,26.04l1-4.51c.75-3.34,4.06-5.44,7.39-4.69,3.33,.74,5.43,4.04,4.7,7.37l-1,4.51c-.1,.45-.54,.73-.99,.63l-10.46-2.32c-.45-.1-.73-.54-.63-.99Z"/>
      <circle class="cls-11" cx="43.93" cy="23.38" r="4.54"/>
      <path class="cls-14" d="M37.79,21.57c.59-2.64,3.2-4.3,5.84-3.72l.9,.2c2.64,.59,4.3,3.2,3.72,5.84l-.02,.09-1.91-.42-.25-1.96-.53,1.79-.99-.22-.12-.99-.27,.9-6.4-1.42,.02-.09Z"/>
      <path class="cls-14" d="M42.38,28.32c-.13-.29-.08-.62,.12-.86,1.36-1.61,3.44-4.67,2.13-7.14l-.09-.18,5.16,1.14-1.72,7.74-4.87-.21s-.1,0-.15-.02c-.26-.06-.48-.24-.58-.48Z"/>
      <path class="cls-2" d="M80.28,44.75H46.79c-1.07,0-1.94,.87-1.94,1.94h0v8.05c0,1.07,.87,1.94,1.94,1.94h.49v1.46c0,.25,.2,.45,.45,.45,.12,0,.23-.05,.32-.13l1.77-1.77h30.47c1.07,0,1.94-.87,1.94-1.94h0v-8.05c0-1.07-.87-1.94-1.94-1.94h0Z"/>
      <path class="cls-3" d="M80.28,55.7H46.79c-.53,0-.95-.43-.95-.95v-8.05c0-.53,.43-.95,.95-.95h25.44c4.97,0,9,4.04,9.01,9.01,0,.53-.43,.95-.95,.95Z"/>
      <path class="cls-10" d="M56.5,47.5h14.14c.35,0,.63,.28,.63,.63h0c0,.35-.28,.63-.63,.63h-14.14c-.35,0-.63-.28-.63-.63h0c0-.35,.28-.63,.63-.63Z"/>
      <path class="cls-2" d="M53.5,50.03h20.16c.35,0,.63,.28,.63,.63h0c0,.35-.28,.63-.63,.63h-20.16c-.35,0-.63-.28-.63-.63h0c0-.35,.28-.63,.63-.63Z"/>
      <path class="cls-2" d="M53.5,52.56h20.16c.35,0,.63,.28,.63,.63h0c0,.35-.28,.63-.63,.63h-20.16c-.35,0-.63-.28-.63-.63h0c0-.35,.28-.63,.63-.63Z"/>
      <path class="cls-2" d="M4.2,9.99h30.98c.99,0,1.79,.8,1.79,1.79h0v7.45c0,.99-.8,1.79-1.79,1.79h-.45v1.35c0,.23-.18,.41-.41,.41-.11,0-.21-.04-.29-.12l-1.64-1.64H4.2c-.99,0-1.79-.8-1.79-1.79h0v-7.45c0-.99,.8-1.79,1.79-1.79h0Z"/>
      <path class="cls-3" d="M35.18,20.12H11.65c-4.6,0-8.33-3.73-8.33-8.33,0-.49,.4-.88,.88-.88h30.98c.49,0,.88,.4,.88,.88v7.45c0,.49-.4,.88-.88,.88Z"/>
      <path class="cls-10" d="M26.2,13.7H13.12c-.32,0-.59-.26-.59-.59h0c0-.32,.26-.59,.59-.59h13.08c.32,0,.59,.26,.59,.59h0c0,.32-.26,.59-.59,.59Z"/>
      <path class="cls-2" d="M28.98,16.04H10.34c-.32,0-.59-.26-.59-.59h0c0-.32,.26-.59,.59-.59H28.98c.32,0,.59,.26,.59,.59h0c0,.32-.26,.59-.59,.59Z"/>
      <path class="cls-2" d="M28.98,18.39H10.34c-.32,0-.59-.26-.59-.59h0c0-.32,.26-.59,.59-.59H28.98c.32,0,.59,.26,.59,.59h0c0,.32-.26,.59-.59,.59Z"/>
      <polygon class="cls-10" points="48.66 30.42 63.14 32.48 63.95 34.48 57.1 43.49 53.83 42.01 57.68 35.31 48.55 36.98 48.66 30.42"/>
      <circle class="cls-11" cx="55.08" cy="43.83" r="2.21"/>
    </g>
    <g id="people_holding_project_cards" data-name="people holding project cards">
      <path class="cls-2" d="M185.3,4.7c11.04-5.91,25.05-2.81,32.48,7.66l-.25,.18c-7.34-10.34-21.18-13.4-32.08-7.57-.93,.5-1.82,1.05-2.68,1.66-11.21,7.95-13.86,23.54-5.91,34.76l-.25,.18c-8.05-11.35-5.37-27.14,5.99-35.19,.87-.62,1.77-1.18,2.71-1.68Z"/>
      <path class="cls-2" d="M241.78,29.95l-36.31-2.82c-1.17-.09-2.05-1.12-1.96-2.29l1.57-17.64c.09-1.17,1.12-2.05,2.29-1.96l36.31,2.82c1.17,.09,2.05,1.12,1.96,2.29l-1.57,17.64c-.09,1.17-1.12,2.05-2.29,1.96Z"/>
      <path class="cls-3" d="M233.21,25.96c-.28,0-.55-.01-.83-.03l-23.47-1.83c-1.97-.15-3.45-1.88-3.29-3.85,0,0,0,0,0,0l.54-6.88c.16-1.97,1.88-3.45,3.85-3.3l30.34,2.36c1.97,.16,3.45,1.88,3.29,3.85-.42,5.45-4.97,9.66-10.43,9.67h0Z"/>
      <path class="cls-2" d="M239.62,17.91l-29.75-2.31c-.26-.02-.46-.25-.44-.51,.02-.26,.25-.46,.51-.44l29.75,2.31c.26,.02,.46,.25,.44,.51-.02,.26-.25,.46-.51,.44h0Z"/>
      <path class="cls-2" d="M227.27,18.83l-17.54-1.36c-.26-.02-.46-.25-.43-.51,.02-.26,.25-.45,.51-.43l17.54,1.36c.26,.02,.46,.25,.44,.51-.02,.26-.25,.46-.51,.44,0,0,0,0,0,0h0Z"/>
      <path class="cls-2" d="M231.13,21l-21.55-1.68c-.26-.02-.46-.25-.44-.51,.02-.26,.25-.46,.51-.44,0,0,0,0,0,0l21.55,1.68c.26,.02,.46,.25,.44,.51s-.25,.46-.51,.44h0Z"/>
      <path class="cls-2" d="M239.35,53.9l-36.31-2.82c-1.17-.09-2.05-1.12-1.96-2.29l1.57-17.64c.09-1.17,1.12-2.05,2.29-1.96l36.31,2.82c1.17,.09,2.05,1.12,1.96,2.29l-1.57,17.64c-.09,1.17-1.12,2.05-2.29,1.96Z"/>
      <path class="cls-3" d="M230.77,49.91c-.27,0-.55-.01-.82-.03l-23.47-1.83c-1.97-.15-3.45-1.88-3.29-3.85,0,0,0,0,0,0l.54-6.88c.15-1.97,1.88-3.45,3.85-3.3,0,0,0,0,0,0l30.34,2.36c1.97,.15,3.45,1.88,3.29,3.85h0c-.43,5.45-4.98,9.66-10.44,9.67Z"/>
      <path class="cls-2" d="M237.19,41.86l-29.75-2.31c-.26-.02-.46-.25-.44-.51,.02-.26,.25-.46,.51-.44h0l29.75,2.31c.26,.02,.46,.25,.44,.51s-.25,.46-.51,.44Z"/>
      <path class="cls-2" d="M224.84,42.77l-17.54-1.36c-.26-.02-.46-.25-.44-.51s.25-.46,.51-.44l17.54,1.36c.26,.02,.46,.25,.44,.51s-.25,.46-.51,.44Z"/>
      <path class="cls-2" d="M228.7,44.95l-21.55-1.68c-.26-.02-.46-.25-.44-.51s.25-.46,.51-.44h0l21.55,1.68c.26,.02,.46,.25,.44,.51s-.25,.46-.51,.44Z"/>
      <path class="cls-2" d="M148.99,44.68c-1.94-4.39,.05-9.52,4.44-11.46s9.52,.05,11.46,4.44h0l-.28,.13c-1.87-4.24-6.82-6.16-11.05-4.29-4.24,1.87-6.16,6.82-4.29,11.05,0,0,0,0,0,0l-.28,.13Z"/>
      <path class="cls-1" d="M237.1,93.16c3.55-1.68,6.19-5.07,5.78-8.79-3.18,2.58-7.52,4.02-12,3.98-1.74-.01-3.7-.19-4.96,.79-.79,.61-1.14,1.58-1.19,2.54-.04,.96,.19,1.94,.42,2.9l-.07,.23c4.17,.27,8.47,.03,12.02-1.65Z"/>
      <path class="cls-3" d="M242.8,84.37c-1.37,2.68-3.75,4.91-6.71,6.22-.65,.3-1.34,.51-2.05,.6-.72,.08-1.45-.02-2.13-.28-.64-.23-1.28-.53-1.96-.62-.67-.09-1.36,.09-1.89,.51-.63,.49-1.01,1.17-1.35,1.84-.38,.75-.76,1.54-1.5,2.05-.09,.06,.04,.19,.12,.13,1.29-.89,1.47-2.5,2.5-3.58,.49-.55,1.2-.85,1.94-.81,.7,.05,1.35,.36,2,.6,.66,.26,1.37,.38,2.08,.34,.71-.06,1.41-.24,2.07-.53,1.43-.6,2.75-1.42,3.92-2.44,1.29-1.11,2.35-2.46,3.13-3.98,.05-.09-.13-.15-.18-.06h0Z"/>
      <path class="cls-3" d="M237.08,90.21c.77,.9,2.02,1.22,3.12,.79,.1-.04,.02-.19-.08-.15-1.03,.4-2.2,.1-2.91-.74-.07-.09-.21,.01-.13,.1h0Z"/>
      <path class="cls-3" d="M232.22,91.06c.14-1.06,.72-2.01,1.61-2.61,.09-.06-.04-.19-.12-.13-.92,.63-1.52,1.61-1.67,2.72-.01,.1,.17,.12,.18,.02h0Z"/>
      <path class="cls-3" d="M240.92,87.18c-.35-.27-.53-.69-.49-1.13,.01-.1-.17-.12-.18-.02-.05,.48,.16,.95,.54,1.25,.03,.03,.09,.04,.13,.01,.03-.03,.04-.07,.01-.11,0,0,0,0,0,0h0Z"/>
      <path class="cls-1" d="M231.17,76.51c-.01,.06-.02,.13-.03,.19-.15,.86-.38,1.71-.69,2.52-.02,.06-.05,.13-.07,.19-.78,1.98-1.97,3.78-3.49,5.27-.62,.61-1.29,1.17-2,1.67-.99,.7-2.13,1.38-2.76,2.33-.07,.1-.13,.2-.18,.3l2.82,5.71s.03,.02,.04,.03l.1,.23s.08-.05,.12-.07c.02-.01,.05-.03,.07-.04,.02,0,.03-.02,.04-.03,0,0,0,0,.01,0,.01,0,.03-.02,.04-.02,.22-.14,.45-.28,.67-.43t0,0c1.69-1.11,3.28-2.36,4.59-3.8,.04-.04,.08-.09,.12-.13,.58-.65,1.1-1.35,1.55-2.09,.24-.4,.46-.82,.66-1.25,.5-1.11,.8-2.3,.88-3.52,.16-2.44-.56-4.95-2.36-6.9-.05-.05-.09-.1-.14-.15Z"/>
      <path class="cls-3" d="M231.1,76.55c.79,3.01,.51,6.19-.82,8.89-.28,.6-.66,1.15-1.13,1.61-.5,.46-1.12,.77-1.78,.91-.64,.15-1.32,.24-1.89,.53-.57,.29-.97,.83-1.07,1.45-.14,.76,.04,1.53,.24,2.29,.23,.84,.47,1.71,.27,2.55-.03,.1,.16,.14,.18,.04,.36-1.45-.59-2.92-.55-4.38,.02-.68,.27-1.35,.9-1.73,.56-.33,1.25-.42,1.9-.57,.65-.13,1.27-.41,1.79-.83,.49-.44,.9-.97,1.19-1.56,.68-1.31,1.11-2.72,1.28-4.18,.21-1.69,.09-3.41-.35-5.06-.03-.1-.2-.06-.17,.04h0Z"/>
      <path class="cls-3" d="M230.77,84.59c1.16,.36,2.39-.07,2.88-1.01,.05-.09-.12-.18-.17-.08-.46,.88-1.59,1.28-2.68,.94-.11-.04-.15,.12-.03,.16h0Z"/>
      <path class="cls-3" d="M227.72,87.93c-.6-.91-.8-2.02-.56-3.08,.02-.1-.16-.14-.18-.04-.25,1.1-.04,2.26,.59,3.2,.06,.09,.21,.01,.15-.08Z"/>
      <path class="cls-3" d="M231.6,79.95c-.46-.05-.88-.31-1.13-.7-.06-.1-.21-.01-.15,.08,.28,.43,.74,.71,1.25,.77,.05,0,.1-.01,.11-.06,0-.05-.03-.09-.07-.1Z"/>
      <path class="cls-6" d="M237.16,52.65l-2.16-11.49-4.24-5.57-3.14,2.05c.44,2.41,3.8,6.9,3.8,6.9l2.97,8.88s-.02,.09-.03,.14c-.15,.9,.46,1.76,1.36,1.91,.9,.15,1.76-.46,1.91-1.36,.09-.54-.09-1.08-.48-1.46h0Z"/>
      <path class="cls-13" d="M227.71,38.85l3.55-2.88v-.02c.67-1.51-.8-4.09-2.16-5.99-.93-1.3-2.7-1.66-4.06-.82h0c-.98,.61-1.53,1.73-1.42,2.89l.3,2.88,3.79,3.95Z"/>
      <polygon class="cls-6" points="215.16 96.01 212.79 96.01 211.67 86.89 215.16 86.89 215.16 96.01"/>
      <path class="cls-14" d="M215.76,95.24h-.67s-2.6-1.06-2.6-1.06l-1.39,1.06h0c-1.64,0-2.97,1.33-2.97,2.97v.1h7.62s0-3.06,0-3.06Z"/>
      <polygon class="cls-6" points="225.65 96.01 223.28 96.01 222.16 86.89 225.65 86.89 225.65 96.01"/>
      <path class="cls-14" d="M226.25,95.24h-.67s-2.6-1.06-2.6-1.06l-1.39,1.06h0c-1.64,0-2.97,1.33-2.97,2.97v.1h7.62s0-3.06,0-3.06Z"/>
      <path class="cls-14" d="M229.25,56.73s.28,3.31-.41,6.49-.69,12.12-.69,12.12l-1.52,17.42-4.56-.41-1.24-29.13-4.42,9.8,.41,1.38-.55,.35s.41,2.69,.14,2.69-.97,.41-.97,.41l.55,14.22-4.69-.14-1.66-20.02,1.79-11.46,.14-2.21,.62,.03,.32-.92,.58-1.59,16.15,.97Z"/>
      <path class="cls-13" d="M229.49,57.43l.02-.03c1.31-1.84-.66-6.26-.96-6.9l1.26-.41-.28-2.4-.13-1.07,.96-.96v-.02s.55-4.83,.55-4.83l.8-3.21c.62-2.47-.15-5.08-2-6.83l-1.86-1.75-2.26-3.34h-3.64l-1.25,2.36c-2.49,.58-4.22,2.85-4.1,5.41l.28,6.18-1.11,7.69v1.39s-1.25,1.38-1.25,1.38l.27,1.36-.95,.41-.42,1.95c-.17,.23-1.32,1.75-1.32,2.17,0,.06,.05,.12,.15,.19,.78,.53,5.08,1.6,6.99,.84,2.03-.81,10.1,.41,10.18,.42h.04Z"/>
      <circle class="cls-6" cx="223.31" cy="19.78" r="4.82"/>
      <path class="cls-14" d="M222.85,24.67c.75,0,1.49-.08,2.22-.21,.73-.17,2.33-1.41,2.77-2.14h0c.32-.54,.52-1.39,.63-2,.29-1.63-.13-3.31-1.14-4.62-.19-.27-.46-.48-.76-.62-.03,0-.05-.02-.08-.03-.44-.1-.84-.34-1.15-.67-.06-.07-.12-.13-.19-.19-.35-.28-.75-.47-1.19-.56-.7-.17-1.71,.04-2.98,.63-.64,.29-1.36,.21-1.9,.11-.06-.01-.13,.01-.17,.06-.23,.22-.53,.35-.85,.36-.2,.01-.39,.29-.63,.65-.05,.08-.12,.18-.16,.23v-.11s-.12,.12-.12,.12c-.55,.64-.48,1.61,.16,2.16,.17,.15,.38,.26,.59,.32,.2,.05,.4,.07,.6,.08,.12,0,.25,.02,.37,.03,.8,.14,1.47,.69,1.75,1.45,.12,.31,.47,.47,.78,.34,.05-.02,.1-.04,.14-.08,.25-.21,.59-.28,.9-.19,.13,.07,.24,.18,.3,.32,.07,.16,.19,.29,.34,.37,.5,.24,.56,1.37,.41,2.32-.15,.91-.47,1.58-.78,1.62-.24,.03-.27,.05-.28,.09v.04s.01,.04,.01,.04c.13,.04,.28,.06,.42,.04Z"/>
      <circle class="cls-9" cx="171.92" cy="39.92" r="9.58"/>
      <path class="cls-6" d="M221.74,38.5l-3.16-2.02c-2.01,1.39-4.73,6.29-4.73,6.29l-6.88,6.36c-.9,.15-1.51,1.01-1.35,1.91,.15,.9,1.01,1.51,1.91,1.35,.58-.1,1.07-.51,1.27-1.06l9.59-6.68,3.35-6.15Z"/>
      <path class="cls-13" d="M221.44,39.32l2.1-5.05-.76-2.79c-.31-1.12-1.22-1.96-2.36-2.18h0c-1.57-.29-3.1,.69-3.49,2.23-.58,2.26-1.02,5.2,.15,6.37h.01s4.36,1.42,4.36,1.42Z"/>
      <path class="cls-1" d="M100.91,95.51c-4.12-2.11-7.11-6.2-6.48-10.57,3.66,3.16,8.71,5.01,13.98,5.14,2.05,.05,4.36-.09,5.82,1.11,.91,.75,1.29,1.9,1.31,3.03,.02,1.14-.29,2.28-.6,3.4l.07,.27c-4.92,.16-9.97-.28-14.09-2.4Z"/>
      <path class="cls-3" d="M94.53,84.94c1.52,3.21,4.24,5.93,7.67,7.58,.75,.38,1.56,.65,2.39,.78,.85,.12,1.71,.03,2.52-.25,.77-.25,1.52-.58,2.33-.66,.8-.09,1.6,.16,2.21,.67,.72,.6,1.14,1.41,1.52,2.22,.42,.9,.83,1.84,1.69,2.47,.1,.08-.05,.22-.15,.15-1.48-1.1-1.64-3-2.81-4.31-.54-.61-1.31-1.07-2.25-1.03-.82,.03-1.6,.37-2.38,.63-.79,.28-1.63,.39-2.46,.32-.84-.1-1.66-.34-2.42-.7-1.66-.75-3.19-1.77-4.53-3.02-1.48-1.36-2.68-2.99-3.54-4.8-.05-.11,.16-.17,.21-.06h0Z"/>
      <path class="cls-3" d="M101.05,92.03c-.9,1.03-2.49,1.38-3.71,.82-.12-.06-.02-.23,.11-.18,1.2,.51,2.58,.2,3.45-.77,.09-.1,.24,.02,.16,.12Z"/>
      <path class="cls-3" d="M106.73,93.22c-.12-1.25-.78-2.39-1.8-3.13-.1-.08,.05-.22,.15-.15,1.06,.77,1.74,1.96,1.86,3.26,.01,.12-.21,.14-.22,.02Z"/>
      <path class="cls-3" d="M96.64,88.32c.42-.3,.65-.8,.62-1.31-.01-.12,.2-.14,.22-.02,.04,.57-.22,1.12-.68,1.45-.04,.04-.11,.04-.15,.01-.04-.03-.04-.09-.01-.12,0,0,0,0,.01-.01h0Z"/>
      <path class="cls-1" d="M108.51,76.12c.01,.08,.02,.15,.03,.23,.15,1.02,.39,2.02,.72,3,.02,.08,.05,.15,.08,.23,.85,2.36,2.18,4.52,3.91,6.34,.71,.74,1.47,1.42,2.29,2.04,1.14,.86,2.46,1.71,3.16,2.84,.07,.12,.14,.24,.2,.37l-3.54,6.62s-.03,.02-.05,.04l-.13,.27s-.09-.06-.14-.09c-.03-.02-.05-.04-.08-.05-.02-.01-.03-.02-.05-.03,0,0-.01,0-.02-.01-.02,0-.03-.02-.05-.03-.26-.17-.52-.35-.77-.53t0,0c-1.95-1.37-3.78-2.9-5.26-4.65-.04-.05-.09-.11-.13-.16-.66-.79-1.25-1.63-1.75-2.52-.27-.49-.52-.99-.73-1.5-.55-1.33-.86-2.74-.9-4.18-.1-2.87,.85-5.81,3.04-8.04,.06-.06,.11-.11,.17-.17Z"/>
      <path class="cls-3" d="M108.6,76.17c-1.04,3.52-.84,7.27,.63,10.51,.3,.72,.73,1.38,1.27,1.94,.57,.56,1.29,.95,2.07,1.14,.75,.2,1.54,.33,2.2,.69,.66,.36,1.11,1.01,1.21,1.75,.14,.89-.1,1.8-.37,2.69-.3,.98-.62,2-.41,2.99,.03,.12-.19,.16-.21,.04-.37-1.72,.8-3.41,.81-5.14,0-.81-.26-1.6-1-2.07-.64-.41-1.46-.54-2.22-.74-.77-.17-1.48-.53-2.07-1.05-.57-.54-1.02-1.18-1.35-1.89-.75-1.56-1.21-3.25-1.36-4.97-.18-2,.02-4.02,.6-5.95,.04-.12,.24-.06,.2,.06h0Z"/>
      <path class="cls-3" d="M108.68,85.65c-1.38,.38-2.81-.17-3.35-1.3-.05-.11,.15-.2,.2-.09,.5,1.05,1.83,1.56,3.12,1.2,.14-.04,.17,.15,.03,.19h0Z"/>
      <path class="cls-3" d="M112.16,89.7c.74-1.04,1.02-2.35,.78-3.6-.03-.12,.19-.16,.21-.04,.25,1.31-.04,2.66-.82,3.75-.08,.11-.25,0-.17-.1h0Z"/>
      <path class="cls-3" d="M107.89,80.15c.55-.04,1.04-.33,1.36-.78,.07-.11,.25,0,.17,.1-.35,.49-.9,.81-1.5,.86-.06,0-.11-.02-.12-.07,0-.06,.03-.11,.09-.12Z"/>
      <polygon class="cls-5" points="120.97 42.96 121.28 45.84 121.1 49.61 129.46 48.62 130.24 42.96 129.24 42.97 120.97 42.96"/>
      <polygon class="cls-5" points="116.64 95.2 118.47 95.2 119.34 88.16 116.64 88.16 116.64 95.2"/>
      <path class="cls-14" d="M116.04,93.95l2.92-.17v1.25l2.78,1.92c.36,.25,.44,.73,.2,1.09-.15,.21-.39,.34-.64,.34h-3.48l-.6-1.24-.23,1.24h-1.31l.37-4.42Z"/>
      <polygon class="cls-5" points="126.9 95.2 128.73 95.2 129.6 88.16 126.9 88.16 126.9 95.2"/>
      <path class="cls-14" d="M126.31,93.95l2.92-.17v1.25l2.78,1.92c.36,.25,.44,.73,.2,1.09-.15,.21-.39,.34-.64,.34h-3.48l-.6-1.24-.23,1.24h-1.31l.37-4.42Z"/>
      <path class="cls-14" d="M115.85,89.13h.02l.35-11.46c-.46-.89-.45-1.95,.04-2.83l.05-.09-.13-.6c-.17-.78-.09-1.59,.22-2.32l.33-10.69c-1.17-7.59,4.41-12.54,4.41-12.54h8.36l1.8,6.17c1.19,11.56,.97,22.83-.91,33.75l.05,.03c.18,.06,.26,.32,.18,.57s-.31,.4-.49,.34l-4.42-.15c-.18-.06-.26-.32-.18-.57,.09-.25,.31-.4,.49-.34l.3,.15-.64-11.06,.07-2.02-.15-2.29-.68-10.31-2.56,12.68-2.62,13.73c.2,.18,.21,.48,.03,.68-.09,.1-.22,.16-.36,.16h-3.57c-.27,0-.48-.22-.48-.48s.22-.48,.48-.48h0Z"/>
      <circle class="cls-5" cx="122.43" cy="23.75" r="4.49"/>
      <path class="cls-14" d="M102.78,44.47c.63-1.46,1.5-2.81,2.56-4-.9,1.44-1.42,3.09-1.5,4.78,.33,.2,.67,.38,1.02,.54,1.06,.45,2.2,.7,3.35,.75,.62-2.07,1.69-3.98,3.14-5.59-1.04,1.66-1.57,3.6-1.51,5.56,1.29-.11,2.55-.38,3.77-.81,1.83-.63,3.61-1.57,4.87-3.03,1.37-1.58,2.05-3.67,2.26-5.75,.22-2.08,.01-4.18-.19-6.26-.1-.99,.73-2.13,.63-3.13h-.07c-.43-.6-.88-1.21-1.09-1.91-.21-.7-.16-1.54,.33-2.09,.27-.29,.62-.5,1-.62,.04-.05,.07-.09,.12-.13,.74-.78,1.6-1.43,2.56-1.92-.69,.52-1.15,1.11-1.37,1.72,.6-.13,1.2-.26,1.8-.39,.2-.21,.41-.41,.63-.61,.32-.28,.43-.3,.81-.56-.31,.27-.55,.61-.7,1,.77-.19,1.54-.48,1.94-1.15,.66-1.09-.13-2.57-1.23-3.23-1.64-.93-3.7-.7-5.1,.56-1.59-1.17-3.86-1.15-5.63-.28-1.17,.6-2.18,1.48-2.94,2.56,.44-.06,.89-.09,1.33-.09-.63,.09-1.22,.33-1.74,.69-.23,.36-.44,.73-.63,1.1-.13,.25-.24,.5-.35,.76-.68,1.55-1.13,3.21-1.59,4.84-.54,1.9-1.11,3.82-2.12,5.52-1.54,2.59-3.97,4.53-6.84,5.46-.24,2.15,.81,4.26,2.46,5.7Z"/>
      <path class="cls-9" d="M126.95,31.23l-.87-.33-1.1-1.77-3.91,.32-.95,1.9-2.29,1.75,1,5.27,1.56,6.41,10.41-1.3v-4.82s1.87-3.81-1.17-5.24l-2.68-2.19Z"/>
      <path class="cls-5" d="M143,47.96c-.76,.31-1.63-.06-1.94-.83-.03-.08-.06-.17-.08-.25l-11.61-7.03,2.12-2.45,10.75,7.68c.82-.11,1.58,.46,1.69,1.28,.1,.69-.29,1.35-.93,1.6h0Z"/>
      <path class="cls-9" d="M125.51,36.52s-.55,.56,.84,1.48c1.11,.73,6.09,4.37,7.85,4.94-.05,.53,.28,1.03,.78,1.2l1.6-3.51c-.35-.8-.9-.62-1.19-.43l-1.93-1.45-4.73-4.73-2.82,2.08-.39,.41Z"/>
      <path class="cls-7" d="M120.87,18.33c-1.09,1.61-1.37,3.64-.75,5.49"/>
      <path id="a4a87c0b-578c-404f-b0e7-3c25016717c2-279" class="cls-2" d="M114.66,56.32c-.23,.08-.34,.33-.27,.55l6.05,17.45c.08,.23,.33,.34,.55,.27l35.22-12.36c.23-.08,.34-.33,.27-.55l-6.05-17.45c-.08-.23-.33-.34-.55-.27l-35.22,12.36Z"/>
      <path class="cls-3" d="M123.58,72.07c-1.42,0-2.69-.9-3.16-2.23l-3.32-9.4c-.62-1.74,.3-3.66,2.04-4.27l17.8-6.29c6.94-2.44,14.54,1.19,17,8.12,.62,1.74-.3,3.66-2.04,4.27l-.03-.07,.03,.07-27.21,9.62c-.36,.13-.73,.19-1.11,.19Z"/>
      <path id="e6660b72-17a8-4076-a000-8bf222be7673-280" class="cls-2" d="M147.18,53.53l-15.94,5.59c-.22,.08-.5-.13-.62-.47s-.03-.68,.19-.76l15.94-5.59c.22-.08,.5,.13,.62,.47s.03,.68-.19,.76Z"/>
      <path id="f689c0b7-f689-4c10-b0b9-25ad5f15d9dd-281" class="cls-2" d="M148.42,57.04l-15.94,5.59c-.22,.08-.5-.13-.62-.47s-.03-.68,.19-.76l15.94-5.59c.22-.08,.5,.13,.62,.47s.03,.68-.19,.76Z"/>
      <path class="cls-8" d="M129.09,61.03c.17,.48,.25,.99,.25,1.5,0,.23-.03,.47-.07,.7-.43,2.33-2.66,3.88-5,3.45-.75-.14-1.45-.47-2.03-.97-.06-.05-.11-.1-.17-.15-1.71-1.64-1.77-4.36-.13-6.07,1.64-1.71,4.36-1.77,6.07-.13,.48,.46,.85,1.04,1.08,1.67Z"/>
      <circle class="cls-7" cx="125.22" cy="62.3" r=".82"/>
      <path class="cls-13" d="M122.07,65.56c.21-.49,.46-1.24,1.04-.96,.29,.12,.8,.5,1,.06l1.62-3.4c.13-.26,.44-.37,.71-.24,0,0,0,0,.01,0l2.89,1.51c0,.23-.03,.47-.07,.7l-7.03,2.48-.17-.15Z"/>
      <path class="cls-5" d="M122.91,55.53c-.77-.3-1.15-1.16-.85-1.93,.03-.08,.07-.16,.12-.24l-3.67-13.06,3.22-.34,2.6,12.95c.68,.48,.84,1.41,.36,2.09-.4,.57-1.13,.79-1.78,.53h0Z"/>
      <path class="cls-9" d="M117.96,33.13s-.79,.03-.4,1.65c.31,1.3,1.45,9.44,2.35,11.07-.4,.36-.5,.94-.25,1.41l3.56-1.47c.3-.82,.07-1.57-.27-1.63l-.42-2.38-.61-7.97-3.39-.71-.57,.03Z"/>
      <path class="cls-9" d="M150.04,67.51l-4.93,.2c-.21,0-.42-.08-.56-.24-.14-.16-.2-.37-.16-.57,.38-2.06,.27-4.18-.32-6.19-.09-.32,.05-.66,.34-.81,2.02-1.05,3.91-1.1,5.62-.16,.18,.1,.31,.27,.35,.47,.45,2.19,.55,4.44,.32,6.67-.03,.35-.32,.61-.67,.63Z"/>
      <path class="cls-3" d="M149.83,64.28l-3.77,.16c-.2,0-.36-.14-.37-.34s.14-.36,.34-.37c0,0,0,0,0,0l3.77-.16c.2,0,.36,.14,.37,.34,0,.2-.14,.36-.34,.37,0,0,0,0,0,0h0Z"/>
      <path class="cls-3" d="M149.78,63.04l-3.77,.16c-.2,0-.36-.14-.37-.34,0-.19,.14-.36,.34-.37l3.77-.16c.2,0,.36,.14,.37,.34,0,.19-.14,.36-.34,.37Z"/>
      <path class="cls-9" d="M238.12,28.98l-4.89-.64c-.21-.03-.4-.15-.51-.33-.11-.18-.13-.4-.06-.59,.72-1.97,.98-4.07,.74-6.16-.04-.33,.16-.64,.48-.74,2.17-.69,4.04-.42,5.56,.8,.16,.13,.26,.32,.27,.53,.06,2.24-.22,4.47-.83,6.63-.09,.34-.42,.55-.76,.51Z"/>
      <path class="cls-3" d="M238.47,25.76l-3.74-.49c-.19-.03-.33-.2-.3-.4,.03-.19,.2-.33,.4-.3h0l3.74,.49c.19,.03,.33,.2,.3,.4-.03,.19-.2,.33-.4,.3h0Z"/>
      <path class="cls-3" d="M238.63,24.53l-3.74-.49c-.19-.02-.33-.2-.31-.4,.02-.19,.2-.33,.4-.31,0,0,0,0,0,0l3.74,.49c.19,.02,.33,.2,.31,.4-.02,.19-.2,.33-.4,.31,0,0,0,0,0,0Z"/>
      <path class="cls-3" d="M175.02,38.45h-1.63v-1.63c0-.81-.66-1.47-1.47-1.47s-1.47,.66-1.47,1.47v1.63h-1.63c-.81,0-1.47,.66-1.47,1.47s.66,1.47,1.47,1.47h1.63v1.63c0,.81,.66,1.47,1.47,1.47s1.47-.66,1.47-1.47v-1.63h1.63c.81,0,1.47-.66,1.47-1.47s-.66-1.47-1.47-1.47Z"/>
    </g>
    <g id="guy_holding_chat" data-name="guy holding chat">
      <path class="cls-1" d="M295.29,95.37c3.42,3.75,6.84,3.02,9.59,.52,2.75-2.51,3.78-5.85,.36-9.6s-12.75-3.98-12.75-3.98c0,0-.3,4.49,.66,8.49l4.71,1.43-4.31-.02c.41,1.22,.97,2.33,1.73,3.17Z"/>
      <path class="cls-3" d="M296.55,89.3c-.05-.07-.1-.13-.15-.2-.16-.22-.32-.44-.48-.67-.64-.9-1.22-1.79-1.72-2.6-.04-.07-.09-.14-.13-.21-.93-1.52-1.58-2.74-1.81-3.19-.06-.12-.09-.19-.1-.19l.11-.06h0s.11-.05,.11-.05c0,0,.01,.02,.03,.06,.15,.29,.82,1.59,1.86,3.29,.04,.07,.09,.14,.13,.21,.62,1,1.36,2.12,2.19,3.25,.05,.07,.1,.13,.15,.2,.63,.85,1.32,1.7,2.04,2.49,.05,.06,.11,.12,.17,.18,1.72,1.86,3.64,3.41,5.59,3.97l-.03,.12-.04,.12s-.05-.01-.08-.02c-1.79-.53-3.68-1.88-5.65-4.01l-.17-.18c-.67-.74-1.35-1.57-2.03-2.49Z"/>
      <path class="cls-3" d="M292.31,86.47c0,.08,.01,.17,.02,.25,.66-.2,1.29-.5,1.86-.89,.07-.05,.14-.1,.21-.15,.2-.15,.39-.31,.58-.47,.78-.71,1.38-1.58,1.77-2.56-.08-.01-.17-.03-.25-.04-.37,.92-.95,1.75-1.68,2.42-.17,.16-.35,.31-.54,.44-.07,.05-.14,.1-.21,.15-.54,.37-1.13,.65-1.75,.85Z"/>
      <path class="cls-3" d="M292.91,90.58c.02,.08,.04,.16,.06,.24,1.31-.15,2.56-.68,3.58-1.52,.07-.05,.13-.11,.2-.17,.03-.02,.05-.05,.08-.07,1.65-1.5,2.47-3.71,2.21-5.93-.09-.02-.17-.04-.26-.06,.29,2.17-.51,4.34-2.12,5.81-.02,.02-.04,.04-.06,.05-.06,.06-.13,.11-.19,.17-.99,.82-2.21,1.34-3.49,1.48Z"/>
      <path class="cls-3" d="M293.75,93.15c.04,.09,.08,.17,.12,.26,1.75,.16,3.49-.35,4.88-1.43,.07-.05,.14-.11,.2-.17,.07-.06,.14-.12,.21-.18,2.21-2.02,2.88-5.23,1.65-7.96-.11-.04-.21-.07-.32-.11,1.31,2.67,.7,5.88-1.5,7.89-.07,.06-.14,.12-.21,.18-.07,.06-.13,.11-.2,.16-1.37,1.06-3.11,1.55-4.83,1.36Z"/>
      <polygon class="cls-5" points="307.87 86.03 304.21 86.03 305.39 95.58 307.87 95.58 307.87 86.03"/>
      <path class="cls-14" d="M308.5,97.98h-7.99v-.1c0-1.72,1.39-3.11,3.11-3.11h4.88s0,3.21,0,3.21Z"/>
      <polygon class="cls-5" points="327.47 86.03 323.81 86.03 324.99 95.58 327.46 95.58 327.47 86.03"/>
      <path class="cls-14" d="M328.1,97.98h-7.99v-.1c0-1.72,1.39-3.11,3.11-3.11h4.88s0,3.21,0,3.21Z"/>
      <polygon class="cls-14" points="306.64 58.93 303.6 91.74 308.18 91.62 314.97 66.48 324.25 91.74 328.08 91.22 326.81 76.44 324.93 57.88 323.26 56.34 306.64 58.93"/>
      <circle class="cls-4" cx="315.2" cy="24.14" r="4.75"/>
      <path class="cls-14" d="M318.76,25.86c.57-.74,.62,.66,.62,.66,0,0,3.35-7.77-3.46-8.27-6.8-.49-6.24,4.42-6.24,4.42h1.98s.57-.74,.57-.74l.57,1.23s.57-.98,.85-.25,1.42-.49,1.42-.49c0,.74,.85,.25,.85,.25,2.27,.49,1.7-.74,1.7-.74,0,0,.57,4.66,1.13,3.93Z"/>
      <path class="cls-13" d="M305.91,33.88l2.94,11.32s.06,6.09-.73,6.83-.82,4.51-.82,4.51l-.94,2.47c9.87,4.18,18.57-1.13,18.57-1.13l-1.58-10.87,.91-15.4-5.97-1.58-6.7,.42-5.66,3.43Z"/>
      <path class="cls-13" d="M321.92,41.69l8.21-.3s-.81-4.04-2.1-6.87-3.78-2.91-3.78-2.91l-1.6,.49-.73,9.59Z"/>
      <path class="cls-4" d="M303.94,62.03c.91,.74,2.24,.61,2.99-.29,.74-.91,.61-2.24-.29-2.99l.78-15.81-3.55-.53-.27,16.69c-.7,.91-.55,2.21,.33,2.94Z"/>
      <path class="cls-13" d="M310.44,40.42l-3.03,4.35-5.35-1.3c.01-6.6,3.85-9.6,3.85-9.6l2,1.45,2.53,5.09Z"/>
      <path class="cls-2" d="M321.08,38.56h-32.74c-1.68,0-3.05,1.36-3.05,3.05h0v12.68c0,1.68,1.36,3.05,3.05,3.05h.77v2.29c0,.39,.31,.7,.7,.7,.19,0,.37-.07,.5-.21l2.79-2.79h27.97c1.68,0,3.05-1.36,3.05-3.05h0v-12.68c0-1.68-1.36-3.05-3.05-3.05h0Z"/>
      <path class="cls-3" d="M308.39,55.76h-20.05c-.81,0-1.47-.66-1.47-1.47v-12.68c0-.81,.66-1.47,1.47-1.47h32.74c.81,0,1.47,.66,1.47,1.47,0,7.81-6.34,14.14-14.15,14.15Z"/>
      <rect class="cls-10" x="290.63" y="42.88" width="16.26" height="1.99" rx="1" ry="1"/>
      <path class="cls-2" d="M291.67,46.87h18.96c.56,0,1.01,.45,1.01,1h0c0,.55-.45,1-1.01,1h-18.96c-.56,0-1.01-.45-1.01-1h0c0-.55,.45-1,1.01-1Z"/>
      <path class="cls-2" d="M291.67,50.86h18.96c.56,0,1.01,.45,1.01,1h0c0,.55-.45,1-1.01,1h-18.96c-.56,0-1.01-.45-1.01-1h0c0-.55,.45-1,1.01-1Z"/>
      <path class="cls-4" d="M318.11,40.46l7.33,7.03c.44,.42,1.05,.62,1.66,.54,1.1-.14,1.88-1.16,1.74-2.26l-.62-4.48-4.24,.2,.28,.65-3.72-3.72s0-.04,0-.06c0-1.17-.95-2.12-2.12-2.12s-2.12,.95-2.12,2.12c0,1.05,.77,1.94,1.81,2.1Z"/>
    </g>
  </g>
</svg>