<?xml version="1.0" encoding="UTF-8"?>
<svg id="projects_page_helper_image" data-name="projects page helper image" xmlns="http://www.w3.org/2000/svg" viewBox="0 0 150 100">
  <defs>
    <style>
      .cls-1 {
        fill: #f2f2f2;
      }

      .cls-2 {
        fill: #e6e6e6;
      }

      .cls-3 {
        fill: #fff;
      }

      .cls-4 {
        fill: #ffb6b6;
      }

      .cls-5 {
        fill: #ffb8b8;
      }

      .cls-6 {
        fill: #fd6584;
      }

      .cls-7 {
        fill: #e4e4e4;
      }

      .cls-8 {
        fill: #ff6363;
      }

      .cls-9 {
        fill: #3f3d56;
      }

      .cls-10 {
        fill: #2f2e41;
      }
    </style>
  </defs>
  <g id="_150_wide_100_high" data-name="150 wide 100 high">
    <path id="ground" class="cls-9" d="M147.67,98.24H2.33c-.3,0-.55-.11-.55-.24s.24-.24,.55-.24H147.67c.3,0,.55,.11,.55,.24s-.24,.24-.55,.24Z"/>
    <g id="people">
      <g id="people_holding_project_cards" data-name="people holding project cards">
        <path class="cls-2" d="M88.04,4.22c11.04-5.91,25.05-2.81,32.48,7.66l-.25,.18c-7.34-10.34-21.18-13.4-32.08-7.57-.93,.5-1.82,1.05-2.68,1.66-11.21,7.95-13.86,23.54-5.91,34.76l-.25,.18c-8.05-11.35-5.37-27.14,5.99-35.19,.87-.62,1.77-1.18,2.71-1.68Z"/>
        <path class="cls-2" d="M144.52,29.47l-36.31-2.82c-1.17-.09-2.05-1.12-1.96-2.29l1.57-17.64c.09-1.17,1.12-2.05,2.29-1.96l36.31,2.82c1.17,.09,2.05,1.12,1.96,2.29l-1.57,17.64c-.09,1.17-1.12,2.05-2.29,1.96Z"/>
        <path class="cls-3" d="M135.94,25.49c-.28,0-.55-.01-.83-.03l-23.47-1.83c-1.97-.15-3.45-1.88-3.29-3.85,0,0,0,0,0,0l.54-6.88c.16-1.97,1.88-3.45,3.85-3.3l30.34,2.36c1.97,.16,3.45,1.88,3.29,3.85-.42,5.45-4.97,9.66-10.43,9.67h0Z"/>
        <path class="cls-2" d="M142.36,17.43l-29.75-2.31c-.26-.02-.46-.25-.44-.51,.02-.26,.25-.46,.51-.44l29.75,2.31c.26,.02,.46,.25,.44,.51-.02,.26-.25,.46-.51,.44h0Z"/>
        <path class="cls-2" d="M130,18.35l-17.54-1.36c-.26-.02-.46-.25-.43-.51,.02-.26,.25-.45,.51-.43l17.54,1.36c.26,.02,.46,.25,.44,.51-.02,.26-.25,.46-.51,.44,0,0,0,0,0,0h0Z"/>
        <path class="cls-2" d="M133.87,20.52l-21.55-1.68c-.26-.02-.46-.25-.44-.51,.02-.26,.25-.46,.51-.44,0,0,0,0,0,0l21.55,1.68c.26,.02,.46,.25,.44,.51s-.25,.46-.51,.44h0Z"/>
        <path class="cls-2" d="M142.09,53.42l-36.31-2.82c-1.17-.09-2.05-1.12-1.96-2.29l1.57-17.64c.09-1.17,1.12-2.05,2.29-1.96l36.31,2.82c1.17,.09,2.05,1.12,1.96,2.29l-1.57,17.64c-.09,1.17-1.12,2.05-2.29,1.96Z"/>
        <path class="cls-3" d="M133.5,49.43c-.27,0-.55-.01-.82-.03l-23.47-1.83c-1.97-.15-3.45-1.88-3.29-3.85,0,0,0,0,0,0l.54-6.88c.15-1.97,1.88-3.45,3.85-3.3,0,0,0,0,0,0l30.34,2.36c1.97,.15,3.45,1.88,3.29,3.85h0c-.43,5.45-4.98,9.66-10.44,9.67Z"/>
        <path class="cls-2" d="M139.93,41.38l-29.75-2.31c-.26-.02-.46-.25-.44-.51,.02-.26,.25-.46,.51-.44h0l29.75,2.31c.26,.02,.46,.25,.44,.51s-.25,.46-.51,.44Z"/>
        <path class="cls-2" d="M127.58,42.3l-17.54-1.36c-.26-.02-.46-.25-.44-.51s.25-.46,.51-.44l17.54,1.36c.26,.02,.46,.25,.44,.51s-.25,.46-.51,.44Z"/>
        <path class="cls-2" d="M131.44,44.47l-21.55-1.68c-.26-.02-.46-.25-.44-.51s.25-.46,.51-.44h0l21.55,1.68c.26,.02,.46,.25,.44,.51s-.25,.46-.51,.44Z"/>
        <path class="cls-2" d="M55.73,44.2c-1.94-4.39,.05-9.52,4.44-11.46s9.52,.05,11.46,4.44h0l-.28,.13c-1.87-4.24-6.82-6.16-11.05-4.29-4.24,1.87-6.16,6.82-4.29,11.05,0,0,0,0,0,0l-.28,.13Z"/>
        <path class="cls-1" d="M139.66,95.97c3.55-1.68,6.19-5.07,5.78-8.79-3.18,2.58-7.52,4.02-12,3.98-1.74-.01-3.7-.19-4.96,.79-.79,.61-1.14,1.58-1.19,2.54-.04,.96,.19,1.94,.42,2.9l-.07,.23c4.17,.27,8.47,.03,12.02-1.65Z"/>
        <path class="cls-3" d="M145.36,87.17c-1.37,2.68-3.75,4.91-6.71,6.22-.65,.3-1.34,.51-2.05,.6-.72,.08-1.45-.02-2.13-.28-.64-.23-1.28-.53-1.96-.62-.67-.09-1.36,.09-1.89,.51-.63,.49-1.01,1.17-1.35,1.84-.38,.75-.76,1.54-1.5,2.05-.09,.06,.04,.19,.12,.13,1.29-.89,1.47-2.5,2.5-3.58,.49-.55,1.2-.85,1.94-.81,.7,.05,1.35,.36,2,.6,.66,.26,1.37,.38,2.08,.34,.71-.06,1.41-.24,2.07-.53,1.43-.6,2.75-1.42,3.92-2.44,1.29-1.11,2.35-2.46,3.13-3.98,.05-.09-.13-.15-.18-.06h0Z"/>
        <path class="cls-3" d="M139.64,93.01c.77,.9,2.02,1.22,3.12,.79,.1-.04,.02-.19-.08-.15-1.03,.4-2.2,.1-2.91-.74-.07-.09-.21,.01-.13,.1h0Z"/>
        <path class="cls-3" d="M134.78,93.87c.14-1.06,.72-2.01,1.61-2.61,.09-.06-.04-.19-.12-.13-.92,.63-1.52,1.61-1.67,2.72-.01,.1,.17,.12,.18,.02h0Z"/>
        <path class="cls-3" d="M143.48,89.98c-.35-.27-.53-.69-.49-1.13,.01-.1-.17-.12-.18-.02-.05,.48,.16,.95,.54,1.25,.03,.03,.09,.04,.13,.01,.03-.03,.04-.07,.01-.11,0,0,0,0,0,0h0Z"/>
        <path class="cls-1" d="M133.73,79.32c-.01,.06-.02,.13-.03,.19-.15,.86-.38,1.71-.69,2.52-.02,.06-.05,.13-.07,.19-.78,1.98-1.97,3.78-3.49,5.27-.62,.61-1.29,1.17-2,1.67-.99,.7-2.13,1.38-2.76,2.33-.07,.1-.13,.2-.18,.3l2.82,5.71s.03,.02,.04,.03l.1,.23s.08-.05,.12-.07c.02-.01,.05-.03,.07-.04,.02,0,.03-.02,.04-.03,0,0,0,0,.01,0,.01,0,.03-.02,.04-.02,.22-.14,.45-.28,.67-.43t0,0c1.69-1.11,3.28-2.36,4.59-3.8,.04-.04,.08-.09,.12-.13,.58-.65,1.1-1.35,1.55-2.09,.24-.4,.46-.82,.66-1.25,.5-1.11,.8-2.3,.88-3.52,.16-2.44-.56-4.95-2.36-6.9-.05-.05-.09-.1-.14-.15Z"/>
        <path class="cls-3" d="M133.66,79.36c.79,3.01,.51,6.19-.82,8.89-.28,.6-.66,1.15-1.13,1.61-.5,.46-1.12,.77-1.78,.91-.64,.15-1.32,.24-1.89,.53-.57,.29-.97,.83-1.07,1.45-.14,.76,.04,1.53,.24,2.29,.23,.84,.47,1.71,.27,2.55-.03,.1,.16,.14,.18,.04,.36-1.45-.59-2.92-.55-4.38,.02-.68,.27-1.35,.9-1.73,.56-.33,1.25-.42,1.9-.57,.65-.13,1.27-.41,1.79-.83,.49-.44,.9-.97,1.19-1.56,.68-1.31,1.11-2.72,1.28-4.18,.21-1.69,.09-3.41-.35-5.06-.03-.1-.2-.06-.17,.04h0Z"/>
        <path class="cls-3" d="M133.33,87.4c1.16,.36,2.39-.07,2.88-1.01,.05-.09-.12-.18-.17-.08-.46,.88-1.59,1.28-2.68,.94-.11-.04-.15,.12-.03,.16h0Z"/>
        <path class="cls-3" d="M130.27,90.74c-.6-.91-.8-2.02-.56-3.08,.02-.1-.16-.14-.18-.04-.25,1.1-.04,2.26,.59,3.2,.06,.09,.21,.01,.15-.08Z"/>
        <path class="cls-3" d="M134.15,82.75c-.46-.05-.88-.31-1.13-.7-.06-.1-.21-.01-.15,.08,.28,.43,.74,.71,1.25,.77,.05,0,.1-.01,.11-.06,0-.05-.03-.09-.07-.1Z"/>
        <path class="cls-5" d="M139.9,52.17l-2.16-11.49-4.24-5.57-3.14,2.05c.44,2.41,3.8,6.9,3.8,6.9l2.97,8.88s-.02,.09-.03,.14c-.15,.9,.46,1.76,1.36,1.91,.9,.15,1.76-.46,1.91-1.36,.09-.54-.09-1.08-.48-1.46h0Z"/>
        <path class="cls-9" d="M130.45,38.38l3.55-2.88v-.02c.67-1.51-.8-4.09-2.16-5.99-.93-1.3-2.7-1.66-4.06-.82h0c-.98,.61-1.53,1.73-1.42,2.89l.3,2.88,3.79,3.95Z"/>
        <polygon class="cls-5" points="117.89 95.53 115.53 95.53 114.4 86.41 117.89 86.41 117.89 95.53"/>
        <path class="cls-10" d="M118.49,94.76h-.67s-2.6-1.06-2.6-1.06l-1.39,1.06h0c-1.64,0-2.97,1.33-2.97,2.97v.1h7.62s0-3.06,0-3.06Z"/>
        <polygon class="cls-5" points="128.38 95.53 126.02 95.53 124.89 86.41 128.38 86.41 128.38 95.53"/>
        <path class="cls-10" d="M128.99,94.76h-.67s-2.6-1.06-2.6-1.06l-1.39,1.06h0c-1.64,0-2.97,1.33-2.97,2.97v.1h7.62s0-3.06,0-3.06Z"/>
        <path class="cls-10" d="M131.99,56.25s.28,3.31-.41,6.49-.69,12.12-.69,12.12l-1.52,17.42-4.56-.41-1.24-29.13-4.42,9.8,.41,1.38-.55,.35s.41,2.69,.14,2.69-.97,.41-.97,.41l.55,14.22-4.69-.14-1.66-20.02,1.79-11.46,.14-2.21,.62,.03,.32-.92,.58-1.59,16.15,.97Z"/>
        <path class="cls-9" d="M132.23,56.95l.02-.03c1.31-1.84-.66-6.26-.96-6.9l1.26-.41-.28-2.4-.13-1.07,.96-.96v-.02s.55-4.83,.55-4.83l.8-3.21c.62-2.47-.15-5.08-2-6.83l-1.86-1.75-2.26-3.34h-3.64l-1.25,2.36c-2.49,.58-4.22,2.85-4.1,5.41l.28,6.18-1.11,7.69v1.39s-1.25,1.38-1.25,1.38l.27,1.36-.95,.41-.42,1.95c-.17,.23-1.32,1.75-1.32,2.17,0,.06,.05,.12,.15,.19,.78,.53,5.08,1.6,6.99,.84,2.03-.81,10.1,.41,10.18,.42h.04Z"/>
        <circle class="cls-5" cx="126.05" cy="19.3" r="4.82"/>
        <path class="cls-10" d="M125.59,24.19c.75,0,1.49-.08,2.22-.21,.73-.17,2.33-1.41,2.77-2.14h0c.32-.54,.52-1.39,.63-2,.29-1.63-.13-3.31-1.14-4.62-.19-.27-.46-.48-.76-.62-.03,0-.05-.02-.08-.03-.44-.1-.84-.34-1.15-.67-.06-.07-.12-.13-.19-.19-.35-.28-.75-.47-1.19-.56-.7-.17-1.71,.04-2.98,.63-.64,.29-1.36,.21-1.9,.11-.06-.01-.13,.01-.17,.06-.23,.22-.53,.35-.85,.36-.2,.01-.39,.29-.63,.65-.05,.08-.12,.18-.16,.23v-.11s-.12,.12-.12,.12c-.55,.64-.48,1.61,.16,2.16,.17,.15,.38,.26,.59,.32,.2,.05,.4,.07,.6,.08,.12,0,.25,.02,.37,.03,.8,.14,1.47,.69,1.75,1.45,.12,.31,.47,.47,.78,.34,.05-.02,.1-.04,.14-.08,.25-.21,.59-.28,.9-.19,.13,.07,.24,.18,.3,.32,.07,.16,.19,.29,.34,.37,.5,.24,.56,1.37,.41,2.32-.15,.91-.47,1.58-.78,1.62-.24,.03-.27,.05-.28,.09v.04s.01,.04,.01,.04c.13,.04,.28,.06,.42,.04Z"/>
        <circle class="cls-8" cx="74.65" cy="39.44" r="9.58"/>
        <path class="cls-5" d="M124.48,38.02l-3.16-2.02c-2.01,1.39-4.73,6.29-4.73,6.29l-6.88,6.36c-.9,.15-1.51,1.01-1.35,1.91,.15,.9,1.01,1.51,1.91,1.35,.58-.1,1.07-.51,1.27-1.06l9.59-6.68,3.35-6.15Z"/>
        <path class="cls-9" d="M124.18,38.84l2.1-5.05-.76-2.79c-.31-1.12-1.22-1.96-2.36-2.18h0c-1.57-.29-3.1,.69-3.49,2.23-.58,2.26-1.02,5.2,.15,6.37h.01s4.36,1.42,4.36,1.42Z"/>
        <path class="cls-1" d="M7.64,95.03c-4.12-2.11-7.11-6.2-6.48-10.57,3.66,3.16,8.71,5.01,13.98,5.14,2.05,.05,4.36-.09,5.82,1.11,.91,.75,1.29,1.9,1.31,3.03,.02,1.14-.29,2.28-.6,3.4l.07,.27c-4.92,.16-9.97-.28-14.09-2.4Z"/>
        <path class="cls-3" d="M1.26,84.46c1.52,3.21,4.24,5.93,7.67,7.58,.75,.38,1.56,.65,2.39,.78,.85,.12,1.71,.03,2.52-.25,.77-.25,1.52-.58,2.33-.66,.8-.09,1.6,.16,2.21,.67,.72,.6,1.14,1.41,1.52,2.22,.42,.9,.83,1.84,1.69,2.47,.1,.08-.05,.22-.15,.15-1.48-1.1-1.64-3-2.81-4.31-.54-.61-1.31-1.07-2.25-1.03-.82,.03-1.6,.37-2.38,.63-.79,.28-1.63,.39-2.46,.32-.84-.1-1.66-.34-2.42-.7-1.66-.75-3.19-1.77-4.53-3.02-1.48-1.36-2.68-2.99-3.54-4.8-.05-.11,.16-.17,.21-.06h0Z"/>
        <path class="cls-3" d="M7.78,91.55c-.9,1.03-2.49,1.38-3.71,.82-.12-.06-.02-.23,.11-.18,1.2,.51,2.58,.2,3.45-.77,.09-.1,.24,.02,.16,.12Z"/>
        <path class="cls-3" d="M13.47,92.74c-.12-1.25-.78-2.39-1.8-3.13-.1-.08,.05-.22,.15-.15,1.06,.77,1.74,1.96,1.86,3.26,.01,.12-.21,.14-.22,.02Z"/>
        <path class="cls-3" d="M3.37,87.84c.42-.3,.65-.8,.62-1.31-.01-.12,.2-.14,.22-.02,.04,.57-.22,1.12-.68,1.45-.04,.04-.11,.04-.15,.01-.04-.03-.04-.09-.01-.12,0,0,0,0,.01-.01h0Z"/>
        <path class="cls-1" d="M15.25,75.64c.01,.08,.02,.15,.03,.23,.15,1.02,.39,2.02,.72,3,.02,.08,.05,.15,.08,.23,.85,2.36,2.18,4.52,3.91,6.34,.71,.74,1.47,1.42,2.29,2.04,1.14,.86,2.46,1.71,3.16,2.84,.07,.12,.14,.24,.2,.37l-3.54,6.62s-.03,.02-.05,.04l-.13,.27s-.09-.06-.14-.09c-.03-.02-.05-.04-.08-.05-.02-.01-.03-.02-.05-.03,0,0-.01,0-.02-.01-.02,0-.03-.02-.05-.03-.26-.17-.52-.35-.77-.53t0,0c-1.95-1.37-3.78-2.9-5.26-4.65-.04-.05-.09-.11-.13-.16-.66-.79-1.25-1.63-1.75-2.52-.27-.49-.52-.99-.73-1.5-.55-1.33-.86-2.74-.9-4.18-.1-2.87,.85-5.81,3.04-8.04,.06-.06,.11-.11,.17-.17Z"/>
        <path class="cls-3" d="M15.33,75.69c-1.04,3.52-.84,7.27,.63,10.51,.3,.72,.73,1.38,1.27,1.94,.57,.56,1.29,.95,2.07,1.14,.75,.2,1.54,.33,2.2,.69,.66,.36,1.11,1.01,1.21,1.75,.14,.89-.1,1.8-.37,2.69-.3,.98-.62,2-.41,2.99,.03,.12-.19,.16-.21,.04-.37-1.72,.8-3.41,.81-5.14,0-.81-.26-1.6-1-2.07-.64-.41-1.46-.54-2.22-.74-.77-.17-1.48-.53-2.07-1.05-.57-.54-1.02-1.18-1.35-1.89-.75-1.56-1.21-3.25-1.36-4.97-.18-2,.02-4.02,.6-5.95,.04-.12,.24-.06,.2,.06h0Z"/>
        <path class="cls-3" d="M15.42,85.17c-1.38,.38-2.81-.17-3.35-1.3-.05-.11,.15-.2,.2-.09,.5,1.05,1.83,1.56,3.12,1.2,.14-.04,.17,.15,.03,.19h0Z"/>
        <path class="cls-3" d="M18.9,89.22c.74-1.04,1.02-2.35,.78-3.6-.03-.12,.19-.16,.21-.04,.25,1.31-.04,2.66-.82,3.75-.08,.11-.25,0-.17-.1h0Z"/>
        <path class="cls-3" d="M14.62,79.67c.55-.04,1.04-.33,1.36-.78,.07-.11,.25,0,.17,.1-.35,.49-.9,.81-1.5,.86-.06,0-.11-.02-.12-.07,0-.06,.03-.11,.09-.12Z"/>
        <polygon class="cls-4" points="27.71 42.48 28.02 45.36 27.84 49.13 36.2 48.14 36.98 42.48 35.98 42.49 27.71 42.48"/>
        <polygon class="cls-4" points="23.37 94.72 25.2 94.72 26.07 87.68 23.37 87.68 23.37 94.72"/>
        <path class="cls-10" d="M22.78,93.47l2.92-.17v1.25l2.78,1.92c.36,.25,.44,.73,.2,1.09-.15,.21-.39,.34-.64,.34h-3.48l-.6-1.24-.23,1.24h-1.31l.37-4.42Z"/>
        <polygon class="cls-4" points="33.64 94.72 35.47 94.72 36.34 87.68 33.64 87.68 33.64 94.72"/>
        <path class="cls-10" d="M33.04,93.47l2.92-.17v1.25l2.78,1.92c.36,.25,.44,.73,.2,1.09-.15,.21-.39,.34-.64,.34h-3.48l-.6-1.24-.23,1.24h-1.31l.37-4.42Z"/>
        <path class="cls-10" d="M22.59,88.65h.02l.35-11.46c-.46-.89-.45-1.95,.04-2.83l.05-.09-.13-.6c-.17-.78-.09-1.59,.22-2.32l.33-10.69c-1.17-7.59,4.41-12.54,4.41-12.54h8.36l1.8,6.17c1.19,11.56,.97,22.83-.91,33.75l.05,.03c.18,.06,.26,.32,.18,.57s-.31,.4-.49,.34l-4.42-.15c-.18-.06-.26-.32-.18-.57,.09-.25,.31-.4,.49-.34l.3,.15-.64-11.06,.07-2.02-.15-2.29-.68-10.31-2.56,12.68-2.62,13.73c.2,.18,.21,.48,.03,.68-.09,.1-.22,.16-.36,.16h-3.57c-.27,0-.48-.22-.48-.48s.22-.48,.48-.48h0Z"/>
        <circle class="cls-4" cx="29.17" cy="23.27" r="4.49"/>
        <path class="cls-10" d="M9.52,43.99c.63-1.46,1.5-2.81,2.56-4-.9,1.44-1.42,3.09-1.5,4.78,.33,.2,.67,.38,1.02,.54,1.06,.45,2.2,.7,3.35,.75,.62-2.07,1.69-3.98,3.14-5.59-1.04,1.66-1.57,3.6-1.51,5.56,1.29-.11,2.55-.38,3.77-.81,1.83-.63,3.61-1.57,4.87-3.03,1.37-1.58,2.05-3.67,2.26-5.75,.22-2.08,.01-4.18-.19-6.26-.1-.99,.73-2.13,.63-3.13h-.07c-.43-.6-.88-1.21-1.09-1.91-.21-.7-.16-1.54,.33-2.09,.27-.29,.62-.5,1-.62,.04-.05,.07-.09,.12-.13,.74-.78,1.6-1.43,2.56-1.92-.69,.52-1.15,1.11-1.37,1.72,.6-.13,1.2-.26,1.8-.39,.2-.21,.41-.41,.63-.61,.32-.28,.43-.3,.81-.56-.31,.27-.55,.61-.7,1,.77-.19,1.54-.48,1.94-1.15,.66-1.09-.13-2.57-1.23-3.23-1.64-.93-3.7-.7-5.1,.56-1.59-1.17-3.86-1.15-5.63-.28-1.17,.6-2.18,1.48-2.94,2.56,.44-.06,.89-.09,1.33-.09-.63,.09-1.22,.33-1.74,.69-.23,.36-.44,.73-.63,1.1-.13,.25-.24,.5-.35,.76-.68,1.55-1.13,3.21-1.59,4.84-.54,1.9-1.11,3.82-2.12,5.52-1.54,2.59-3.97,4.53-6.84,5.46-.24,2.15,.81,4.26,2.46,5.7Z"/>
        <path class="cls-8" d="M33.69,30.75l-.87-.33-1.1-1.77-3.91,.32-.95,1.9-2.29,1.75,1,5.27,1.56,6.41,10.41-1.3v-4.82s1.87-3.81-1.17-5.24l-2.68-2.19Z"/>
        <path class="cls-4" d="M49.74,47.48c-.76,.31-1.63-.06-1.94-.83-.03-.08-.06-.17-.08-.25l-11.61-7.03,2.12-2.45,10.75,7.68c.82-.11,1.58,.46,1.69,1.28,.1,.69-.29,1.35-.93,1.6h0Z"/>
        <path class="cls-8" d="M32.24,36.04s-.55,.56,.84,1.48c1.11,.73,6.09,4.37,7.85,4.94-.05,.53,.28,1.03,.78,1.2l1.6-3.51c-.35-.8-.9-.62-1.19-.43l-1.93-1.45-4.73-4.73-2.82,2.08-.39,.41Z"/>
        <path class="cls-6" d="M27.6,17.85c-1.09,1.61-1.37,3.64-.75,5.49"/>
        <path id="a4a87c0b-578c-404f-b0e7-3c25016717c2-279" class="cls-2" d="M21.4,55.84c-.23,.08-.34,.33-.27,.55l6.05,17.45c.08,.23,.33,.34,.55,.27l35.22-12.36c.23-.08,.34-.33,.27-.55l-6.05-17.45c-.08-.23-.33-.34-.55-.27l-35.22,12.36Z"/>
        <path class="cls-3" d="M30.32,71.59c-1.42,0-2.69-.9-3.16-2.23l-3.32-9.4c-.62-1.74,.3-3.66,2.04-4.27l17.8-6.29c6.94-2.44,14.54,1.19,17,8.12,.62,1.74-.3,3.66-2.04,4.27l-.03-.07,.03,.07-27.21,9.62c-.36,.13-.73,.19-1.11,.19Z"/>
        <path id="e6660b72-17a8-4076-a000-8bf222be7673-280" class="cls-2" d="M53.92,53.05l-15.94,5.59c-.22,.08-.5-.13-.62-.47s-.03-.68,.19-.76l15.94-5.59c.22-.08,.5,.13,.62,.47s.03,.68-.19,.76Z"/>
        <path id="f689c0b7-f689-4c10-b0b9-25ad5f15d9dd-281" class="cls-2" d="M55.15,56.56l-15.94,5.59c-.22,.08-.5-.13-.62-.47s-.03-.68,.19-.76l15.94-5.59c.22-.08,.5,.13,.62,.47s.03,.68-.19,.76Z"/>
        <path class="cls-7" d="M35.83,60.55c.17,.48,.25,.99,.25,1.5,0,.23-.03,.47-.07,.7-.43,2.33-2.66,3.88-5,3.45-.75-.14-1.45-.47-2.03-.97-.06-.05-.11-.1-.17-.15-1.71-1.64-1.77-4.36-.13-6.07,1.64-1.71,4.36-1.77,6.07-.13,.48,.46,.85,1.04,1.08,1.67Z"/>
        <circle class="cls-6" cx="31.96" cy="61.82" r=".82"/>
        <path class="cls-9" d="M28.81,65.09c.21-.49,.46-1.24,1.04-.96,.29,.12,.8,.5,1,.06l1.62-3.4c.13-.26,.44-.37,.71-.24,0,0,0,0,.01,0l2.89,1.51c0,.23-.03,.47-.07,.7l-7.03,2.48-.17-.15Z"/>
        <path class="cls-4" d="M29.64,55.05c-.77-.3-1.15-1.16-.85-1.93,.03-.08,.07-.16,.12-.24l-3.67-13.06,3.22-.34,2.6,12.95c.68,.48,.84,1.41,.36,2.09-.4,.57-1.13,.79-1.78,.53h0Z"/>
        <path class="cls-8" d="M24.7,32.65s-.79,.03-.4,1.65c.31,1.3,1.45,9.44,2.35,11.07-.4,.36-.5,.94-.25,1.41l3.56-1.47c.3-.82,.07-1.57-.27-1.63l-.42-2.38-.61-7.97-3.39-.71-.57,.03Z"/>
        <path class="cls-8" d="M56.78,67.03l-4.93,.2c-.21,0-.42-.08-.56-.24-.14-.16-.2-.37-.16-.57,.38-2.06,.27-4.18-.32-6.19-.09-.32,.05-.66,.34-.81,2.02-1.05,3.91-1.1,5.62-.16,.18,.1,.31,.27,.35,.47,.45,2.19,.55,4.44,.32,6.67-.03,.35-.32,.61-.67,.63Z"/>
        <path class="cls-3" d="M56.57,63.8l-3.77,.16c-.2,0-.36-.14-.37-.34s.14-.36,.34-.37c0,0,0,0,0,0l3.77-.16c.2,0,.36,.14,.37,.34,0,.2-.14,.36-.34,.37,0,0,0,0,0,0h0Z"/>
        <path class="cls-3" d="M56.52,62.56l-3.77,.16c-.2,0-.36-.14-.37-.34,0-.19,.14-.36,.34-.37l3.77-.16c.2,0,.36,.14,.37,.34,0,.19-.14,.36-.34,.37Z"/>
        <path class="cls-8" d="M140.86,28.5l-4.89-.64c-.21-.03-.4-.15-.51-.33-.11-.18-.13-.4-.06-.59,.72-1.97,.98-4.07,.74-6.16-.04-.33,.16-.64,.48-.74,2.17-.69,4.04-.42,5.56,.8,.16,.13,.26,.32,.27,.53,.06,2.24-.22,4.47-.83,6.63-.09,.34-.42,.55-.76,.51Z"/>
        <path class="cls-3" d="M141.2,25.28l-3.74-.49c-.19-.03-.33-.2-.3-.4,.03-.19,.2-.33,.4-.3h0l3.74,.49c.19,.03,.33,.2,.3,.4-.03,.19-.2,.33-.4,.3h0Z"/>
        <path class="cls-3" d="M141.37,24.06l-3.74-.49c-.19-.02-.33-.2-.31-.4,.02-.19,.2-.33,.4-.31,0,0,0,0,0,0l3.74,.49c.19,.02,.33,.2,.31,.4-.02,.19-.2,.33-.4,.31,0,0,0,0,0,0Z"/>
        <path class="cls-3" d="M77.75,37.97h-1.63v-1.63c0-.81-.66-1.47-1.47-1.47s-1.47,.66-1.47,1.47v1.63h-1.63c-.81,0-1.47,.66-1.47,1.47s.66,1.47,1.47,1.47h1.63v1.63c0,.81,.66,1.47,1.47,1.47s1.47-.66,1.47-1.47v-1.63h1.63c.81,0,1.47-.66,1.47-1.47s-.66-1.47-1.47-1.47Z"/>
      </g>
    </g>
  </g>
</svg>