<?xml version="1.0" encoding="UTF-8"?>
<svg id="projects_page_helper_image" data-name="projects page helper image" xmlns="http://www.w3.org/2000/svg" xmlns:xlink="http://www.w3.org/1999/xlink" viewBox="0 0 150 100">
  <defs>
    <style>
      .cls-1 {
        fill: none;
      }

      .cls-2 {
        clip-path: url(#clippath);
      }

      .cls-3 {
        fill: #e6e6e6;
      }

      .cls-4 {
        fill: #fff;
      }

      .cls-5 {
        fill: #ffb8b8;
      }

      .cls-6 {
        fill: #ff6366;
      }

      .cls-7 {
        fill: #3f3d56;
      }

      .cls-8 {
        fill: #575a89;
      }

      .cls-9 {
        fill: #2f2e41;
      }

      .cls-10 {
        isolation: isolate;
        opacity: .2;
      }
    </style>
    <clipPath id="clippath">
      <rect class="cls-1" x="50.86" y="3.19" width="41.14" height="23.07"/>
    </clipPath>
  </defs>
  <g id="_150_wide_100_high" data-name="150 wide 100 high">
    <g id="person_at_desk_looking_at_cleaved" data-name="person at desk looking at cleaved">
      <g id="desk_plant" data-name="desk plant">
        <path class="cls-6" d="M14.19,27.26l.65-1.01c-.19-.54-.42-1.06-.67-1.57l-.42,.34,.34-.52c-.32-.63-.57-1.03-.57-1.03,0,0-1.31,2.07-1.75,4.26l.84,1.3-.93-.75c-.03,.26-.05,.51-.05,.77,0,2.6,.85,4.7,1.89,4.7s1.89-2.1,1.89-4.7c-.02-.83-.17-1.64-.43-2.43l-.78,.63Z"/>
        <path class="cls-6" d="M18.82,29.51l1.18-.25c.24-.52,.45-1.05,.64-1.59l-.54-.06,.6-.13c.22-.67,.32-1.13,.32-1.13,0,0-2.39,.53-4.25,1.77l-.32,1.51-.13-1.19c-.2,.16-.4,.33-.58,.51-1.84,1.84-2.72,3.92-1.98,4.66s2.83-.15,4.66-1.98c.57-.6,1.05-1.28,1.41-2.02l-1-.11Z"/>
        <path class="cls-7" d="M19.25,39.55c-2.73,.17-5.71-.01-8.88,0v-7.25c2.79,.43,5.77,.39,8.88,0v7.25Z"/>
      </g>
      <g id="desk">
        <rect class="cls-4" x="95.26" y="41.83" width="30.91" height="47.86"/>
        <rect class="cls-4" x="18.18" y="44.33" width="1.92" height="45.36"/>
        <rect class="cls-4" x=".69" y="38.56" width="125.48" height="3.84"/>
        <rect class="cls-4" x="17.22" y="42.41" width="3.84" height="3.84"/>
        <polygon class="cls-7" points="113.63 44.62 113.41 45.48 108.03 45.48 107.7 44.62 96.99 44.62 96.99 53.46 124.44 53.46 124.44 44.62 113.63 44.62"/>
        <polygon class="cls-7" points="113.63 55.77 113.41 56.63 108.03 56.63 107.7 55.77 96.99 55.77 96.99 64.61 124.44 64.61 124.44 55.77 113.63 55.77"/>
        <polygon class="cls-7" points="113.63 66.91 113.41 67.78 108.03 67.78 107.7 66.91 96.99 66.91 96.99 75.76 124.44 75.76 124.44 66.91 113.63 66.91"/>
        <polygon class="cls-7" points="113.63 78.06 113.41 78.93 108.03 78.93 107.7 78.06 96.99 78.06 96.99 86.91 124.44 86.91 124.44 78.06 113.63 78.06"/>
      </g>
      <g id="computer">
        <polygon class="cls-3" points="77.01 37.99 65.66 37.99 66.05 32.99 76.62 32.99 77.01 37.99"/>
        <rect class="cls-3" x="65.09" y="37.41" width="12.69" height="1.15"/>
        <path class="cls-7" d="M93.06,.79H49.71c-.64,0-1.15,.52-1.15,1.15h0V28.37h45.65V1.94c0-.64-.52-1.15-1.15-1.15h0Z"/>
        <path class="cls-3" d="M48.56,28.37v4.33c0,.64,.52,1.15,1.15,1.15h43.35c.64,0,1.15-.52,1.15-1.15h0v-4.33H48.56Z"/>
        <rect class="cls-4" x="50.86" y="3.19" width="41.14" height="23.07"/>
        <circle class="cls-7" cx="71.43" cy="31.07" r="1.15"/>
        <g id="computer_screen" data-name="computer screen">
          <g class="cls-2">
            <g>
              <g>
                <path class="cls-3" d="M74.39,18.25c.15,0,.28,.13,.28,.28h0v11.19c0,.15-.13,.28-.28,.28h-8.03c-.15,0-.28-.13-.28-.28h0v-11.19c0-.15,.13-.28,.28-.28h8.03"/>
                <path class="cls-4" d="M66.39,29.69h7.97v-11.13h-7.97v11.13Z"/>
                <path class="cls-3" d="M66.77,18.85c-.06,0-.11,.03-.11,.07v3.43s.05,.07,.11,.07h7.21c.06,0,.11-.03,.11-.07v-3.43s-.05-.07-.11-.07h-7.21Z"/>
                <path class="cls-3" d="M68.84,23.27s-.08,.01-.08,.02v1.14s.03,.02,.08,.02h5.16s.08-.01,.08-.02v-1.14s-.03-.02-.08-.02h-5.16Z"/>
                <circle class="cls-3" cx="67.74" cy="23.87" r=".6"/>
                <path class="cls-3" d="M68.85,26.86s-.08,.01-.08,.02v1.14s.03,.02,.08,.02h5.16s.08-.01,.08-.02v-1.14s-.03-.02-.08-.02h-5.16Z"/>
                <circle class="cls-3" cx="67.75" cy="27.46" r=".6"/>
                <path class="cls-3" d="M70.41,25.07s-.05,.01-.05,.02v1.14s.02,.02,.05,.02h3.64s.05-.01,.05-.02v-1.14s-.02-.02-.05-.02h-3.64Z"/>
                <circle class="cls-3" cx="69.35" cy="25.66" r=".6"/>
              </g>
              <g>
                <path class="cls-3" d="M74.39,4.79c.15,0,.28,.13,.28,.28h0v11.19c0,.15-.13,.28-.28,.28h-8.03c-.15,0-.28-.13-.28-.28h0V5.07c0-.15,.13-.28,.28-.28h8.03"/>
                <path class="cls-4" d="M66.39,16.23h7.97V5.1h-7.97v11.13Z"/>
                <path class="cls-6" d="M66.77,10.87c-.06,0-.11,.03-.11,.06v2.81s.05,.06,.11,.06h7.2c.06,0,.11-.03,.11-.06v-2.81s-.05-.06-.11-.06h-7.2Z"/>
                <path class="cls-3" d="M66.77,5.39c-.06,0-.11,.04-.11,.1v4.45c0,.05,.05,.1,.11,.1h7.21c.06,0,.11-.04,.11-.1V5.49c0-.05-.05-.1-.11-.1h-7.21Z"/>
                <path class="cls-3" d="M54.37,4.78c-.06,0-.11,.04-.11,.1v4.45c0,.05,.05,.1,.11,.1h7.21c.06,0,.11-.04,.11-.1V4.88c0-.05-.05-.1-.11-.1h-7.21Z"/>
                <path class="cls-3" d="M68.84,14.55s-.08,.01-.08,.02v1.14s.03,.02,.08,.02h5.16s.08-.01,.08-.02v-1.14s-.03-.02-.08-.02h-5.16Z"/>
                <circle class="cls-3" cx="67.74" cy="15.14" r=".6"/>
              </g>
              <g>
                <path class="cls-3" d="M80.82,4.83s-.08,.01-.08,.02v1.14s.03,.02,.08,.02h5.16s.08-.01,.08-.02v-1.14s-.03-.02-.08-.02h-5.16Z"/>
                <circle class="cls-3" cx="79.72" cy="5.42" r=".6"/>
              </g>
              <g>
                <path class="cls-3" d="M80.82,7.07s-.08,.01-.08,.02v1.14s.03,.02,.08,.02h5.16s.08-.01,.08-.02v-1.14s-.03-.02-.08-.02h-5.16Z"/>
                <circle class="cls-3" cx="79.72" cy="7.66" r=".6"/>
              </g>
              <g>
                <path class="cls-3" d="M80.82,9.31s-.08,.01-.08,.02v1.14s.03,.02,.08,.02h5.16s.08-.01,.08-.02v-1.14s-.03-.02-.08-.02h-5.16Z"/>
                <circle class="cls-3" cx="79.72" cy="9.9" r=".6"/>
              </g>
              <g>
                <path class="cls-3" d="M80.82,11.55s-.08,.01-.08,.02v1.14s.03,.02,.08,.02h5.16s.08-.01,.08-.02v-1.14s-.03-.02-.08-.02h-5.16Z"/>
                <circle class="cls-3" cx="79.72" cy="12.15" r=".6"/>
              </g>
              <g>
                <path class="cls-3" d="M80.82,13.8s-.08,.01-.08,.02v1.14s.03,.02,.08,.02h5.16s.08-.01,.08-.02v-1.14s-.03-.02-.08-.02h-5.16Z"/>
                <circle class="cls-3" cx="79.72" cy="14.39" r=".6"/>
              </g>
              <path class="cls-3" d="M54.33,11.36c-.06,0-.11,.01-.11,.02v1.14s.05,.02,.11,.02h7.2c.06,0,.11-.01,.11-.02v-1.14s-.05-.02-.11-.02h-7.2Z"/>
              <path class="cls-3" d="M54.33,13.6c-.06,0-.11,.01-.11,.02v1.14s.05,.02,.11,.02h7.2c.06,0,.11-.01,.11-.02v-1.14s-.05-.02-.11-.02h-7.2Z"/>
              <path class="cls-3" d="M54.33,15.85c-.06,0-.11,.01-.11,.02v1.14s.05,.02,.11,.02h7.2c.06,0,.11-.01,.11-.02v-1.14s-.05-.02-.11-.02h-7.2Z"/>
            </g>
          </g>
        </g>
      </g>
      <g id="plants">
        <path class="cls-7" d="M145.98,89.41c-4.2,.27-8.78-.02-13.65,0v-11.15c4.29,.67,8.87,.6,13.65,0v11.15Z"/>
        <polygon class="cls-7" points="139.64 79.26 138.49 79.26 138.87 56.73 139.26 56.73 139.64 79.26"/>
        <polygon class="cls-7" points="144.83 79.41 143.68 79.41 144.06 56.88 144.45 56.88 144.83 79.41"/>
        <polygon class="cls-7" points="135.03 79.41 133.87 79.41 134.26 56.88 134.64 56.88 135.03 79.41"/>
        <path class="cls-4" d="M140.6,42.31l1.86-2.88c-.55-1.53-1.19-3.02-1.91-4.47l-1.2,.97,.95-1.47c-.91-1.79-1.62-2.91-1.62-2.91,0,0-3.73,5.88-4.98,12.11l2.39,3.69-2.64-2.14c-.09,.73-.14,1.46-.15,2.19,0,7.38,2.41,13.36,5.38,13.36s5.38-5.98,5.38-13.36c0-2.29-.52-4.68-1.23-6.89l-2.23,1.8Z"/>
        <path class="cls-6" d="M145.79,42.69l1.86-2.88c-.55-1.53-1.19-3.02-1.91-4.47l-1.2,.97,.95-1.47c-.91-1.79-1.62-2.91-1.62-2.91,0,0-3.73,5.88-4.98,12.11l2.39,3.69-2.64-2.14c-.09,.73-.14,1.46-.15,2.19,0,7.38,2.41,13.36,5.38,13.36s5.38-5.98,5.38-13.36c0-2.29-.52-4.68-1.23-6.89l-2.23,1.8Z"/>
        <path class="cls-6" d="M135.99,42.69l1.86-2.88c-.55-1.53-1.19-3.02-1.91-4.47l-1.2,.97,.95-1.47c-.91-1.79-1.62-2.91-1.62-2.91,0,0-3.73,5.88-4.98,12.11l2.39,3.69-2.64-2.14c-.09,.73-.14,1.46-.15,2.19,0,7.38,2.41,13.36,5.38,13.36s5.38-5.98,5.38-13.36c0-2.29-.52-4.68-1.23-6.89l-2.23,1.8Z"/>
      </g>
      <g id="person_sitting" data-name="person sitting">
        <path class="cls-9" d="M42.74,22.41l-2.39-.58c-3.4,0-6.17-2.75-6.17-6.16,0-.41,.04-.82,.12-1.23h0c0-4.45,3.6-8.06,8.05-8.07h0c4.45,0,8.06,3.6,8.07,8.05h0c1.36,4.72-2.89,9.15-7.67,7.99Z"/>
        <circle class="cls-5" cx="45.36" cy="17.33" r="5.92"/>
        <path class="cls-5" d="M41.5,20.42s-1.8,6.18-2.83,6.69,8.24,1.29,8.24,1.29c0,0-.26-5.92,.26-6.44s-5.66-1.54-5.66-1.54Z"/>
        <path class="cls-9" d="M50.76,58.52s11.58-1.03,13.13,2.83-1.03,26.77-1.03,26.77h-4.89v-18.79s-20.85-5.93-20.85-7.99,13.65-2.82,13.65-2.82Z"/>
        <path class="cls-9" d="M62.09,87.09l2.57,1.03s3.09-.26,1.8,2.06c-.75,1.36-2.07,2.31-3.6,2.57,0,0-4.89,1.8-5.15,0s1.29-5.41,1.29-5.41l3.09-.26Z"/>
        <path class="cls-9" d="M44.33,58.52s11.58-1.03,13.13,2.83c1.54,3.86-1.03,26.77-1.03,26.77h-4.89v-18.79s-14.8-3.43-14.8-5.49c0-.97-1.01-5.88,.77-6.92,2.01-1.17,6.83,1.6,6.83,1.6Z"/>
        <path class="cls-9" d="M55.65,87.09l2.57,1.03s3.09-.26,1.8,2.06c-.75,1.36-2.07,2.31-3.6,2.57,0,0-4.89,1.8-5.15,0s1.29-5.41,1.29-5.41l3.09-.26Z"/>
        <path class="cls-8" d="M38.92,26.34l7.74,.84c2.45,.27,4.45,2.08,4.96,4.49l3.01,14.24s1.03,14.16-1.03,14.93-4.89-3.09-8.75-2.57-8.88,1.67-8.88,1.67c0,0-.8-25.34-.9-27.41-.21-4.14,3.86-6.18,3.86-6.18Z"/>
        <path class="cls-5" d="M57.25,59.25l3.18,1.87s5.7-.82,5.52,1.19-6.4,1.62-6.4,1.62l-3.83-2.36,1.53-2.31Z"/>
        <circle class="cls-9" cx="33.87" cy="8.69" r="3.82"/>
        <path class="cls-9" d="M37.39,6.63c0-2.11-1.71-3.82-3.83-3.82-.25,0-.5,.03-.75,.08,1.91-.9,4.19-.09,5.09,1.82,.9,1.91,.09,4.19-1.82,5.09-.28,.13-.58,.23-.88,.29,1.34-.63,2.19-1.98,2.19-3.46Z"/>
        <path class="cls-9" d="M40.68,8.8l5.16-.95,3.97,2.49c1.99,1.25,3.07,3.54,2.77,5.87l-3.97-1.01-.89-2.23-1.06,1.74-5.54,7.13-3.11-1.98-2.77-4.34,5.45-6.71Z"/>
        <path class="cls-8" d="M44.92,28.53l2.57-1.29s5.41,.77,6.44,4.38,5.66,28.57,5.66,28.57l-4.38,2.06-6.18-15.19-4.12-18.53Z"/>
        <polygon class="cls-10" points="47.11 38.66 49.69 48.66 54.26 59.89 54.1 60.28 48.65 48.85 47.11 38.66"/>
        <polygon class="cls-7" points="27.89 93.81 26.98 93.49 35.78 67.35 37.05 67.79 27.89 93.81"/>
        <polygon class="cls-7" points="61.53 93.81 62.44 93.49 53.64 67.35 52.36 67.79 61.53 93.81"/>
        <polygon class="cls-7" points="42.93 99.21 43.89 99.21 44.19 68.65 42.85 68.64 42.93 99.21"/>
        <path class="cls-6" d="M25.66,51.99l2.64,10.66c.75,3.04,3.12,5.42,6.16,6.18h0c7.35,1.84,15.05,1.79,22.38-.14l3.94-1.04c2.29-.6,4.01-2.57,4.17-4.93,.07-.83-.09-1.67-.44-2.43-.02-.03-.03-.07-.05-.1-1.05-2.15-3.2-3.54-5.59-3.61l-4.17-.13-15.19-6.73s-5.22-2.65-9.52-2.95c-2.84-.2-5.02,2.47-4.34,5.23Z"/>
      </g>
    </g>
  </g>
</svg>