<?xml version="1.0" encoding="UTF-8"?>
<svg id="projects_page_helper_image" data-name="projects page helper image" xmlns="http://www.w3.org/2000/svg" viewBox="0 0 500 100">
  <defs>
    <style>
      .cls-1 {
        fill: #ff6366;
      }
    </style>
  </defs>
  <g id="_500_wide_100_high" data-name="500 wide 100 high">
    <g id="arrows">
      <g id="arrow">
        <path class="cls-1" d="M430.69,34.54c36.77,31.94,53.93,46.87,67.35,58.08,1.47,1.23,1.69,3.42,.47,4.91h0c-1.22,1.49-3.4,1.72-4.91,.52-15.59-12.36-31.62-27.41-66.53-58.29l-7.83,27.25c-4.12-17.83-15.47-40.07-26.1-55.97,18.42,5.13,43.1,8.99,61.32,7.34l-23.78,16.16h0Z"/>
      </g>
      <g id="arrow-2" data-name="arrow">
        <path class="cls-1" d="M279.44,48.9c5.42,16.23,9.13,26.45,15.86,44.18,.79,2.07-.37,4.38-2.45,5.13h0c-2.09,.75-4.47-.29-5.16-2.4-4.69-14.33-10.08-30.87-14.92-43.9l-23.91,22.28c6.52-20.06,8.5-48.78,7.44-70.8,15.16,16.01,37.25,34.46,56.24,43.65l-33.09,1.85h0Z"/>
      </g>
      <g id="arrow-3" data-name="arrow">
        <path class="cls-1" d="M94.11,27.81C52,45.8,32.32,54.18,17.33,60.93c-1.65,.74-3.59,.02-4.35-1.62h0c-.76-1.64-.06-3.58,1.57-4.37,16.86-8.11,36.17-15.49,76.62-32.33L71.34,4.8c16.77,3.84,40.25,3.37,58.06,.91-11.9,13.48-25.3,32.76-31.39,48.85l-3.9-26.75h0Z"/>
      </g>
    </g>
  </g>
</svg>