<?xml version="1.0" encoding="UTF-8"?>
<svg id="projects_page_helper_image" data-name="projects page helper image" xmlns="http://www.w3.org/2000/svg" viewBox="0 0 50 50">
  <defs>
    <style>
      .cls-1 {
        fill: #ff6366;
      }

      .cls-2 {
        fill: #a0616a;
      }

      .cls-3 {
        fill: #2f2e41;
      }
    </style>
  </defs>
  <polygon class="cls-2" points="31.6 40.13 33.3 29.48 21.8 24.8 20.1 40.98 31.6 40.13"/>
  <path class="cls-1" d="M43.16,55.87c-.99,.48-1.99,.92-3.01,1.3-2.04,.77-4.15,1.36-6.31,1.75-2.11,.38-4.28,.58-6.45,.58-2.93,0-5.85-.35-8.67-1.05-1.1-.27-2.22-.6-3.31-.99-.11-.04-.23-.08-.35-.12-1.36-.49-2.69-1.07-3.98-1.72-.17-.09-.35-.18-.52-.27-.19-.1-.38-.2-.57-.31-.24-.13-.49-.27-.73-.41-.81-.47-1.61-.98-2.38-1.51l-.05-.03s-.09-.06-.13-.09c.03-.15,.05-.28,.08-.4,.09-.47,.16-.73,.16-.73l5.15-10.64,1.43-2.96,.7-.29,5.28-2.17h12.92l4.08,1.68s.02,.08,.06,.23c.41,1.46,2.78,9.73,6.45,17.83,.05,.11,.1,.23,.16,.34h0Z"/>
  <circle class="cls-2" cx="28.69" cy="21.18" r="11.73"/>
  <path class="cls-1" d="M14.23,37.86l-.02,.1-3.58,17-.03,.15-.05,.23c-.19-.1-.38-.2-.57-.31-.24-.13-.49-.27-.73-.41-.81-.47-1.61-.98-2.37-1.51l-.05-.03s-.09-.06-.13-.09c-.58-.41-1.15-.83-1.71-1.27,0,0,0,0-.01,0-.99-.8-1.98,1.03-2.9,.12-.59-.59-1.76-.4-2.3-1.02l.72-3.83v-.03s.11-.44,.11-.44c.91-3.84,3.99-6.79,7.86-7.53l5.15-.99,.61-.12Z"/>
  <path class="cls-1" d="M50.75,50.9c-1.52,1.29-3.14,2.46-4.86,3.49-.17,.1-.34,.2-.51,.3-.73,.42-1.47,.81-2.22,1.18-.99,.48-1.99,.92-3.01,1.3l-.08-.37-4.04-19.2,.52,.1,5.24,1c3.88,.74,6.95,3.69,7.86,7.53l1,4.24,.1,.42h0Z"/>
  <path class="cls-3" d="M42.2,24.31c-.3,1.14-1.84,6.21-5.76,7.28-.77,.21-2.61,.45-2.12,0,.11-.1,.22-.2,.33-.3,4.26-4.01,6-6.45,5.2-11.89-.5-3.46-6.24-6.6-9.47-6.91-1.36-.13-3.1,.33-4.25,1.52-1.89,1.96-1.58,7.96-2.63,11.48-.28,.94-.66,1.71-1.2,2.18-.34,.29-.55-.08-.71-.68-.34-1.28-.43-3.63-.91-2.97-1.4,1.92-.07,4.47,.34,5.46,.08,.2,.17,.39,.25,.58h0c.05,.11,.1,.21,.15,.31h0c1.34,2.74,2.96,3.72,4.38,5.43,.56,.67,1.09,1.44,1.56,2.48,.32,.71,.56,1.43,.72,2.13,.81,3.52-.15,6.71-.41,7.58-.55,1.81-1.49,4.92-4.25,6.67-3.46,2.2-6.63,.26-8.14,2.35-.02,.02-.04,.05-.05,.07-.06,.08-.11,.17-.15,.25-1.36-.49-2.69-1.07-3.98-1.72-.17-.09-.35-.18-.52-.27-.19-.1-.38-.2-.57-.31,0-.15-.02-.29-.02-.44-.11-2.54,.06-5.34,.69-8.13,.41-1.78,.81-3.55,1.43-5.25,.4-1.11,.9-2.19,1.54-3.24,.52-.84,1.14-1.65,1.88-2.44,1.64-1.72,3.1-2.43,3.34-4.25,.33-2.59-2.36-3.37-3.34-7.28-.66-2.68-1.36-6.53-.68-9.13,.64-2.46,1.19-4.59,3.03-6.67,.44-.5,4.09-3.98,8.31-4.55,1.94-.26,3.68,2.23,6.03,2.76,2.7,.62,4.25,.97,5.76,2.12,2.56,1.95,3.28,4.87,3.94,7.58,.52,2.12,1.2,4.86,.3,8.19h0Z"/>
</svg>