<?xml version="1.0" encoding="UTF-8"?>
<svg id="projects_page_helper_image" data-name="projects page helper image" xmlns="http://www.w3.org/2000/svg" viewBox="0 0 200 100">
  <defs>
    <style>
      .cls-1 {
        fill: #e6e6e6;
      }

      .cls-2 {
        fill: #fff;
      }

      .cls-3 {
        fill: #ffb8b8;
      }

      .cls-4 {
        fill: #ff6366;
      }

      .cls-5 {
        fill: #ccc;
      }

      .cls-6 {
        fill: #3f3d56;
      }

      .cls-7 {
        fill: #2f2e41;
      }
    </style>
  </defs>
  <g id="business_decisions" data-name="business decisions">
    <g id="chart">
      <path class="cls-2" d="M152.11,78H23.4c-2.47,0-4.47-2-4.47-4.47V5.5c0-2.47,2-4.47,4.47-4.47H152.11c2.47,0,4.47,2,4.47,4.47V73.53c0,2.47-2,4.47-4.47,4.47Z"/>
      <circle class="cls-1" cx="62.28" cy="6.69" r="1.27"/>
      <circle class="cls-1" cx="68.7" cy="6.69" r="1.27"/>
      <circle class="cls-1" cx="75.12" cy="6.69" r="1.27"/>
      <circle class="cls-1" cx="81.54" cy="6.69" r="1.27"/>
      <circle class="cls-1" cx="87.95" cy="6.69" r="1.27"/>
      <circle class="cls-1" cx="62.28" cy="13.19" r="1.27"/>
      <circle class="cls-1" cx="68.7" cy="13.19" r="1.27"/>
      <circle class="cls-1" cx="75.12" cy="13.19" r="1.27"/>
      <circle class="cls-4" cx="81.54" cy="13.19" r="1.27"/>
      <circle class="cls-1" cx="87.95" cy="13.19" r="1.27"/>
      <circle class="cls-1" cx="100.79" cy="13.19" r="1.27"/>
      <circle class="cls-1" cx="62.28" cy="19.69" r="1.27"/>
      <circle class="cls-1" cx="68.7" cy="19.69" r="1.27"/>
      <circle class="cls-1" cx="75.12" cy="19.69" r="1.27"/>
      <circle class="cls-1" cx="81.54" cy="19.69" r="1.27"/>
      <circle class="cls-1" cx="87.95" cy="19.69" r="1.27"/>
      <circle class="cls-1" cx="62.28" cy="26.18" r="1.27"/>
      <circle class="cls-1" cx="68.7" cy="26.18" r="1.27"/>
      <circle class="cls-1" cx="75.12" cy="26.18" r="1.27"/>
      <circle class="cls-1" cx="81.54" cy="26.18" r="1.27"/>
      <circle class="cls-1" cx="87.95" cy="26.18" r="1.27"/>
      <circle class="cls-1" cx="94.37" cy="26.18" r="1.27"/>
      <circle class="cls-1" cx="100.79" cy="26.18" r="1.27"/>
      <circle class="cls-1" cx="107.21" cy="26.18" r="1.27"/>
      <circle class="cls-1" cx="113.63" cy="26.18" r="1.27"/>
      <circle class="cls-1" cx="120.04" cy="26.18" r="1.27"/>
      <circle class="cls-1" cx="87.95" cy="32.68" r="1.27"/>
      <circle class="cls-4" cx="94.37" cy="32.68" r="1.27"/>
      <circle class="cls-1" cx="100.79" cy="32.68" r="1.27"/>
      <circle class="cls-1" cx="107.21" cy="32.68" r="1.27"/>
      <circle class="cls-1" cx="113.63" cy="32.68" r="1.27"/>
      <circle class="cls-1" cx="120.04" cy="32.68" r="1.27"/>
      <circle class="cls-1" cx="87.95" cy="39.18" r="1.27"/>
      <circle class="cls-1" cx="94.37" cy="39.18" r="1.27"/>
      <circle class="cls-1" cx="100.79" cy="39.18" r="1.27"/>
      <circle class="cls-1" cx="107.21" cy="39.18" r="1.27"/>
      <circle class="cls-4" cx="113.63" cy="39.18" r="1.27"/>
      <circle class="cls-1" cx="120.04" cy="39.18" r="1.27"/>
      <circle class="cls-1" cx="87.95" cy="45.68" r="1.27"/>
      <circle class="cls-1" cx="94.37" cy="45.68" r="1.27"/>
      <circle class="cls-1" cx="100.79" cy="45.68" r="1.27"/>
      <circle class="cls-1" cx="107.21" cy="45.68" r="1.27"/>
      <circle class="cls-1" cx="113.63" cy="45.68" r="1.27"/>
      <circle class="cls-1" cx="120.04" cy="45.68" r="1.27"/>
      <circle class="cls-1" cx="62.28" cy="52.18" r="1.27"/>
      <circle class="cls-1" cx="68.7" cy="52.18" r="1.27"/>
      <circle class="cls-1" cx="75.12" cy="52.18" r="1.27"/>
      <circle class="cls-1" cx="81.54" cy="52.18" r="1.27"/>
      <circle class="cls-1" cx="87.95" cy="52.18" r="1.27"/>
      <circle class="cls-1" cx="94.37" cy="52.18" r="1.27"/>
      <circle class="cls-1" cx="100.79" cy="52.18" r="1.27"/>
      <circle class="cls-1" cx="107.21" cy="52.18" r="1.27"/>
      <circle class="cls-1" cx="113.63" cy="52.18" r="1.27"/>
      <circle class="cls-1" cx="120.04" cy="52.18" r="1.27"/>
      <circle class="cls-1" cx="62.28" cy="58.68" r="1.27"/>
      <circle class="cls-1" cx="68.7" cy="58.68" r="1.27"/>
      <circle class="cls-1" cx="62.28" cy="65.18" r="1.27"/>
      <circle class="cls-1" cx="68.7" cy="65.18" r="1.27"/>
      <circle class="cls-1" cx="50.01" cy="52.18" r="1.27"/>
      <circle class="cls-1" cx="56.42" cy="52.18" r="1.27"/>
      <circle class="cls-1" cx="50.01" cy="58.68" r="1.27"/>
      <circle class="cls-1" cx="56.42" cy="58.68" r="1.27"/>
      <circle class="cls-1" cx="50.01" cy="65.18" r="1.27"/>
      <circle class="cls-1" cx="56.42" cy="65.18" r="1.27"/>
      <circle class="cls-1" cx="37.15" cy="52.18" r="1.27"/>
      <circle class="cls-1" cx="43.57" cy="52.18" r="1.27"/>
      <circle class="cls-1" cx="37.15" cy="58.68" r="1.27"/>
      <circle class="cls-1" cx="43.57" cy="58.68" r="1.27"/>
      <circle class="cls-1" cx="37.15" cy="65.18" r="1.27"/>
      <circle class="cls-1" cx="43.57" cy="65.18" r="1.27"/>
      <circle class="cls-1" cx="24.88" cy="52.18" r="1.27"/>
      <circle class="cls-1" cx="31.29" cy="52.18" r="1.27"/>
      <circle class="cls-1" cx="24.87" cy="58.68" r="1.27"/>
      <circle class="cls-1" cx="31.29" cy="58.68" r="1.27"/>
      <circle class="cls-1" cx="24.87" cy="65.18" r="1.27"/>
      <circle class="cls-1" cx="31.29" cy="65.18" r="1.27"/>
      <circle class="cls-1" cx="81.54" cy="65.18" r="1.27"/>
      <path class="cls-1" d="M145.51,20.38h-50.24c-.51,0-.93-.42-.93-.93V6.99c0-.51,.42-.93,.93-.93h50.24c.51,0,.93,.42,.93,.93v12.46c0,.51-.42,.93-.93,.93ZM95.26,6.43c-.31,0-.56,.25-.56,.56v12.46c0,.31,.25,.56,.56,.56h50.24c.31,0,.56-.25,.56-.56V6.99c0-.31-.25-.56-.56-.56h-50.24Z"/>
      <circle class="cls-4" cx="101.78" cy="13.22" r="3.91"/>
      <path class="cls-1" d="M110.8,10.61c-.36,0-.65,.29-.65,.65s.29,.65,.65,.65h17.31c.36,0,.65-.29,.65-.65s-.29-.65-.65-.65h-17.31Z"/>
      <path class="cls-1" d="M110.8,14.52c-.36,0-.65,.29-.65,.65s.29,.65,.65,.65h30.7c.36,0,.65-.29,.65-.65s-.29-.65-.65-.65h-30.7Z"/>
      <path class="cls-1" d="M80.94,45.69H30.69c-.51,0-.93-.42-.93-.93v-12.46c0-.51,.42-.93,.93-.93h50.24c.51,0,.93,.42,.93,.93v12.46c0,.51-.42,.93-.93,.93ZM30.69,31.73c-.31,0-.56,.25-.56,.56v12.46c0,.31,.25,.56,.56,.56h50.24c.31,0,.56-.25,.56-.56v-12.46c0-.31-.25-.56-.56-.56H30.69Z"/>
      <circle class="cls-4" cx="37.2" cy="38.52" r="3.91"/>
      <path class="cls-1" d="M46.23,35.92c-.36,0-.65,.29-.65,.65s.29,.65,.65,.65h18.05c.36,0,.65-.29,.65-.65s-.29-.65-.65-.65h-18.05Z"/>
      <path class="cls-1" d="M46.23,39.83c-.36,0-.65,.29-.65,.65s.29,.65,.65,.65h30.7c.36,0,.65-.29,.65-.65s-.29-.65-.65-.65h-30.7Z"/>
      <path class="cls-6" d="M126.34,73.04h-50.24c-.51,0-.93-.42-.93-.93v-12.46c0-.51,.42-.93,.93-.93h50.24c.51,0,.93,.42,.93,.93v12.46c0,.51-.42,.93-.93,.93Zm-50.24-13.95c-.31,0-.56,.25-.56,.56v12.46c0,.31,.25,.56,.56,.56h50.24c.31,0,.56-.25,.56-.56v-12.46c0-.31-.25-.56-.56-.56h-50.24Z"/>
      <circle class="cls-4" cx="82.61" cy="65.88" r="3.91"/>
      <path class="cls-1" d="M91.64,63.27c-.36,0-.65,.29-.65,.65s.29,.65,.65,.65h16.56c.36,0,.65-.29,.65-.65s-.29-.65-.65-.65h-16.56Z"/>
      <path class="cls-1" d="M91.64,67.18c-.36,0-.65,.29-.65,.65s.29,.65,.65,.65h30.7c.36,0,.65-.29,.65-.65s-.29-.65-.65-.65h-30.7Z"/>
    </g>
    <g id="person">
      <path class="cls-1" d="M160.8,56.21c-2.77,8.31-14.1-.5-14.1-.5l3.02-31.47c4.53-3.52,9.32-.5,9.32-.5l1.76,32.48Z"/>
      <polygon class="cls-3" points="160.2 84.09 164.06 84.13 163.1 95.26 160.2 95.26 160.2 84.09"/>
      <path class="cls-7" d="M159.46,94.31h5.7c2.01,0,3.63,1.63,3.63,3.63v.12h-9.34v-3.75Z"/>
      <polygon class="cls-3" points="149.74 84.09 145.46 84.09 146.84 95.26 149.74 95.26 149.74 84.09"/>
      <path class="cls-7" d="M141.14,98.06v-.12c0-2.01,1.63-3.63,3.63-3.63h5.7s0,3.75,0,3.75h-9.34Z"/>
      <path class="cls-7" d="M159.94,93.33l-5.06-29.48-4.69,29.1-4.75,.26-1.27-38.99,.1-.02c.78-.18,19.26-4.23,22.29,1.57l.02,.03-2.53,37.66-4.11-.13Z"/>
      <circle class="cls-3" cx="154.58" cy="14.74" r="5.8"/>
      <path class="cls-7" d="M159.45,58.69c-.68-.19-1.17-.97-1.54-2.46-.06-.26-6.09-25.91-.99-30.56l1.17-3.26,1.61,1.07c.57,0,6.38,.15,6.88,3.88,.49,3.65,1.81,28.08,.48,29.6-.05,.07-.13,.11-.22,.11-1.35,0-1.76-1.5-1.85-1.97-.32,.13-1.28,.62-2.85,2.19-.97,.97-1.73,1.44-2.36,1.44-.11,0-.22-.01-.32-.04Z"/>
      <path class="cls-7" d="M146.87,57.3c-1.57-1.57-2.53-2.06-2.85-2.19-.1,.48-.51,1.97-1.85,1.97-.09,0-.17-.04-.22-.11-1.33-1.52,0-25.96,.48-29.6,.5-3.73,6.31-3.87,6.88-3.88l1.61-1.07,1.17,3.26c5.09,4.65-.93,30.3-.99,30.56-.37,1.49-.86,2.27-1.54,2.46-.1,.03-.21,.04-.32,.04-.63,0-1.39-.47-2.36-1.44Z"/>
      <path class="cls-7" d="M159.37,18.06c2.67-1.92,3.28-5.64,1.36-8.31-1-1.39-2.54-2.28-4.24-2.45-.53-.05-1.11-.05-1.55-.35-.39-.27-.61-.74-.97-1.05-.46-.36-1.06-.51-1.64-.41-.57,.1-1.13,.28-1.64,.54-1.29,.57-2.65,1.28-3.24,2.56-.51,1.11-.28,2.48,.43,3.46,.75,.98,1.85,1.63,3.07,1.82,1.21,.18,2.45,.07,3.61-.33,.77-.24,1.52-.57,2.32-.6,1.74-.06,3.2,1.31,3.26,3.05,.03,.84-.28,1.67-.87,2.28"/>
      <path class="cls-3" d="M127.75,52.56c1.41-.03,2.52-1.2,2.49-2.61l3.38-5.71-2.61-2.4-3.56,5.62c-1.4,.13-2.43,1.38-2.3,2.78,.13,1.33,1.26,2.34,2.6,2.31Z"/>
      <path class="cls-3" d="M167,58.82c1.18-.77,1.51-2.35,.74-3.53h0l-.13-6.63-3.48-.66-.07,6.66c-1.12,.85-1.34,2.45-.49,3.57,.81,1.06,2.3,1.32,3.42,.59Z"/>
      <path class="cls-7" d="M128.78,43.39l-.04-.06,.04-.06c5.07-8.15,15.72-18.33,15.83-18.43l.03-.03h1.32s1.42,3.53,1.42,3.53c-.44,.85-12.37,17.5-13.95,18.61-.25,.18-.57,.24-.87,.16-.26-.06-.51-.17-.74-.31-1.45-.9-2.97-3.28-3.04-3.4Z"/>
      <path class="cls-7" d="M163.47,52.69c-.29-.1-.52-.31-.64-.59-.76-1.77,2.5-24.16,2.64-25.11l.03-.18,1.1,.7v.05c.04,.14,3.25,14.41,2.38,23.88v.07s-.07,.03-.07,.03c-.13,.06-2.8,1.29-4.58,1.29-.29,0-.58-.04-.85-.13Z"/>
      <path class="cls-5" d="M197.86,98.24H1.84c-.41,0-.74-.11-.74-.24s.33-.24,.74-.24H197.86c.41,0,.74,.11,.74,.24s-.33,.24-.74,.24Z"/>
    </g>
  </g>
</svg>