<?xml version="1.0" encoding="UTF-8"?>
<svg id="projects_page_helper_image" data-name="projects page helper image" xmlns="http://www.w3.org/2000/svg" viewBox="0 0 340 100">
  <defs>
    <style>
      .cls-1 {
        fill: #fff;
      }

      .cls-2 {
        fill: #ff6366;
      }

      .cls-3 {
        fill: #ff6584;
      }

      .cls-4 {
        fill: #ccc;
      }

      .cls-5 {
        fill: #3f3d56;
      }
    </style>
  </defs>
  <path id="ground" class="cls-4" d="M338.39,98.12H1.33c-.18,0-.33-.06-.33-.12s.15-.12,.33-.12H338.39c.18,0,.33,.06,.33,.12s-.15,.12-.33,.12Z"/>
  <g id="organizations">
    <g>
      <circle class="cls-3" cx="230.9" cy="50.85" r="7.97"/>
      <path class="cls-1" d="M247.23,95.87h0c-.58,0-1.06-.47-1.06-1.06V32.67c0-.58,.47-1.06,1.06-1.06h52.31c.58,0,1.06,.47,1.06,1.06v48.32c0,.58-.47,1.05-1.05,1.06l-52.31,13.82Z"/>
      <path class="cls-5" d="M285.89,22.83h-24.29V8.76c0-.62,.5-1.12,1.12-1.12h22.04c.62,0,1.12,.5,1.12,1.12v14.07Zm-24.04-.25h23.79V8.76c0-.48-.39-.87-.87-.87h-22.04c-.48,0-.87,.39-.87,.87v13.82Z"/>
      <path class="cls-1" d="M268.51,12.99h10.46c.55,0,1,.45,1,1v14.94h-12.45V13.99c0-.55,.45-1,1-1h0Z"/>
      <path class="cls-5" d="M270.57,7.89h-5.11V2.78c0-.34,.28-.62,.62-.62h3.86c.34,0,.62,.28,.62,.62V7.89Zm-4.86-.25h4.61V2.78c0-.21-.17-.37-.37-.37h-3.86c-.21,0-.37,.17-.37,.37V7.64Z"/>
      <path class="cls-5" d="M312.53,82.96s-.1,0-.15,0c-3.08-.03-6.04-1.19-8.33-3.26-.08-.08-.17-.15-.25-.23l-.04-.04v-23.89c.09-.17,.18-.35,.26-.52,2.59-5.26,5.61-8.16,8.51-8.16,4.18,0,7.41,5.73,8.97,9.14,2.17,4.75,3.68,10.63,3.68,14.31,0,6.93-5.58,12.57-12.51,12.65-.05,0-.1,0-.14,0Zm-8.52-3.64c.07,.07,.14,.13,.21,.19,2.24,2.02,5.15,3.16,8.17,3.19,.05,0,.1,0,.15,0,.05,0,.09,0,.14,0,6.76-.08,12.27-5.64,12.27-12.4,0-3.64-1.5-9.48-3.66-14.2-1.53-3.36-4.71-9-8.75-9-2.8,0-5.74,2.85-8.28,8.02-.08,.16-.16,.33-.24,.49v23.71Z"/>
      <path class="cls-4" d="M312.53,98.06c-.08,0-.14-.06-.14-.14v-29.25c0-.08,.06-.14,.14-.14,.08,0,.14,.06,.14,.14h0v29.25c0,.08-.06,.14-.14,.14Z"/>
      <path class="cls-4" d="M238.18,98.06c-.08,0-.14-.06-.14-.14v-29.25c0-.08,.06-.14,.14-.14s.14,.06,.14,.14c0,0,0,0,0,0v29.25c0,.08-.06,.14-.14,.14Z"/>
      <path class="cls-4" d="M312.53,74.14s-.08-.02-.11-.05l-7.21-8.31c-.05-.06-.05-.15,.01-.2,.06-.05,.15-.05,.2,.01l7.21,8.31c.05,.06,.05,.15-.01,.2-.03,.02-.06,.03-.09,.04Z"/>
      <path class="cls-4" d="M312.53,78.93c-.08,0-.14-.06-.14-.14,0-.04,.02-.07,.04-.1l4.09-4.09c.06-.06,.15-.06,.2,0,.06,.06,.06,.15,0,.2l-4.09,4.09s-.06,.04-.1,.04Z"/>
      <path class="cls-5" d="M325.78,98.12h-10.71v-.12c0-2.96,2.39-5.36,5.35-5.36,2.96,0,5.36,2.39,5.36,5.35h0s0,.13,0,.13Zm-10.46-.25h10.21c-.07-2.82-2.41-5.05-5.23-4.98-2.72,.07-4.91,2.26-4.98,4.98h0Z"/>
      <path class="cls-5" d="M318.59,95.1v2.76h0c0,.08,.06,.14,.14,.14,.08,0,.14-.06,.14-.14v-.88s1.65-1.41,1.65-1.41c0,0,0,0,0,0,.06-.05,.07-.14,.01-.2-.05-.06-.14-.07-.2-.01l-1.46,1.26v-1.5c0-.08-.06-.14-.14-.14s-.14,.06-.14,.14Z"/>
      <path class="cls-5" d="M337.78,98.12h-10.71v-.12c0-2.96,2.39-5.36,5.35-5.36,2.96,0,5.36,2.39,5.36,5.35h0s0,.13,0,.13Zm-10.46-.25h10.21c-.07-2.82-2.41-5.05-5.23-4.98-2.72,.07-4.91,2.26-4.98,4.98h0Z"/>
      <path class="cls-5" d="M332.43,94.96c-.08,0-.14,.06-.14,.14v1.5l-1.46-1.26c-.06-.05-.15-.04-.2,.01-.05,.06-.04,.15,.01,.2,0,0,0,0,0,0l1.65,1.41v.88c0,.08,.06,.14,.14,.14,.08,0,.14-.06,.14-.14h0v-2.76c0-.08-.06-.14-.14-.14Z"/>
      <path class="cls-5" d="M235.99,98.12h-10.71v-.12c0-2.96,2.4-5.36,5.36-5.36s5.36,2.4,5.36,5.36v.12Zm-10.46-.25h10.21c-.07-2.82-2.41-5.05-5.23-4.98-2.72,.07-4.91,2.26-4.98,4.98h0Z"/>
      <path class="cls-5" d="M228.8,95.1v2.76s0,0,0,0c0,.08,.06,.14,.14,.14s.14-.06,.14-.14v-.88s1.65-1.41,1.65-1.41c0,0,0,0,0,0,.06-.05,.07-.14,.01-.2-.05-.06-.14-.07-.2-.01l-1.46,1.26v-1.5c0-.08-.06-.14-.14-.14s-.14,.06-.14,.14Z"/>
      <path class="cls-5" d="M238.3,82.96s-.1,0-.15,0c-6.93-.08-12.51-5.72-12.51-12.65,0-3.68,1.51-9.56,3.68-14.31,1.56-3.41,4.8-9.14,8.97-9.14,1.72,0,3.45,.98,5.15,2.91,.08,.1,.17,.19,.25,.29l.03,.03v31.63l-.07,.03c-.08,.04-.17,.08-.25,.12-1.56,.69-3.25,1.06-4.96,1.07-.05,0-.1,0-.14,0Zm0-35.85c-4.04,0-7.21,5.64-8.75,9-2.15,4.72-3.66,10.56-3.66,14.2,0,6.76,5.5,12.32,12.26,12.4,.05,0,.1,0,.15,0,.05,0,.09,0,.14,0,1.68-.01,3.33-.37,4.86-1.05,.06-.03,.12-.05,.17-.08v-31.38c-.07-.09-.15-.17-.22-.25-1.65-1.88-3.32-2.83-4.96-2.83Z"/>
      <path class="cls-4" d="M238.3,74.14s-.08-.02-.11-.05l-7.21-8.31c-.05-.06-.05-.15,.01-.2,.06-.05,.15-.05,.2,.01l7.21,8.31c.05,.06,.05,.15-.01,.2-.03,.02-.06,.03-.09,.04Z"/>
      <path class="cls-4" d="M238.3,78.93c-.08,0-.14-.06-.14-.14,0-.04,.02-.07,.04-.1l4.09-4.09c.06-.06,.15-.06,.2,0,.06,.06,.06,.15,0,.2l-4.09,4.09s-.06,.04-.1,.04Z"/>
      <path class="cls-5" d="M249.55,23.83l.09,.18c.04,.08,.06,.17,.06,.25v4.92h4.36v-4.92c0-.09,.02-.18,.06-.25l.09-.18h-4.67Zm4.26,.44v4.67h-3.86v-4.67c0-.06,0-.13-.02-.19h3.91c-.01,.06-.02,.12-.02,.19h0Zm1.22-.44l.09,.18c.04,.08,.06,.17,.06,.25v4.92h4.36v-4.92c0-.09,.02-.18,.06-.25l.09-.18h-4.67Zm4.26,.44v4.67h-3.86v-4.67c0-.06,0-.13-.02-.19h3.91c-.01,.06-.02,.12-.02,.19h0Zm1.22-.44l.09,.18c.04,.08,.06,.17,.06,.25v4.92h4.36v-4.92c0-.09,.02-.18,.06-.25l.09-.18h-4.67Zm4.26,.44v4.67h-3.86v-4.67c0-.06,0-.13-.02-.19h3.91c-.01,.06-.02,.12-.02,.19h0Zm1.22-.44l.09,.18c.04,.08,.06,.17,.06,.25v4.92h4.36v-4.92c0-.09,.02-.18,.06-.25l.09-.18h-4.67Zm4.26,.44v4.67h-3.86v-4.67c0-.06,0-.13-.02-.19h3.91c-.01,.06-.02,.12-.02,.19Zm1.22-.44l.09,.18c.04,.08,.06,.17,.06,.25v4.92h4.36v-4.92c0-.09,.02-.18,.06-.25l.09-.18h-4.67Zm4.26,.44v4.67h-3.86v-4.67c0-.06,0-.13-.02-.19h3.91c-.01,.06-.02,.12-.02,.19Zm1.22-.44l.09,.18c.04,.08,.06,.17,.06,.25v4.92h4.36v-4.92c0-.09,.02-.18,.06-.25l.09-.18h-4.67Zm4.26,.44v4.67h-3.86v-4.67c0-.06,0-.13-.02-.19h3.91c-.01,.06-.02,.12-.02,.19Zm1.22-.44l.09,.18c.04,.08,.06,.17,.06,.25v4.92h4.36v-4.92c0-.09,.02-.18,.06-.25l.09-.18h-4.67Zm4.26,.44v4.67h-3.86v-4.67c0-.06,0-.13-.02-.19h3.91c-.01,.06-.02,.12-.02,.19Zm1.22-.44l.09,.18c.04,.08,.06,.17,.06,.25v4.92h4.36v-4.92c0-.09,.02-.18,.06-.25l.09-.18h-4.67Zm4.26,.44v4.67h-3.86v-4.67c0-.06,0-.13-.02-.19h3.91c-.01,.06-.02,.12-.02,.19Zm1.22-.44l.09,.18c.04,.08,.06,.17,.06,.25v4.92h4.36v-4.92c0-.09,.02-.18,.06-.25l.09-.18h-4.67Zm4.26,.44v4.67h-3.86v-4.67c0-.06,0-.13-.02-.19h3.91c-.01,.06-.02,.12-.02,.19Zm-4.26-.44l.09,.18c.04,.08,.06,.17,.06,.25v4.92h4.36v-4.92c0-.09,.02-.18,.06-.25l.09-.18h-4.67Zm4.26,.44v4.67h-3.86v-4.67c0-.06,0-.13-.02-.19h3.91c-.01,.06-.02,.12-.02,.19Zm-9.74-.44l.09,.18c.04,.08,.06,.17,.06,.25v4.92h4.36v-4.92c0-.09,.02-.18,.06-.25l.09-.18h-4.67Zm4.26,.44v4.67h-3.86v-4.67c0-.06,0-.13-.02-.19h3.91c-.01,.06-.02,.12-.02,.19Zm-9.74-.44l.09,.18c.04,.08,.06,.17,.06,.25v4.92h4.36v-4.92c0-.09,.02-.18,.06-.25l.09-.18h-4.67Zm4.26,.44v4.67h-3.86v-4.67c0-.06,0-.13-.02-.19h3.91c-.01,.06-.02,.12-.02,.19Zm-9.74-.44l.09,.18c.04,.08,.06,.17,.06,.25v4.92h4.36v-4.92c0-.09,.02-.18,.06-.25l.09-.18h-4.67Zm4.26,.44v4.67h-3.86v-4.67c0-.06,0-.13-.02-.19h3.91c-.01,.06-.02,.12-.02,.19Zm-9.74-.44l.09,.18c.04,.08,.06,.17,.06,.25v4.92h4.36v-4.92c0-.09,.02-.18,.06-.25l.09-.18h-4.67Zm4.26,.44v4.67h-3.86v-4.67c0-.06,0-.13-.02-.19h3.91c-.01,.06-.02,.12-.02,.19Zm-9.74-.44l.09,.18c.04,.08,.06,.17,.06,.25v4.92h4.36v-4.92c0-.09,.02-.18,.06-.25l.09-.18h-4.67Zm4.26,.44v4.67h-3.86v-4.67c0-.06,0-.13-.02-.19h3.91c-.01,.06-.02,.12-.02,.19Zm-9.74-.44l.09,.18c.04,.08,.06,.17,.06,.25v4.92h4.36v-4.92c0-.09,.02-.18,.06-.25l.09-.18h-4.67Zm4.26,.44v4.67h-3.86v-4.67c0-.06,0-.13-.02-.19h3.91c-.01,.06-.02,.12-.02,.19h0Zm-9.74-.44l.09,.18c.04,.08,.06,.17,.06,.25v4.92h4.36v-4.92c0-.09,.02-.18,.06-.25l.09-.18h-4.67Zm4.26,.44v4.67h-3.86v-4.67c0-.06,0-.13-.02-.19h3.91c-.01,.06-.02,.12-.02,.19h0Zm-9.74-.44l.09,.18c.04,.08,.06,.17,.06,.25v4.92h4.36v-4.92c0-.09,.02-.18,.06-.25l.09-.18h-4.67Zm4.26,.44v4.67h-3.86v-4.67c0-.06,0-.13-.02-.19h3.91c-.01,.06-.02,.12-.02,.19h0Zm39.57-.44l.09,.18c.04,.08,.06,.17,.06,.25v4.92h4.36v-4.92c0-.09,.02-.18,.06-.25l.09-.18h-4.67Zm4.26,.44v4.67h-3.86v-4.67c0-.06,0-.13-.02-.19h3.91c-.01,.06-.02,.12-.02,.19Zm-9.74-.44l.09,.18c.04,.08,.06,.17,.06,.25v4.92h4.36v-4.92c0-.09,.02-.18,.06-.25l.09-.18h-4.67Zm4.26,.44v4.67h-3.86v-4.67c0-.06,0-.13-.02-.19h3.91c-.01,.06-.02,.12-.02,.19Zm-9.74-.44l.09,.18c.04,.08,.06,.17,.06,.25v4.92h4.36v-4.92c0-.09,.02-.18,.06-.25l.09-.18h-4.67Zm4.26,.44v4.67h-3.86v-4.67c0-.06,0-.13-.02-.19h3.91c-.01,.06-.02,.12-.02,.19Zm-9.74-.44l.09,.18c.04,.08,.06,.17,.06,.25v4.92h4.36v-4.92c0-.09,.02-.18,.06-.25l.09-.18h-4.67Zm4.26,.44v4.67h-3.86v-4.67c0-.06,0-.13-.02-.19h3.91c-.01,.06-.02,.12-.02,.19Zm-9.74-.44l.09,.18c.04,.08,.06,.17,.06,.25v4.92h4.36v-4.92c0-.09,.02-.18,.06-.25l.09-.18h-4.67Zm4.26,.44v4.67h-3.86v-4.67c0-.06,0-.13-.02-.19h3.91c-.01,.06-.02,.12-.02,.19Zm-9.74-.44l.09,.18c.04,.08,.06,.17,.06,.25v4.92h4.36v-4.92c0-.09,.02-.18,.06-.25l.09-.18h-4.67Zm4.26,.44v4.67h-3.86v-4.67c0-.06,0-.13-.02-.19h3.91c-.01,.06-.02,.12-.02,.19Zm-9.74-.44l.09,.18c.04,.08,.06,.17,.06,.25v4.92h4.36v-4.92c0-.09,.02-.18,.06-.25l.09-.18h-4.67Zm4.26,.44v4.67h-3.86v-4.67c0-.06,0-.13-.02-.19h3.91c-.01,.06-.02,.12-.02,.19h0Zm-9.74-.44l.09,.18c.04,.08,.06,.17,.06,.25v4.92h4.36v-4.92c0-.09,.02-.18,.06-.25l.09-.18h-4.67Zm4.26,.44v4.67h-3.86v-4.67c0-.06,0-.13-.02-.19h3.91c-.01,.06-.02,.12-.02,.19h0Zm-9.74-.44l.09,.18c.04,.08,.06,.17,.06,.25v4.92h4.36v-4.92c0-.09,.02-.18,.06-.25l.09-.18h-4.67Zm4.26,.44v4.67h-3.86v-4.67c0-.06,0-.13-.02-.19h3.91c-.01,.06-.02,.12-.02,.19h0Zm39.57-.44l.09,.18c.04,.08,.06,.17,.06,.25v4.92h4.36v-4.92c0-.09,.02-.18,.06-.25l.09-.18h-4.67Zm4.26,.44v4.67h-3.86v-4.67c0-.06,0-.13-.02-.19h3.91c-.01,.06-.02,.12-.02,.19Zm-9.74-.44l.09,.18c.04,.08,.06,.17,.06,.25v4.92h4.36v-4.92c0-.09,.02-.18,.06-.25l.09-.18h-4.67Zm4.26,.44v4.67h-3.86v-4.67c0-.06,0-.13-.02-.19h3.91c-.01,.06-.02,.12-.02,.19Zm-9.74-.44l.09,.18c.04,.08,.06,.17,.06,.25v4.92h4.36v-4.92c0-.09,.02-.18,.06-.25l.09-.18h-4.67Zm4.26,.44v4.67h-3.86v-4.67c0-.06,0-.13-.02-.19h3.91c-.01,.06-.02,.12-.02,.19Zm-9.74-.44l.09,.18c.04,.08,.06,.17,.06,.25v4.92h4.36v-4.92c0-.09,.02-.18,.06-.25l.09-.18h-4.67Zm4.26,.44v4.67h-3.86v-4.67c0-.06,0-.13-.02-.19h3.91c-.01,.06-.02,.12-.02,.19Zm-9.74-.44l.09,.18c.04,.08,.06,.17,.06,.25v4.92h4.36v-4.92c0-.09,.02-.18,.06-.25l.09-.18h-4.67Zm4.26,.44v4.67h-3.86v-4.67c0-.06,0-.13-.02-.19h3.91c-.01,.06-.02,.12-.02,.19Zm-9.74-.44l.09,.18c.04,.08,.06,.17,.06,.25v4.92h4.36v-4.92c0-.09,.02-.18,.06-.25l.09-.18h-4.67Zm4.26,.44v4.67h-3.86v-4.67c0-.06,0-.13-.02-.19h3.91c-.01,.06-.02,.12-.02,.19Zm-9.74-.44l.09,.18c.04,.08,.06,.17,.06,.25v4.92h4.36v-4.92c0-.09,.02-.18,.06-.25l.09-.18h-4.67Zm4.26,.44v4.67h-3.86v-4.67c0-.06,0-.13-.02-.19h3.91c-.01,.06-.02,.12-.02,.19h0Zm-9.74-.44l.09,.18c.04,.08,.06,.17,.06,.25v4.92h4.36v-4.92c0-.09,.02-.18,.06-.25l.09-.18h-4.67Zm4.26,.44v4.67h-3.86v-4.67c0-.06,0-.13-.02-.19h3.91c-.01,.06-.02,.12-.02,.19h0Zm-9.74-.44l.09,.18c.04,.08,.06,.17,.06,.25v4.92h4.36v-4.92c0-.09,.02-.18,.06-.25l.09-.18h-4.67Zm4.26,.44v4.67h-3.86v-4.67c0-.06,0-.13-.02-.19h3.91c-.01,.06-.02,.12-.02,.19h0Zm39.57-.44l.09,.18c.04,.08,.06,.17,.06,.25v4.92h4.36v-4.92c0-.09,.02-.18,.06-.25l.09-.18h-4.67Zm4.26,.44v4.67h-3.86v-4.67c0-.06,0-.13-.02-.19h3.91c-.01,.06-.02,.12-.02,.19Zm-9.74-.44l.09,.18c.04,.08,.06,.17,.06,.25v4.92h4.36v-4.92c0-.09,.02-.18,.06-.25l.09-.18h-4.67Zm4.26,.44v4.67h-3.86v-4.67c0-.06,0-.13-.02-.19h3.91c-.01,.06-.02,.12-.02,.19Zm-9.74-.44l.09,.18c.04,.08,.06,.17,.06,.25v4.92h4.36v-4.92c0-.09,.02-.18,.06-.25l.09-.18h-4.67Zm4.26,.44v4.67h-3.86v-4.67c0-.06,0-.13-.02-.19h3.91c-.01,.06-.02,.12-.02,.19Zm-9.74-.44l.09,.18c.04,.08,.06,.17,.06,.25v4.92h4.36v-4.92c0-.09,.02-.18,.06-.25l.09-.18h-4.67Zm4.26,.44v4.67h-3.86v-4.67c0-.06,0-.13-.02-.19h3.91c-.01,.06-.02,.12-.02,.19Zm-9.74-.44l.09,.18c.04,.08,.06,.17,.06,.25v4.92h4.36v-4.92c0-.09,.02-.18,.06-.25l.09-.18h-4.67Zm4.26,.44v4.67h-3.86v-4.67c0-.06,0-.13-.02-.19h3.91c-.01,.06-.02,.12-.02,.19Zm-9.74-.44l.09,.18c.04,.08,.06,.17,.06,.25v4.92h4.36v-4.92c0-.09,.02-.18,.06-.25l.09-.18h-4.67Zm4.26,.44v4.67h-3.86v-4.67c0-.06,0-.13-.02-.19h3.91c-.01,.06-.02,.12-.02,.19Zm-9.74-.44l.09,.18c.04,.08,.06,.17,.06,.25v4.92h4.36v-4.92c0-.09,.02-.18,.06-.25l.09-.18h-4.67Zm4.26,.44v4.67h-3.86v-4.67c0-.06,0-.13-.02-.19h3.91c-.01,.06-.02,.12-.02,.19h0Zm-9.74-.44l.09,.18c.04,.08,.06,.17,.06,.25v4.92h4.36v-4.92c0-.09,.02-.18,.06-.25l.09-.18h-4.67Zm4.26,.44v4.67h-3.86v-4.67c0-.06,0-.13-.02-.19h3.91c-.01,.06-.02,.12-.02,.19h0Zm-9.74-.44l.09,.18c.04,.08,.06,.17,.06,.25v4.92h4.36v-4.92c0-.09,.02-.18,.06-.25l.09-.18h-4.67Zm4.26,.44v4.67h-3.86v-4.67c0-.06,0-.13-.02-.19h3.91c-.01,.06-.02,.12-.02,.19h0Zm39.57-.44l.09,.18c.04,.08,.06,.17,.06,.25v4.92h4.36v-4.92c0-.09,.02-.18,.06-.25l.09-.18h-4.67Zm4.26,.44v4.67h-3.86v-4.67c0-.06,0-.13-.02-.19h3.91c-.01,.06-.02,.12-.02,.19Zm-9.65-.25c.04,.08,.06,.17,.06,.25v4.92h4.36v-4.92c0-.09,.02-.18,.06-.25l.09-.18h-4.67l.09,.18Zm4.19,.07c-.01,.06-.02,.12-.02,.19v4.67h-3.86v-4.67c0-.06,0-.13-.02-.19h3.91Zm-9.67-.07c.04,.08,.06,.17,.06,.25v4.92h4.36v-4.92c0-.09,.02-.18,.06-.25l.09-.18h-4.67l.09,.18Zm4.19,.07c-.01,.06-.02,.12-.02,.19v4.67h-3.86v-4.67c0-.06,0-.13-.02-.19h3.91Zm-9.67-.07c.04,.08,.06,.17,.06,.25v4.92h4.36v-4.92c0-.09,.02-.18,.06-.25l.09-.18h-4.67l.09,.18Zm4.19,.07c-.01,.06-.02,.12-.02,.19v4.67h-3.86v-4.67c0-.06,0-.13-.02-.19h3.91Zm-9.67-.07c.04,.08,.06,.17,.06,.25v4.92h4.36v-4.92c0-.09,.02-.18,.06-.25l.09-.18h-4.67l.09,.18Zm4.19,.07c-.01,.06-.02,.12-.02,.19v4.67h-3.86v-4.67c0-.06,0-.13-.02-.19h3.91Zm-9.67-.07c.04,.08,.06,.17,.06,.25v4.92h4.36v-4.92c0-.09,.02-.18,.06-.25l.09-.18h-4.67l.09,.18Zm4.19,.07c-.01,.06-.02,.12-.02,.19v4.67h-3.86v-4.67c0-.06,0-.13-.02-.19h3.91Zm-9.67-.07c.04,.08,.06,.17,.06,.25v4.92h4.36v-4.92c0-.09,.02-.18,.06-.25l.09-.18h-4.67l.09,.18Zm4.19,.07c-.01,.06-.02,.12-.02,.19v4.67h-3.86v-4.67c0-.06,0-.13-.02-.19h3.91Zm-9.67-.07c.04,.08,.06,.17,.06,.25v4.92h4.36v-4.92c0-.09,.02-.18,.06-.25l.09-.18h-4.67l.09,.18Zm4.19,.07c-.01,.06-.02,.12-.02,.19v4.67h-3.86v-4.67c0-.06,0-.13-.02-.19h3.91Zm-9.67-.07c.04,.08,.06,.17,.06,.25v4.92h4.36v-4.92c0-.09,.02-.18,.06-.25l.09-.18h-4.67l.09,.18Zm4.19,.07c-.01,.06-.02,.12-.02,.19v4.67h-3.86v-4.67c0-.06,0-.13-.02-.19h3.91Zm39.64-.07c.04,.08,.06,.17,.06,.25v4.92h4.36v-4.92c0-.09,.02-.18,.06-.25l.09-.18h-4.67l.09,.18Zm4.19,.07c-.01,.06-.02,.12-.02,.19v4.67h-3.86v-4.67c0-.06,0-.13-.02-.19h3.91Zm-9.67-.07c.04,.08,.06,.17,.06,.25v4.92h4.36v-4.92c0-.09,.02-.18,.06-.25l.09-.18h-4.67l.09,.18Zm4.19,.07c-.01,.06-.02,.12-.02,.19v4.67h-3.86v-4.67c0-.06,0-.13-.02-.19h3.91Zm-9.67-.07c.04,.08,.06,.17,.06,.25v4.92h4.36v-4.92c0-.09,.02-.18,.06-.25l.09-.18h-4.67l.09,.18Zm4.19,.07c-.01,.06-.02,.12-.02,.19v4.67h-3.86v-4.67c0-.06,0-.13-.02-.19h3.91Zm-9.67-.07c.04,.08,.06,.17,.06,.25v4.92h4.36v-4.92c0-.09,.02-.18,.06-.25l.09-.18h-4.67l.09,.18Zm4.19,.07c-.01,.06-.02,.12-.02,.19v4.67h-3.86v-4.67c0-.06,0-.13-.02-.19h3.91Zm-9.67-.07c.04,.08,.06,.17,.06,.25v4.92h4.36v-4.92c0-.09,.02-.18,.06-.25l.09-.18h-4.67l.09,.18Zm4.19,.07c-.01,.06-.02,.12-.02,.19v4.67h-3.86v-4.67c0-.06,0-.13-.02-.19h3.91Zm-9.67-.07c.04,.08,.06,.17,.06,.25v4.92h4.36v-4.92c0-.09,.02-.18,.06-.25l.09-.18h-4.67l.09,.18Zm4.19,.07c-.01,.06-.02,.12-.02,.19v4.67h-3.86v-4.67c0-.06,0-.13-.02-.19h3.91Zm-9.67-.07c.04,.08,.06,.17,.06,.25v4.92h4.36v-4.92c0-.09,.02-.18,.06-.25l.09-.18h-4.67l.09,.18Zm4.19,.07c-.01,.06-.02,.12-.02,.19v4.67h-3.86v-4.67c0-.06,0-.13-.02-.19h3.91Zm-9.67-.07c.04,.08,.06,.17,.06,.25v4.92h4.36v-4.92c0-.09,.02-.18,.06-.25l.09-.18h-4.67l.09,.18Zm4.19,.07c-.01,.06-.02,.12-.02,.19v4.67h-3.86v-4.67c0-.06,0-.13-.02-.19h3.91Zm-9.67-.07c.04,.08,.06,.17,.06,.25v4.92h4.36v-4.92c0-.09,.02-.18,.06-.25l.09-.18h-4.67l.09,.18Zm4.19,.07c-.01,.06-.02,.12-.02,.19v4.67h-3.86v-4.67c0-.06,0-.13-.02-.19h3.91Zm49.05,5.85h-1.48c-.17-.59-.71-.99-1.32-1h-.81v-4.67c0-.1-.02-.2-.06-.29,.35-.21,.47-.67,.26-1.02-.13-.23-.38-.37-.64-.37h-50.06c-.41,0-.75,.33-.75,.74,0,.26,.14,.51,.37,.64-.04,.09-.06,.19-.06,.29v4.67h-.81c-.61,0-1.15,.41-1.32,1h-1.61c-.62,0-1.12,.5-1.12,1.12V96.81c0,.62,.5,1.12,1.12,1.12h58.28c.62,0,1.12-.5,1.12-1.12V31.05c0-.62-.5-1.12-1.12-1.12Zm.87,66.88c0,.36-.23,.69-.57,.82-.1,.04-.2,.06-.3,.05h-58.28c-.1,0-.21-.02-.3-.05-.34-.13-.57-.45-.57-.82V31.05c0-.48,.39-.87,.87-.87h1.81l.02-.1c.11-.52,.57-.9,1.1-.9h1.06v-4.92c0-.1,.03-.2,.08-.29l.08-.13-.14-.05c-.26-.09-.39-.38-.3-.64,.07-.2,.26-.33,.47-.33h50.06c.27,0,.5,.22,.5,.5,0,.21-.13,.4-.33,.47l-.14,.05,.08,.13c.05,.09,.08,.19,.08,.29v4.92h1.06c.53,0,.99,.38,1.1,.9l.02,.1h1.68c.48,0,.87,.39,.87,.87V96.81ZM249.55,23.83l.09,.18c.04,.08,.06,.17,.06,.25v4.92h4.36v-4.92c0-.09,.02-.18,.06-.25l.09-.18h-4.67Zm4.26,.44v4.67h-3.86v-4.67c0-.06,0-.13-.02-.19h3.91c-.01,.06-.02,.12-.02,.19h0Zm1.22-.44l.09,.18c.04,.08,.06,.17,.06,.25v4.92h4.36v-4.92c0-.09,.02-.18,.06-.25l.09-.18h-4.67Zm4.26,.44v4.67h-3.86v-4.67c0-.06,0-.13-.02-.19h3.91c-.01,.06-.02,.12-.02,.19h0Zm1.22-.44l.09,.18c.04,.08,.06,.17,.06,.25v4.92h4.36v-4.92c0-.09,.02-.18,.06-.25l.09-.18h-4.67Zm4.26,.44v4.67h-3.86v-4.67c0-.06,0-.13-.02-.19h3.91c-.01,.06-.02,.12-.02,.19h0Zm1.22-.44l.09,.18c.04,.08,.06,.17,.06,.25v4.92h4.36v-4.92c0-.09,.02-.18,.06-.25l.09-.18h-4.67Zm4.26,.44v4.67h-3.86v-4.67c0-.06,0-.13-.02-.19h3.91c-.01,.06-.02,.12-.02,.19Zm1.22-.44l.09,.18c.04,.08,.06,.17,.06,.25v4.92h4.36v-4.92c0-.09,.02-.18,.06-.25l.09-.18h-4.67Zm4.26,.44v4.67h-3.86v-4.67c0-.06,0-.13-.02-.19h3.91c-.01,.06-.02,.12-.02,.19Zm1.22-.44l.09,.18c.04,.08,.06,.17,.06,.25v4.92h4.36v-4.92c0-.09,.02-.18,.06-.25l.09-.18h-4.67Zm4.26,.44v4.67h-3.86v-4.67c0-.06,0-.13-.02-.19h3.91c-.01,.06-.02,.12-.02,.19Zm1.22-.44l.09,.18c.04,.08,.06,.17,.06,.25v4.92h4.36v-4.92c0-.09,.02-.18,.06-.25l.09-.18h-4.67Zm4.26,.44v4.67h-3.86v-4.67c0-.06,0-.13-.02-.19h3.91c-.01,.06-.02,.12-.02,.19Zm1.22-.44l.09,.18c.04,.08,.06,.17,.06,.25v4.92h4.36v-4.92c0-.09,.02-.18,.06-.25l.09-.18h-4.67Zm4.26,.44v4.67h-3.86v-4.67c0-.06,0-.13-.02-.19h3.91c-.01,.06-.02,.12-.02,.19Zm1.22-.44l.09,.18c.04,.08,.06,.17,.06,.25v4.92h4.36v-4.92c0-.09,.02-.18,.06-.25l.09-.18h-4.67Zm4.26,.44v4.67h-3.86v-4.67c0-.06,0-.13-.02-.19h3.91c-.01,.06-.02,.12-.02,.19Zm-48.1-.44l.09,.18c.04,.08,.06,.17,.06,.25v4.92h4.36v-4.92c0-.09,.02-.18,.06-.25l.09-.18h-4.67Zm4.26,.44v4.67h-3.86v-4.67c0-.06,0-.13-.02-.19h3.91c-.01,.06-.02,.12-.02,.19h0Zm1.22-.44l.09,.18c.04,.08,.06,.17,.06,.25v4.92h4.36v-4.92c0-.09,.02-.18,.06-.25l.09-.18h-4.67Zm4.26,.44v4.67h-3.86v-4.67c0-.06,0-.13-.02-.19h3.91c-.01,.06-.02,.12-.02,.19h0Zm1.22-.44l.09,.18c.04,.08,.06,.17,.06,.25v4.92h4.36v-4.92c0-.09,.02-.18,.06-.25l.09-.18h-4.67Zm4.26,.44v4.67h-3.86v-4.67c0-.06,0-.13-.02-.19h3.91c-.01,.06-.02,.12-.02,.19h0Zm1.22-.44l.09,.18c.04,.08,.06,.17,.06,.25v4.92h4.36v-4.92c0-.09,.02-.18,.06-.25l.09-.18h-4.67Zm4.26,.44v4.67h-3.86v-4.67c0-.06,0-.13-.02-.19h3.91c-.01,.06-.02,.12-.02,.19Zm1.22-.44l.09,.18c.04,.08,.06,.17,.06,.25v4.92h4.36v-4.92c0-.09,.02-.18,.06-.25l.09-.18h-4.67Zm4.26,.44v4.67h-3.86v-4.67c0-.06,0-.13-.02-.19h3.91c-.01,.06-.02,.12-.02,.19Zm1.22-.44l.09,.18c.04,.08,.06,.17,.06,.25v4.92h4.36v-4.92c0-.09,.02-.18,.06-.25l.09-.18h-4.67Zm4.26,.44v4.67h-3.86v-4.67c0-.06,0-.13-.02-.19h3.91c-.01,.06-.02,.12-.02,.19Zm1.22-.44l.09,.18c.04,.08,.06,.17,.06,.25v4.92h4.36v-4.92c0-.09,.02-.18,.06-.25l.09-.18h-4.67Zm4.26,.44v4.67h-3.86v-4.67c0-.06,0-.13-.02-.19h3.91c-.01,.06-.02,.12-.02,.19Zm1.22-.44l.09,.18c.04,.08,.06,.17,.06,.25v4.92h4.36v-4.92c0-.09,.02-.18,.06-.25l.09-.18h-4.67Zm4.26,.44v4.67h-3.86v-4.67c0-.06,0-.13-.02-.19h3.91c-.01,.06-.02,.12-.02,.19Zm1.22-.44l.09,.18c.04,.08,.06,.17,.06,.25v4.92h4.36v-4.92c0-.09,.02-.18,.06-.25l.09-.18h-4.67Zm4.26,.44v4.67h-3.86v-4.67c0-.06,0-.13-.02-.19h3.91c-.01,.06-.02,.12-.02,.19Zm-48.1-.44l.09,.18c.04,.08,.06,.17,.06,.25v4.92h4.36v-4.92c0-.09,.02-.18,.06-.25l.09-.18h-4.67Zm4.26,.44v4.67h-3.86v-4.67c0-.06,0-.13-.02-.19h3.91c-.01,.06-.02,.12-.02,.19h0Zm1.22-.44l.09,.18c.04,.08,.06,.17,.06,.25v4.92h4.36v-4.92c0-.09,.02-.18,.06-.25l.09-.18h-4.67Zm4.26,.44v4.67h-3.86v-4.67c0-.06,0-.13-.02-.19h3.91c-.01,.06-.02,.12-.02,.19h0Zm1.22-.44l.09,.18c.04,.08,.06,.17,.06,.25v4.92h4.36v-4.92c0-.09,.02-.18,.06-.25l.09-.18h-4.67Zm4.26,.44v4.67h-3.86v-4.67c0-.06,0-.13-.02-.19h3.91c-.01,.06-.02,.12-.02,.19h0Zm1.22-.44l.09,.18c.04,.08,.06,.17,.06,.25v4.92h4.36v-4.92c0-.09,.02-.18,.06-.25l.09-.18h-4.67Zm4.26,.44v4.67h-3.86v-4.67c0-.06,0-.13-.02-.19h3.91c-.01,.06-.02,.12-.02,.19Zm1.22-.44l.09,.18c.04,.08,.06,.17,.06,.25v4.92h4.36v-4.92c0-.09,.02-.18,.06-.25l.09-.18h-4.67Zm4.26,.44v4.67h-3.86v-4.67c0-.06,0-.13-.02-.19h3.91c-.01,.06-.02,.12-.02,.19Zm1.22-.44l.09,.18c.04,.08,.06,.17,.06,.25v4.92h4.36v-4.92c0-.09,.02-.18,.06-.25l.09-.18h-4.67Zm4.26,.44v4.67h-3.86v-4.67c0-.06,0-.13-.02-.19h3.91c-.01,.06-.02,.12-.02,.19Zm1.22-.44l.09,.18c.04,.08,.06,.17,.06,.25v4.92h4.36v-4.92c0-.09,.02-.18,.06-.25l.09-.18h-4.67Zm4.26,.44v4.67h-3.86v-4.67c0-.06,0-.13-.02-.19h3.91c-.01,.06-.02,.12-.02,.19Zm1.22-.44l.09,.18c.04,.08,.06,.17,.06,.25v4.92h4.36v-4.92c0-.09,.02-.18,.06-.25l.09-.18h-4.67Zm4.26,.44v4.67h-3.86v-4.67c0-.06,0-.13-.02-.19h3.91c-.01,.06-.02,.12-.02,.19Zm1.22-.44l.09,.18c.04,.08,.06,.17,.06,.25v4.92h4.36v-4.92c0-.09,.02-.18,.06-.25l.09-.18h-4.67Zm4.26,.44v4.67h-3.86v-4.67c0-.06,0-.13-.02-.19h3.91c-.01,.06-.02,.12-.02,.19Zm-48.1-.44l.09,.18c.04,.08,.06,.17,.06,.25v4.92h4.36v-4.92c0-.09,.02-.18,.06-.25l.09-.18h-4.67Zm4.26,.44v4.67h-3.86v-4.67c0-.06,0-.13-.02-.19h3.91c-.01,.06-.02,.12-.02,.19h0Zm1.22-.44l.09,.18c.04,.08,.06,.17,.06,.25v4.92h4.36v-4.92c0-.09,.02-.18,.06-.25l.09-.18h-4.67Zm4.26,.44v4.67h-3.86v-4.67c0-.06,0-.13-.02-.19h3.91c-.01,.06-.02,.12-.02,.19h0Zm1.22-.44l.09,.18c.04,.08,.06,.17,.06,.25v4.92h4.36v-4.92c0-.09,.02-.18,.06-.25l.09-.18h-4.67Zm4.26,.44v4.67h-3.86v-4.67c0-.06,0-.13-.02-.19h3.91c-.01,.06-.02,.12-.02,.19h0Zm1.22-.44l.09,.18c.04,.08,.06,.17,.06,.25v4.92h4.36v-4.92c0-.09,.02-.18,.06-.25l.09-.18h-4.67Zm4.26,.44v4.67h-3.86v-4.67c0-.06,0-.13-.02-.19h3.91c-.01,.06-.02,.12-.02,.19Zm1.22-.44l.09,.18c.04,.08,.06,.17,.06,.25v4.92h4.36v-4.92c0-.09,.02-.18,.06-.25l.09-.18h-4.67Zm4.26,.44v4.67h-3.86v-4.67c0-.06,0-.13-.02-.19h3.91c-.01,.06-.02,.12-.02,.19Zm1.22-.44l.09,.18c.04,.08,.06,.17,.06,.25v4.92h4.36v-4.92c0-.09,.02-.18,.06-.25l.09-.18h-4.67Zm4.26,.44v4.67h-3.86v-4.67c0-.06,0-.13-.02-.19h3.91c-.01,.06-.02,.12-.02,.19Zm1.22-.44l.09,.18c.04,.08,.06,.17,.06,.25v4.92h4.36v-4.92c0-.09,.02-.18,.06-.25l.09-.18h-4.67Zm4.26,.44v4.67h-3.86v-4.67c0-.06,0-.13-.02-.19h3.91c-.01,.06-.02,.12-.02,.19Zm1.22-.44l.09,.18c.04,.08,.06,.17,.06,.25v4.92h4.36v-4.92c0-.09,.02-.18,.06-.25l.09-.18h-4.67Zm4.26,.44v4.67h-3.86v-4.67c0-.06,0-.13-.02-.19h3.91c-.01,.06-.02,.12-.02,.19Zm1.22-.44l.09,.18c.04,.08,.06,.17,.06,.25v4.92h4.36v-4.92c0-.09,.02-.18,.06-.25l.09-.18h-4.67Zm4.26,.44v4.67h-3.86v-4.67c0-.06,0-.13-.02-.19h3.91c-.01,.06-.02,.12-.02,.19Z"/>
      <path class="cls-2" d="M264.36,45.62h-9.18c-.4,0-.73-.33-.73-.73v-4.89c0-.4,.33-.73,.73-.73h9.18c.4,0,.73,.33,.73,.73v4.89c0,.4-.33,.73-.73,.73Z"/>
      <path class="cls-2" d="M278.34,45.62h-9.18c-.4,0-.73-.33-.73-.73v-4.89c0-.4,.33-.73,.73-.73h9.18c.4,0,.73,.33,.73,.73v4.89c0,.4-.33,.73-.73,.73Z"/>
      <path class="cls-2" d="M292.31,45.62h-9.18c-.4,0-.73-.33-.73-.73v-4.89c0-.4,.33-.73,.73-.73h9.18c.4,0,.73,.33,.73,.73v4.89c0,.4-.33,.73-.73,.73Z"/>
      <path class="cls-2" d="M264.36,61.94h-9.18c-.4,0-.73-.33-.73-.73v-4.89c0-.4,.33-.73,.73-.73h9.18c.4,0,.73,.33,.73,.73v4.89c0,.4-.33,.73-.73,.73Z"/>
      <path class="cls-2" d="M278.34,61.94h-9.18c-.4,0-.73-.33-.73-.73v-4.89c0-.4,.33-.73,.73-.73h9.18c.4,0,.73,.33,.73,.73v4.89c0,.4-.33,.73-.73,.73Z"/>
      <path class="cls-2" d="M292.31,61.94h-9.18c-.4,0-.73-.33-.73-.73v-4.89c0-.4,.33-.73,.73-.73h9.18c.4,0,.73,.33,.73,.73v4.89c0,.4-.33,.73-.73,.73Z"/>
      <path class="cls-2" d="M264.36,78.25h-9.18c-.4,0-.73-.33-.73-.73v-4.89c0-.4,.33-.73,.73-.73h9.18c.4,0,.73,.33,.73,.73v4.89c0,.4-.33,.73-.73,.73Z"/>
      <path class="cls-2" d="M278.34,78.25h-9.18c-.4,0-.73-.33-.73-.73v-4.89c0-.4,.33-.73,.73-.73h9.18c.4,0,.73,.33,.73,.73v4.89c0,.4-.33,.73-.73,.73Z"/>
      <path class="cls-2" d="M292.31,78.25h-9.18c-.4,0-.73-.33-.73-.73v-4.89c0-.4,.33-.73,.73-.73h9.18c.4,0,.73,.33,.73,.73v4.89c0,.4-.33,.73-.73,.73Z"/>
      <path class="cls-5" d="M262.87,46.25h-10.64c-.54,0-.97-.43-.97-.97v-5.67c0-.54,.43-.97,.97-.97h10.64c.54,0,.97,.43,.97,.97v5.67c0,.54-.43,.97-.97,.97Zm-10.64-7.36c-.4,0-.72,.32-.72,.72v5.67c0,.4,.32,.72,.72,.72h10.64c.4,0,.72-.32,.72-.72v-5.67c0-.4-.32-.72-.72-.72h-10.64Z"/>
      <path class="cls-5" d="M279.06,46.25h-10.64c-.54,0-.97-.43-.97-.97v-5.67c0-.54,.43-.97,.97-.97h10.64c.54,0,.97,.43,.97,.97v5.67c0,.54-.43,.97-.97,.97Zm-10.64-7.36c-.4,0-.72,.32-.72,.72v5.67c0,.4,.32,.72,.72,.72h10.64c.4,0,.72-.32,.72-.72v-5.67c0-.4-.32-.72-.72-.72h-10.64Z"/>
      <path class="cls-5" d="M295.25,46.25h-10.64c-.54,0-.97-.43-.97-.97v-5.67c0-.54,.43-.97,.97-.97h10.64c.54,0,.97,.43,.97,.97v5.67c0,.54-.43,.97-.97,.97Zm-10.64-7.36c-.4,0-.72,.32-.72,.72v5.67c0,.4,.32,.72,.72,.72h10.64c.4,0,.72-.32,.72-.72v-5.67c0-.4-.32-.72-.72-.72h-10.64Z"/>
      <path class="cls-5" d="M262.87,62.56h-10.64c-.54,0-.97-.43-.97-.97v-5.67c0-.54,.43-.97,.97-.97h10.64c.54,0,.97,.43,.97,.97v5.67c0,.54-.43,.97-.97,.97Zm-10.64-7.36c-.4,0-.72,.32-.72,.72v5.67c0,.4,.32,.72,.72,.72h10.64c.4,0,.72-.32,.72-.72v-5.67c0-.4-.32-.72-.72-.72h-10.64Z"/>
      <path class="cls-5" d="M279.06,62.56h-10.64c-.54,0-.97-.43-.97-.97v-5.67c0-.54,.43-.97,.97-.97h10.64c.54,0,.97,.43,.97,.97v5.67c0,.54-.43,.97-.97,.97Zm-10.64-7.36c-.4,0-.72,.32-.72,.72v5.67c0,.4,.32,.72,.72,.72h10.64c.4,0,.72-.32,.72-.72v-5.67c0-.4-.32-.72-.72-.72h-10.64Z"/>
      <path class="cls-5" d="M295.25,62.56h-10.64c-.54,0-.97-.43-.97-.97v-5.67c0-.54,.43-.97,.97-.97h10.64c.54,0,.97,.43,.97,.97v5.67c0,.54-.43,.97-.97,.97Zm-10.64-7.36c-.4,0-.72,.32-.72,.72v5.67c0,.4,.32,.72,.72,.72h10.64c.4,0,.72-.32,.72-.72v-5.67c0-.4-.32-.72-.72-.72h-10.64Z"/>
      <path class="cls-5" d="M262.87,78.88h-10.64c-.54,0-.97-.43-.97-.97v-5.67c0-.54,.43-.97,.97-.97h10.64c.54,0,.97,.43,.97,.97v5.67c0,.54-.43,.97-.97,.97Zm-10.64-7.36c-.4,0-.72,.32-.72,.72v5.67c0,.4,.32,.72,.72,.72h10.64c.4,0,.72-.32,.72-.72v-5.67c0-.4-.32-.72-.72-.72h-10.64Z"/>
      <path class="cls-5" d="M279.06,78.88h-10.64c-.54,0-.97-.43-.97-.97v-5.67c0-.54,.43-.97,.97-.97h10.64c.54,0,.97,.43,.97,.97v5.67c0,.54-.43,.97-.97,.97Zm-10.64-7.36c-.4,0-.72,.32-.72,.72v5.67c0,.4,.32,.72,.72,.72h10.64c.4,0,.72-.32,.72-.72v-5.67c0-.4-.32-.72-.72-.72h-10.64Z"/>
      <path class="cls-5" d="M295.25,78.88h-10.64c-.54,0-.97-.43-.97-.97v-5.67c0-.54,.43-.97,.97-.97h10.64c.54,0,.97,.43,.97,.97v5.67c0,.54-.43,.97-.97,.97Zm-10.64-7.36c-.4,0-.72,.32-.72,.72v5.67c0,.4,.32,.72,.72,.72h10.64c.4,0,.72-.32,.72-.72v-5.67c0-.4-.32-.72-.72-.72h-10.64Z"/>
      <path class="cls-5" d="M280.03,86.06c0-.59-.47-1.08-1.06-1.08h-5.23v12.89h6.29v-11.8Z"/>
      <path class="cls-5" d="M273.87,97.74h-6.54v-11.64c0-.65,.53-1.18,1.18-1.18h5.36v12.83Zm-6.29-.25h6.04v-12.33h-5.11c-.52,0-.93,.42-.93,.93v11.4Z"/>
      <circle class="cls-5" cx="268.14" cy="91.83" r=".37"/>
    </g>
    <g>
      <path class="cls-1" d="M59.23,95.87h0c-.58,0-1.06-.47-1.06-1.06V61.67c0-.58,.47-1.06,1.06-1.06h52.31c.58,0,1.06,.47,1.06,1.06v19.32c0,.58-.47,1.05-1.05,1.06l-52.31,13.82Z"/>
      <path class="cls-5" d="M107.19,51.83h-5.11v-5.11c0-.34,.28-.62,.62-.62h3.86c.34,0,.62,.28,.62,.62v5.11Zm-4.86-.25h4.61v-4.86c0-.21-.17-.37-.37-.37h-3.86c-.21,0-.37,.17-.37,.37v4.86Z"/>
      <path class="cls-4" d="M48.69,97.93v-26.7s0,0,0,0c0-.07,.07-.13,.14-.13s.14,.06,.14,.13v26.7c0,.07-.06,.13-.14,.13-.08,0-.14-.06-.14-.13Z"/>
      <path class="cls-5" d="M127.78,98.12h-10.71v-.12c0-2.96,2.39-5.36,5.35-5.36,2.96,0,5.36,2.39,5.36,5.35h0s0,.13,0,.13Zm-10.46-.25h10.21c-.07-2.82-2.41-5.05-5.23-4.98-2.72,.07-4.91,2.26-4.98,4.98h0Z"/>
      <path class="cls-5" d="M122.43,94.96c-.08,0-.14,.06-.14,.14v1.5l-1.46-1.26c-.06-.05-.15-.04-.2,.01-.05,.06-.04,.15,.01,.2,0,0,0,0,0,0l1.65,1.41v.88c0,.08,.06,.14,.14,.14,.08,0,.14-.06,.14-.14h0v-2.76c0-.08-.06-.14-.14-.14Z"/>
      <path class="cls-5" d="M139.24,98.12h-10.71v-.12c0-2.96,2.39-5.36,5.35-5.36,2.96,0,5.36,2.39,5.36,5.35h0s0,.13,0,.13Zm-10.46-.25h10.21c-.07-2.82-2.41-5.05-5.23-4.98-2.72,.07-4.91,2.26-4.98,4.98h0Z"/>
      <path class="cls-5" d="M132.04,95.1v2.76h0c0,.08,.06,.14,.14,.14,.08,0,.14-.06,.14-.14v-.88s1.65-1.41,1.65-1.41c0,0,0,0,0,0,.06-.05,.07-.14,.01-.2-.05-.06-.14-.07-.2-.01l-1.46,1.26v-1.5c0-.08-.06-.14-.14-.14s-.14,.06-.14,.14Z"/>
      <path class="cls-5" d="M150.69,98.12h-10.71v-.12c0-2.96,2.39-5.36,5.35-5.36,2.96,0,5.36,2.39,5.36,5.35h0s0,.13,0,.13Zm-10.46-.25h10.21c-.07-2.82-2.41-5.05-5.23-4.98-2.72,.07-4.91,2.26-4.98,4.98h0Z"/>
      <path class="cls-5" d="M145.34,94.96c-.08,0-.14,.06-.14,.14v1.5l-1.46-1.26c-.06-.05-.15-.04-.2,.01-.05,.06-.04,.15,.01,.2,0,0,0,0,0,0l1.65,1.41v.88c0,.08,.06,.14,.14,.14,.08,0,.14-.06,.14-.14h0v-2.76c0-.08-.06-.14-.14-.14Z"/>
      <path class="cls-5" d="M47.99,98.12h-10.71v-.12c0-2.96,2.4-5.36,5.36-5.36s5.36,2.4,5.36,5.36v.12Zm-10.46-.25h10.21c-.07-2.82-2.41-5.05-5.23-4.98-2.72,.07-4.91,2.26-4.98,4.98h0Z"/>
      <path class="cls-5" d="M42.64,94.96c-.08,0-.14,.06-.14,.14v1.5l-1.46-1.26c-.06-.05-.15-.04-.2,.01-.05,.06-.04,.15,.01,.2,0,0,0,0,0,0l1.65,1.41v.88c0,.08,.06,.14,.14,.14s.14-.06,.14-.14c0,0,0,0,0,0v-2.76c0-.08-.06-.14-.14-.14Z"/>
      <path class="cls-5" d="M51.19,87.5s-.08,0-.12,0c-5.75-.06-10.37-4.74-10.37-10.49,0-3.05,1.26-7.93,3.05-11.87,1.29-2.83,3.98-7.58,7.44-7.58,1.43,0,2.86,.81,4.27,2.42,.07,.08,.14,.16,.21,.24l.02,.03v26.24l-.06,.03c-.07,.03-.14,.07-.21,.1-1.3,.57-2.7,.88-4.11,.89-.04,0-.08,0-.12,0Zm0-29.73c-3.35,0-5.98,4.68-7.26,7.46-1.79,3.91-3.04,8.76-3.04,11.78,0,5.61,4.56,10.22,10.17,10.28,.04,0,.08,0,.12,0,.04,0,.08,0,.11,0,1.39-.01,2.76-.31,4.03-.87,.05-.02,.1-.04,.15-.06v-26.03c-.06-.07-.12-.14-.18-.21-1.37-1.56-2.75-2.35-4.12-2.35Z"/>
      <path class="cls-4" d="M48.59,76.2s-.04-.08,0-.11l4.19-4.41s.08-.04,.12,0c.03,.03,.04,.08,0,.11l-4.19,4.41s-.04,.03-.06,.03c-.02,0-.04,0-.05-.02Z"/>
      <path class="cls-4" d="M48.7,81.91l-2.58-2.58s-.03-.09,0-.13c.04-.04,.09-.04,.13,0l2.58,2.58s.03,.04,.03,.06c0,.05-.04,.09-.09,.09-.02,0-.05,0-.06-.03Z"/>
      <path class="cls-5" d="M61.55,52.83l.09,.18c.04,.08,.06,.17,.06,.25v4.92h4.36v-4.92c0-.09,.02-.18,.06-.25l.09-.18h-4.67Zm4.26,.44v4.67h-3.86v-4.67c0-.06,0-.13-.02-.19h3.91c-.01,.06-.02,.12-.02,.19h0Zm1.22-.44l.09,.18c.04,.08,.06,.17,.06,.25v4.92h4.36v-4.92c0-.09,.02-.18,.06-.25l.09-.18h-4.67Zm4.26,.44v4.67h-3.86v-4.67c0-.06,0-.13-.02-.19h3.91c-.01,.06-.02,.12-.02,.19h0Zm1.22-.44l.09,.18c.04,.08,.06,.17,.06,.25v4.92h4.36v-4.92c0-.09,.02-.18,.06-.25l.09-.18h-4.67Zm4.26,.44v4.67h-3.86v-4.67c0-.06,0-.13-.02-.19h3.91c-.01,.06-.02,.12-.02,.19h0Zm1.22-.44l.09,.18c.04,.08,.06,.17,.06,.25v4.92h4.36v-4.92c0-.09,.02-.18,.06-.25l.09-.18h-4.67Zm4.26,.44v4.67h-3.86v-4.67c0-.06,0-.13-.02-.19h3.91c-.01,.06-.02,.12-.02,.19Zm1.22-.44l.09,.18c.04,.08,.06,.17,.06,.25v4.92h4.36v-4.92c0-.09,.02-.18,.06-.25l.09-.18h-4.67Zm4.26,.44v4.67h-3.86v-4.67c0-.06,0-.13-.02-.19h3.91c-.01,.06-.02,.12-.02,.19Zm1.22-.44l.09,.18c.04,.08,.06,.17,.06,.25v4.92h4.36v-4.92c0-.09,.02-.18,.06-.25l.09-.18h-4.67Zm4.26,.44v4.67h-3.86v-4.67c0-.06,0-.13-.02-.19h3.91c-.01,.06-.02,.12-.02,.19Zm1.22-.44l.09,.18c.04,.08,.06,.17,.06,.25v4.92h4.36v-4.92c0-.09,.02-.18,.06-.25l.09-.18h-4.67Zm4.26,.44v4.67h-3.86v-4.67c0-.06,0-.13-.02-.19h3.91c-.01,.06-.02,.12-.02,.19Zm1.22-.44l.09,.18c.04,.08,.06,.17,.06,.25v4.92h4.36v-4.92c0-.09,.02-.18,.06-.25l.09-.18h-4.67Zm4.26,.44v4.67h-3.86v-4.67c0-.06,0-.13-.02-.19h3.91c-.01,.06-.02,.12-.02,.19Zm1.22-.44l.09,.18c.04,.08,.06,.17,.06,.25v4.92h4.36v-4.92c0-.09,.02-.18,.06-.25l.09-.18h-4.67Zm4.26,.44v4.67h-3.86v-4.67c0-.06,0-.13-.02-.19h3.91c-.01,.06-.02,.12-.02,.19Zm-4.26-.44l.09,.18c.04,.08,.06,.17,.06,.25v4.92h4.36v-4.92c0-.09,.02-.18,.06-.25l.09-.18h-4.67Zm4.26,.44v4.67h-3.86v-4.67c0-.06,0-.13-.02-.19h3.91c-.01,.06-.02,.12-.02,.19Zm-9.74-.44l.09,.18c.04,.08,.06,.17,.06,.25v4.92h4.36v-4.92c0-.09,.02-.18,.06-.25l.09-.18h-4.67Zm4.26,.44v4.67h-3.86v-4.67c0-.06,0-.13-.02-.19h3.91c-.01,.06-.02,.12-.02,.19Zm-9.74-.44l.09,.18c.04,.08,.06,.17,.06,.25v4.92h4.36v-4.92c0-.09,.02-.18,.06-.25l.09-.18h-4.67Zm4.26,.44v4.67h-3.86v-4.67c0-.06,0-.13-.02-.19h3.91c-.01,.06-.02,.12-.02,.19Zm-9.74-.44l.09,.18c.04,.08,.06,.17,.06,.25v4.92h4.36v-4.92c0-.09,.02-.18,.06-.25l.09-.18h-4.67Zm4.26,.44v4.67h-3.86v-4.67c0-.06,0-.13-.02-.19h3.91c-.01,.06-.02,.12-.02,.19Zm-9.74-.44l.09,.18c.04,.08,.06,.17,.06,.25v4.92h4.36v-4.92c0-.09,.02-.18,.06-.25l.09-.18h-4.67Zm4.26,.44v4.67h-3.86v-4.67c0-.06,0-.13-.02-.19h3.91c-.01,.06-.02,.12-.02,.19Zm-9.74-.44l.09,.18c.04,.08,.06,.17,.06,.25v4.92h4.36v-4.92c0-.09,.02-.18,.06-.25l.09-.18h-4.67Zm4.26,.44v4.67h-3.86v-4.67c0-.06,0-.13-.02-.19h3.91c-.01,.06-.02,.12-.02,.19Zm-9.74-.44l.09,.18c.04,.08,.06,.17,.06,.25v4.92h4.36v-4.92c0-.09,.02-.18,.06-.25l.09-.18h-4.67Zm4.26,.44v4.67h-3.86v-4.67c0-.06,0-.13-.02-.19h3.91c-.01,.06-.02,.12-.02,.19h0Zm-9.74-.44l.09,.18c.04,.08,.06,.17,.06,.25v4.92h4.36v-4.92c0-.09,.02-.18,.06-.25l.09-.18h-4.67Zm4.26,.44v4.67h-3.86v-4.67c0-.06,0-.13-.02-.19h3.91c-.01,.06-.02,.12-.02,.19h0Zm-9.74-.44l.09,.18c.04,.08,.06,.17,.06,.25v4.92h4.36v-4.92c0-.09,.02-.18,.06-.25l.09-.18h-4.67Zm4.26,.44v4.67h-3.86v-4.67c0-.06,0-.13-.02-.19h3.91c-.01,.06-.02,.12-.02,.19h0Zm39.57-.44l.09,.18c.04,.08,.06,.17,.06,.25v4.92h4.36v-4.92c0-.09,.02-.18,.06-.25l.09-.18h-4.67Zm4.26,.44v4.67h-3.86v-4.67c0-.06,0-.13-.02-.19h3.91c-.01,.06-.02,.12-.02,.19Zm-9.74-.44l.09,.18c.04,.08,.06,.17,.06,.25v4.92h4.36v-4.92c0-.09,.02-.18,.06-.25l.09-.18h-4.67Zm4.26,.44v4.67h-3.86v-4.67c0-.06,0-.13-.02-.19h3.91c-.01,.06-.02,.12-.02,.19Zm-9.74-.44l.09,.18c.04,.08,.06,.17,.06,.25v4.92h4.36v-4.92c0-.09,.02-.18,.06-.25l.09-.18h-4.67Zm4.26,.44v4.67h-3.86v-4.67c0-.06,0-.13-.02-.19h3.91c-.01,.06-.02,.12-.02,.19Zm-9.74-.44l.09,.18c.04,.08,.06,.17,.06,.25v4.92h4.36v-4.92c0-.09,.02-.18,.06-.25l.09-.18h-4.67Zm4.26,.44v4.67h-3.86v-4.67c0-.06,0-.13-.02-.19h3.91c-.01,.06-.02,.12-.02,.19Zm-9.74-.44l.09,.18c.04,.08,.06,.17,.06,.25v4.92h4.36v-4.92c0-.09,.02-.18,.06-.25l.09-.18h-4.67Zm4.26,.44v4.67h-3.86v-4.67c0-.06,0-.13-.02-.19h3.91c-.01,.06-.02,.12-.02,.19Zm-9.74-.44l.09,.18c.04,.08,.06,.17,.06,.25v4.92h4.36v-4.92c0-.09,.02-.18,.06-.25l.09-.18h-4.67Zm4.26,.44v4.67h-3.86v-4.67c0-.06,0-.13-.02-.19h3.91c-.01,.06-.02,.12-.02,.19Zm-9.74-.44l.09,.18c.04,.08,.06,.17,.06,.25v4.92h4.36v-4.92c0-.09,.02-.18,.06-.25l.09-.18h-4.67Zm4.26,.44v4.67h-3.86v-4.67c0-.06,0-.13-.02-.19h3.91c-.01,.06-.02,.12-.02,.19h0Zm-9.74-.44l.09,.18c.04,.08,.06,.17,.06,.25v4.92h4.36v-4.92c0-.09,.02-.18,.06-.25l.09-.18h-4.67Zm4.26,.44v4.67h-3.86v-4.67c0-.06,0-.13-.02-.19h3.91c-.01,.06-.02,.12-.02,.19h0Zm-9.74-.44l.09,.18c.04,.08,.06,.17,.06,.25v4.92h4.36v-4.92c0-.09,.02-.18,.06-.25l.09-.18h-4.67Zm4.26,.44v4.67h-3.86v-4.67c0-.06,0-.13-.02-.19h3.91c-.01,.06-.02,.12-.02,.19h0Zm39.57-.44l.09,.18c.04,.08,.06,.17,.06,.25v4.92h4.36v-4.92c0-.09,.02-.18,.06-.25l.09-.18h-4.67Zm4.26,.44v4.67h-3.86v-4.67c0-.06,0-.13-.02-.19h3.91c-.01,.06-.02,.12-.02,.19Zm-9.74-.44l.09,.18c.04,.08,.06,.17,.06,.25v4.92h4.36v-4.92c0-.09,.02-.18,.06-.25l.09-.18h-4.67Zm4.26,.44v4.67h-3.86v-4.67c0-.06,0-.13-.02-.19h3.91c-.01,.06-.02,.12-.02,.19Zm-9.74-.44l.09,.18c.04,.08,.06,.17,.06,.25v4.92h4.36v-4.92c0-.09,.02-.18,.06-.25l.09-.18h-4.67Zm4.26,.44v4.67h-3.86v-4.67c0-.06,0-.13-.02-.19h3.91c-.01,.06-.02,.12-.02,.19Zm-9.74-.44l.09,.18c.04,.08,.06,.17,.06,.25v4.92h4.36v-4.92c0-.09,.02-.18,.06-.25l.09-.18h-4.67Zm4.26,.44v4.67h-3.86v-4.67c0-.06,0-.13-.02-.19h3.91c-.01,.06-.02,.12-.02,.19Zm-9.74-.44l.09,.18c.04,.08,.06,.17,.06,.25v4.92h4.36v-4.92c0-.09,.02-.18,.06-.25l.09-.18h-4.67Zm4.26,.44v4.67h-3.86v-4.67c0-.06,0-.13-.02-.19h3.91c-.01,.06-.02,.12-.02,.19Zm-9.74-.44l.09,.18c.04,.08,.06,.17,.06,.25v4.92h4.36v-4.92c0-.09,.02-.18,.06-.25l.09-.18h-4.67Zm4.26,.44v4.67h-3.86v-4.67c0-.06,0-.13-.02-.19h3.91c-.01,.06-.02,.12-.02,.19Zm-9.74-.44l.09,.18c.04,.08,.06,.17,.06,.25v4.92h4.36v-4.92c0-.09,.02-.18,.06-.25l.09-.18h-4.67Zm4.26,.44v4.67h-3.86v-4.67c0-.06,0-.13-.02-.19h3.91c-.01,.06-.02,.12-.02,.19h0Zm-9.74-.44l.09,.18c.04,.08,.06,.17,.06,.25v4.92h4.36v-4.92c0-.09,.02-.18,.06-.25l.09-.18h-4.67Zm4.26,.44v4.67h-3.86v-4.67c0-.06,0-.13-.02-.19h3.91c-.01,.06-.02,.12-.02,.19h0Zm-9.74-.44l.09,.18c.04,.08,.06,.17,.06,.25v4.92h4.36v-4.92c0-.09,.02-.18,.06-.25l.09-.18h-4.67Zm4.26,.44v4.67h-3.86v-4.67c0-.06,0-.13-.02-.19h3.91c-.01,.06-.02,.12-.02,.19h0Zm39.57-.44l.09,.18c.04,.08,.06,.17,.06,.25v4.92h4.36v-4.92c0-.09,.02-.18,.06-.25l.09-.18h-4.67Zm4.26,.44v4.67h-3.86v-4.67c0-.06,0-.13-.02-.19h3.91c-.01,.06-.02,.12-.02,.19Zm-9.74-.44l.09,.18c.04,.08,.06,.17,.06,.25v4.92h4.36v-4.92c0-.09,.02-.18,.06-.25l.09-.18h-4.67Zm4.26,.44v4.67h-3.86v-4.67c0-.06,0-.13-.02-.19h3.91c-.01,.06-.02,.12-.02,.19Zm-9.74-.44l.09,.18c.04,.08,.06,.17,.06,.25v4.92h4.36v-4.92c0-.09,.02-.18,.06-.25l.09-.18h-4.67Zm4.26,.44v4.67h-3.86v-4.67c0-.06,0-.13-.02-.19h3.91c-.01,.06-.02,.12-.02,.19Zm-9.74-.44l.09,.18c.04,.08,.06,.17,.06,.25v4.92h4.36v-4.92c0-.09,.02-.18,.06-.25l.09-.18h-4.67Zm4.26,.44v4.67h-3.86v-4.67c0-.06,0-.13-.02-.19h3.91c-.01,.06-.02,.12-.02,.19Zm-9.74-.44l.09,.18c.04,.08,.06,.17,.06,.25v4.92h4.36v-4.92c0-.09,.02-.18,.06-.25l.09-.18h-4.67Zm4.26,.44v4.67h-3.86v-4.67c0-.06,0-.13-.02-.19h3.91c-.01,.06-.02,.12-.02,.19Zm-9.74-.44l.09,.18c.04,.08,.06,.17,.06,.25v4.92h4.36v-4.92c0-.09,.02-.18,.06-.25l.09-.18h-4.67Zm4.26,.44v4.67h-3.86v-4.67c0-.06,0-.13-.02-.19h3.91c-.01,.06-.02,.12-.02,.19Zm-9.74-.44l.09,.18c.04,.08,.06,.17,.06,.25v4.92h4.36v-4.92c0-.09,.02-.18,.06-.25l.09-.18h-4.67Zm4.26,.44v4.67h-3.86v-4.67c0-.06,0-.13-.02-.19h3.91c-.01,.06-.02,.12-.02,.19h0Zm-9.74-.44l.09,.18c.04,.08,.06,.17,.06,.25v4.92h4.36v-4.92c0-.09,.02-.18,.06-.25l.09-.18h-4.67Zm4.26,.44v4.67h-3.86v-4.67c0-.06,0-.13-.02-.19h3.91c-.01,.06-.02,.12-.02,.19h0Zm-9.74-.44l.09,.18c.04,.08,.06,.17,.06,.25v4.92h4.36v-4.92c0-.09,.02-.18,.06-.25l.09-.18h-4.67Zm4.26,.44v4.67h-3.86v-4.67c0-.06,0-.13-.02-.19h3.91c-.01,.06-.02,.12-.02,.19h0Zm39.57-.44l.09,.18c.04,.08,.06,.17,.06,.25v4.92h4.36v-4.92c0-.09,.02-.18,.06-.25l.09-.18h-4.67Zm4.26,.44v4.67h-3.86v-4.67c0-.06,0-.13-.02-.19h3.91c-.01,.06-.02,.12-.02,.19Zm-9.65-.25c.04,.08,.06,.17,.06,.25v4.92h4.36v-4.92c0-.09,.02-.18,.06-.25l.09-.18h-4.67l.09,.18Zm4.19,.07c-.01,.06-.02,.12-.02,.19v4.67h-3.86v-4.67c0-.06,0-.13-.02-.19h3.91Zm-9.67-.07c.04,.08,.06,.17,.06,.25v4.92h4.36v-4.92c0-.09,.02-.18,.06-.25l.09-.18h-4.67l.09,.18Zm4.19,.07c-.01,.06-.02,.12-.02,.19v4.67h-3.86v-4.67c0-.06,0-.13-.02-.19h3.91Zm-9.67-.07c.04,.08,.06,.17,.06,.25v4.92h4.36v-4.92c0-.09,.02-.18,.06-.25l.09-.18h-4.67l.09,.18Zm4.19,.07c-.01,.06-.02,.12-.02,.19v4.67h-3.86v-4.67c0-.06,0-.13-.02-.19h3.91Zm-9.67-.07c.04,.08,.06,.17,.06,.25v4.92h4.36v-4.92c0-.09,.02-.18,.06-.25l.09-.18h-4.67l.09,.18Zm4.19,.07c-.01,.06-.02,.12-.02,.19v4.67h-3.86v-4.67c0-.06,0-.13-.02-.19h3.91Zm-9.67-.07c.04,.08,.06,.17,.06,.25v4.92h4.36v-4.92c0-.09,.02-.18,.06-.25l.09-.18h-4.67l.09,.18Zm4.19,.07c-.01,.06-.02,.12-.02,.19v4.67h-3.86v-4.67c0-.06,0-.13-.02-.19h3.91Zm-9.67-.07c.04,.08,.06,.17,.06,.25v4.92h4.36v-4.92c0-.09,.02-.18,.06-.25l.09-.18h-4.67l.09,.18Zm4.19,.07c-.01,.06-.02,.12-.02,.19v4.67h-3.86v-4.67c0-.06,0-.13-.02-.19h3.91Zm-9.67-.07c.04,.08,.06,.17,.06,.25v4.92h4.36v-4.92c0-.09,.02-.18,.06-.25l.09-.18h-4.67l.09,.18Zm4.19,.07c-.01,.06-.02,.12-.02,.19v4.67h-3.86v-4.67c0-.06,0-.13-.02-.19h3.91Zm-9.67-.07c.04,.08,.06,.17,.06,.25v4.92h4.36v-4.92c0-.09,.02-.18,.06-.25l.09-.18h-4.67l.09,.18Zm4.19,.07c-.01,.06-.02,.12-.02,.19v4.67h-3.86v-4.67c0-.06,0-.13-.02-.19h3.91Zm39.64-.07c.04,.08,.06,.17,.06,.25v4.92h4.36v-4.92c0-.09,.02-.18,.06-.25l.09-.18h-4.67l.09,.18Zm4.19,.07c-.01,.06-.02,.12-.02,.19v4.67h-3.86v-4.67c0-.06,0-.13-.02-.19h3.91Zm-9.67-.07c.04,.08,.06,.17,.06,.25v4.92h4.36v-4.92c0-.09,.02-.18,.06-.25l.09-.18h-4.67l.09,.18Zm4.19,.07c-.01,.06-.02,.12-.02,.19v4.67h-3.86v-4.67c0-.06,0-.13-.02-.19h3.91Zm-9.67-.07c.04,.08,.06,.17,.06,.25v4.92h4.36v-4.92c0-.09,.02-.18,.06-.25l.09-.18h-4.67l.09,.18Zm4.19,.07c-.01,.06-.02,.12-.02,.19v4.67h-3.86v-4.67c0-.06,0-.13-.02-.19h3.91Zm-9.67-.07c.04,.08,.06,.17,.06,.25v4.92h4.36v-4.92c0-.09,.02-.18,.06-.25l.09-.18h-4.67l.09,.18Zm4.19,.07c-.01,.06-.02,.12-.02,.19v4.67h-3.86v-4.67c0-.06,0-.13-.02-.19h3.91Zm-9.67-.07c.04,.08,.06,.17,.06,.25v4.92h4.36v-4.92c0-.09,.02-.18,.06-.25l.09-.18h-4.67l.09,.18Zm4.19,.07c-.01,.06-.02,.12-.02,.19v4.67h-3.86v-4.67c0-.06,0-.13-.02-.19h3.91Zm-9.67-.07c.04,.08,.06,.17,.06,.25v4.92h4.36v-4.92c0-.09,.02-.18,.06-.25l.09-.18h-4.67l.09,.18Zm4.19,.07c-.01,.06-.02,.12-.02,.19v4.67h-3.86v-4.67c0-.06,0-.13-.02-.19h3.91Zm-9.67-.07c.04,.08,.06,.17,.06,.25v4.92h4.36v-4.92c0-.09,.02-.18,.06-.25l.09-.18h-4.67l.09,.18Zm4.19,.07c-.01,.06-.02,.12-.02,.19v4.67h-3.86v-4.67c0-.06,0-.13-.02-.19h3.91Zm-9.67-.07c.04,.08,.06,.17,.06,.25v4.92h4.36v-4.92c0-.09,.02-.18,.06-.25l.09-.18h-4.67l.09,.18Zm4.19,.07c-.01,.06-.02,.12-.02,.19v4.67h-3.86v-4.67c0-.06,0-.13-.02-.19h3.91Zm-9.67-.07c.04,.08,.06,.17,.06,.25v4.92h4.36v-4.92c0-.09,.02-.18,.06-.25l.09-.18h-4.67l.09,.18Zm4.19,.07c-.01,.06-.02,.12-.02,.19v4.67h-3.86v-4.67c0-.06,0-.13-.02-.19h3.91Zm49.05,5.85h-1.48c-.17-.59-.71-.99-1.32-1h-.81v-4.67c0-.1-.02-.2-.06-.29,.35-.21,.47-.67,.26-1.02-.13-.23-.38-.37-.64-.37H60.77c-.41,0-.75,.33-.75,.74,0,.26,.14,.51,.37,.64-.04,.09-.06,.19-.06,.29v4.67h-.81c-.61,0-1.15,.41-1.32,1h-1.61c-.62,0-1.12,.5-1.12,1.12v36.76c0,.62,.5,1.12,1.12,1.12h58.28c.62,0,1.12-.5,1.12-1.12V60.05c0-.62-.5-1.12-1.12-1.12Zm.87,37.88c0,.36-.23,.69-.57,.82-.1,.04-.2,.06-.3,.05H56.6c-.1,0-.21-.02-.3-.05-.34-.13-.57-.45-.57-.82V60.05c0-.48,.39-.87,.87-.87h1.81l.02-.1c.11-.52,.57-.9,1.1-.9h1.06v-4.92c0-.1,.03-.2,.08-.29l.08-.13-.14-.05c-.26-.09-.39-.38-.3-.64,.07-.2,.26-.33,.47-.33h50.06c.27,0,.5,.22,.5,.5,0,.21-.13,.4-.33,.47l-.14,.05,.08,.13c.05,.09,.08,.19,.08,.29v4.92h1.06c.53,0,.99,.38,1.1,.9l.02,.1h1.68c.48,0,.87,.39,.87,.87v36.76ZM61.55,52.83l.09,.18c.04,.08,.06,.17,.06,.25v4.92h4.36v-4.92c0-.09,.02-.18,.06-.25l.09-.18h-4.67Zm4.26,.44v4.67h-3.86v-4.67c0-.06,0-.13-.02-.19h3.91c-.01,.06-.02,.12-.02,.19h0Zm1.22-.44l.09,.18c.04,.08,.06,.17,.06,.25v4.92h4.36v-4.92c0-.09,.02-.18,.06-.25l.09-.18h-4.67Zm4.26,.44v4.67h-3.86v-4.67c0-.06,0-.13-.02-.19h3.91c-.01,.06-.02,.12-.02,.19h0Zm1.22-.44l.09,.18c.04,.08,.06,.17,.06,.25v4.92h4.36v-4.92c0-.09,.02-.18,.06-.25l.09-.18h-4.67Zm4.26,.44v4.67h-3.86v-4.67c0-.06,0-.13-.02-.19h3.91c-.01,.06-.02,.12-.02,.19h0Zm1.22-.44l.09,.18c.04,.08,.06,.17,.06,.25v4.92h4.36v-4.92c0-.09,.02-.18,.06-.25l.09-.18h-4.67Zm4.26,.44v4.67h-3.86v-4.67c0-.06,0-.13-.02-.19h3.91c-.01,.06-.02,.12-.02,.19Zm1.22-.44l.09,.18c.04,.08,.06,.17,.06,.25v4.92h4.36v-4.92c0-.09,.02-.18,.06-.25l.09-.18h-4.67Zm4.26,.44v4.67h-3.86v-4.67c0-.06,0-.13-.02-.19h3.91c-.01,.06-.02,.12-.02,.19Zm1.22-.44l.09,.18c.04,.08,.06,.17,.06,.25v4.92h4.36v-4.92c0-.09,.02-.18,.06-.25l.09-.18h-4.67Zm4.26,.44v4.67h-3.86v-4.67c0-.06,0-.13-.02-.19h3.91c-.01,.06-.02,.12-.02,.19Zm1.22-.44l.09,.18c.04,.08,.06,.17,.06,.25v4.92h4.36v-4.92c0-.09,.02-.18,.06-.25l.09-.18h-4.67Zm4.26,.44v4.67h-3.86v-4.67c0-.06,0-.13-.02-.19h3.91c-.01,.06-.02,.12-.02,.19Zm1.22-.44l.09,.18c.04,.08,.06,.17,.06,.25v4.92h4.36v-4.92c0-.09,.02-.18,.06-.25l.09-.18h-4.67Zm4.26,.44v4.67h-3.86v-4.67c0-.06,0-.13-.02-.19h3.91c-.01,.06-.02,.12-.02,.19Zm1.22-.44l.09,.18c.04,.08,.06,.17,.06,.25v4.92h4.36v-4.92c0-.09,.02-.18,.06-.25l.09-.18h-4.67Zm4.26,.44v4.67h-3.86v-4.67c0-.06,0-.13-.02-.19h3.91c-.01,.06-.02,.12-.02,.19Zm-48.1-.44l.09,.18c.04,.08,.06,.17,.06,.25v4.92h4.36v-4.92c0-.09,.02-.18,.06-.25l.09-.18h-4.67Zm4.26,.44v4.67h-3.86v-4.67c0-.06,0-.13-.02-.19h3.91c-.01,.06-.02,.12-.02,.19h0Zm1.22-.44l.09,.18c.04,.08,.06,.17,.06,.25v4.92h4.36v-4.92c0-.09,.02-.18,.06-.25l.09-.18h-4.67Zm4.26,.44v4.67h-3.86v-4.67c0-.06,0-.13-.02-.19h3.91c-.01,.06-.02,.12-.02,.19h0Zm1.22-.44l.09,.18c.04,.08,.06,.17,.06,.25v4.92h4.36v-4.92c0-.09,.02-.18,.06-.25l.09-.18h-4.67Zm4.26,.44v4.67h-3.86v-4.67c0-.06,0-.13-.02-.19h3.91c-.01,.06-.02,.12-.02,.19h0Zm1.22-.44l.09,.18c.04,.08,.06,.17,.06,.25v4.92h4.36v-4.92c0-.09,.02-.18,.06-.25l.09-.18h-4.67Zm4.26,.44v4.67h-3.86v-4.67c0-.06,0-.13-.02-.19h3.91c-.01,.06-.02,.12-.02,.19Zm1.22-.44l.09,.18c.04,.08,.06,.17,.06,.25v4.92h4.36v-4.92c0-.09,.02-.18,.06-.25l.09-.18h-4.67Zm4.26,.44v4.67h-3.86v-4.67c0-.06,0-.13-.02-.19h3.91c-.01,.06-.02,.12-.02,.19Zm1.22-.44l.09,.18c.04,.08,.06,.17,.06,.25v4.92h4.36v-4.92c0-.09,.02-.18,.06-.25l.09-.18h-4.67Zm4.26,.44v4.67h-3.86v-4.67c0-.06,0-.13-.02-.19h3.91c-.01,.06-.02,.12-.02,.19Zm1.22-.44l.09,.18c.04,.08,.06,.17,.06,.25v4.92h4.36v-4.92c0-.09,.02-.18,.06-.25l.09-.18h-4.67Zm4.26,.44v4.67h-3.86v-4.67c0-.06,0-.13-.02-.19h3.91c-.01,.06-.02,.12-.02,.19Zm1.22-.44l.09,.18c.04,.08,.06,.17,.06,.25v4.92h4.36v-4.92c0-.09,.02-.18,.06-.25l.09-.18h-4.67Zm4.26,.44v4.67h-3.86v-4.67c0-.06,0-.13-.02-.19h3.91c-.01,.06-.02,.12-.02,.19Zm1.22-.44l.09,.18c.04,.08,.06,.17,.06,.25v4.92h4.36v-4.92c0-.09,.02-.18,.06-.25l.09-.18h-4.67Zm4.26,.44v4.67h-3.86v-4.67c0-.06,0-.13-.02-.19h3.91c-.01,.06-.02,.12-.02,.19Zm-48.1-.44l.09,.18c.04,.08,.06,.17,.06,.25v4.92h4.36v-4.92c0-.09,.02-.18,.06-.25l.09-.18h-4.67Zm4.26,.44v4.67h-3.86v-4.67c0-.06,0-.13-.02-.19h3.91c-.01,.06-.02,.12-.02,.19h0Zm1.22-.44l.09,.18c.04,.08,.06,.17,.06,.25v4.92h4.36v-4.92c0-.09,.02-.18,.06-.25l.09-.18h-4.67Zm4.26,.44v4.67h-3.86v-4.67c0-.06,0-.13-.02-.19h3.91c-.01,.06-.02,.12-.02,.19h0Zm1.22-.44l.09,.18c.04,.08,.06,.17,.06,.25v4.92h4.36v-4.92c0-.09,.02-.18,.06-.25l.09-.18h-4.67Zm4.26,.44v4.67h-3.86v-4.67c0-.06,0-.13-.02-.19h3.91c-.01,.06-.02,.12-.02,.19h0Zm1.22-.44l.09,.18c.04,.08,.06,.17,.06,.25v4.92h4.36v-4.92c0-.09,.02-.18,.06-.25l.09-.18h-4.67Zm4.26,.44v4.67h-3.86v-4.67c0-.06,0-.13-.02-.19h3.91c-.01,.06-.02,.12-.02,.19Zm1.22-.44l.09,.18c.04,.08,.06,.17,.06,.25v4.92h4.36v-4.92c0-.09,.02-.18,.06-.25l.09-.18h-4.67Zm4.26,.44v4.67h-3.86v-4.67c0-.06,0-.13-.02-.19h3.91c-.01,.06-.02,.12-.02,.19Zm1.22-.44l.09,.18c.04,.08,.06,.17,.06,.25v4.92h4.36v-4.92c0-.09,.02-.18,.06-.25l.09-.18h-4.67Zm4.26,.44v4.67h-3.86v-4.67c0-.06,0-.13-.02-.19h3.91c-.01,.06-.02,.12-.02,.19Zm1.22-.44l.09,.18c.04,.08,.06,.17,.06,.25v4.92h4.36v-4.92c0-.09,.02-.18,.06-.25l.09-.18h-4.67Zm4.26,.44v4.67h-3.86v-4.67c0-.06,0-.13-.02-.19h3.91c-.01,.06-.02,.12-.02,.19Zm1.22-.44l.09,.18c.04,.08,.06,.17,.06,.25v4.92h4.36v-4.92c0-.09,.02-.18,.06-.25l.09-.18h-4.67Zm4.26,.44v4.67h-3.86v-4.67c0-.06,0-.13-.02-.19h3.91c-.01,.06-.02,.12-.02,.19Zm1.22-.44l.09,.18c.04,.08,.06,.17,.06,.25v4.92h4.36v-4.92c0-.09,.02-.18,.06-.25l.09-.18h-4.67Zm4.26,.44v4.67h-3.86v-4.67c0-.06,0-.13-.02-.19h3.91c-.01,.06-.02,.12-.02,.19Zm-48.1-.44l.09,.18c.04,.08,.06,.17,.06,.25v4.92h4.36v-4.92c0-.09,.02-.18,.06-.25l.09-.18h-4.67Zm4.26,.44v4.67h-3.86v-4.67c0-.06,0-.13-.02-.19h3.91c-.01,.06-.02,.12-.02,.19h0Zm1.22-.44l.09,.18c.04,.08,.06,.17,.06,.25v4.92h4.36v-4.92c0-.09,.02-.18,.06-.25l.09-.18h-4.67Zm4.26,.44v4.67h-3.86v-4.67c0-.06,0-.13-.02-.19h3.91c-.01,.06-.02,.12-.02,.19h0Zm1.22-.44l.09,.18c.04,.08,.06,.17,.06,.25v4.92h4.36v-4.92c0-.09,.02-.18,.06-.25l.09-.18h-4.67Zm4.26,.44v4.67h-3.86v-4.67c0-.06,0-.13-.02-.19h3.91c-.01,.06-.02,.12-.02,.19h0Zm1.22-.44l.09,.18c.04,.08,.06,.17,.06,.25v4.92h4.36v-4.92c0-.09,.02-.18,.06-.25l.09-.18h-4.67Zm4.26,.44v4.67h-3.86v-4.67c0-.06,0-.13-.02-.19h3.91c-.01,.06-.02,.12-.02,.19Zm1.22-.44l.09,.18c.04,.08,.06,.17,.06,.25v4.92h4.36v-4.92c0-.09,.02-.18,.06-.25l.09-.18h-4.67Zm4.26,.44v4.67h-3.86v-4.67c0-.06,0-.13-.02-.19h3.91c-.01,.06-.02,.12-.02,.19Zm1.22-.44l.09,.18c.04,.08,.06,.17,.06,.25v4.92h4.36v-4.92c0-.09,.02-.18,.06-.25l.09-.18h-4.67Zm4.26,.44v4.67h-3.86v-4.67c0-.06,0-.13-.02-.19h3.91c-.01,.06-.02,.12-.02,.19Zm1.22-.44l.09,.18c.04,.08,.06,.17,.06,.25v4.92h4.36v-4.92c0-.09,.02-.18,.06-.25l.09-.18h-4.67Zm4.26,.44v4.67h-3.86v-4.67c0-.06,0-.13-.02-.19h3.91c-.01,.06-.02,.12-.02,.19Zm1.22-.44l.09,.18c.04,.08,.06,.17,.06,.25v4.92h4.36v-4.92c0-.09,.02-.18,.06-.25l.09-.18h-4.67Zm4.26,.44v4.67h-3.86v-4.67c0-.06,0-.13-.02-.19h3.91c-.01,.06-.02,.12-.02,.19Zm1.22-.44l.09,.18c.04,.08,.06,.17,.06,.25v4.92h4.36v-4.92c0-.09,.02-.18,.06-.25l.09-.18h-4.67Zm4.26,.44v4.67h-3.86v-4.67c0-.06,0-.13-.02-.19h3.91c-.01,.06-.02,.12-.02,.19Z"/>
      <path class="cls-2" d="M76.36,78.25h-9.18c-.4,0-.73-.33-.73-.73v-9.89c0-.4,.33-.73,.73-.73h9.18c.4,0,.73,.33,.73,.73v9.89c0,.4-.33,.73-.73,.73Z"/>
      <path class="cls-2" d="M90.34,78.25h-9.18c-.4,0-.73-.33-.73-.73v-9.89c0-.4,.33-.73,.73-.73h9.18c.4,0,.73,.33,.73,.73v9.89c0,.4-.33,.73-.73,.73Z"/>
      <path class="cls-2" d="M104.31,78.25h-9.18c-.4,0-.73-.33-.73-.73v-9.89c0-.4,.33-.73,.73-.73h9.18c.4,0,.73,.33,.73,.73v9.89c0,.4-.33,.73-.73,.73Z"/>
      <path class="cls-5" d="M74.87,78.88h-10.64c-.54,0-.97-.43-.97-.97v-10.67c0-.54,.43-.97,.97-.97h10.64c.54,0,.97,.43,.97,.97v10.67c0,.54-.43,.97-.97,.97Zm-10.64-12.36c-.4,0-.72,.32-.72,.72v10.67c0,.4,.32,.72,.72,.72h10.64c.4,0,.72-.32,.72-.72v-10.67c0-.4-.32-.72-.72-.72h-10.64Z"/>
      <path class="cls-5" d="M91.06,78.88h-10.64c-.54,0-.97-.43-.97-.97v-10.67c0-.54,.43-.97,.97-.97h10.64c.54,0,.97,.43,.97,.97v10.67c0,.54-.43,.97-.97,.97Zm-10.64-12.36c-.4,0-.72,.32-.72,.72v10.67c0,.4,.32,.72,.72,.72h10.64c.4,0,.72-.32,.72-.72v-10.67c0-.4-.32-.72-.72-.72h-10.64Z"/>
      <path class="cls-5" d="M107.25,78.88h-10.64c-.54,0-.97-.43-.97-.97v-10.67c0-.54,.43-.97,.97-.97h10.64c.54,0,.97,.43,.97,.97v10.67c0,.54-.43,.97-.97,.97Zm-10.64-12.36c-.4,0-.72,.32-.72,.72v10.67c0,.4,.32,.72,.72,.72h10.64c.4,0,.72-.32,.72-.72v-10.67c0-.4-.32-.72-.72-.72h-10.64Z"/>
      <path class="cls-5" d="M92.03,86.06c0-.59-.47-1.08-1.06-1.08h-5.23v12.89h6.29v-11.8Z"/>
      <path class="cls-5" d="M85.87,97.74h-6.54v-11.64c0-.65,.53-1.18,1.18-1.18h5.36v12.83Zm-6.29-.25h6.04v-12.33h-5.11c-.52,0-.93,.42-.93,.93v11.4Z"/>
      <circle class="cls-5" cx="80.14" cy="91.83" r=".37"/>
    </g>
    <g>
      <path class="cls-1" d="M155.23,95.87h0c-.58,0-1.06-.47-1.06-1.06V48.67c0-.58,.47-1.06,1.06-1.06h52.31c.58,0,1.06,.47,1.06,1.06v32.32c0,.58-.47,1.05-1.05,1.06l-52.31,13.82Z"/>
      <path class="cls-1" d="M165.72,28.99h10.46c.55,0,1,.45,1,1v14.94h-12.45v-14.94c0-.55,.45-1,1-1h0Z"/>
      <path class="cls-5" d="M223.78,98.12h-10.71v-.12c0-2.96,2.39-5.36,5.35-5.36,2.96,0,5.36,2.39,5.36,5.35h0s0,.13,0,.13Zm-10.46-.25h10.21c-.07-2.82-2.41-5.05-5.23-4.98-2.72,.07-4.91,2.26-4.98,4.98h0Z"/>
      <path class="cls-5" d="M218.43,94.96c-.08,0-.14,.06-.14,.14v1.5l-1.46-1.26c-.06-.05-.15-.04-.2,.01-.05,.06-.04,.15,.01,.2,0,0,0,0,0,0l1.65,1.41v.88c0,.08,.06,.14,.14,.14,.08,0,.14-.06,.14-.14h0v-2.76c0-.08-.06-.14-.14-.14Z"/>
      <path class="cls-5" d="M157.55,39.83l.09,.18c.04,.08,.06,.17,.06,.25v4.92h4.36v-4.92c0-.09,.02-.18,.06-.25l.09-.18h-4.67Zm4.26,.44v4.67h-3.86v-4.67c0-.06,0-.13-.02-.19h3.91c-.01,.06-.02,.12-.02,.19h0Zm1.22-.44l.09,.18c.04,.08,.06,.17,.06,.25v4.92h4.36v-4.92c0-.09,.02-.18,.06-.25l.09-.18h-4.67Zm4.26,.44v4.67h-3.86v-4.67c0-.06,0-.13-.02-.19h3.91c-.01,.06-.02,.12-.02,.19h0Zm1.22-.44l.09,.18c.04,.08,.06,.17,.06,.25v4.92h4.36v-4.92c0-.09,.02-.18,.06-.25l.09-.18h-4.67Zm4.26,.44v4.67h-3.86v-4.67c0-.06,0-.13-.02-.19h3.91c-.01,.06-.02,.12-.02,.19h0Zm1.22-.44l.09,.18c.04,.08,.06,.17,.06,.25v4.92h4.36v-4.92c0-.09,.02-.18,.06-.25l.09-.18h-4.67Zm4.26,.44v4.67h-3.86v-4.67c0-.06,0-.13-.02-.19h3.91c-.01,.06-.02,.12-.02,.19Zm1.22-.44l.09,.18c.04,.08,.06,.17,.06,.25v4.92h4.36v-4.92c0-.09,.02-.18,.06-.25l.09-.18h-4.67Zm4.26,.44v4.67h-3.86v-4.67c0-.06,0-.13-.02-.19h3.91c-.01,.06-.02,.12-.02,.19Zm1.22-.44l.09,.18c.04,.08,.06,.17,.06,.25v4.92h4.36v-4.92c0-.09,.02-.18,.06-.25l.09-.18h-4.67Zm4.26,.44v4.67h-3.86v-4.67c0-.06,0-.13-.02-.19h3.91c-.01,.06-.02,.12-.02,.19Zm1.22-.44l.09,.18c.04,.08,.06,.17,.06,.25v4.92h4.36v-4.92c0-.09,.02-.18,.06-.25l.09-.18h-4.67Zm4.26,.44v4.67h-3.86v-4.67c0-.06,0-.13-.02-.19h3.91c-.01,.06-.02,.12-.02,.19Zm1.22-.44l.09,.18c.04,.08,.06,.17,.06,.25v4.92h4.36v-4.92c0-.09,.02-.18,.06-.25l.09-.18h-4.67Zm4.26,.44v4.67h-3.86v-4.67c0-.06,0-.13-.02-.19h3.91c-.01,.06-.02,.12-.02,.19Zm1.22-.44l.09,.18c.04,.08,.06,.17,.06,.25v4.92h4.36v-4.92c0-.09,.02-.18,.06-.25l.09-.18h-4.67Zm4.26,.44v4.67h-3.86v-4.67c0-.06,0-.13-.02-.19h3.91c-.01,.06-.02,.12-.02,.19Zm-4.26-.44l.09,.18c.04,.08,.06,.17,.06,.25v4.92h4.36v-4.92c0-.09,.02-.18,.06-.25l.09-.18h-4.67Zm4.26,.44v4.67h-3.86v-4.67c0-.06,0-.13-.02-.19h3.91c-.01,.06-.02,.12-.02,.19Zm-9.74-.44l.09,.18c.04,.08,.06,.17,.06,.25v4.92h4.36v-4.92c0-.09,.02-.18,.06-.25l.09-.18h-4.67Zm4.26,.44v4.67h-3.86v-4.67c0-.06,0-.13-.02-.19h3.91c-.01,.06-.02,.12-.02,.19Zm-9.74-.44l.09,.18c.04,.08,.06,.17,.06,.25v4.92h4.36v-4.92c0-.09,.02-.18,.06-.25l.09-.18h-4.67Zm4.26,.44v4.67h-3.86v-4.67c0-.06,0-.13-.02-.19h3.91c-.01,.06-.02,.12-.02,.19Zm-9.74-.44l.09,.18c.04,.08,.06,.17,.06,.25v4.92h4.36v-4.92c0-.09,.02-.18,.06-.25l.09-.18h-4.67Zm4.26,.44v4.67h-3.86v-4.67c0-.06,0-.13-.02-.19h3.91c-.01,.06-.02,.12-.02,.19Zm-9.74-.44l.09,.18c.04,.08,.06,.17,.06,.25v4.92h4.36v-4.92c0-.09,.02-.18,.06-.25l.09-.18h-4.67Zm4.26,.44v4.67h-3.86v-4.67c0-.06,0-.13-.02-.19h3.91c-.01,.06-.02,.12-.02,.19Zm-9.74-.44l.09,.18c.04,.08,.06,.17,.06,.25v4.92h4.36v-4.92c0-.09,.02-.18,.06-.25l.09-.18h-4.67Zm4.26,.44v4.67h-3.86v-4.67c0-.06,0-.13-.02-.19h3.91c-.01,.06-.02,.12-.02,.19Zm-9.74-.44l.09,.18c.04,.08,.06,.17,.06,.25v4.92h4.36v-4.92c0-.09,.02-.18,.06-.25l.09-.18h-4.67Zm4.26,.44v4.67h-3.86v-4.67c0-.06,0-.13-.02-.19h3.91c-.01,.06-.02,.12-.02,.19h0Zm-9.74-.44l.09,.18c.04,.08,.06,.17,.06,.25v4.92h4.36v-4.92c0-.09,.02-.18,.06-.25l.09-.18h-4.67Zm4.26,.44v4.67h-3.86v-4.67c0-.06,0-.13-.02-.19h3.91c-.01,.06-.02,.12-.02,.19h0Zm-9.74-.44l.09,.18c.04,.08,.06,.17,.06,.25v4.92h4.36v-4.92c0-.09,.02-.18,.06-.25l.09-.18h-4.67Zm4.26,.44v4.67h-3.86v-4.67c0-.06,0-.13-.02-.19h3.91c-.01,.06-.02,.12-.02,.19h0Zm39.57-.44l.09,.18c.04,.08,.06,.17,.06,.25v4.92h4.36v-4.92c0-.09,.02-.18,.06-.25l.09-.18h-4.67Zm4.26,.44v4.67h-3.86v-4.67c0-.06,0-.13-.02-.19h3.91c-.01,.06-.02,.12-.02,.19Zm-9.74-.44l.09,.18c.04,.08,.06,.17,.06,.25v4.92h4.36v-4.92c0-.09,.02-.18,.06-.25l.09-.18h-4.67Zm4.26,.44v4.67h-3.86v-4.67c0-.06,0-.13-.02-.19h3.91c-.01,.06-.02,.12-.02,.19Zm-9.74-.44l.09,.18c.04,.08,.06,.17,.06,.25v4.92h4.36v-4.92c0-.09,.02-.18,.06-.25l.09-.18h-4.67Zm4.26,.44v4.67h-3.86v-4.67c0-.06,0-.13-.02-.19h3.91c-.01,.06-.02,.12-.02,.19Zm-9.74-.44l.09,.18c.04,.08,.06,.17,.06,.25v4.92h4.36v-4.92c0-.09,.02-.18,.06-.25l.09-.18h-4.67Zm4.26,.44v4.67h-3.86v-4.67c0-.06,0-.13-.02-.19h3.91c-.01,.06-.02,.12-.02,.19Zm-9.74-.44l.09,.18c.04,.08,.06,.17,.06,.25v4.92h4.36v-4.92c0-.09,.02-.18,.06-.25l.09-.18h-4.67Zm4.26,.44v4.67h-3.86v-4.67c0-.06,0-.13-.02-.19h3.91c-.01,.06-.02,.12-.02,.19Zm-9.74-.44l.09,.18c.04,.08,.06,.17,.06,.25v4.92h4.36v-4.92c0-.09,.02-.18,.06-.25l.09-.18h-4.67Zm4.26,.44v4.67h-3.86v-4.67c0-.06,0-.13-.02-.19h3.91c-.01,.06-.02,.12-.02,.19Zm-9.74-.44l.09,.18c.04,.08,.06,.17,.06,.25v4.92h4.36v-4.92c0-.09,.02-.18,.06-.25l.09-.18h-4.67Zm4.26,.44v4.67h-3.86v-4.67c0-.06,0-.13-.02-.19h3.91c-.01,.06-.02,.12-.02,.19h0Zm-9.74-.44l.09,.18c.04,.08,.06,.17,.06,.25v4.92h4.36v-4.92c0-.09,.02-.18,.06-.25l.09-.18h-4.67Zm4.26,.44v4.67h-3.86v-4.67c0-.06,0-.13-.02-.19h3.91c-.01,.06-.02,.12-.02,.19h0Zm-9.74-.44l.09,.18c.04,.08,.06,.17,.06,.25v4.92h4.36v-4.92c0-.09,.02-.18,.06-.25l.09-.18h-4.67Zm4.26,.44v4.67h-3.86v-4.67c0-.06,0-.13-.02-.19h3.91c-.01,.06-.02,.12-.02,.19h0Zm39.57-.44l.09,.18c.04,.08,.06,.17,.06,.25v4.92h4.36v-4.92c0-.09,.02-.18,.06-.25l.09-.18h-4.67Zm4.26,.44v4.67h-3.86v-4.67c0-.06,0-.13-.02-.19h3.91c-.01,.06-.02,.12-.02,.19Zm-9.74-.44l.09,.18c.04,.08,.06,.17,.06,.25v4.92h4.36v-4.92c0-.09,.02-.18,.06-.25l.09-.18h-4.67Zm4.26,.44v4.67h-3.86v-4.67c0-.06,0-.13-.02-.19h3.91c-.01,.06-.02,.12-.02,.19Zm-9.74-.44l.09,.18c.04,.08,.06,.17,.06,.25v4.92h4.36v-4.92c0-.09,.02-.18,.06-.25l.09-.18h-4.67Zm4.26,.44v4.67h-3.86v-4.67c0-.06,0-.13-.02-.19h3.91c-.01,.06-.02,.12-.02,.19Zm-9.74-.44l.09,.18c.04,.08,.06,.17,.06,.25v4.92h4.36v-4.92c0-.09,.02-.18,.06-.25l.09-.18h-4.67Zm4.26,.44v4.67h-3.86v-4.67c0-.06,0-.13-.02-.19h3.91c-.01,.06-.02,.12-.02,.19Zm-9.74-.44l.09,.18c.04,.08,.06,.17,.06,.25v4.92h4.36v-4.92c0-.09,.02-.18,.06-.25l.09-.18h-4.67Zm4.26,.44v4.67h-3.86v-4.67c0-.06,0-.13-.02-.19h3.91c-.01,.06-.02,.12-.02,.19Zm-9.74-.44l.09,.18c.04,.08,.06,.17,.06,.25v4.92h4.36v-4.92c0-.09,.02-.18,.06-.25l.09-.18h-4.67Zm4.26,.44v4.67h-3.86v-4.67c0-.06,0-.13-.02-.19h3.91c-.01,.06-.02,.12-.02,.19Zm-9.74-.44l.09,.18c.04,.08,.06,.17,.06,.25v4.92h4.36v-4.92c0-.09,.02-.18,.06-.25l.09-.18h-4.67Zm4.26,.44v4.67h-3.86v-4.67c0-.06,0-.13-.02-.19h3.91c-.01,.06-.02,.12-.02,.19h0Zm-9.74-.44l.09,.18c.04,.08,.06,.17,.06,.25v4.92h4.36v-4.92c0-.09,.02-.18,.06-.25l.09-.18h-4.67Zm4.26,.44v4.67h-3.86v-4.67c0-.06,0-.13-.02-.19h3.91c-.01,.06-.02,.12-.02,.19h0Zm-9.74-.44l.09,.18c.04,.08,.06,.17,.06,.25v4.92h4.36v-4.92c0-.09,.02-.18,.06-.25l.09-.18h-4.67Zm4.26,.44v4.67h-3.86v-4.67c0-.06,0-.13-.02-.19h3.91c-.01,.06-.02,.12-.02,.19h0Zm39.57-.44l.09,.18c.04,.08,.06,.17,.06,.25v4.92h4.36v-4.92c0-.09,.02-.18,.06-.25l.09-.18h-4.67Zm4.26,.44v4.67h-3.86v-4.67c0-.06,0-.13-.02-.19h3.91c-.01,.06-.02,.12-.02,.19Zm-9.74-.44l.09,.18c.04,.08,.06,.17,.06,.25v4.92h4.36v-4.92c0-.09,.02-.18,.06-.25l.09-.18h-4.67Zm4.26,.44v4.67h-3.86v-4.67c0-.06,0-.13-.02-.19h3.91c-.01,.06-.02,.12-.02,.19Zm-9.74-.44l.09,.18c.04,.08,.06,.17,.06,.25v4.92h4.36v-4.92c0-.09,.02-.18,.06-.25l.09-.18h-4.67Zm4.26,.44v4.67h-3.86v-4.67c0-.06,0-.13-.02-.19h3.91c-.01,.06-.02,.12-.02,.19Zm-9.74-.44l.09,.18c.04,.08,.06,.17,.06,.25v4.92h4.36v-4.92c0-.09,.02-.18,.06-.25l.09-.18h-4.67Zm4.26,.44v4.67h-3.86v-4.67c0-.06,0-.13-.02-.19h3.91c-.01,.06-.02,.12-.02,.19Zm-9.74-.44l.09,.18c.04,.08,.06,.17,.06,.25v4.92h4.36v-4.92c0-.09,.02-.18,.06-.25l.09-.18h-4.67Zm4.26,.44v4.67h-3.86v-4.67c0-.06,0-.13-.02-.19h3.91c-.01,.06-.02,.12-.02,.19Zm-9.74-.44l.09,.18c.04,.08,.06,.17,.06,.25v4.92h4.36v-4.92c0-.09,.02-.18,.06-.25l.09-.18h-4.67Zm4.26,.44v4.67h-3.86v-4.67c0-.06,0-.13-.02-.19h3.91c-.01,.06-.02,.12-.02,.19Zm-9.74-.44l.09,.18c.04,.08,.06,.17,.06,.25v4.92h4.36v-4.92c0-.09,.02-.18,.06-.25l.09-.18h-4.67Zm4.26,.44v4.67h-3.86v-4.67c0-.06,0-.13-.02-.19h3.91c-.01,.06-.02,.12-.02,.19h0Zm-9.74-.44l.09,.18c.04,.08,.06,.17,.06,.25v4.92h4.36v-4.92c0-.09,.02-.18,.06-.25l.09-.18h-4.67Zm4.26,.44v4.67h-3.86v-4.67c0-.06,0-.13-.02-.19h3.91c-.01,.06-.02,.12-.02,.19h0Zm-9.74-.44l.09,.18c.04,.08,.06,.17,.06,.25v4.92h4.36v-4.92c0-.09,.02-.18,.06-.25l.09-.18h-4.67Zm4.26,.44v4.67h-3.86v-4.67c0-.06,0-.13-.02-.19h3.91c-.01,.06-.02,.12-.02,.19h0Zm39.57-.44l.09,.18c.04,.08,.06,.17,.06,.25v4.92h4.36v-4.92c0-.09,.02-.18,.06-.25l.09-.18h-4.67Zm4.26,.44v4.67h-3.86v-4.67c0-.06,0-.13-.02-.19h3.91c-.01,.06-.02,.12-.02,.19Zm-9.65-.25c.04,.08,.06,.17,.06,.25v4.92h4.36v-4.92c0-.09,.02-.18,.06-.25l.09-.18h-4.67l.09,.18Zm4.19,.07c-.01,.06-.02,.12-.02,.19v4.67h-3.86v-4.67c0-.06,0-.13-.02-.19h3.91Zm-9.67-.07c.04,.08,.06,.17,.06,.25v4.92h4.36v-4.92c0-.09,.02-.18,.06-.25l.09-.18h-4.67l.09,.18Zm4.19,.07c-.01,.06-.02,.12-.02,.19v4.67h-3.86v-4.67c0-.06,0-.13-.02-.19h3.91Zm-9.67-.07c.04,.08,.06,.17,.06,.25v4.92h4.36v-4.92c0-.09,.02-.18,.06-.25l.09-.18h-4.67l.09,.18Zm4.19,.07c-.01,.06-.02,.12-.02,.19v4.67h-3.86v-4.67c0-.06,0-.13-.02-.19h3.91Zm-9.67-.07c.04,.08,.06,.17,.06,.25v4.92h4.36v-4.92c0-.09,.02-.18,.06-.25l.09-.18h-4.67l.09,.18Zm4.19,.07c-.01,.06-.02,.12-.02,.19v4.67h-3.86v-4.67c0-.06,0-.13-.02-.19h3.91Zm-9.67-.07c.04,.08,.06,.17,.06,.25v4.92h4.36v-4.92c0-.09,.02-.18,.06-.25l.09-.18h-4.67l.09,.18Zm4.19,.07c-.01,.06-.02,.12-.02,.19v4.67h-3.86v-4.67c0-.06,0-.13-.02-.19h3.91Zm-9.67-.07c.04,.08,.06,.17,.06,.25v4.92h4.36v-4.92c0-.09,.02-.18,.06-.25l.09-.18h-4.67l.09,.18Zm4.19,.07c-.01,.06-.02,.12-.02,.19v4.67h-3.86v-4.67c0-.06,0-.13-.02-.19h3.91Zm-9.67-.07c.04,.08,.06,.17,.06,.25v4.92h4.36v-4.92c0-.09,.02-.18,.06-.25l.09-.18h-4.67l.09,.18Zm4.19,.07c-.01,.06-.02,.12-.02,.19v4.67h-3.86v-4.67c0-.06,0-.13-.02-.19h3.91Zm-9.67-.07c.04,.08,.06,.17,.06,.25v4.92h4.36v-4.92c0-.09,.02-.18,.06-.25l.09-.18h-4.67l.09,.18Zm4.19,.07c-.01,.06-.02,.12-.02,.19v4.67h-3.86v-4.67c0-.06,0-.13-.02-.19h3.91Zm39.64-.07c.04,.08,.06,.17,.06,.25v4.92h4.36v-4.92c0-.09,.02-.18,.06-.25l.09-.18h-4.67l.09,.18Zm4.19,.07c-.01,.06-.02,.12-.02,.19v4.67h-3.86v-4.67c0-.06,0-.13-.02-.19h3.91Zm-9.67-.07c.04,.08,.06,.17,.06,.25v4.92h4.36v-4.92c0-.09,.02-.18,.06-.25l.09-.18h-4.67l.09,.18Zm4.19,.07c-.01,.06-.02,.12-.02,.19v4.67h-3.86v-4.67c0-.06,0-.13-.02-.19h3.91Zm-9.67-.07c.04,.08,.06,.17,.06,.25v4.92h4.36v-4.92c0-.09,.02-.18,.06-.25l.09-.18h-4.67l.09,.18Zm4.19,.07c-.01,.06-.02,.12-.02,.19v4.67h-3.86v-4.67c0-.06,0-.13-.02-.19h3.91Zm-9.67-.07c.04,.08,.06,.17,.06,.25v4.92h4.36v-4.92c0-.09,.02-.18,.06-.25l.09-.18h-4.67l.09,.18Zm4.19,.07c-.01,.06-.02,.12-.02,.19v4.67h-3.86v-4.67c0-.06,0-.13-.02-.19h3.91Zm-9.67-.07c.04,.08,.06,.17,.06,.25v4.92h4.36v-4.92c0-.09,.02-.18,.06-.25l.09-.18h-4.67l.09,.18Zm4.19,.07c-.01,.06-.02,.12-.02,.19v4.67h-3.86v-4.67c0-.06,0-.13-.02-.19h3.91Zm-9.67-.07c.04,.08,.06,.17,.06,.25v4.92h4.36v-4.92c0-.09,.02-.18,.06-.25l.09-.18h-4.67l.09,.18Zm4.19,.07c-.01,.06-.02,.12-.02,.19v4.67h-3.86v-4.67c0-.06,0-.13-.02-.19h3.91Zm-9.67-.07c.04,.08,.06,.17,.06,.25v4.92h4.36v-4.92c0-.09,.02-.18,.06-.25l.09-.18h-4.67l.09,.18Zm4.19,.07c-.01,.06-.02,.12-.02,.19v4.67h-3.86v-4.67c0-.06,0-.13-.02-.19h3.91Zm-9.67-.07c.04,.08,.06,.17,.06,.25v4.92h4.36v-4.92c0-.09,.02-.18,.06-.25l.09-.18h-4.67l.09,.18Zm4.19,.07c-.01,.06-.02,.12-.02,.19v4.67h-3.86v-4.67c0-.06,0-.13-.02-.19h3.91Zm-9.67-.07c.04,.08,.06,.17,.06,.25v4.92h4.36v-4.92c0-.09,.02-.18,.06-.25l.09-.18h-4.67l.09,.18Zm4.19,.07c-.01,.06-.02,.12-.02,.19v4.67h-3.86v-4.67c0-.06,0-.13-.02-.19h3.91Zm49.05,5.85h-1.48c-.17-.59-.71-.99-1.32-1h-.81v-4.67c0-.1-.02-.2-.06-.29,.35-.21,.47-.67,.26-1.02-.13-.23-.38-.37-.64-.37h-50.06c-.41,0-.75,.33-.75,.74,0,.26,.14,.51,.37,.64-.04,.09-.06,.19-.06,.29v4.67h-.81c-.61,0-1.15,.41-1.32,1h-1.61c-.62,0-1.12,.5-1.12,1.12v49.76c0,.62,.5,1.12,1.12,1.12h58.28c.62,0,1.12-.5,1.12-1.12V47.05c0-.62-.5-1.12-1.12-1.12Zm.87,50.88c0,.36-.23,.69-.57,.82-.1,.04-.2,.06-.3,.05h-58.28c-.1,0-.21-.02-.3-.05-.34-.13-.57-.45-.57-.82V47.05c0-.48,.39-.87,.87-.87h1.81l.02-.1c.11-.52,.57-.9,1.1-.9h1.06v-4.92c0-.1,.03-.2,.08-.29l.08-.13-.14-.05c-.26-.09-.39-.38-.3-.64,.07-.2,.26-.33,.47-.33h50.06c.27,0,.5,.22,.5,.5,0,.21-.13,.4-.33,.47l-.14,.05,.08,.13c.05,.09,.08,.19,.08,.29v4.92h1.06c.53,0,.99,.38,1.1,.9l.02,.1h1.68c.48,0,.87,.39,.87,.87v49.76Zm-54.2-56.98l.09,.18c.04,.08,.06,.17,.06,.25v4.92h4.36v-4.92c0-.09,.02-.18,.06-.25l.09-.18h-4.67Zm4.26,.44v4.67h-3.86v-4.67c0-.06,0-.13-.02-.19h3.91c-.01,.06-.02,.12-.02,.19h0Zm1.22-.44l.09,.18c.04,.08,.06,.17,.06,.25v4.92h4.36v-4.92c0-.09,.02-.18,.06-.25l.09-.18h-4.67Zm4.26,.44v4.67h-3.86v-4.67c0-.06,0-.13-.02-.19h3.91c-.01,.06-.02,.12-.02,.19h0Zm1.22-.44l.09,.18c.04,.08,.06,.17,.06,.25v4.92h4.36v-4.92c0-.09,.02-.18,.06-.25l.09-.18h-4.67Zm4.26,.44v4.67h-3.86v-4.67c0-.06,0-.13-.02-.19h3.91c-.01,.06-.02,.12-.02,.19h0Zm1.22-.44l.09,.18c.04,.08,.06,.17,.06,.25v4.92h4.36v-4.92c0-.09,.02-.18,.06-.25l.09-.18h-4.67Zm4.26,.44v4.67h-3.86v-4.67c0-.06,0-.13-.02-.19h3.91c-.01,.06-.02,.12-.02,.19Zm1.22-.44l.09,.18c.04,.08,.06,.17,.06,.25v4.92h4.36v-4.92c0-.09,.02-.18,.06-.25l.09-.18h-4.67Zm4.26,.44v4.67h-3.86v-4.67c0-.06,0-.13-.02-.19h3.91c-.01,.06-.02,.12-.02,.19Zm1.22-.44l.09,.18c.04,.08,.06,.17,.06,.25v4.92h4.36v-4.92c0-.09,.02-.18,.06-.25l.09-.18h-4.67Zm4.26,.44v4.67h-3.86v-4.67c0-.06,0-.13-.02-.19h3.91c-.01,.06-.02,.12-.02,.19Zm1.22-.44l.09,.18c.04,.08,.06,.17,.06,.25v4.92h4.36v-4.92c0-.09,.02-.18,.06-.25l.09-.18h-4.67Zm4.26,.44v4.67h-3.86v-4.67c0-.06,0-.13-.02-.19h3.91c-.01,.06-.02,.12-.02,.19Zm1.22-.44l.09,.18c.04,.08,.06,.17,.06,.25v4.92h4.36v-4.92c0-.09,.02-.18,.06-.25l.09-.18h-4.67Zm4.26,.44v4.67h-3.86v-4.67c0-.06,0-.13-.02-.19h3.91c-.01,.06-.02,.12-.02,.19Zm1.22-.44l.09,.18c.04,.08,.06,.17,.06,.25v4.92h4.36v-4.92c0-.09,.02-.18,.06-.25l.09-.18h-4.67Zm4.26,.44v4.67h-3.86v-4.67c0-.06,0-.13-.02-.19h3.91c-.01,.06-.02,.12-.02,.19Zm-48.1-.44l.09,.18c.04,.08,.06,.17,.06,.25v4.92h4.36v-4.92c0-.09,.02-.18,.06-.25l.09-.18h-4.67Zm4.26,.44v4.67h-3.86v-4.67c0-.06,0-.13-.02-.19h3.91c-.01,.06-.02,.12-.02,.19h0Zm1.22-.44l.09,.18c.04,.08,.06,.17,.06,.25v4.92h4.36v-4.92c0-.09,.02-.18,.06-.25l.09-.18h-4.67Zm4.26,.44v4.67h-3.86v-4.67c0-.06,0-.13-.02-.19h3.91c-.01,.06-.02,.12-.02,.19h0Zm1.22-.44l.09,.18c.04,.08,.06,.17,.06,.25v4.92h4.36v-4.92c0-.09,.02-.18,.06-.25l.09-.18h-4.67Zm4.26,.44v4.67h-3.86v-4.67c0-.06,0-.13-.02-.19h3.91c-.01,.06-.02,.12-.02,.19h0Zm1.22-.44l.09,.18c.04,.08,.06,.17,.06,.25v4.92h4.36v-4.92c0-.09,.02-.18,.06-.25l.09-.18h-4.67Zm4.26,.44v4.67h-3.86v-4.67c0-.06,0-.13-.02-.19h3.91c-.01,.06-.02,.12-.02,.19Zm1.22-.44l.09,.18c.04,.08,.06,.17,.06,.25v4.92h4.36v-4.92c0-.09,.02-.18,.06-.25l.09-.18h-4.67Zm4.26,.44v4.67h-3.86v-4.67c0-.06,0-.13-.02-.19h3.91c-.01,.06-.02,.12-.02,.19Zm1.22-.44l.09,.18c.04,.08,.06,.17,.06,.25v4.92h4.36v-4.92c0-.09,.02-.18,.06-.25l.09-.18h-4.67Zm4.26,.44v4.67h-3.86v-4.67c0-.06,0-.13-.02-.19h3.91c-.01,.06-.02,.12-.02,.19Zm1.22-.44l.09,.18c.04,.08,.06,.17,.06,.25v4.92h4.36v-4.92c0-.09,.02-.18,.06-.25l.09-.18h-4.67Zm4.26,.44v4.67h-3.86v-4.67c0-.06,0-.13-.02-.19h3.91c-.01,.06-.02,.12-.02,.19Zm1.22-.44l.09,.18c.04,.08,.06,.17,.06,.25v4.92h4.36v-4.92c0-.09,.02-.18,.06-.25l.09-.18h-4.67Zm4.26,.44v4.67h-3.86v-4.67c0-.06,0-.13-.02-.19h3.91c-.01,.06-.02,.12-.02,.19Zm1.22-.44l.09,.18c.04,.08,.06,.17,.06,.25v4.92h4.36v-4.92c0-.09,.02-.18,.06-.25l.09-.18h-4.67Zm4.26,.44v4.67h-3.86v-4.67c0-.06,0-.13-.02-.19h3.91c-.01,.06-.02,.12-.02,.19Zm-48.1-.44l.09,.18c.04,.08,.06,.17,.06,.25v4.92h4.36v-4.92c0-.09,.02-.18,.06-.25l.09-.18h-4.67Zm4.26,.44v4.67h-3.86v-4.67c0-.06,0-.13-.02-.19h3.91c-.01,.06-.02,.12-.02,.19h0Zm1.22-.44l.09,.18c.04,.08,.06,.17,.06,.25v4.92h4.36v-4.92c0-.09,.02-.18,.06-.25l.09-.18h-4.67Zm4.26,.44v4.67h-3.86v-4.67c0-.06,0-.13-.02-.19h3.91c-.01,.06-.02,.12-.02,.19h0Zm1.22-.44l.09,.18c.04,.08,.06,.17,.06,.25v4.92h4.36v-4.92c0-.09,.02-.18,.06-.25l.09-.18h-4.67Zm4.26,.44v4.67h-3.86v-4.67c0-.06,0-.13-.02-.19h3.91c-.01,.06-.02,.12-.02,.19h0Zm1.22-.44l.09,.18c.04,.08,.06,.17,.06,.25v4.92h4.36v-4.92c0-.09,.02-.18,.06-.25l.09-.18h-4.67Zm4.26,.44v4.67h-3.86v-4.67c0-.06,0-.13-.02-.19h3.91c-.01,.06-.02,.12-.02,.19Zm1.22-.44l.09,.18c.04,.08,.06,.17,.06,.25v4.92h4.36v-4.92c0-.09,.02-.18,.06-.25l.09-.18h-4.67Zm4.26,.44v4.67h-3.86v-4.67c0-.06,0-.13-.02-.19h3.91c-.01,.06-.02,.12-.02,.19Zm1.22-.44l.09,.18c.04,.08,.06,.17,.06,.25v4.92h4.36v-4.92c0-.09,.02-.18,.06-.25l.09-.18h-4.67Zm4.26,.44v4.67h-3.86v-4.67c0-.06,0-.13-.02-.19h3.91c-.01,.06-.02,.12-.02,.19Zm1.22-.44l.09,.18c.04,.08,.06,.17,.06,.25v4.92h4.36v-4.92c0-.09,.02-.18,.06-.25l.09-.18h-4.67Zm4.26,.44v4.67h-3.86v-4.67c0-.06,0-.13-.02-.19h3.91c-.01,.06-.02,.12-.02,.19Zm1.22-.44l.09,.18c.04,.08,.06,.17,.06,.25v4.92h4.36v-4.92c0-.09,.02-.18,.06-.25l.09-.18h-4.67Zm4.26,.44v4.67h-3.86v-4.67c0-.06,0-.13-.02-.19h3.91c-.01,.06-.02,.12-.02,.19Zm1.22-.44l.09,.18c.04,.08,.06,.17,.06,.25v4.92h4.36v-4.92c0-.09,.02-.18,.06-.25l.09-.18h-4.67Zm4.26,.44v4.67h-3.86v-4.67c0-.06,0-.13-.02-.19h3.91c-.01,.06-.02,.12-.02,.19Zm-48.1-.44l.09,.18c.04,.08,.06,.17,.06,.25v4.92h4.36v-4.92c0-.09,.02-.18,.06-.25l.09-.18h-4.67Zm4.26,.44v4.67h-3.86v-4.67c0-.06,0-.13-.02-.19h3.91c-.01,.06-.02,.12-.02,.19h0Zm1.22-.44l.09,.18c.04,.08,.06,.17,.06,.25v4.92h4.36v-4.92c0-.09,.02-.18,.06-.25l.09-.18h-4.67Zm4.26,.44v4.67h-3.86v-4.67c0-.06,0-.13-.02-.19h3.91c-.01,.06-.02,.12-.02,.19h0Zm1.22-.44l.09,.18c.04,.08,.06,.17,.06,.25v4.92h4.36v-4.92c0-.09,.02-.18,.06-.25l.09-.18h-4.67Zm4.26,.44v4.67h-3.86v-4.67c0-.06,0-.13-.02-.19h3.91c-.01,.06-.02,.12-.02,.19h0Zm1.22-.44l.09,.18c.04,.08,.06,.17,.06,.25v4.92h4.36v-4.92c0-.09,.02-.18,.06-.25l.09-.18h-4.67Zm4.26,.44v4.67h-3.86v-4.67c0-.06,0-.13-.02-.19h3.91c-.01,.06-.02,.12-.02,.19Zm1.22-.44l.09,.18c.04,.08,.06,.17,.06,.25v4.92h4.36v-4.92c0-.09,.02-.18,.06-.25l.09-.18h-4.67Zm4.26,.44v4.67h-3.86v-4.67c0-.06,0-.13-.02-.19h3.91c-.01,.06-.02,.12-.02,.19Zm1.22-.44l.09,.18c.04,.08,.06,.17,.06,.25v4.92h4.36v-4.92c0-.09,.02-.18,.06-.25l.09-.18h-4.67Zm4.26,.44v4.67h-3.86v-4.67c0-.06,0-.13-.02-.19h3.91c-.01,.06-.02,.12-.02,.19Zm1.22-.44l.09,.18c.04,.08,.06,.17,.06,.25v4.92h4.36v-4.92c0-.09,.02-.18,.06-.25l.09-.18h-4.67Zm4.26,.44v4.67h-3.86v-4.67c0-.06,0-.13-.02-.19h3.91c-.01,.06-.02,.12-.02,.19Zm1.22-.44l.09,.18c.04,.08,.06,.17,.06,.25v4.92h4.36v-4.92c0-.09,.02-.18,.06-.25l.09-.18h-4.67Zm4.26,.44v4.67h-3.86v-4.67c0-.06,0-.13-.02-.19h3.91c-.01,.06-.02,.12-.02,.19Zm1.22-.44l.09,.18c.04,.08,.06,.17,.06,.25v4.92h4.36v-4.92c0-.09,.02-.18,.06-.25l.09-.18h-4.67Zm4.26,.44v4.67h-3.86v-4.67c0-.06,0-.13-.02-.19h3.91c-.01,.06-.02,.12-.02,.19Z"/>
      <path class="cls-2" d="M172.36,61.94h-9.18c-.4,0-.73-.33-.73-.73v-4.89c0-.4,.33-.73,.73-.73h9.18c.4,0,.73,.33,.73,.73v4.89c0,.4-.33,.73-.73,.73Z"/>
      <path class="cls-2" d="M186.34,61.94h-9.18c-.4,0-.73-.33-.73-.73v-4.89c0-.4,.33-.73,.73-.73h9.18c.4,0,.73,.33,.73,.73v4.89c0,.4-.33,.73-.73,.73Z"/>
      <path class="cls-2" d="M200.31,61.94h-9.18c-.4,0-.73-.33-.73-.73v-4.89c0-.4,.33-.73,.73-.73h9.18c.4,0,.73,.33,.73,.73v4.89c0,.4-.33,.73-.73,.73Z"/>
      <path class="cls-2" d="M172.36,78.25h-9.18c-.4,0-.73-.33-.73-.73v-4.89c0-.4,.33-.73,.73-.73h9.18c.4,0,.73,.33,.73,.73v4.89c0,.4-.33,.73-.73,.73Z"/>
      <path class="cls-2" d="M186.34,78.25h-9.18c-.4,0-.73-.33-.73-.73v-4.89c0-.4,.33-.73,.73-.73h9.18c.4,0,.73,.33,.73,.73v4.89c0,.4-.33,.73-.73,.73Z"/>
      <path class="cls-2" d="M200.31,78.25h-9.18c-.4,0-.73-.33-.73-.73v-4.89c0-.4,.33-.73,.73-.73h9.18c.4,0,.73,.33,.73,.73v4.89c0,.4-.33,.73-.73,.73Z"/>
      <path class="cls-5" d="M170.87,62.56h-10.64c-.54,0-.97-.43-.97-.97v-5.67c0-.54,.43-.97,.97-.97h10.64c.54,0,.97,.43,.97,.97v5.67c0,.54-.43,.97-.97,.97Zm-10.64-7.36c-.4,0-.72,.32-.72,.72v5.67c0,.4,.32,.72,.72,.72h10.64c.4,0,.72-.32,.72-.72v-5.67c0-.4-.32-.72-.72-.72h-10.64Z"/>
      <path class="cls-5" d="M187.06,62.56h-10.64c-.54,0-.97-.43-.97-.97v-5.67c0-.54,.43-.97,.97-.97h10.64c.54,0,.97,.43,.97,.97v5.67c0,.54-.43,.97-.97,.97Zm-10.64-7.36c-.4,0-.72,.32-.72,.72v5.67c0,.4,.32,.72,.72,.72h10.64c.4,0,.72-.32,.72-.72v-5.67c0-.4-.32-.72-.72-.72h-10.64Z"/>
      <path class="cls-5" d="M203.25,62.56h-10.64c-.54,0-.97-.43-.97-.97v-5.67c0-.54,.43-.97,.97-.97h10.64c.54,0,.97,.43,.97,.97v5.67c0,.54-.43,.97-.97,.97Zm-10.64-7.36c-.4,0-.72,.32-.72,.72v5.67c0,.4,.32,.72,.72,.72h10.64c.4,0,.72-.32,.72-.72v-5.67c0-.4-.32-.72-.72-.72h-10.64Z"/>
      <path class="cls-5" d="M170.87,78.88h-10.64c-.54,0-.97-.43-.97-.97v-5.67c0-.54,.43-.97,.97-.97h10.64c.54,0,.97,.43,.97,.97v5.67c0,.54-.43,.97-.97,.97Zm-10.64-7.36c-.4,0-.72,.32-.72,.72v5.67c0,.4,.32,.72,.72,.72h10.64c.4,0,.72-.32,.72-.72v-5.67c0-.4-.32-.72-.72-.72h-10.64Z"/>
      <path class="cls-5" d="M187.06,78.88h-10.64c-.54,0-.97-.43-.97-.97v-5.67c0-.54,.43-.97,.97-.97h10.64c.54,0,.97,.43,.97,.97v5.67c0,.54-.43,.97-.97,.97Zm-10.64-7.36c-.4,0-.72,.32-.72,.72v5.67c0,.4,.32,.72,.72,.72h10.64c.4,0,.72-.32,.72-.72v-5.67c0-.4-.32-.72-.72-.72h-10.64Z"/>
      <path class="cls-5" d="M203.25,78.88h-10.64c-.54,0-.97-.43-.97-.97v-5.67c0-.54,.43-.97,.97-.97h10.64c.54,0,.97,.43,.97,.97v5.67c0,.54-.43,.97-.97,.97Zm-10.64-7.36c-.4,0-.72,.32-.72,.72v5.67c0,.4,.32,.72,.72,.72h10.64c.4,0,.72-.32,.72-.72v-5.67c0-.4-.32-.72-.72-.72h-10.64Z"/>
      <path class="cls-5" d="M188.03,86.06c0-.59-.47-1.08-1.06-1.08h-5.23v12.89h6.29v-11.8Z"/>
      <path class="cls-5" d="M181.87,97.74h-6.54v-11.64c0-.65,.53-1.18,1.18-1.18h5.36v12.83Zm-6.29-.25h6.04v-12.33h-5.11c-.52,0-.93,.42-.93,.93v11.4Z"/>
      <circle class="cls-5" cx="176.14" cy="91.83" r=".37"/>
    </g>
  </g>
</svg>