<?xml version="1.0" encoding="UTF-8"?>
<svg id="projects_page_helper_image" data-name="projects page helper image" xmlns="http://www.w3.org/2000/svg" viewBox="0 0 200 100">
  <defs>
    <style>
      .cls-1 {
        fill: #e6e6e6;
      }

      .cls-2 {
        fill: #fff;
      }

      .cls-3 {
        fill: #ffb6b6;
      }

      .cls-4 {
        fill: #ff6366;
      }

      .cls-5 {
        fill: #a0616a;
      }

      .cls-6 {
        fill: #ccc;
      }

      .cls-7 {
        fill: #3f3d56;
      }

      .cls-8 {
        fill: #2f2e41;
      }

      .cls-9 {
        isolation: isolate;
        opacity: .2;
      }
    </style>
  </defs>
  <g id="_200_wide_100_high" data-name="200 wide 100 high">
    <path id="ground" class="cls-6" d="M197.86,98.24H1.84c-.41,0-.74-.11-.74-.24s.33-.24,.74-.24H197.86c.41,0,.74,.11,.74,.24s-.33,.24-.74,.24Z"/>
    <g id="professional-share-link-registration">
      <path class="cls-2" d="M73.3,93.89c-.3,.01-.56-.22-.57-.52,0-.16,.06-.32,.18-.43l.04-.15s0-.02-.01-.04c-.32-.75-1.18-1.1-1.93-.78-.36,.15-.64,.43-.79,.79-.44,1.07-1.01,2.14-1.15,3.27-.06,.5-.04,1.01,.08,1.5-1.04-2.27-1.58-4.75-1.59-7.25,0-.63,.03-1.26,.1-1.88,.06-.51,.14-1.02,.24-1.52,.56-2.74,1.76-5.3,3.5-7.48,.84-.46,1.53-1.17,1.95-2.03,.16-.31,.27-.64,.33-.98-.1,.01-.36-1.44-.29-1.53-.13-.2-.37-.3-.51-.5-.72-.98-1.71-.81-2.23,.52-1.11,.56-1.12,1.48-.44,2.38,.43,.57,.49,1.33,.87,1.94-.04,.05-.08,.1-.12,.15-.71,.92-1.33,1.9-1.85,2.94,.13-1.16-.02-2.34-.44-3.43-.42-1.02-1.21-1.88-1.91-2.76-.84-1.06-2.55-.6-2.7,.74,0,.01,0,.03,0,.04,.1,.06,.2,.12,.3,.19,.34,.23,.43,.69,.21,1.03-.12,.17-.3,.29-.5,.32h-.02c.04,.38,.1,.74,.19,1.11-.89,3.46,1.04,4.72,3.79,4.77,.06,.03,.12,.06,.18,.09-.52,1.48-.85,3.03-.98,4.59-.07,.92-.07,1.85,.01,2.78v-.03c-.2-1.03-.75-1.95-1.56-2.62-1.19-.98-2.88-1.34-4.17-2.13-.4-.25-.92-.14-1.18,.26-.11,.17-.15,.37-.13,.57,0,.01,0,.02,0,.03,.19,.08,.38,.17,.56,.27,.1,.06,.2,.12,.3,.19,.34,.23,.43,.69,.21,1.03-.12,.17-.3,.29-.5,.32h-.02s-.02,0-.03,0c.33,.78,.79,1.5,1.36,2.13,.56,3.02,2.96,3.3,5.53,2.42h0c.28,1.22,.69,2.42,1.22,3.56h4.35s.03-.1,.04-.15c-.4,.03-.81,0-1.2-.07,.32-.4,.65-.8,.97-1.19,0,0,.01-.02,.02-.02,.16-.2,.33-.4,.49-.61h0c0-.62-.06-1.24-.21-1.84h0Z"/>
      <polygon class="cls-5" points="39.84 87.31 41.04 88.58 46.61 84.45 44.84 82.57 39.84 87.31"/>
      <path class="cls-8" d="M41.8,88.01l-1.36-1.28-.33-.31-3.46,2.77,.9,.95,1.06-.68-.49,1.28,2.39,2.52c.3,.31,.79,.33,1.1,.03,.19-.18,.27-.43,.24-.69l-.52-3.33,.91-.86-.44-.41Z"/>
      <path class="cls-8" d="M66.22,41.11l-.38,4.16s-.66,3.13-.2,2.88-.36,.89-.15,1.88-1.86,8.38-.92,7.61-.54,4.52-1.48,7.13c-.29,.81-.58,1.62-.88,2.43-.06,.16-.12,.33-.18,.49-.38,1.05-.77,2.09-1.14,3.07-.05,.14-.1,.27-.15,.41,0,0,0,0,0,0-1.21,3.19-2.25,5.71-2.67,6.12-.22,.22-3.65,2.7-7.12,5.19-3.64,2.61-7.3,5.22-7.3,5.22l-3.42-3.59s.08-.02,.24-.07c.28-.08,.81-.24,1.5-.44,2.88-.85-.78-2.17,1.84-3.11,.74-.27,1.23-.47,1.34-.58,.65-.63,1.52-2.15,1.93-1.51s2.28-4.08,2.82-4.55c.29-.25,1.23-1.43,2.04-2.46,.69-.89,1.29-1.68,1.29-1.68,0,0,.01-.42,.03-1.09,.03-.99,.06-2.54,.1-4.08t0,0c.01-.58,.03-1.16,.04-1.72,0-.43,.02-.84,.03-1.22,.03-1.14,.04-2,.04-2.22,0-.7,0-.16,.56-.58,.08-.07,.16-.14,.24-.21,.12-.11,.23-.22,.33-.35,.04-.09-.21,.03-.55-.04-.18-.04-.35-.12-.48-.25-.7-.63,.05-2.56,.05-2.56-1.59-3.18-1.47-5.78-.73-7.79,.56-1.44,1.44-2.73,2.58-3.78,.43-.41,.91-.78,1.41-1.11l.05-.26,.54-2.91c.29-.16,.58-.29,.89-.4,.95-.34,1.98-.44,2.98-.3,1,.14,1.96,.46,2.85,.92,.73,.37,1.41,.82,2.04,1.34Z"/>
      <polygon class="cls-5" points="51.23 93.78 52.97 93.94 54.43 87.16 51.87 86.92 51.23 93.78"/>
      <path class="cls-8" d="M56.24,96.44l-2.58-2.16,.12-1.25-.6-.02-1.86-.06h0l-.46-.02-.77,4.36,1.31,.12,.35-1.21,.48,1.29,.69,.06,2.77,.26s.05,0,.07,0c.22,0,.43-.09,.58-.26,.11-.12,.18-.28,.2-.45,.02-.26-.08-.51-.28-.67Z"/>
      <path class="cls-8" d="M60.9,70.75c-.66,3.6-3.46,12.04-5.16,16.99-.77,2.26-1.31,3.79-1.31,3.79l-.88-.28h0l-1.49-.47-.54-.17h0l-.66-.21s.08-4.03,.08-7.92c0-1.63,0-3.24-.03-4.51-.04-1.39-.1-2.38-.2-2.58-.41-.81,.28-.89,1.01-1.1,.73-.2,.16-.51-.12-1.17-.19-.44,.19-1.02,.45-1.35,.07-.09,.15-.18,.24-.27,0,0-.13-.04-.36-.12,.69-.89,1.29-1.68,1.29-1.68,0,0,.01-.42,.03-1.09,.03-.99,.06-2.54,.1-4.08t0,0c.01-.58,.03-1.16,.04-1.72,1.12,.86,2.2,1.7,3.19,2.47,0,0,0,0,0,0,2.36,1.87,4.14,3.37,4.39,3.84,.11,.21,.07,.79-.08,1.62Z"/>
      <path class="cls-3" d="M120.06,7.39c.68-.06,1.28,.42,1.36,1.1,0,.07,0,.13,0,.2l4.02,1.72-.15,2.35-5.26-2.95c-.56-.08-1-.53-1.07-1.09-.07-.66,.4-1.25,1.06-1.32h0s.02,0,.03,0Z"/>
      <path class="cls-1" d="M147.45,21.9c-.1-.46-.28-.89-.54-1.27-.07-.11-.15-.22-.24-.32-.32-.38-.61-.72-.88-1.03-.17-.19-.33-.37-.48-.54-.88-.97-1.46-1.48-1.73-1.53-.13-.02-.26-.04-.38-.05-.63-.08-1.09-.13-1.1-.8,0-.1,0-.19,.02-.28,.02-.16,.06-.31,.1-.47,.03-.09,.05-.18,.06-.27,.02-.12,.01-.2-.05-.25-.08-.06-.21-.05-.45,.04-.04,.02-.08,.03-.13,.05-.02,0-.03,.01-.05,.02-.03,.01-.07,.03-.1,.05-.29,.14-.75,.16-1.27,.11-1.53-.16-3.6-.93-3.63-.94l-13.05-5.07-.12,.2-.29,.46-.1,.16-.11,.18-.49,.8-.25,.4,4.22,3.18,.46,.35,.39,.3,8.05,6.07,3,1.98,.67,.44,2.85,1.88c1.7,1.12,3.98,.65,5.1-1.04,.02-.03,.04-.05,.05-.08,.51-.81,.68-1.79,.48-2.72Z"/>
      <polygon class="cls-3" points="56.48 34.09 56.84 37.48 56.63 41.93 66.48 40.76 67.41 34.09 66.23 34.1 56.48 34.09"/>
      <path class="cls-1" d="M64.86,23.13l-3.71-2.93h0l-1.95-.11-2.89,1.85-.71,3.61-1.67,4.06,2.45,10.97s.23,.79-.37,.88-.53,1.25-.53,1.25c0,0,.12,1.01-.46,1.09s-2.15,.09-.78,1.85,12.17-4.89,12.17-4.89l1.57-8.24s3.04-4.09-.23-6.43l-2.89-2.97Z"/>
      <path class="cls-5" d="M48.67,48.02c-.62-.77-.49-1.9,.28-2.51,.08-.07,.17-.12,.26-.17l4.66-15.65,2.92,1.47-5.08,15c.42,.9,.02,1.97-.88,2.38-.75,.35-1.65,.13-2.16-.52h0Z"/>
      <path class="cls-1" d="M56.99,21.79s-.83-.44-1.4,1.47c-.46,1.54-4.16,10.68-4.21,12.9-.63,.13-1.08,.67-1.11,1.31l4.58,.61c.8-.68,1.01-1.59,.7-1.86l.99-2.72,4.15-8.64-3.09-2.78-.61-.31Z"/>
      <path class="cls-5" d="M81.46,42.88c.22-.96-.37-1.92-1.34-2.15-.1-.02-.21-.04-.31-.04l-10.7-12.22-2.27,2.71,11.07,11.33c.01,.99,.83,1.79,1.82,1.77,.83-.01,1.54-.59,1.73-1.4h0Z"/>
      <path class="cls-1" d="M62.62,22.82s.56-.76,1.9,.72c1.08,1.19,8.37,7.83,9.37,9.81,.62-.15,1.27,.14,1.57,.7l-3.86,2.53c-1.01-.26-1.6-.99-1.44-1.37l-2.07-2.02-7.48-6,1.59-3.84,.41-.54Z"/>
      <circle class="cls-4" cx="102.52" cy="29.05" r="27.32"/>
      <path class="cls-9" d="M101.23,38.72c-2.61,2.61-6.83,2.61-9.44,0h0c-2.22-2.22-2.59-5.68-.9-8.32l-1.47,1.5c-2.61,2.61-2.61,6.83,0,9.44h0c2.61,2.61,6.83,2.61,9.44,0l3.25-3.38,.05-.21-.93,.97Z"/>
      <path class="cls-9" d="M104.33,17.85c3.05-2.08,7.2-1.29,9.27,1.76h0c1.76,2.59,1.49,6.06-.66,8.34l1.72-1.2c3.05-2.08,3.83-6.23,1.76-9.27h0c-2.08-3.05-6.23-3.83-9.27-1.76l-3.83,2.71-.09,.2,1.1-.78Z"/>
      <path class="cls-2" d="M94.14,44.13c-4.01,0-7.26-3.25-7.26-7.26,0-1.93,.76-3.77,2.13-5.13l6.16-6.29c2.83-2.84,7.43-2.84,10.27,0,0,0,0,0,0,0,.23,.23,.23,.6,0,.83-.23,.23-.6,.23-.83,0-2.38-2.38-6.23-2.38-8.61,0-.9,3.19-2.86,5.38-6.16,6.29-2.38,2.38-2.39,6.23-.01,8.61,2.38,2.38,6.23,2.39,8.61,.01,0,0,0,0,0,0-.13-1.31,.25-2.54,3.25-3.37,.22-.23,.59-.24,.83-.02,.23,.22,.24,.59,.02,.83,0,0,0,0,0,0l-3.25,3.38c-1.36,1.37-3.21,2.14-5.14,2.13Z"/>
      <path class="cls-2" d="M104.14,35.24c-1.93,0-3.78-.76-5.13-2.13-.23-.23-.23-.6,0-.83s.6-.23,.83,0c2.38,2.38,6.23,2.38,8.61,0,0,0,0,0,0,0,.78-4.7,3.96-5.36,6.73-6.73,2.38-2.38,2.38-6.23,0-8.61-2.38-2.38-6.23-2.38-8.61,0-.77,2.22-1.52,4.46-3.82,3.82-.23,.23-.6,.23-.83,0-.23-.23-.23-.6,0-.83l3.82-3.82c2.84-2.84,7.43-2.84,10.27,0,2.84,2.84,2.84,7.43,0,10.27h0l-6.73,6.73c-1.36,1.37-3.21,2.13-5.13,2.13Z"/>
      <path class="cls-7" d="M126.26,15.15c-1.15-1.95-2.53-3.75-4.11-5.37-.35-.36-.72-.71-1.09-1.05-.21-.19-.42-.37-.63-.56-.4-.35-.82-.68-1.24-1.01-4.78-3.66-10.64-5.64-16.67-5.63-15.17,0-27.52,12.34-27.52,27.52,0,1.67,.15,3.34,.45,4.99,0,0,0,.02,0,.03,.14,.76,.31,1.5,.51,2.23,4,14.66,19.13,23.3,33.79,19.3,6.7-1.83,12.46-6.12,16.12-12.02,.38-.61,.74-1.24,1.07-1.89,4.34-8.38,4.08-18.41-.7-26.55Zm-23.74,41.03c-14.98,0-27.12-12.13-27.13-27.11v-.02c0-14.96,12.17-27.13,27.13-27.13,7.31,0,14.31,2.96,19.42,8.2,.66,.67,1.28,1.38,1.86,2.12,.58,.72,1.11,1.48,1.61,2.26,4.19,6.58,5.34,14.64,3.16,22.13-.24,.83-.52,1.64-.84,2.43-.32,.8-.67,1.58-1.06,2.33-4.65,9.05-13.97,14.76-24.15,14.78Z"/>
      <polygon class="cls-3" points="140.94 94.07 139.14 94.05 138.35 86.97 141 86.99 140.94 94.07"/>
      <path class="cls-8" d="M141.41,93.24l-.47-.03-1.91-.13-.61-.04v1.28s-2.88,1.94-2.88,1.94c-.37,.25-.46,.75-.21,1.11,.15,.22,.39,.35,.66,.35l3.57,.03,.62-1.26,.23,1.27h1.35s-.34-4.53-.34-4.53Z"/>
      <polygon class="cls-3" points="159.82 92.75 158.11 93.28 155.21 86.77 157.75 85.99 159.82 92.75"/>
      <path class="cls-8" d="M160.03,91.82l-.46,.11-1.86,.45-.6,.15,.38,1.23-2.14,2.72c-.27,.35-.21,.85,.14,1.13,.14,.11,.32,.17,.5,.17,.08,0,.16-.01,.23-.04l3.41-1.05,.21-1.4,.6,1.14,1.29-.4-1.69-4.22Z"/>
      <path class="cls-8" d="M137.33,34.53l-3.42,9.95-.11,.8c-.86,.82,.22,1.09-.19,1.3s-.68,.82-.13,.93,2.31,38.91,4.64,40.42,3.75,2.6,3.32,.39c-.17-.89,.07-5.65,.42-11.03,.04-.61,.67-1.25,.12-1.85s.07-.98,.1-1.47c.49-7.02,1.06-13.95,1.06-13.95,0,0,3.63,12.46,4.57,11.5s.57,1.41,.86,2.12c.24,.59-.79,1.76,.72,1.78s5.05,12.13,5.41,12.12c.71-.03,2.71,.05,3.9-.2,.59-.12-2.02-9.29-4.2-17.21-.17-.63-1.12-.65-.51-1.87s-2.42-9.11-2.16-9.47c.69-.97,.95-1.39,.27-1.45s-.88,.31-.92-.63-.15-3.26-.15-3.26c0,0-.49-9.16-3.94-14.23l-.29-3.01-9.39-1.69Z"/>
      <path class="cls-1" d="M145.88,15.53l-4.54,.65-.27,3.29-2.24,3.5s-4.98,3.5-1.51,9.04c-1.32,4.77-2.64,9.34-3.89,12.39-.98,6.05,7.77,6.63,17.76,4.49,0,0-.14-2.59-1.04-3.83s-.41-1.52-.41-1.52l-.63-2.32c.36-3.36-.85-3.66-1.42-5.21l1.73-16.1-3.53-4.38Z"/>
      <path class="cls-3" d="M124.09,43.68c.1-.67,.72-1.14,1.39-1.06,.07,0,.13,.02,.19,.04l2.63-3.5,2.24,.71-4.12,4.4c-.21,.53-.75,.85-1.31,.78-.66-.09-1.12-.69-1.03-1.34h0s0-.02,0-.03Z"/>
      <path class="cls-1" d="M147.45,21.9c-.06-.08-.13-.16-.21-.23-1.06-1.09-2.67-1.42-4.07-.83-.07,.03-.13,.06-.2,.09-2.33,1.15-3.59,1.91-3.74,2.27-.05,.12-.1,.24-.14,.36-.04,.11-.08,.22-.13,.32-.18,.42-.39,.68-.91,.56-.17-.04-.34-.11-.5-.19-.07-.04-.14-.07-.2-.11-.23-.12-.39-.21-.5-.13-.11,.08-.11,.28-.01,.75,.03,.2,.03,.4-.02,.59-.13,.57-.33,1.11-.6,1.63-.4,.81-.86,1.59-1.36,2.34l-4.64,6.62-.31,.45-.34,.49-2.74,3.91,.16,.17,.68,.69,.15,.15,.14,.14,.35,.36,.33,.34,7.4-6.03,.83-.67,1.48-1.21,3.03-2.47,5.74-5.31c.73-.67,1.16-1.61,1.18-2.61,0-.03,0-.06,0-.1,0-.85-.29-1.68-.84-2.33Z"/>
      <circle class="cls-3" cx="143.16" cy="10.34" r="5.07"/>
      <path class="cls-8" d="M149.88,17.38c.68,.97,1.14,2.09,1.33,3.26-.55,.35-1.19,.54-1.84,.53-.02-.09-.04-.17-.07-.26-.19-.66-.47-1.29-.83-1.87,.05,.63-.04,1.26-.25,1.85-.34-.16-.71-.25-1.09-.28-.31,0-.61,.07-.88,.21-.32-1.06-.61-2.03-.82-2.73,0,1.75-2.57,3.28-5.37,3.05-.1-.06,.91-2.94,.82-3.01-.22-.15-.44-.31-.66-.47,.92-1.42,1.91-2.93,1.74-3.16,.01,.28-.99,1.63-2.09,2.91-.61-.45,2.84-7.69,1.14-8.28-.03,.26-.4,.26-.86,.2-.12-.42-.3-.83-.53-1.2,.03,.37-.01,.75-.13,1.11-.45,0-.9,.05-1.35,.14-.1-.16-.22-.32-.34-.46,.01,.18,0,.36-.02,.53-.45,.1-.82,.21-.88,.3-.35-.13,.25-.71,.03-1.02-.56-.76,.27-1.86,.8-2.65,1.08-1.6,3.46-2.16,5.15-1.2,.08-.26,.46-.44,.96-.55,.21-.05,.43-.07,.64-.06,2.15,.04,5.13,1.81,5.25,3.96,0,.21,.03,.45,.04,.7,.15,2.4-.03,4.62,1.6,6.37,.59,.63,.6,3.64,.37,5.19-.59-.62-1.01-3.04-1.86-3.13Z"/>
      <circle class="cls-4" cx="93.03" cy="29.15" r=".59"/>
      <circle class="cls-4" cx="111.57" cy="28.76" r=".59"/>
      <path class="cls-8" d="M55.83,12.23c-.45,1.11-1.7,3.29-1.87,4.48l.08-.08c.15,.25,.31,.49,.5,.71,.33-.35,.73-.62,1.17-.81-.24,.5-.38,1.03-.41,1.59,.47,1.49,2.67,.82,3.95,.66,1.28,1.47,2.99,1.85,5.23,1.01,.63,.06,1.33,.1,1.76-.27s.18-1.05,.41-1.57c1.68-3.69,.13-5.02-1.19-6.69-.29-.37-.29-.92-.64-1.27-.49-.49-1.24-.64-1.93-.76,.37,.02,.71-.15,.92-.46,.18-.31,.18-.69-.01-.99-.25-.41-.76-.65-1.26-.71-.49-.03-.98,0-1.45,.13-.31,.04-.61,.14-.88,.28-.27,.14-.41,.43-.38,.73,.08,.27,.29,.49,.55,.6,.2,.08,.41,.14,.62,.17-.99-.13-1.99,.05-2.87,.5-1.11,.59-1.86,1.62-2.3,2.73Z"/>
      <circle class="cls-5" cx="61.83" cy="14.49" r="3.96"/>
      <path class="cls-8" d="M58.02,12.36c.23,.69,.89,.92,1.49,1.06,.19,.04,.38,.09,.58,.12,.07-.09,.15-.18,.23-.26,.33-.35,.73-.62,1.17-.81-.19,.39-.32,.81-.38,1.24,.37,.05,.74,.1,1.11,.13,.65,.14,1.3-.26,1.47-.9,.34,.55,.74,1.07,1.28,1.29,.64,.23,1.36,.02,1.77-.53,.31-.43,.53-.93,.64-1.45,.15-.61,.24-1.32-.06-1.71-.24-.32-.66-.32-1.05-.29-.86,.07-1.7,.22-2.53,.46l-.07,.16c.14-.85-.17-1.67-.73-1.96-.38-.19-.84-.16-1.29-.12-.58,.03-1.14,.14-1.69,.33-.62,.24-1.16,.67-1.53,1.22-.4,.6-.6,1.43-.4,2.03Z"/>
      <path class="cls-8" d="M63.67,8.66s.06,0,.03,0c.02,0,.03,0,.05,0,0,0,.04-.01,.02,0,.06-.02,.11-.05,.15-.1,.09-.12,.17-.24,.22-.38,.06-.18,.16-.35,.3-.49,.13-.13,.35-.13,.48,0,.02,.02,.05,.05,.06,.08,.05,.18,.03,.38-.05,.55-.06,.17-.14,.34-.25,.49-.18,.24-.43,.42-.72,.53-.33,.12-.69,.13-1.02,.03-.13-.05-.19-.2-.13-.32,.02-.06,.07-.1,.12-.13l.56-.23c.12-.05,.27,0,.32,.13,.05,.12,0,.27-.13,.32l-.56,.23v-.45c.06,.02,.13,.03,.2,.04,.08,0,.16,0,.23,0,.07,0,.15-.03,.21-.05,.04-.02,.09-.03,.13-.06,.02,0,.03-.02,.05-.02,0,0,.06-.04,.04-.02,.07-.05,.14-.1,.2-.16,.02-.02,.04-.04,.06-.07,.03-.04,.06-.08,.09-.12,.06-.09,.1-.19,.13-.29,.01-.04,.03-.09,.04-.13,0-.02,0-.05,.01-.07,.02-.06,0,.03,.02,.06l.1,.08s.08,0,.12-.02c.01-.02,0-.01,0,0-.02,.03-.04,.06-.06,.08-.04,.07-.07,.14-.1,.21-.06,.15-.14,.3-.23,.44-.19,.29-.53,.42-.86,.33-.13-.05-.19-.19-.14-.32,.05-.12,.19-.19,.32-.14Z"/>
    </g>
  </g>
</svg>