<?xml version="1.0" encoding="UTF-8"?>
<svg id="projects_page_helper_image" data-name="projects page helper image" xmlns="http://www.w3.org/2000/svg" viewBox="0 0 340 100">
  <defs>
    <style>
      .cls-1 {
        fill: #f2f2f2;
      }

      .cls-2, .cls-3 {
        fill: #e6e6e6;
      }

      .cls-4 {
        fill: #fff;
      }

      .cls-5 {
        fill: #ffb6b6;
      }

      .cls-6 {
        fill: #ffb8b8;
      }

      .cls-7 {
        fill: #e4e4e4;
      }

      .cls-8 {
        fill: #ff6363;
      }

      .cls-9 {
        fill: #9e616a;
      }

      .cls-10 {
        fill: #ccc;
      }

      .cls-11 {
        fill: #cacaca;
      }

      .cls-12 {
        fill: #3f3d56;
      }

      .cls-13 {
        fill: #2f2e41;
      }

      .cls-3 {
        stroke: #fff;
        stroke-miterlimit: 10;
      }

      .cls-14 {
        isolation: isolate;
        opacity: .2;
      }
    </style>
  </defs>
  <path id="ground" class="cls-10" d="M338.39,98.12H1.33c-.18,0-.33-.06-.33-.12s.15-.12,.33-.12H338.39c.18,0,.33,.06,.33,.12s-.15,.12-.33,.12Z"/>
  <g id="project">
    <path class="cls-7" d="M119.62,77.89l-.73,3.64c-.05,.28-.11,.56-.17,.84-.61-.13-1.24-.09-1.82,.1,.47,.67,.89,1.37,1.25,2.1-.46,1.41-1.13,2.71-2.25,3.65-1.53,1.25-3.6,1.62-5.46,.96l.03-.14c-1.21-2.34-.55-5.3,.95-7.47,.77-1.07,1.67-2.03,2.7-2.85,1.01-.85,2.11-1.6,3.2-2.35,.68-.47,1.6-.29,2.07,.38,.23,.33,.31,.74,.23,1.13Z"/>
    <path id="b311a411-101b-4365-a37b-2cdfec47a637-287" class="cls-1" d="M110.7,97.95c-.31-2.23-.62-4.48-.41-6.73,.19-2,.8-3.95,2.04-5.55,.66-.85,1.46-1.57,2.37-2.15,.24-.15,.45,.23,.22,.37-1.57,.99-2.79,2.46-3.47,4.19-.76,1.92-.88,4.02-.75,6.06,.08,1.23,.25,2.46,.41,3.69,.03,.12-.04,.23-.15,.27-.12,.03-.23-.04-.27-.15h0Z"/>
    <path class="cls-4" d="M110.48,3.47c-2.13,0-3.86,1.73-3.87,3.87v61.52c0,2.13,1.73,3.86,3.87,3.87h91.47c2.13,0,3.86-1.73,3.87-3.87V7.34c0-2.13-1.73-3.86-3.87-3.87H110.48Z"/>
    <path class="cls-4" d="M201.94,73.22H110.48c-2.41,0-4.36-1.95-4.36-4.36V7.34c0-2.41,1.95-4.36,4.36-4.36h91.47c2.41,0,4.36,1.95,4.36,4.36v61.52c0,2.41-1.95,4.36-4.36,4.36Z"/>
    <path class="cls-2" d="M113.32,16.31c10.65-.19,21.3-.21,31.95-.08,10.65,.13,21.3,.42,31.94,.88,5.97,.25,11.94,.56,17.91,.91,.48,.03,.48-.72,0-.75-10.63-.63-21.27-1.1-31.92-1.41-10.65-.31-21.3-.46-31.95-.46-5.98,0-11.96,.06-17.93,.16-.48,0-.48,.75,0,.75h0Z"/>
    <path class="cls-2" d="M187.54,11.63l4.66-.35c.48-.04,.48-.78,0-.75l-4.66,.35c-.48,.04-.48,.78,0,.75Z"/>
    <path class="cls-2" d="M187.54,16.11l4.66-.35c.48-.04,.48-.78,0-.75l-4.66,.35c-.48,.04-.48,.78,0,.75Z"/>
    <path class="cls-2" d="M187.19,14.06l6.62,.6c.48,.04,.47-.7,0-.75l-6.62-.6c-.48-.04-.47,.7,0,.75Z"/>
    <path class="cls-2" d="M116.08,10.63c-.66,0-1.26,.39-1.52,1-.3,.6-.16,1.32,.34,1.76,.46,.39,1.09,.52,1.67,.34,.6-.21,1-.77,1-1.4,.03-.7-.39-1.34-1.04-1.61-.2-.05-.4,.06-.46,.26-.05,.2,.07,.4,.26,.46,.06,.03-.06-.03,0,0,.02,.01,.05,.03,.07,.04,.02,.01,.04,.03,.06,.04,.07,.05-.03-.03,.01,0,.04,.04,.08,.07,.11,.11,.01,.01,.07,.06,.02,.03-.03-.02-.01-.02,0,0,0,.01,.02,.03,.03,.04,.03,.04,.06,.09,.08,.14,0,.01,.01,.02,.02,.03,.01,.02,.03,.03,0,0-.02-.02,0-.02,0,0,0,.02,.01,.03,.02,.05,.02,.05,.03,.1,.04,.15,0,.02,0,.05,.01,.07,.02,.09,0-.05,0,.01,0,.05,0,.11,0,.16,0,.02,0,.05,0,.07,0,.01,0,.02,0,.04,0,.06,0-.02,0-.03-.02,.05-.03,.1-.03,.15,0,.02-.01,.05-.02,.07-.03,.08,.02-.04,0,.01-.02,.05-.05,.09-.08,.14-.01,.02-.06,.06-.02,.03,.04-.03-.02,.02-.03,.04-.02,.02-.03,.04-.05,.05-.01,.01-.02,.02-.04,.03,0,0,.06-.04,.03-.02-.04,.03-.09,.06-.13,.08,0,0-.07,.03-.06,.03,0-.01,.08-.03,.02-.01-.01,0-.02,0-.03,.01-.05,.02-.1,.03-.15,.04-.01,0-.02,0-.04,0-.04,0,.04,0,.04,0-.03,0-.06,0-.08,0-.05,0-.11,0-.16,0-.01,0-.02,0-.04,0-.03,0-.05-.02-.01,0,.03,.02,.03,0,0,0-.01,0-.02,0-.04,0-.05,0-.1-.02-.16-.04-.03,0-.05-.02-.08-.03-.01,0-.02,0-.03-.01,0,0,.07,.03,.03,.01-.05-.03-.09-.05-.14-.07-.02-.01-.05-.03-.07-.05-.01,0-.02-.01-.03-.02,0,0,.06,.05,.03,.02-.04-.04-.08-.07-.11-.11,0,0-.02-.02-.02-.03h0s-.02-.03,0,0c.02,0,.02,.03,0,0,0-.01-.01-.02-.02-.03-.03-.04-.06-.09-.08-.14,0,0,.03,.09,0,.02,0-.01,0-.03-.01-.04,0-.03-.02-.05-.02-.08,0-.03,0-.05-.02-.08-.01-.04,0,.03,0,.03,0,0,0-.04,0-.05,0-.06,0-.12,0-.17,0-.05,0,.04,0,.03,0-.01,0-.03,0-.04,0-.03,.01-.06,.02-.09,0-.03,.02-.07,.03-.1,0-.01,.01-.03,.01-.04,.02-.05-.03,.06,0,.01,.04-.06,.06-.12,.1-.18,0-.01,.06-.09,.03-.05-.03,.04,.03-.03,.04-.05,.05-.05,.1-.09,.15-.14,.03-.03-.02,.01-.02,.02,.01-.01,.03-.02,.04-.03,.03-.02,.05-.03,.08-.05,.03-.02,.07-.03,.09-.05,.04-.02-.03,0-.03,.01,.02,0,.03-.01,.05-.02,.03-.01,.15-.06,.18-.05,0,0-.1,0-.02,0,.02,0,.04,0,.05,0,.04,0,.07,0,.11,0,.21,0,.37-.17,.37-.37,0-.2-.17-.37-.37-.37h0Z"/>
    <path class="cls-2" d="M121.3,10.63c-.66,0-1.26,.39-1.52,1-.3,.6-.16,1.32,.34,1.76,.46,.39,1.09,.52,1.67,.34,.6-.21,1-.77,1-1.4,.03-.7-.39-1.34-1.04-1.61-.2-.05-.4,.06-.46,.26-.05,.2,.07,.4,.26,.46,.06,.03-.06-.03,0,0,.02,.01,.05,.03,.07,.04,.02,.01,.04,.03,.06,.04,.07,.05-.03-.03,.01,0,.04,.04,.08,.07,.11,.11,.01,.01,.07,.06,.02,.03-.03-.02-.01-.02,0,0,0,.01,.02,.03,.03,.04,.03,.04,.06,.09,.08,.14,0,.01,.01,.02,.02,.03,.01,.02,.03,.03,0,0-.02-.02,0-.02,0,0,0,.02,.01,.03,.02,.05,.02,.05,.03,.1,.04,.15,0,.02,0,.05,.01,.07,.02,.09,0-.05,0,.01,0,.05,0,.11,0,.16,0,.02,0,.05,0,.07,0,.01,0,.02,0,.04,0,.06,0-.02,0-.03-.02,.05-.03,.1-.03,.15,0,.02-.01,.05-.02,.07-.03,.08,.02-.04,0,.01-.02,.05-.05,.09-.08,.14-.01,.02-.06,.06-.02,.03,.04-.03-.02,.02-.03,.04-.02,.02-.03,.04-.05,.05-.01,.01-.02,.02-.04,.03,0,0,.06-.04,.03-.02-.04,.03-.09,.06-.13,.08,0,0-.07,.03-.06,.03,0-.01,.08-.03,.02-.01-.01,0-.02,0-.03,.01-.05,.02-.1,.03-.15,.04-.01,0-.02,0-.04,0-.04,0,.04,0,.04,0-.03,0-.06,0-.08,0-.05,0-.11,0-.16,0-.01,0-.02,0-.04,0-.03,0-.05-.02-.01,0,.03,.02,.03,0,0,0-.01,0-.02,0-.04,0-.05,0-.1-.02-.16-.04-.03,0-.05-.02-.08-.03-.01,0-.02,0-.03-.01,0,0,.07,.03,.03,.01-.05-.03-.09-.05-.14-.07-.02-.01-.05-.03-.07-.05-.01,0-.02-.01-.03-.02,0,0,.06,.05,.03,.02-.04-.04-.08-.07-.11-.11,0,0-.02-.02-.02-.03h0s-.02-.03,0,0c.02,0,.02,.03,0,0,0-.01-.01-.02-.02-.03-.03-.04-.06-.09-.08-.14,0,0,.03,.09,0,.02,0-.01,0-.03-.01-.04,0-.03-.02-.05-.02-.08,0-.03,0-.05-.02-.08-.01-.04,0,.03,0,.03,0,0,0-.04,0-.05,0-.06,0-.12,0-.17,0-.05,0,.04,0,.03,0-.01,0-.03,0-.04,0-.03,.01-.06,.02-.09,0-.03,.02-.07,.03-.1,0-.01,.01-.03,.01-.04,.02-.05-.03,.06,0,.01,.04-.06,.06-.12,.1-.18,0-.01,.06-.09,.03-.05-.03,.04,.03-.03,.04-.05,.05-.05,.1-.09,.15-.14,.03-.03-.02,.01-.02,.02,.01-.01,.03-.02,.04-.03,.03-.02,.05-.03,.08-.05,.03-.02,.07-.03,.09-.05,.04-.02-.03,0-.03,.01,.02,0,.03-.01,.05-.02,.03-.01,.15-.06,.18-.05,0,0-.1,0-.02,0,.02,0,.04,0,.05,0,.04,0,.07,0,.11,0,.21,0,.37-.17,.37-.37,0-.2-.17-.37-.37-.37h0Z"/>
    <path class="cls-2" d="M126.52,10.63c-.66,0-1.26,.39-1.52,1-.3,.6-.16,1.32,.34,1.76,.46,.39,1.09,.52,1.67,.34,.6-.21,1-.77,1-1.4,.03-.7-.39-1.34-1.04-1.61-.2-.05-.4,.06-.46,.26-.05,.2,.07,.4,.26,.46,.06,.03-.06-.03,0,0,.02,.01,.05,.03,.07,.04,.02,.01,.04,.03,.06,.04,.07,.05-.03-.03,.01,0,.04,.04,.08,.07,.11,.11,.01,.01,.07,.06,.02,.03-.03-.02-.01-.02,0,0,0,.01,.02,.03,.03,.04,.03,.04,.06,.09,.08,.14,0,.01,.01,.02,.02,.03,.01,.02,.03,.03,0,0-.02-.02,0-.02,0,0,0,.02,.01,.03,.02,.05,.02,.05,.03,.1,.04,.15,0,.02,0,.05,.01,.07,.02,.09,0-.05,0,.01,0,.05,0,.11,0,.16,0,.02,0,.05,0,.07,0,.01,0,.02,0,.04,0,.06,0-.02,0-.03-.02,.05-.03,.1-.03,.15,0,.02-.01,.05-.02,.07-.03,.08,.02-.04,0,.01-.02,.05-.05,.09-.08,.14-.01,.02-.06,.06-.02,.03,.04-.03-.02,.02-.03,.04-.02,.02-.03,.04-.05,.05-.01,.01-.02,.02-.04,.03,0,0,.06-.04,.03-.02-.04,.03-.09,.06-.13,.08,0,0-.07,.03-.06,.03,0-.01,.08-.03,.02-.01-.01,0-.02,0-.03,.01-.05,.02-.1,.03-.15,.04-.01,0-.02,0-.04,0-.04,0,.04,0,.04,0-.03,0-.06,0-.08,0-.05,0-.11,0-.16,0-.01,0-.02,0-.04,0-.03,0-.05-.02-.01,0,.03,.02,.03,0,0,0-.01,0-.02,0-.04,0-.05,0-.1-.02-.16-.04-.03,0-.05-.02-.08-.03-.01,0-.02,0-.03-.01,0,0,.07,.03,.03,.01-.05-.03-.09-.05-.14-.07-.02-.01-.05-.03-.07-.05-.01,0-.02-.01-.03-.02,0,0,.06,.05,.03,.02-.04-.04-.08-.07-.11-.11,0,0-.02-.02-.02-.03h0s-.02-.03,0,0c.02,0,.02,.03,0,0,0-.01-.01-.02-.02-.03-.03-.04-.06-.09-.08-.14,0,0,.03,.09,0,.02,0-.01,0-.03-.01-.04,0-.03-.02-.05-.02-.08,0-.03,0-.05-.02-.08-.01-.04,0,.03,0,.03,0,0,0-.04,0-.05,0-.06,0-.12,0-.17,0-.05,0,.04,0,.03,0-.01,0-.03,0-.04,0-.03,.01-.06,.02-.09,0-.03,.02-.07,.03-.1,0-.01,.01-.03,.01-.04,.02-.05-.03,.06,0,.01,.04-.06,.06-.12,.1-.18,0-.01,.06-.09,.03-.05-.03,.04,.03-.03,.04-.05,.05-.05,.1-.09,.15-.14,.03-.03-.02,.01-.02,.02,.01-.01,.03-.02,.04-.03,.03-.02,.05-.03,.08-.05,.03-.02,.07-.03,.09-.05,.04-.02-.03,0-.03,.01,.02,0,.03-.01,.05-.02,.03-.01,.15-.06,.18-.05,0,0-.1,0-.02,0,.02,0,.04,0,.05,0,.04,0,.07,0,.11,0,.21,0,.37-.17,.37-.37,0-.2-.17-.37-.37-.37h0Z"/>
    <path class="cls-3" d="M201.94,73.22H110.48c-2.41,0-4.36-1.95-4.36-4.36V7.34c0-2.41,1.95-4.36,4.36-4.36h91.47c2.41,0,4.36,1.95,4.36,4.36v61.52c0,2.41-1.95,4.36-4.36,4.36ZM110.48,3.47c-2.13,0-3.86,1.73-3.87,3.87v61.52c0,2.13,1.73,3.86,3.87,3.87h91.47c2.13,0,3.86-1.73,3.87-3.87V7.34c0-2.13-1.73-3.86-3.87-3.87H110.48Z"/>
    <path class="cls-2" d="M110.33,58.44l32.17-.1,32-.1,18.05-.05c.21,0,.37-.18,.36-.39,0-.2-.16-.35-.36-.36l-32.17,.1-32,.1-18.05,.05c-.21,0-.37,.18-.36,.39,0,.2,.16,.35,.36,.36Z"/>
    <path class="cls-2" d="M126.55,57.84l.2-11.74c0-.48-.74-.48-.75,0l-.2,11.74c0,.48,.74,.48,.75,0Z"/>
    <path class="cls-2" d="M141.93,57.96l.48-14.76,.14-4.22c.02-.48-.73-.48-.75,0l-.48,14.76-.14,4.22c-.02,.48,.73,.48,.75,0Z"/>
    <path class="cls-2" d="M157.26,31.99c-.29,5.23-.83,20.65-1.13,25.88-.03,.48,.72,.48,.75,0,.29-5.23,.83-20.65,1.13-25.88,.03-.48-.72-.48-.75,0Z"/>
    <path class="cls-2" d="M172.52,52.62l-.09,5.03c0,.48,.74,.48,.75,0,.11-5.94,.38-5.74,.42-7.42,0-.48-.74-.48-.75,0,0,0-.22-3.54-.32,2.39Z"/>
    <path class="cls-2" d="M187.46,39.42l.08,14.1,.02,4.04c0,.21,.18,.37,.39,.36,.2,0,.35-.16,.36-.36l-.08-14.1-.02-4.04c0-.21-.18-.37-.39-.36-.2,0-.35,.16-.36,.36Z"/>
    <path class="cls-2" d="M110.39,58.02c-.62-1.7,.77-3.33,2.2-4.06,1.71-.88,3.68-1.08,5.42-1.92,2.58-1.26,4.46-3.53,6.13-5.8,1.72-2.33,3.3-4.84,5.49-6.78,1.15-1.04,2.51-1.83,3.99-2.31,1.87-.58,3.84-.62,5.77-.39,3.98,.48,7.67,2.13,11.52,3.18,3.62,.99,7.61,1.54,11.17,0,1.81-.78,3.28-2.08,4.87-3.21,1.54-1.11,3.25-1.93,5.07-2.45,3.57-.99,7.47-.73,10.79,.95,3.05,1.52,5.47,4.08,6.83,7.21,1.58,3.76,1.37,7.97,.86,11.93-.13,1.02-.29,2.04-.45,3.06-.07,.47,.64,.67,.72,.2,.64-4.08,1.28-8.3,.48-12.41-.69-3.59-2.66-6.8-5.55-9.04-2.9-2.25-6.51-3.38-10.17-3.21-1.92,.09-3.81,.51-5.59,1.24-1.84,.76-3.41,1.89-4.99,3.08-1.63,1.22-3.31,2.24-5.34,2.63-1.96,.39-4.01,.24-5.96-.12-4.04-.75-7.8-2.48-11.8-3.37-3.71-.82-7.71-.9-11.03,1.19-2.55,1.61-4.36,4.11-6.09,6.53-1.72,2.39-3.45,4.95-5.96,6.59-1.53,1-3.25,1.37-4.97,1.93-1.72,.56-3.37,1.51-4.07,3.27-.3,.72-.32,1.54-.07,2.28,.16,.45,.88,.25,.72-.2h0Z"/>
    <polygon class="cls-2" points="126.31 44.47 126.31 44.47 126.31 44.47 126.31 44.47"/>
    <path class="cls-2" d="M127.6,43.78c-.36-.63-1.12-.91-1.8-.66-.33,.12-.6,.37-.74,.69-.01,.03-.02,.07-.03,.1-.02,.03-.04,.05-.05,.08-.37,.73-.07,1.62,.66,1.99,.54,.27,1.2,.19,1.65-.22,.56-.5,.69-1.33,.31-1.98Zm-.93,.63s0,.04,0,0Zm-.09-.22s0,0,0,0Zm-.42,.17s0-.01,0,0Zm.1,.08s.01,0,0,0Zm.04,.02h0s0,0,0,0h0s0,0,0,0h0s0,0,0,0c0,0,0,0,0,0,.04-.02,.01-.01-.01,0h0s-.03-.01-.05-.02c0,0,0,0,0,0-.01-.01-.09-.07-.02,0-.01-.01-.03-.03-.04-.04,0,0-.02-.02-.02-.03,0-.02-.02-.03-.03-.05h0s0-.02,0-.02c0,0,0,0,0-.01,0-.01,0-.03,0-.04h0s.02-.04,.03-.05c-.05,.08,.02,0,.03-.02,0,0,0,0,0,0,0,0,0,0,0,0,.02,0,.03-.02,.05-.03,.02-.01,.1-.03,.02-.01,.02,0,.04-.01,.06-.02,0,0,.03,0,.05,0,.01,0,.03,0,.03,0,0,0,.01,0,.02,0-.01,0,.05,.01,.07,.02,0,0,0,0,0,0,.02,.01,.03,.02,.05,.03-.07-.05,0,0,.01,.02,0,0,.02,.02,.02,.03,0,0,.01,.02,.02,.03,.01,.02,.02,.04,.04,.06h0s0,0,0,0c0,.03,.02,.07,.03,.1,0,0,0,0,0,0,0,.02,0,.04,0,.06h0c-.12-.06-.26-.06-.37,0h0Z"/>
    <path class="cls-2" d="M126.31,44.47s0,0,0,0h0Z"/>
    <path class="cls-2" d="M126.31,44.47h0s0,0,0,0Z"/>
    <path class="cls-2" d="M126.31,44.47h0s0,0,0,0Z"/>
    <polygon class="cls-2" points="126.31 44.47 126.31 44.47 126.31 44.47 126.31 44.47"/>
    <polygon class="cls-2" points="142.22 37.51 142.22 37.51 142.22 37.51 142.22 37.51"/>
    <path class="cls-2" d="M143.51,36.82c-.36-.63-1.12-.91-1.8-.66-.33,.12-.6,.37-.74,.69-.01,.03-.02,.07-.03,.1-.02,.03-.04,.05-.05,.08-.37,.73-.07,1.62,.66,1.99,.54,.27,1.2,.19,1.65-.22,.56-.5,.69-1.33,.31-1.98Zm-.93,.63s0,.04,0,0Zm-.09-.22s0,0,0,0Zm-.42,.17s0-.01,0,0Zm.1,.08s.01,0,0,0Zm.04,.02h0s0,0,0,0h0s0,0,0,0h0s0,0,0,0c0,0,0,0,0,0,.04-.02,.01-.01-.01,0h0s-.03-.01-.05-.02c0,0,0,0,0,0-.01-.01-.09-.07-.02,0-.01-.01-.03-.03-.04-.04,0,0-.02-.02-.02-.03,0-.02-.02-.03-.03-.05h0s0-.02,0-.02c0,0,0,0,0-.01,0-.01,0-.03,0-.04h0s.02-.04,.03-.05c-.05,.08,.02,0,.03-.02,0,0,0,0,0,0,0,0,0,0,0,0,.02,0,.03-.02,.05-.03,.02-.01,.1-.03,.02-.01,.02,0,.04-.01,.06-.02,0,0,.03,0,.05,0,.01,0,.03,0,.03,0,0,0,.01,0,.02,0-.01,0,.05,.01,.07,.02,0,0,0,0,0,0,.02,.01,.03,.02,.05,.03-.07-.05,0,0,.01,.02,0,0,.02,.02,.02,.03,0,0,.01,.02,.02,.03,.01,.02,.02,.04,.04,.06h0s0,0,0,0c0,.03,.02,.07,.03,.1,0,0,0,0,0,0,0,.02,0,.04,0,.06h0c-.12-.06-.26-.06-.37,0h0Z"/>
    <path class="cls-2" d="M142.22,37.51h0s0,0,0,0Z"/>
    <polygon class="cls-2" points="142.22 37.51 142.22 37.51 142.22 37.51 142.22 37.51"/>
    <path class="cls-2" d="M142.22,37.51s0,0,0,0h0Z"/>
    <path class="cls-2" d="M142.22,37.51h0s0,0,0,0Z"/>
    <polygon class="cls-2" points="157.63 40.99 157.63 40.99 157.63 40.99 157.63 40.99"/>
    <path class="cls-2" d="M158.92,29.86c-.36-.63-1.12-.91-1.8-.66-.33,.12-.6,.37-.74,.69-.01,.03-.02,.07-.03,.1-.02,.03-.04,.05-.05,.08-.37,.73-.07,1.62,.66,1.99,.54,.27,1.2,.19,1.65-.22,.56-.5,.69-1.33,.31-1.98Zm-.93,.63s0,.04,0,0Zm-.09-.22s0,0,0,0Zm-.42,.17s0-.01,0,0Zm.1,.08s.01,0,0,0Zm.04,.02h0s0,0,0,0h0s0,0,0,0h0s0,0,0,0c0,0,0,0,0,0,.04-.02,.01-.01-.01,0h0s-.03-.01-.05-.02c0,0,0,0,0,0-.01-.01-.09-.07-.02,0-.01-.01-.03-.03-.04-.04,0,0-.02-.02-.02-.03,0-.02-.02-.03-.03-.05h0s0-.02,0-.02c0,0,0,0,0-.01,0-.01,0-.03,0-.04h0s.02-.04,.03-.05c-.05,.08,.02,0,.03-.02,0,0,0,0,0,0,0,0,0,0,0,0,.02,0,.03-.02,.05-.03,.02-.01,.1-.03,.02-.01,.02,0,.04-.01,.06-.02,0,0,.03,0,.05,0,.01,0,.03,0,.03,0,0,0,.01,0,.02,0-.01,0,.05,.01,.07,.02,0,0,0,0,0,0,.02,.01,.03,.02,.05,.03-.07-.05,0,0,.01,.02,0,0,.02,.02,.02,.03,0,0,.01,.02,.02,.03,.01,.02,.02,.04,.04,.06h0s0,0,0,0c0,.03,.02,.07,.03,.1,0,0,0,0,0,0,0,.02,0,.04,0,.06h0c-.12-.06-.26-.06-.37,0h0Z"/>
    <polygon class="cls-2" points="157.63 40.99 157.63 40.99 157.63 40.99 157.63 40.99"/>
    <path class="cls-2" d="M157.63,40.99h0s0,0,0,0Z"/>
    <path class="cls-2" d="M157.63,40.99h0s0,0,0,0Z"/>
    <path class="cls-2" d="M157.63,40.99s0,0,0,0h0Z"/>
    <path class="cls-2" d="M174.59,49c-.36-.63-1.12-.91-1.8-.66-.33,.12-.6,.37-.74,.69-.01,.03-.02,.07-.03,.1-.02,.03-.04,.05-.05,.08-.37,.73-.07,1.62,.66,1.99,.54,.27,1.2,.19,1.65-.22,.56-.5,.69-1.33,.31-1.98Zm-.93,.63s0,.04,0,0Zm-.09-.22s0,0,0,0Zm-.42,.17s0-.01,0,0Zm.1,.08s.01,0,0,0Zm.04,.02h0s0,0,0,0h0s0,0,0,0h0s0,0,0,0c0,0,0,0,0,0,.04-.02,.01-.01-.01,0h0s-.03-.01-.05-.02c0,0,0,0,0,0-.01-.01-.09-.07-.02,0-.01-.01-.03-.03-.04-.04,0,0-.02-.02-.02-.03,0-.02-.02-.03-.03-.05h0s0-.02,0-.02c0,0,0,0,0-.01,0-.01,0-.03,0-.04h0s.02-.04,.03-.05c-.05,.08,.02,0,.03-.02,0,0,0,0,0,0,0,0,0,0,0,0,.02,0,.03-.02,.05-.03,.02-.01,.1-.03,.02-.01,.02,0,.04-.01,.06-.02,0,0,.03,0,.05,0,.01,0,.03,0,.03,0,0,0,.01,0,.02,0-.01,0,.05,.01,.07,.02,0,0,0,0,0,0,.02,.01,.03,.02,.05,.03-.07-.05,0,0,.01,.02,0,0,.02,.02,.02,.03,0,0,.01,.02,.02,.03,.01,.02,.02,.04,.04,.06h0s0,0,0,0c0,.03,.02,.07,.03,.1,0,0,0,0,0,0,0,.02,0,.04,0,.06h0c-.12-.06-.26-.06-.37,0h0Z"/>
    <polygon class="cls-2" points="173.29 33.28 173.29 33.28 173.29 33.28 173.29 33.28"/>
    <path class="cls-2" d="M173.3,33.28h0s0,0,0,0Z"/>
    <path class="cls-2" d="M173.3,33.28h0s0,0,0,0Z"/>
    <path class="cls-2" d="M173.3,33.28s0,0,0,0h0Z"/>
    <polygon class="cls-2" points="173.3 33.28 173.3 33.28 173.3 33.28 173.3 33.28"/>
    <path class="cls-2" d="M187.96,38.25h0s0,0,0,0Z"/>
    <path class="cls-2" d="M189.26,37.57c-.36-.63-1.12-.91-1.8-.66-.33,.12-.6,.37-.74,.69-.01,.03-.02,.07-.03,.1-.02,.03-.04,.05-.05,.08-.37,.73-.07,1.62,.66,1.99,.54,.27,1.2,.19,1.65-.22,.56-.5,.69-1.33,.31-1.98Zm-.93,.63s0,.04,0,0Zm-.09-.22s0,0,0,0Zm-.42,.17s0-.01,0,0Zm.1,.08s.01,0,0,0Zm.04,.02h0s0,0,0,0h0s0,0,0,0h0s0,0,0,0c0,0,0,0,0,0,.04-.02,.01-.01-.01,0h0s-.03-.01-.05-.02c0,0,0,0,0,0-.01-.01-.09-.07-.02,0-.01-.01-.03-.03-.04-.04,0,0-.02-.02-.02-.03,0-.02-.02-.03-.03-.05h0s0-.02,0-.02c0,0,0,0,0-.01,0-.01,0-.03,0-.04h0s.02-.04,.03-.05c-.05,.08,.02,0,.03-.02,0,0,0,0,0,0,0,0,0,0,0,0,.02,0,.03-.02,.05-.03,.02-.01,.1-.03,.02-.01,.02,0,.04-.01,.06-.02,0,0,.03,0,.05,0,.01,0,.03,0,.03,0,0,0,.01,0,.02,0-.01,0,.05,.01,.07,.02,0,0,0,0,0,0,.02,.01,.03,.02,.05,.03-.07-.05,0,0,.01,.02,0,0,.02,.02,.02,.03,0,0,.01,.02,.02,.03,.01,.02,.02,.04,.04,.06h0s0,0,0,0c0,.03,.02,.07,.03,.1,0,0,0,0,0,0,0,.02,0,.04,0,.06h0c-.12-.06-.26-.06-.37,0h0Z"/>
    <polygon class="cls-2" points="187.96 38.25 187.96 38.25 187.96 38.25 187.96 38.25"/>
    <polygon class="cls-2" points="187.96 38.25 187.96 38.25 187.96 38.25 187.96 38.25"/>
    <path class="cls-2" d="M187.96,38.25s0,0,0,0h0Z"/>
    <path class="cls-2" d="M187.96,38.25h0s0,0,0,0Z"/>
    <path class="cls-12" d="M183.94,19.65l-11.56,.64c-.14,0-.26-.1-.27-.24,0-.13,.08-.24,.21-.27l11.82-1.92-.2,1.79Z"/>
    <path class="cls-5" d="M198.63,45.38l4.36-7.33,3.22,1.52s-5.55,6.93-5.72,7.13c.21,.92-.37,1.83-1.29,2.04-.92,.21-1.83-.37-2.04-1.29-.21-.92,.37-1.83,1.29-2.04,.06-.01,.12-.02,.19-.03h0Z"/>
    <path class="cls-8" d="M200.45,28.36l7.06,3.68c1.75,1.26,2.15,3.7,.89,5.45-.07,.1-.15,.19-.23,.28l-4.87,5.58-2.12-2.87,1.63-3.42-3.16-.83,.8-7.88Z"/>
    <path class="cls-5" d="M180.33,19.77l-.79,8.49h-3.56s2.04-8.63,2.12-8.89c-.58-.74-.45-1.81,.29-2.39s1.81-.45,2.39,.29,.45,1.81-.29,2.39c-.05,.04-.1,.07-.15,.11h0Z"/>
    <path class="cls-8" d="M187.42,37.13l-8.2-1.5c-3.45-.42-4.87-2.69-4.24-4.9l2-7.13,3.15,1.69v3.79s4.39-.6,4.39-.6l2.9,8.66Z"/>
    <polygon class="cls-5" points="184.07 95.79 181.81 95.79 180.74 87.1 184.07 87.1 184.07 95.79"/>
    <path class="cls-13" d="M184.15,98.14h-6.93v-.09c0-1.49,1.21-2.7,2.7-2.7h0l1.27-.96,2.36,.96h.6s0,2.78,0,2.78Z"/>
    <polygon class="cls-5" points="200.01 95.79 202.26 95.79 203.34 87.1 200.01 87.1 200.01 95.79"/>
    <path class="cls-13" d="M199.93,98.14h6.93v-.09c0-1.49-1.21-2.7-2.7-2.7h0l-1.27-.96-2.36,.96h-.6s0,2.78,0,2.78Z"/>
    <path class="cls-13" d="M180.64,80.71c.03-.5,.3-3.24,.3-3.24l.63-5.82,1.12-15.42,1-4.05,4.93,1.92,4-1.92,4.75,1.52,3.7,1.39s0,.59,.03,1.31c.04,.94,.1,2.09,.26,2.39,.26,.53,.2,3.37,.2,3.37,0,0,.26,5.78,.59,6.41s.4,1.95,.3,2.22,.33,7.21,.33,7.21c0,0,1.11,12.28,.41,14.14s-3.32,.64-3.32,.64c0,0,.13-.49-.63-.73s-3.08-17.65-3.08-17.65c0,0-.43-3.57-.83-4.6s-.76-3.9-.76-3.9c0,0-2.45-4.76-2.48-5.82,0,0-.32-.99-.62,.1s-1.19,3.7-1.19,3.7l-.87,3.21-1.02,4.79-.66,4.03s-.99,5.35-1.15,5.59,0,5.12,0,5.12c0,0-.77,4.17-1.85,4.89s-3.96,.01-3.96,.01c0,0-.17-10.33-.14-10.83Z"/>
    <path class="cls-8" d="M184.33,39.14l-.63,8.16-.95,.98c-.35,.36-.34,.94,.02,1.29,0,0,.02,.02,.03,.02h0l-.52,.89-.18,2.82c-.2,.82,.31,1.65,1.13,1.85,.09,.02,.19,.04,.29,.04l16.32,.77c.84,.04,1.56-.61,1.6-1.46,0-.09,0-.18-.01-.27l-1.39-10.45v-.78l-.62-1.51,.32-5.05,.74-8.02-4.32-1.11-2.34-1.61-4.07,.06-2.47,2.03-3.29,.52-2.49,.49-.32,.69,.63-.14,2.3,8.96,.21,.83Z"/>
    <circle class="cls-5" cx="191.69" cy="19.81" r="4.79"/>
    <path class="cls-13" d="M190.53,24.29l3.46-.18c.44-.02,.93-.06,1.25-.37,.17-.19,.31-.41,.39-.65,.32-.74,.64-1.49,.95-2.23,.43-1.03,.85-2.12,.74-3.24-.03-.51-.24-.99-.6-1.35-.38-.36-.95-.42-1.39-.14-.11-.71-.54-1.34-1.17-1.69-.63-.35-1.34-.5-2.05-.44-1.03,.07-2.02,.46-2.82,1.11-.23,.21-.47,.4-.72,.57-.26,.17-.58,.23-.88,.16-.31-.08-.51-.38-.47-.69-.51,.38-.64,1.08-.31,1.62-.37,.15-.78,.1-1.1-.13-.67,.33-.94,1.14-.61,1.81,.33,.67,1.14,.94,1.81,.61,.08-.04,.15-.08,.22-.13,.21,.29,.13,.69,.1,1.05s.07,.81,.42,.91c.47,.13,.85-.5,1.34-.49,.24,.02,.46,.16,.58,.38,.12,.21,.19,.44,.23,.68l.63,2.82"/>
    <path class="cls-2" d="M325.47,67.36c0-.74-.25-1.34-.55-1.35h-83.37c-.31,0-.55,.6-.56,1.35v30.53c0,.14-.11,.26-.25,.28-.22,.02-.45,.04-.67,.06,0,0-.01,0-.02,0-.12,.01-.24,.02-.37,.03h0c-.06-.12-.12-.23-.19-.35-.02-.04-.03-.08-.03-.13v-32.16c0-.2,0-.41,.02-.61,.02-.28,.05-.56,.1-.83,.23-1.29,.76-2.16,1.36-2.16h84.55c.09,0,.17,.02,.25,.05,.12,.05,.22,.13,.31,.22,.12,.13,.23,.27,.31,.42,.34,.69,.54,1.44,.58,2.2,0,0,0,.02,0,.02,.02,.22,.03,.45,.03,.68l.02,2.97v1.77s.05,5.55,.05,5.55v1.97s.07,20.23,.07,20.23h0c0,.15-.12,.28-.28,.28h-1.11c-.15,0-.28-.12-.28-.28h0s0-30.74,0-30.74Z"/>
    <path class="cls-10" d="M302.81,48.13h-8.98c-.26,0-.48,.22-.48,.48v14.19h9.94v-14.19c0-.26-.21-.48-.48-.48h0Zm-4.46,8.06c-.58,0-1.06-.48-1.06-1.06v-1.64c0-.59,.47-1.06,1.06-1.06s1.06,.47,1.06,1.06v1.64c0,.58-.48,1.06-1.06,1.06Z"/>
    <path class="cls-12" d="M293.32,62.35v1.37c0,.15,.12,.27,.27,.27h9.47c.15,0,.27-.12,.27-.27v-1.37h-10Z"/>
    <path class="cls-2" d="M317.69,25.98h-38.4c-.69,0-1.24,.56-1.24,1.24v25.91c0,.69,.56,1.24,1.24,1.24h38.4c.69,0,1.24-.56,1.24-1.24V27.23c0-.69-.56-1.24-1.24-1.24Z"/>
    <path class="cls-4" d="M317.37,26.88h-37.76c-.37,0-.67,.3-.67,.67v25.27c0,.37,.3,.66,.67,.67h37.76c.37,0,.66-.3,.67-.67V27.55c0-.37-.3-.67-.67-.67Z"/>
    <path class="cls-10" d="M310.01,64.46h-22.46c-.23,0-.41-.19-.41-.41,0-.03,0-.06,0-.09l.35-1.66c.04-.19,.21-.33,.4-.33h21.77c.2,0,.36,.14,.4,.33l.35,1.66c.05,.22-.1,.44-.32,.49-.03,0-.06,0-.09,0h0Z"/>
    <rect class="cls-2" x="288.06" y="62.28" width=".69" height=".42" rx=".12" ry=".12"/>
    <rect class="cls-2" x="289.44" y="62.28" width=".69" height=".42" rx=".12" ry=".12"/>
    <rect class="cls-2" x="290.82" y="62.28" width=".69" height=".42" rx=".12" ry=".12"/>
    <rect class="cls-2" x="292.21" y="62.28" width=".69" height=".42" rx=".12" ry=".12"/>
    <rect class="cls-2" x="293.59" y="62.28" width=".69" height=".42" rx=".12" ry=".12"/>
    <rect class="cls-2" x="294.97" y="62.28" width=".69" height=".42" rx=".12" ry=".12"/>
    <rect class="cls-2" x="296.36" y="62.28" width=".69" height=".42" rx=".12" ry=".12"/>
    <rect class="cls-2" x="297.74" y="62.28" width=".69" height=".42" rx=".12" ry=".12"/>
    <rect class="cls-2" x="299.13" y="62.28" width=".69" height=".42" rx=".12" ry=".12"/>
    <rect class="cls-2" x="300.51" y="62.28" width=".69" height=".42" rx=".12" ry=".12"/>
    <rect class="cls-2" x="301.89" y="62.28" width=".69" height=".42" rx=".12" ry=".12"/>
    <rect class="cls-2" x="303.28" y="62.28" width=".69" height=".42" rx=".12" ry=".12"/>
    <rect class="cls-2" x="304.66" y="62.28" width=".69" height=".42" rx=".12" ry=".12"/>
    <rect class="cls-2" x="306.04" y="62.28" width=".69" height=".42" rx=".12" ry=".12"/>
    <rect class="cls-2" x="307.43" y="62.28" width=".69" height=".42" rx=".12" ry=".12"/>
    <rect class="cls-2" x="308.81" y="62.28" width=".69" height=".42" rx=".12" ry=".12"/>
    <rect class="cls-2" x="288.04" y="62.97" width=".69" height=".42" rx=".12" ry=".12"/>
    <rect class="cls-2" x="289.42" y="62.97" width=".69" height=".42" rx=".12" ry=".12"/>
    <rect class="cls-2" x="290.81" y="62.97" width=".69" height=".42" rx=".12" ry=".12"/>
    <rect class="cls-2" x="292.19" y="62.97" width=".69" height=".42" rx=".12" ry=".12"/>
    <rect class="cls-2" x="293.57" y="62.97" width=".69" height=".42" rx=".12" ry=".12"/>
    <rect class="cls-2" x="294.96" y="62.97" width=".69" height=".42" rx=".12" ry=".12"/>
    <rect class="cls-2" x="296.34" y="62.97" width=".69" height=".42" rx=".12" ry=".12"/>
    <rect class="cls-2" x="297.73" y="62.97" width=".69" height=".42" rx=".12" ry=".12"/>
    <rect class="cls-2" x="299.11" y="62.97" width=".69" height=".42" rx=".12" ry=".12"/>
    <rect class="cls-2" x="300.49" y="62.97" width=".69" height=".42" rx=".12" ry=".12"/>
    <rect class="cls-2" x="301.88" y="62.97" width=".69" height=".42" rx=".12" ry=".12"/>
    <rect class="cls-2" x="303.26" y="62.97" width=".69" height=".42" rx=".12" ry=".12"/>
    <rect class="cls-2" x="304.64" y="62.97" width=".69" height=".42" rx=".12" ry=".12"/>
    <rect class="cls-2" x="306.03" y="62.97" width=".69" height=".42" rx=".12" ry=".12"/>
    <rect class="cls-2" x="307.41" y="62.97" width=".69" height=".42" rx=".12" ry=".12"/>
    <rect class="cls-2" x="308.8" y="62.97" width=".69" height=".42" rx=".12" ry=".12"/>
    <rect class="cls-2" x="294.68" y="63.8" width="5.54" height=".42" rx=".12" ry=".12"/>
    <path class="cls-11" d="M315.47,30.36h-35.33c-.08,0-.14-.07-.14-.14,0-.08,.06-.14,.14-.14h35.33c.08,0,.14,.07,.14,.14,0,.08-.06,.14-.14,.14Z"/>
    <ellipse class="cls-10" cx="282.54" cy="28.52" rx=".82" ry=".84"/>
    <ellipse class="cls-10" cx="285.39" cy="28.52" rx=".82" ry=".84"/>
    <ellipse class="cls-10" cx="288.23" cy="28.52" rx=".82" ry=".84"/>
    <path class="cls-10" d="M313.76,27.89h-2.02c-.08,0-.15,.07-.15,.16,0,.08,.07,.15,.15,.15h2.02c.08,0,.15-.07,.15-.16,0-.08-.07-.15-.15-.15h0Z"/>
    <path class="cls-10" d="M313.76,28.46h-2.02c-.08,0-.15,.07-.15,.16,0,.08,.07,.15,.15,.15h2.02c.08,0,.15-.07,.15-.16,0-.08-.07-.15-.15-.15h0Z"/>
    <path class="cls-10" d="M313.76,29.04h-2.02c-.08,0-.15,.07-.15,.16,0,.08,.07,.15,.15,.15h2.02c.08,0,.15-.07,.15-.16,0-.08-.07-.15-.15-.15h0Z"/>
    <path class="cls-8" d="M296.24,38.02h4.41c.33,0,.6,.27,.6,.6h0c0,.33-.27,.6-.6,.6h-4.41c-.33,0-.6-.27-.6-.6h0c0-.33,.27-.6,.6-.6Z"/>
    <path class="cls-2" d="M293.39,40.42h10.12c.33,0,.6,.27,.6,.6h0c0,.33-.27,.6-.6,.6h-10.12c-.33,0-.6-.27-.6-.6h0c0-.33,.27-.6,.6-.6Z"/>
    <path class="cls-2" d="M293.39,42.82h10.12c.33,0,.6,.27,.6,.6h0c0,.33-.27,.6-.6,.6h-10.12c-.33,0-.6-.27-.6-.6h0c0-.33,.27-.6,.6-.6Z"/>
    <polygon class="cls-5" points="235.34 80.24 233.3 79.26 236.1 70.76 239.1 72.19 235.34 80.24"/>
    <path class="cls-5" d="M248.98,78.87c-.15,.09-.3,.18-.45,.28-.3,.18-.6,.36-.9,.54-.15,.09-.3,.18-.45,.26h0s0,0,0,0h0s-.23,.06-.23,.06l-.33-.87-.15-.4-.22-.57-.39-1.04-2.08-5.49,3.23-.8,.12,.49h0l.06,.25,1.13,4.58,.23,.94v.03s.15,.56,.15,.56l.12,.48,.13,.54,.04,.16Z"/>
    <path class="cls-13" d="M268.25,59.6c-.2,.33-.41,.66-.62,.98-.39,.6-.79,1.2-1.21,1.78,0,0,0,0,0,0-.24,.22-.51,.42-.79,.58-.01,0-.03,.01-.04,.02-.21,.12-.43,.21-.67,.27-.08,.02-.17,.04-.25,.06-.3,.07-.6,.13-.9,.19-.53,.09-1.05,.16-1.57,.2-.04,0-.08,0-.13,.01-2.14,.16-4.22-.1-6.4-.51-1.07-.2-2.17-.45-3.3-.7-.37-.08-.74-.17-1.12-.25-.03,0-.06-.01-.09-.02-.54-.12-1.09-.23-1.65-.35-.71-.15-1.43-.29-2.19-.42l.05,1.07c.04,.82,.22,1.63,.51,2.4,.32,.94,.58,1.69,.04,3.25l-.26,.75c.27,.76,.18,1.6-.26,2.28l-.05,.08,2.17,5.49,.14,.36h-2.48s-2.32,0-2.32,0l-3.34-6.7-.16-.32v-.02l.35-12.88c0-.11,.01-.23,.03-.34,.12-1.04,.66-1.99,1.49-2.64,.8-.62,1.81-.9,2.81-.77l1.14,.15,2.34,.3,1.65,.21h.03s4.85,.63,4.85,.63l.35-1.42,.06-.02,2.04-.75,7.07-2.59h.02s.46-.18,.46-.18l.06,.09s.03,.05,.05,.08c.46,.82,.83,1.69,1.12,2.59,.48,1.47,.87,2.97,1.17,4.48,.01,.07,.03,.13,.04,.18v.02s.01,.04,.01,.05c.14,.78,.05,1.59-.25,2.33Z"/>
    <path class="cls-13" d="M268.55,54.85c-.02-.1-.05-.19-.08-.29-.24-.71-.51-1.41-.83-2.1-.35-.78-.78-1.61-1.28-2.51-.24-.44-.51-.89-.79-1.36-.14-.24-.29-.48-.44-.72,0-.01-.01-.02-.02-.03l-.04-.07-6.99,.94-2.6,.35-.16,1.3-.04,.32s0,0,0,0l-.1,.88h0s-.14,1.16-.14,1.16h-.01s-3.86-.5-3.86-.5l-3.98-.52-2.14-.28c-1-.13-2.01,.15-2.81,.77-.83,.64-1.37,1.59-1.49,2.64-.01,.1-.02,.21-.03,.32l-2.02,4.78c-1.21,2.86-1.98,5.89-2.28,8.98l-1.48,4.73,.21,.02,3.14,.29,.83,.08,1.82-2.66c.21-.3,.41-.62,.59-.94,.3-.52,.57-1.06,.81-1.62l3.95-9.39c.3,.05,.61,.1,.91,.15,1.38,.22,2.71,.41,3.98,.55,4.14,.46,7.72,.5,10.91,.11,.9-.11,1.76-.25,2.6-.43,.31-.06,.61-.13,.91-.21,.07-.02,.14-.03,.21-.05,1.26-.32,2.26-1.26,2.67-2.49,.24-.7,.27-1.46,.1-2.18Z"/>
    <path class="cls-13" d="M235.99,78.85l-2.2-1.06-.35-.17-.55,1.35-3.85,.85c-.49,.11-.8,.6-.7,1.09,.06,.29,.27,.54,.55,.65l3.76,1.54,1.19-1.07-.29,1.44,1.42,.58,1.55-4.94-.54-.26Z"/>
    <polygon class="cls-13" points="249.52 76.76 249.66 77.12 249.52 77.12 249.52 76.76"/>
    <path class="cls-13" d="M248.75,77.19l-2.31,.8-.36,.13,.56,1.35-2.14,3.31c-.27,.42-.15,.99,.27,1.26,.25,.16,.57,.19,.85,.08l3.75-1.56,.09-1.6,.81,1.23,1.41-.59-2.37-4.61-.56,.19Z"/>
    <path class="cls-5" d="M234.75,27.73c.41,.81,1.4,1.12,2.21,.71,.09-.04,.17-.1,.24-.15l4.85,3.22v-3.03s-4.6-2.59-4.6-2.59c-.6-.69-1.64-.76-2.32-.16-.57,.5-.73,1.33-.38,2h0Z"/>
    <path class="cls-10" d="M238.37,29.13l2.26-2.58,9.22,5.47,12.22-1.12c2.27-.21,4.28,1.47,4.49,3.74,.02,.25,.02,.51,0,.76h0c-.21,2.27-2.22,3.94-4.49,3.73l-13.76-1.27-9.93-8.73Z"/>
    <path class="cls-10" d="M266.73,29.17l-.02-.03h0c-3.51-.35-6.9,1.41-8.64,4.48l-1.04,1.83c-3.35,4.1-.92,6.93-.77,7.35l-1.16,5.37,.26,1.8,.13,.53,13.29,6.94c.76-3.64,.03-6.73-2.73-9.1l2.67-8.3c1.2-3.73,.46-7.81-1.98-10.87Z"/>
    <path class="cls-8" d="M256.16,69.48h-4.26c-.48,0-.9-.36-.96-.84-.26-1.94-.26-3.9,0-5.84,.07-.47,.47-.83,.95-.84,1.34-.6,2.79-.6,4.29,0,.28,0,.55,.13,.73,.35,.19,.23,.26,.53,.2,.82-.34,1.7-.34,3.46,0,5.16,.06,.29-.02,.59-.2,.82-.18,.22-.46,.35-.75,.35Z"/>
    <path class="cls-4" d="M255.72,64.2h-3.59c-.12,0-.22-.1-.23-.22,0-.12,.1-.22,.22-.23h3.59c.12,0,.22,.1,.23,.22,0,.12-.1,.22-.22,.23h0Z"/>
    <path class="cls-4" d="M255.72,65.99h-3.59c-.12,0-.22-.1-.23-.22,0-.12,.1-.22,.22-.23h3.59c.12,0,.22,.1,.23,.22,0,.12-.1,.22-.22,.23h0Z"/>
    <path class="cls-4" d="M255.72,67.79h-3.59c-.12,0-.23-.1-.23-.22,0-.12,.1-.23,.22-.23,0,0,0,0,0,0h3.59c.12,0,.23,.1,.23,.22,0,.12-.1,.23-.22,.23,0,0,0,0,0,0Z"/>
    <path class="cls-8" d="M235.53,29.21h-4.26c-.48,0-.9-.36-.96-.84-.26-1.94-.26-3.9,0-5.84,.07-.47,.47-.83,.95-.84,1.34-.6,2.79-.6,4.29,0,.28,0,.55,.13,.73,.35,.19,.23,.26,.53,.2,.82-.34,1.7-.34,3.46,0,5.16,.06,.29-.02,.59-.2,.82-.18,.22-.46,.35-.75,.35Z"/>
    <path class="cls-4" d="M235.08,23.92h-3.59c-.12,0-.23-.1-.23-.22s.1-.23,.22-.23c0,0,0,0,0,0h3.59c.12,0,.23,.1,.23,.22s-.1,.23-.22,.23c0,0,0,0,0,0Z"/>
    <path class="cls-4" d="M235.08,25.72h-3.59c-.12,0-.23-.1-.23-.22s.1-.23,.22-.23c0,0,0,0,0,0h3.59c.12,0,.23,.1,.23,.22s-.1,.23-.22,.23c0,0,0,0,0,0Z"/>
    <path class="cls-4" d="M235.08,27.51h-3.59c-.12,0-.23-.1-.23-.22s.1-.23,.22-.23c0,0,0,0,0,0h3.59c.12,0,.23,.1,.23,.22s-.1,.23-.22,.23c0,0,0,0,0,0Z"/>
    <path class="cls-8" d="M160.7,40.15h-4.26c-.48,0-.9-.36-.96-.84-.26-1.94-.26-3.9,0-5.84,.07-.47,.47-.83,.95-.84,1.34-.6,2.79-.6,4.29,0,.28,0,.55,.13,.73,.35,.19,.23,.26,.53,.2,.82-.34,1.7-.34,3.46,0,5.16,.06,.29-.02,.59-.2,.82-.18,.22-.46,.35-.75,.35Z"/>
    <path class="cls-4" d="M160.25,34.86h-3.59c-.12,0-.23-.1-.23-.22s.1-.23,.22-.23c0,0,0,0,0,0h3.59c.12,0,.23,.1,.23,.22s-.1,.23-.22,.23c0,0,0,0,0,0Z"/>
    <path class="cls-4" d="M160.25,36.66h-3.59c-.12,0-.23-.1-.23-.22s.1-.23,.22-.23c0,0,0,0,0,0h3.59c.12,0,.23,.1,.23,.22s-.1,.23-.22,.23c0,0,0,0,0,0Z"/>
    <path class="cls-4" d="M160.25,38.45h-3.59c-.12,0-.23-.1-.23-.22s.1-.23,.22-.23c0,0,0,0,0,0h3.59c.12,0,.23,.1,.23,.22s-.1,.23-.22,.23c0,0,0,0,0,0Z"/>
    <path class="cls-5" d="M257.41,64.03c.78-.46,1.04-1.47,.58-2.24-.05-.08-.11-.16-.17-.23l2.93-5.03-3.02,.17-2.32,4.75c-.65,.64-.66,1.68-.02,2.33,.53,.54,1.37,.65,2.02,.26h0Z"/>
    <path class="cls-10" d="M258.59,60.33l-2.71-2.11,4.92-9.53-1.84-12.13c-.34-2.26,1.21-4.36,3.46-4.71,.25-.04,.5-.05,.76-.04h0c2.28,.08,4.07,1.99,3.99,4.27l-.46,13.81-8.13,10.43Z"/>
    <path class="cls-9" d="M127.85,57.73c.64-.65,.64-1.69,0-2.34-.07-.07-.14-.13-.22-.19l2.63-13.07-2.91,.93-2.11,12.64c-.47,.79-.22,1.81,.57,2.28,.66,.39,1.5,.29,2.04-.26h0Z"/>
    <path class="cls-10" d="M131.74,30.08l-1.8-1.36s-1.59-.11-1.87,2.76-.86,8.46-.86,8.46l-2.76,12.78,3.82,.84,2.95-13.79,1.77-4.09-1.25-5.58Z"/>
    <polygon class="cls-9" points="128.76 50.95 138.92 50.78 139.77 43.83 128.76 43.83 128.76 50.95"/>
    <polygon class="cls-9" points="137.91 93.66 140.25 93.66 141.37 84.61 137.91 84.61 137.91 93.66"/>
    <polygon class="cls-9" points="123.22 93.88 125.56 93.86 126.61 84.81 123.56 85.51 123.22 93.88"/>
    <polygon class="cls-5" points="130.55 37.86 130.02 39.24 130.12 40.62 140.52 44.22 140.01 38.18 138.84 36.79 130.55 37.86"/>
    <circle class="cls-9" cx="135.01" cy="21.71" r="3.71"/>
    <path class="cls-13" d="M137.32,92.5l3.71-.22v1.59l3.52,2.43c.45,.31,.56,.93,.25,1.38-.19,.27-.49,.43-.82,.43h-4.41l-.76-1.57-.3,1.57h-1.66l.47-5.61Z"/>
    <path class="cls-13" d="M122.41,92.72l3.71-.25v1.59s3.55,2.41,3.55,2.41c.45,.31,.57,.93,.26,1.38-.18,.27-.49,.43-.81,.43l-4.41,.03-.77-1.57-.29,1.57h-1.66s.43-5.6,.43-5.6Z"/>
    <path class="cls-13" d="M122.49,86.94l1.71-13.65,2.03-14.39c-1.49-2.76,1.86-11.34,1.86-11.34l.47,.02,10.7,2.02h0c2.19,5.96,2.91,8.91,2.79,15.27l-.43,22.86h.14c.47,0,.85,.38,.85,.85s-.38,.85-.85,.85h-4.23c-.47,0-.85-.38-.85-.84,0-.47,.38-.85,.84-.85h.11l-3.88-27.21-3.29,11.43-3.72,14.9c1.35-.34,1.14,.45,1.14,.89,0,.47-.38,.85-.85,.85h-4.23c-.47,0-.85-.38-.85-.84,0-.35,.21-.66,.53-.79h0Z"/>
    <path class="cls-10" d="M127.25,48l.34-3.39c.07-.28,.32-.49,.61-.51,.14-1.61,.73-8.57,.77-8.87h0s.27-5.78,.27-5.78c.02-.43,.36-.78,.8-.81l1.43-.09s.07-.03,.07-.08c0-.66,.54-1.2,1.2-1.2h4.22c.57,0,1.04,.42,1.11,.98,0,.04,.04,.07,.08,.07h0c.99-.02,1.85,.69,2.02,1.66,.58,3.36,1.73,10.98,1.16,15.21-.2,1.47,.23,.31,.31,1.54,.02,.24-.07,.48-.23,.66,.34,.12,.51,.49,.39,.83l.07-.02c-.09,.36-.46,.58-.82,.49,0,0,0,0,0,0l-11.04,1.5c-.36-.09-2.85-1.84-2.76-2.2Z"/>
    <path class="cls-9" d="M156.76,34.24c-.26,.87-1.18,1.37-2.06,1.11-.09-.03-.18-.06-.27-.11l-4.27,3.9-.57-3,4.14-3.23c.47-.79,1.48-1.05,2.28-.59,.66,.39,.97,1.18,.74,1.92h0Z"/>
    <path class="cls-10" d="M141.9,31.26s-1.49-3.36-3.37-2.7-.91,3.93-.91,3.93l7.06,10.64s10.19-6.54,8.95-6.58-1.61-2.3-1.61-2.3l-5.38,2.69-.18-.96-.29,.29-.75-.59-3.51-4.43Z"/>
    <circle class="cls-5" cx="263.67" cy="22.38" r="5.19"/>
    <path class="cls-13" d="M280.31,30.01c-.6,.85-1.47,1.46-2.47,1.74-.4,.12-.81,.19-1.23,.21-.05-.47-.17-.93-.37-1.37,.02,.46-.04,.92-.19,1.36-.63-.04-1.24-.2-1.8-.48-1.12-.56-1.9-1.62-2.12-2.85-.22-1.42,.42-2.81,.66-4.23,.23-1.42-.2-3.21-1.59-3.58-1.06-.28-.94-.16-1.81,.49,.91,1.35-2.46,6.3-3.84,5.87-.78-.24-1.28-.96-1.44-.96-1.08,1.87,.96,5.02-1.1,5.67l.17-.17c1.24-1.53-1.35-4.76-.11-6.29,.35-.43,.72-.93,.61-1.47-.1-.51-.91-.79-1.15-.36,.43-.98-.2-2.3-1.26-2.55-.93-.22-.92,.05-1.85,.17-.06-.4-.18-.8-.34-1.17,.02,.4-.03,.81-.14,1.2-.33,0-.65-.12-.91-.33-.76-.62-.61-1.91,.07-2.61,.68-.7,1.7-.96,2.66-1.12,.28-1.96,5.68-2.16,6.4-.21,.3-1.46,2.13-2.22,3.56-1.77s2.41,1.78,2.93,3.18c.52,1.4,.66,2.9,.98,4.36s.86,2.94,1.97,3.93c1.11,.99,2.93,1.32,4.1,.4,.35,.99,.2,2.08-.39,2.94Z"/>
    <path class="cls-7" d="M328.96,41.84l-.73,3.64c-.05,.28-.11,.56-.17,.84-.61-.13-1.24-.09-1.82,.1,.47,.67,.89,1.37,1.25,2.1-.46,1.41-1.13,2.71-2.25,3.65-1.53,1.25-3.6,1.62-5.46,.96l.03-.14c-1.21-2.34-.55-5.3,.95-7.47,.77-1.07,1.67-2.03,2.7-2.85,1.01-.85,2.11-1.6,3.2-2.35,.68-.47,1.6-.29,2.07,.38,.23,.33,.31,.74,.23,1.13Z"/>
    <path id="a7585634-9c2c-4d81-a429-c019b32aabf2-288" class="cls-1" d="M320.03,61.9c-.31-2.23-.62-4.48-.41-6.73,.19-2,.8-3.95,2.04-5.55,.66-.85,1.46-1.57,2.37-2.15,.24-.15,.45,.23,.22,.37-1.57,.99-2.79,2.46-3.47,4.19-.76,1.92-.88,4.02-.75,6.06,.08,1.23,.25,2.46,.41,3.69,.03,.12-.04,.23-.15,.27-.12,.03-.23-.04-.27-.15h0Z"/>
    <path class="cls-13" d="M130.64,19.44c-.57,.27-1.21-.14-1.7-.55l.18,.15c-.87,.85-1.28,2.06-1.47,3.26-.2,1.2-.22,2.42-.47,3.61-.25,1.19-.77,2.38-1.74,3.11-1.3,.97-3.09,.91-4.69,.61-.02,0-.04,0-.06-.01,.43-1.24,.6-2.55,.51-3.86-.43,1.31-1.16,2.5-2.13,3.48-1.06-.29-2.09-.67-3.09-1.12-.65-.3-1.34-.7-1.52-1.39-.18-.68,.24-1.4,.79-1.83s1.24-.66,1.88-.96c.63-.31,1.26-.74,1.52-1.4,.59-1.51-1.08-3.25-.43-4.74,.32-.73,1.11-1.13,1.84-1.44,1.13-.47,2.28-.86,3.46-1.17,1.04-.27,2.12-.49,3.17-.31s2.09,.82,2.47,1.82c.63,.21,1.31,.46,1.71,.99,.41,.53,.37,1.45-.23,1.74Z"/>
    <path class="cls-13" d="M135.71,17.68c-1.63-1.29-2.95-1.07-3.96-.27-.17-.19-.9,.33-1.14,.26l-.89,1.67c-.46,.81-.65,1.63-.57,2.1-.84,2.36,1.16,3.96,3.52,4.8,.94,.34,1.97,.35,2.92,.04l.03-.4,.18,.33s2.16,4.45,2.67,4.65c-.31-.8-1.13-4.62-1.36-5.42-.31-1.08-.1-2.8,.08-3.86,.11-.65,.12-1.32,.02-1.97v-.03s.5,1.02,.5,1.02l1.13-.71c-.43-1.26-.44-2.77-3.14-2.21Z"/>
    <g>
      <path class="cls-1" d="M45.16,85.89c-.03,3.84-.32,7.68-.84,11.49-.02,.13-.04,.27-.06,.4l-35.99-.2c-.11-.13-.21-.27-.31-.4-.34-.45-.65-.91-.94-1.39-1.39-2.31-2.03-5.01-1.39-6.87v-.03c.15-.41,.37-.78,.65-1.11,1.45-1.64,4.39-1.36,7.06-.04-2.39-2.62-4.3-5.92-4.44-8.87-.14-2.88,1.36-4.93,2.99-6.68,.05-.06,.11-.11,.16-.17,.03-.03,.05-.06,.08-.08,1.27-1.33,2.76-2.64,4.9-2.48,2.36,.17,4.97,2.15,6.8,4.45,1.83,2.3,3.05,4.91,4.28,7.45,1.23,2.55,2.57,5.16,4.55,7.33-2.68-3.39-4.85-7.26-5.65-11.01s-.1-7.36,2.3-9.13c.73-.52,1.57-.86,2.45-.99,.1-.02,.21-.03,.31-.04,2.21-.25,4.86,.51,7.11,2.34,2.48,2.02,4.19,5,5.05,7.84,.85,2.84,.95,5.57,.92,8.21Z"/>
      <path class="cls-4" d="M21.62,97.65h-.69c-.22-.14-.44-.28-.66-.41-.14-.09-.27-.17-.41-.25-2.28-1.39-4.58-2.73-6.89-4.01-2.31-1.28-4.63-2.5-6.96-3.67-.13-.06-.2-.19-.17-.33,0,0,0-.02,.01-.02,.03-.06,.11-.09,.21-.03,.29,.14,.57,.29,.86,.43,2.34,1.18,4.67,2.43,6.99,3.73,2.32,1.3,4.62,2.66,6.91,4.07,.05,.03,.1,.06,.14,.09,.22,.13,.44,.27,.65,.4Z"/>
      <path class="cls-4" d="M30.49,97.7h-.43c-.1-.14-.19-.27-.29-.41-2.25-3.16-4.51-6.32-6.76-9.49-3.69-5.18-7.38-10.35-11.07-15.53-.02-.03-.04-.06-.05-.09-.03-.11,.05-.18,.16-.17,.09,.01,.17,.07,.22,.14,2.07,2.9,4.14,5.8,6.21,8.71,3.67,5.15,7.34,10.3,11.01,15.45,.23,.33,.47,.66,.7,.98,.1,.13,.19,.27,.29,.4Z"/>
      <path class="cls-4" d="M39.97,95.23c-.02,.72-.07,1.42-.13,2.12-.01,.13-.02,.27-.04,.4h-.45c.01-.14,.03-.27,.04-.4,.09-1.01,.16-2.03,.17-3.08,.01-2.91-.27-5.81-.85-8.66-.61-3.07-1.49-6.08-2.62-9-1.19-3.08-2.62-6.06-4.29-8.9-.03-.05-.05-.1-.04-.16,.02-.13,.19-.16,.31-.04,.03,.02,.05,.05,.06,.08,.21,.35,.41,.71,.61,1.07,1.6,2.86,2.98,5.85,4.1,8.94,1.07,2.93,1.89,5.94,2.44,9.01,.52,2.85,.74,5.74,.67,8.63Z"/>
      <path class="cls-6" d="M69.17,51.75c-.68-1.03-2.08-1.32-3.11-.64-.11,.07-.21,.16-.31,.25l-7.09-3.66,.44,4.12,6.66,2.84c.92,.84,2.34,.79,3.19-.13,.71-.77,.8-1.92,.21-2.78h0Z"/>
      <path class="cls-10" d="M62.87,53.41c-.26,.12-.56,.12-.82,0l-6.73-2.92c-2.3-1-4.16-2.8-5.24-5.07l-3.54-7.47c-1.1-1.41-.84-3.44,.57-4.54,1.41-1.1,3.44-.84,4.54,.57,0,0,0,0,0,0l6.22,11.54,5.74,4.34c.34,.26,.48,.69,.35,1.1l-.56,1.82c-.06,.2-.18,.37-.34,.49-.06,.05-.13,.09-.2,.12Z"/>
      <circle class="cls-6" cx="46.39" cy="23.69" r="5.48"/>
      <polygon class="cls-6" points="48.61 95.61 51.34 95.61 52.65 85.05 48.61 85.05 48.61 95.61"/>
      <path class="cls-13" d="M56.62,98.15h-8.6s0-3.32,0-3.32h5.28c1.84,0,3.32,1.49,3.32,3.32h0Z"/>
      <polygon class="cls-6" points="39.68 95.61 42.42 95.61 43.72 85.05 39.68 85.05 39.68 95.61"/>
      <path class="cls-13" d="M47.69,98.15h-8.6s0-3.32,0-3.32h5.28c1.84,0,3.32,1.49,3.32,3.32h0Z"/>
      <path class="cls-13" d="M38.72,92.59c-.19-.22-.28-.51-.24-.79l4.79-35.93,11.9,2.02,1.27-.76-3.29,34.09c-.06,.47-.44,.84-.91,.88l-3.6,.3c-.55,.05-1.04-.36-1.08-.92,0-.05,0-.09,0-.14l.93-16.24c0-.06-.04-.11-.1-.12-.05,0-.1,.03-.11,.08l-4.62,17.12c-.12,.44-.52,.74-.97,.74h-3.21c-.29,0-.57-.12-.76-.34Z"/>
      <path class="cls-10" d="M46.97,58.37c-.28-.26-.71-.27-1.01-.04l-2.38,1.85c-.44,.34-1.07,.26-1.41-.17-.08-.1-.14-.22-.17-.34-1.17-4.09-3.81-14.38-3.16-21.62,.37-4.11,3.91-7.23,7.9-6.96,2.73,.18,4.52,1.75,5.33,4.68,1.99,7.17,4.18,20.32,4.6,22.89,.07,.41-.12,.81-.48,1.02-1.13,.68-2.41,1.04-3.73,1.05-1.59,0-3.49-.55-5.5-2.34Z"/>
      <path class="cls-6" d="M47.87,60.93c.1-1.24-.82-2.32-2.05-2.42-.13-.01-.26,0-.4,0l-3.32-7.25-2.2,3.52,3.49,6.35c.2,1.23,1.36,2.07,2.59,1.86,1.03-.17,1.81-1.02,1.89-2.06h0Z"/>
      <path class="cls-10" d="M41.89,58.34c-.28-.07-.51-.25-.65-.5l-3.5-6.45c-1.2-2.21-1.55-4.77-.99-7.22l1.83-8.06c0-1.79,1.46-3.23,3.25-3.22,1.79,0,3.23,1.46,3.22,3.25,0,0,0,0,0,0l-2.23,12.92,1.84,6.96c.11,.41-.05,.84-.4,1.08l-1.57,1.09c-.17,.12-.37,.18-.57,.18-.08,0-.16,0-.23-.03Z"/>
      <polygon class="cls-14" points="44.6 41.59 42.59 50.07 45.49 57.22 43.48 50.3 44.6 41.59"/>
      <path class="cls-13" d="M43.26,28.2c-.49,0-.97-.08-1.43-.26-.2-.08-.41-.14-.61-.22-1.76-.68-2.92-2.55-2.96-4.44s.93-3.72,2.38-4.92,3.33-1.83,5.21-1.97c2.03-.15,4.31,.36,5.44,2.05,.3,.45,.51,.99,.33,1.54-.05,.16-.15,.31-.28,.43-.51,.45-1.01,.11-1.52,.08-.71-.04-1.34,.53-1.57,1.2s-.13,1.41,.06,2.1c.14,.41,.23,.84,.26,1.27,.03,.44-.17,.87-.53,1.13-.44,.27-1.02,.11-1.47-.15s-.83-.64-1.3-.84-1.12-.15-1.4,.28c-.09,.16-.15,.33-.18,.51-.25,1.14-.19,1.07-.44,2.21h0Z"/>
      <g>
        <path class="cls-8" d="M72.6,59.38h-4.26c-.48,0-.9-.36-.96-.84-.26-1.94-.26-3.9,0-5.84,.07-.47,.47-.83,.95-.84,1.34-.6,2.79-.6,4.29,0,.28,0,.55,.13,.73,.35,.19,.23,.26,.53,.2,.82-.34,1.7-.34,3.46,0,5.16,.06,.29-.02,.59-.2,.82-.18,.22-.46,.35-.75,.35Z"/>
        <path class="cls-4" d="M72.15,54.09h-3.59c-.12,0-.22-.1-.23-.22,0-.12,.1-.22,.22-.23h3.59c.12,0,.22,.1,.23,.22,0,.12-.1,.22-.22,.23h0Z"/>
        <path class="cls-4" d="M72.15,55.89h-3.59c-.12,0-.22-.1-.23-.22,0-.12,.1-.22,.22-.23h3.59c.12,0,.22,.1,.23,.22,0,.12-.1,.22-.22,.23h0Z"/>
        <path class="cls-4" d="M72.15,57.68h-3.59c-.12,0-.23-.1-.23-.22,0-.12,.1-.23,.22-.23,0,0,0,0,0,0h3.59c.12,0,.23,.1,.23,.22,0,.12-.1,.23-.22,.23,0,0,0,0,0,0Z"/>
      </g>
    </g>
  </g>
</svg>