<?xml version="1.0" encoding="UTF-8"?>
<svg id="projects_page_helper_image" data-name="projects page helper image" xmlns="http://www.w3.org/2000/svg" viewBox="0 0 340 100">
  <defs>
    <style>
      .cls-1 {
        opacity: .2;
      }

      .cls-1, .cls-2, .cls-3, .cls-4, .cls-5 {
        stroke-width: 0px;
      }

      .cls-1, .cls-2, .cls-3, .cls-5 {
        fill: #ff6366;
      }

      .cls-1, .cls-2, .cls-5 {
        isolation: isolate;
      }

      .cls-2 {
        opacity: .3;
      }

      .cls-6 {
        opacity: .6;
      }

      .cls-7 {
        opacity: .8;
      }

      .cls-4 {
        fill: #e6e6e6;
      }

      .cls-5 {
        opacity: .5;
      }
    </style>
  </defs>
  <g id="_340_wide_100_high" data-name="340 wide 100 high">
    <g id="fireworks">
      <g id="fireworks_5" data-name="fireworks 5">
        <path class="cls-5" d="m157.52,15.9c-1.27-1.73-3.91.15-2.72,1.94.31.47.65.92.97,1.36,3.92,5.27,5.96,11.73,7.71,18.09.43,1.58.84,3.22.35,4.74.7-4.13.25-8.4-.81-12.45-1.06-4.06-2.71-7.91-4.41-11.74-.3-.69-.67-1.34-1.1-1.95Z"/>
        <path class="cls-3" d="m132.05,27.04c-2.63-.08-2.98,3.93-.35,4.15.69.06,1.39.07,2.05.09,8.11.22,15.78,3.16,23.15,6.32,1.81.77,3.69,1.64,4.74,3.3-3.32-3.85-7.7-6.67-12.35-8.74-4.65-2.08-9.61-3.43-14.56-4.7-.88-.23-1.78-.37-2.69-.41Z"/>
        <path class="cls-1" d="m132.79,36.89c-1.68.06-1.3,2.44.39,2.45.44,0,.88,0,1.3-.04,5.11-.21,10.36,1.21,15.43,2.76,1.25.38,2.57.81,3.47,1.74-2.7-2.08-5.75-3.65-9.02-4.63-3.22-.95-6.5-1.68-9.82-2.16-.58-.1-1.17-.15-1.75-.13Z"/>
        <path class="cls-5" d="m167.01,81.1c.47,1.61,2.69.65,2.28-.99-.11-.43-.24-.85-.36-1.25-1.47-4.9-1.4-10.33-1.16-15.63.06-1.31.15-2.69.83-3.8-1.35,3.13-2.11,6.48-2.24,9.89-.13,3.35-.02,6.71.34,10.05.04.59.15,1.17.31,1.73Z"/>
        <path class="cls-1" d="m135.83,13.67c-1.01-.17-1.08,1.29-.08,1.52.26.06.53.1.78.14,3.08.53,6.03,2.03,8.87,3.61.73.33,1.37.84,1.85,1.49-1.35-1.59-2.97-2.91-4.8-3.91-1.8-.98-3.67-1.83-5.59-2.53-.33-.14-.68-.24-1.03-.31Z"/>
        <path class="cls-3" d="m120.29,52.53c-2.55,1.32-.4,4.93,2.23,3.73.68-.32,1.35-.67,2-1,7.8-4.05,16.86-5.54,25.81-6.68,2.19-.28,4.52-.53,6.54.34-5.52-1.55-11.39-1.69-17.07-1.02-5.68.66-11.2,2.08-16.67,3.58-.98.26-1.93.61-2.83,1.06Z"/>
        <path class="cls-5" d="m127.59,66.58c-1.83,1.71,1.05,3.73,2.96,2.11.53-.43.99-.88,1.44-1.31,5.59-5.27,12.98-8.99,20.34-12.43,1.81-.85,9.24-1.71,11.23-1.66-5.18.46-15.77,2.11-20.48,4.21-4.62,2.2-9.08,4.7-13.36,7.5-.76.46-1.47.99-2.13,1.58Z"/>
        <path class="cls-3" d="m140.68,89c-.53,2.45,2.97,2.49,3.62.04.17-.64.31-1.29.44-1.9,1.62-7.5,5.57-14.78,9.67-21.79,1.01-1.72,6.63-6.66,8.29-7.75-4,3.33-11.79,10.68-14.45,15.12-2.55,4.43-4.8,9.03-6.73,13.76-.36.81-.64,1.66-.84,2.52Z"/>
        <path class="cls-3" d="m167.04,2.92c-1.25-2.55-4.83-.45-3.69,2.16.29.68.63,1.35.94,1.99,3.85,7.79,5.17,16.79,6.16,25.65.24,2.17.45,4.49-.43,6.48,1.61-5.45,1.83-11.27,1.27-16.91-.56-5.64-1.87-11.13-3.26-16.57-.24-.96-.57-1.9-1-2.8Z"/>
        <path class="cls-3" d="m147.12,7.26c.07.04.14.06.22.07.14,0,.24-.14.29-.27.31-.68.13-1.58.62-2.11.48.58.88,1.22,1.16,1.92l1.83-.53c.18.72.05,1.48-.35,2.11.32.14.62.34.86.59.25.25.34.63.23.97-.42.1-.86.15-1.3.13.07.81.02,1.62-.14,2.41,0,.12-.07.23-.16.31-.13.08-.31,0-.45-.07-.63-.39-1.15-.93-1.51-1.58l-.68,1.63c-.05.17-.15.31-.3.41-.21.07-.45,0-.57-.2-.11-.19-.18-.4-.2-.62l-.26-1.55c0-.08-.03-.16-.08-.22-.08-.06-.17-.09-.27-.08h-1.94c-.11-.35.23-.66.56-.81s.72-.25.89-.57c.34-.66-.53-1.58-.16-2.13.43-.71,1.14-.07,1.7.21Z"/>
        <path class="cls-5" d="m182.53,15.9c1.27-1.73,3.91.15,2.72,1.94-.31.47-.65.92-.97,1.36-3.92,5.27-5.96,11.73-7.71,18.09-.43,1.58-.85,3.22-.36,4.74-.7-4.13-.24-8.4.82-12.45,1.06-4.06,2.71-7.93,4.41-11.76.3-.68.67-1.32,1.1-1.92Z"/>
        <path class="cls-3" d="m207.99,27.04c2.63-.08,2.99,3.93.35,4.15-.69.06-1.39.07-2.05.09-8.11.22-15.78,3.16-23.15,6.32-1.81.77-3.69,1.64-4.74,3.3,3.32-3.85,7.69-6.67,12.35-8.74,4.66-2.08,9.61-3.43,14.54-4.7.88-.24,1.79-.37,2.7-.42Z"/>
        <path class="cls-5" d="m207.27,36.89c1.67.06,1.3,2.44-.39,2.45-.44,0-.88,0-1.3-.04-5.11-.21-10.35,1.21-15.43,2.76-1.25.38-2.57.81-3.47,1.74,2.7-2.08,5.75-3.65,9.02-4.63,3.22-.96,6.5-1.68,9.82-2.16.58-.1,1.17-.15,1.75-.13Z"/>
        <path class="cls-1" d="m204.22,13.67c1.01-.17,1.09,1.29.08,1.52-.26.06-.53.1-.78.14-3.08.53-6.03,2.03-8.87,3.61-.73.33-1.37.84-1.85,1.49,1.34-1.59,2.97-2.92,4.8-3.91,1.8-.98,3.66-1.83,5.58-2.53.33-.14.68-.24,1.03-.31Z"/>
        <path class="cls-1" d="m178.01,84.14c-.23,1-1.61.53-1.43-.53.05-.27.11-.53.16-.78.71-3.04.45-6.35.09-9.57-.03-.8-.25-1.59-.66-2.28.95,1.86,1.54,3.88,1.76,5.95.21,2.04.27,4.09.18,6.14,0,.36-.04.72-.12,1.07Z"/>
        <path class="cls-5" d="m203.57,77.51c.78,1.33-1.14,1.24-1.99-.09-.23-.35-.43-.7-.63-1.05-2.39-4.07-6.04-8.1-9.7-11.99-.87-1.01-1.89-1.89-3.01-2.6,2.87,1.95,5.52,4.21,7.9,6.74,2.35,2.47,4.44,5.03,6.47,7.6.35.44.67.91.96,1.4Z"/>
        <path class="cls-1" d="m133.63,77.51c-.78,1.33,1.15,1.24,2-.09.22-.35.43-.7.62-1.05,2.39-4.07,6.04-8.1,9.71-11.99.87-1.01,1.88-1.89,3.01-2.6-2.87,1.95-5.52,4.22-7.9,6.74-2.35,2.47-4.44,5.03-6.47,7.6-.35.44-.68.91-.96,1.4Z"/>
        <path class="cls-1" d="m159.21,84.14c.23,1,1.61.53,1.43-.53-.05-.27-.11-.53-.17-.78-.7-3.04-.45-6.35-.09-9.57.03-.8.25-1.59.65-2.28-.95,1.86-1.54,3.88-1.76,5.95-.21,2.04-.28,4.09-.19,6.14,0,.36.05.72.13,1.07Z"/>
        <path class="cls-1" d="m196.15,23.68c1.01-.18,1.08,1.29.08,1.51-.26.06-.53.11-.78.15-3.08.53-6.03,2.03-8.87,3.6-.73.34-1.36.85-1.85,1.49,1.35-1.59,2.97-2.91,4.8-3.91,1.8-.98,3.67-1.83,5.59-2.54.33-.14.68-.24,1.03-.3Z"/>
        <path class="cls-1" d="m186.76,4.03c.87-.53,1.49.8.64,1.37-.23.15-.45.29-.67.43-2.66,1.64-4.83,4.14-6.87,6.66-.55.58-.95,1.3-1.16,2.07.66-1.97,1.67-3.81,2.99-5.42,1.29-1.58,2.7-3.07,4.21-4.44.27-.25.56-.47.86-.67Z"/>
        <path class="cls-3" d="m219.76,52.53c2.55,1.32.4,4.93-2.23,3.73-.68-.32-1.36-.67-2-1-7.81-4.05-16.86-5.54-25.81-6.68-2.19-.28-4.52-.53-6.54.34,5.52-1.55,11.39-1.69,17.07-1.02,5.68.66,11.2,2.08,16.67,3.58.98.26,1.93.61,2.83,1.06Z"/>
        <path class="cls-5" d="m212.48,66.58c1.83,1.71-1.05,3.73-2.96,2.11-.53-.43-.99-.88-1.44-1.31-5.61-5.27-12.98-9.01-20.36-12.45-1.81-.85-9.24-1.71-11.23-1.66,5.19.46,15.78,2.11,20.49,4.21,4.62,2.2,9.08,4.7,13.36,7.5.76.46,1.48,1,2.14,1.6Z"/>
        <path class="cls-3" d="m190.84,91.79c.23,2.5-3.26,2.11-3.59-.42-.09-.65-.14-1.31-.2-1.94-.66-7.64-3.69-15.36-6.85-22.84-.78-1.83-5.75-7.44-7.26-8.72,3.56,3.8,10.36,12.07,12.44,16.81,1.98,4.72,3.63,9.56,4.96,14.5.25.85.41,1.72.5,2.61Z"/>
        <path class="cls-3" d="m192.93,7.26c-.07.04-.14.06-.22.07-.14,0-.23-.14-.29-.27-.32-.68-.14-1.58-.62-2.11-.48.58-.88,1.22-1.16,1.92l-1.84-.53c-.18.72-.05,1.48.35,2.11-.32.14-.62.34-.86.59-.25.26-.34.63-.22.97.42.1.86.15,1.3.13-.07.81-.02,1.62.14,2.41,0,.12.07.23.16.31.13.08.31,0,.45-.07.63-.39,1.15-.93,1.51-1.58l.68,1.63c.04.17.15.32.3.41.21.07.45,0,.57-.2.11-.19.18-.4.2-.62l.26-1.55c0-.08.03-.16.08-.22.08-.06.17-.09.27-.08h1.94c.11-.35-.23-.66-.56-.81s-.73-.25-.89-.57c-.34-.66.53-1.58.16-2.13-.43-.71-1.12-.07-1.71.21Z"/>
        <path class="cls-1" d="m198.46,82.8c-.07.04-.14.06-.22.06-.14,0-.24-.14-.29-.27-.31-.67-.13-1.55-.61-2.11-.49.59-.88,1.25-1.17,1.95l-1.83-.56c-.18.72-.05,1.48.35,2.11-.32.14-.62.34-.86.58-.25.26-.34.63-.23.97.42.1.86.15,1.3.13-.07.8-.02,1.62.14,2.41.01.12.07.23.16.31.14.08.31,0,.45-.08.63-.38,1.15-.93,1.51-1.58l.68,1.63c.05.17.16.31.31.41.21.08.45,0,.57-.19.11-.19.18-.4.21-.62l.25-1.55c0-.08.03-.16.08-.22.08-.06.18-.08.27-.07.64,0,1.29-.03,1.94,0,.11-.34-.23-.66-.56-.81s-.72-.25-.89-.57c-.34-.65.53-1.58.16-2.11-.43-.75-1.14-.09-1.7.19Z"/>
        <path class="cls-3" d="m214.01,32.15c-.06.04-.14.06-.22.06-.14,0-.24-.14-.29-.26-.31-.68-.13-1.58-.62-2.11-.49.59-.88,1.25-1.16,1.96l-1.83-.57c-.18.72-.05,1.48.35,2.11-.32.14-.61.34-.86.58-.25.26-.34.63-.23.97.42.1.86.15,1.3.13-.07.81-.02,1.62.14,2.41,0,.12.07.23.16.31.13.08.31,0,.45-.07.63-.39,1.15-.93,1.51-1.58l.68,1.63c.05.17.15.31.3.41.21.07.45,0,.57-.2.11-.19.18-.4.2-.62l.26-1.58c0-.08.03-.15.08-.22.08-.06.17-.09.27-.08h1.94c.11-.34-.23-.66-.56-.81s-.72-.25-.89-.57c-.34-.66.53-1.58.16-2.11-.43-.72-1.13-.07-1.7.2Z"/>
        <path class="cls-3" d="m151.86,90.38c-.09.06-.19.09-.3.09-.19,0-.33-.19-.41-.37-.43-.95-.18-2.18-.85-2.97-.68.82-1.23,1.74-1.62,2.73l-2.57-.81c-.24,1-.07,2.06.48,2.93-.45.2-.86.47-1.21.82-.35.36-.47.88-.31,1.35.59.15,1.2.21,1.81.18-.1,1.12-.03,2.25.19,3.36.01.17.09.32.22.43.18.12.43,0,.62-.1.89-.55,1.61-1.32,2.11-2.23l.95,2.27c.07.23.22.43.42.57.3.11.63,0,.8-.27.16-.26.26-.56.28-.86l.35-2.16c0-.11.05-.22.12-.31.11-.08.24-.12.38-.11.9,0,1.8-.03,2.7-.03.16-.48-.32-.92-.78-1.13s-1.01-.35-1.24-.8c-.47-.91.74-2.18.23-2.97-.6-.9-1.58.01-2.37.4Z"/>
        <path class="cls-3" d="m126.01,33.68c-.09.06-.2.09-.31.09-.19,0-.33-.19-.41-.37-.44-.95-.18-2.18-.85-2.97-.68.82-1.23,1.74-1.63,2.73l-2.55-.8c-.25,1-.07,2.06.48,2.93-.45.2-.86.47-1.2.82-.35.36-.47.88-.32,1.35.59.15,1.2.21,1.81.18-.1,1.12-.03,2.25.19,3.36-.02.26.18.49.44.5.15,0,.3-.06.4-.18.89-.55,1.61-1.32,2.11-2.23l.95,2.27c.07.24.22.44.43.57.3.1.63,0,.8-.27.16-.26.26-.56.28-.86l.36-2.16c0-.11.05-.22.12-.31.11-.08.24-.12.38-.11.9,0,1.8-.04,2.71-.03.15-.48-.33-.92-.78-1.13s-1.01-.35-1.24-.8c-.47-.91.75-2.18.23-2.97-.61-.92-1.6,0-2.38.38Z"/>
        <path class="cls-1" d="m204.46,68.79s-.1.05-.16.05c-.11,0-.17-.11-.22-.19-.23-.53-.09-1.15-.45-1.58-.36.44-.65.92-.86,1.45l-1.36-.42c-.13.54-.04,1.11.26,1.58-.24.1-.46.25-.64.43-.19.19-.25.46-.17.72.31.08.64.11.96.1-.05.6-.01,1.19.11,1.78,0,.09.05.17.12.23.11.05.24.02.33-.05.47-.29.85-.7,1.12-1.19l.53,1.21c.03.12.11.23.22.3.16.06.33,0,.43-.14.08-.14.13-.3.15-.46l.19-1.15c0-.06.03-.12.06-.16.06-.05.13-.07.2-.06h1.44c.08-.25-.17-.49-.42-.6s-.53-.19-.66-.43c-.25-.48.4-1.16.13-1.58s-.87-.04-1.29.17Z"/>
        <path class="cls-1" d="m169.34,89.07s-.1.04-.16.05c-.1-.02-.18-.1-.22-.2-.23-.5-.1-1.15-.46-1.58-.36.44-.65.92-.86,1.45l-1.35-.42c-.13.53-.04,1.09.25,1.55-.24.11-.45.26-.64.44-.19.19-.25.46-.17.72.31.08.64.11.96.09-.05.6-.01,1.2.11,1.79,0,.09.05.17.12.23.1.06.23,0,.33-.05.47-.29.85-.7,1.12-1.19l.53,1.21c.03.12.11.23.22.3.16.05.33,0,.43-.15.08-.14.13-.3.15-.46l.19-1.15c0-.06.03-.11.06-.16.06-.04.13-.07.2-.06h1.44c.08-.25-.17-.49-.42-.6s-.53-.18-.66-.43c-.25-.48.4-1.16.12-1.58s-.86-.01-1.29.2Z"/>
        <path class="cls-5" d="m135.35,18.09s-.1.04-.16.05c-.1-.02-.18-.1-.22-.2-.23-.53-.1-1.15-.45-1.58-.37.43-.66.92-.86,1.45l-1.36-.42c-.14.54-.04,1.11.26,1.58-.24.11-.46.25-.64.44-.19.19-.25.47-.16.72.31.08.64.11.96.09-.05.6-.02,1.2.1,1.79,0,.09.05.17.12.23.1.06.23,0,.33-.05.47-.29.85-.7,1.12-1.19l.53,1.21c.04.12.12.23.23.3.16.05.33,0,.42-.15.08-.14.13-.3.15-.46l.19-1.15c0-.06.03-.11.06-.16.06-.04.13-.07.2-.06h1.44c.08-.25-.17-.49-.42-.6s-.53-.18-.66-.43c-.25-.48.4-1.16.12-1.58s-.86-.04-1.29.17Z"/>
        <path class="cls-5" d="m153.44,58.09s-.11.05-.16.05c-.1,0-.17-.1-.22-.19-.23-.5-.1-1.15-.45-1.58-.36.43-.65.92-.86,1.45l-1.36-.42c-.13.54-.04,1.11.26,1.58-.24.11-.45.25-.64.44-.19.19-.25.46-.17.72.31.08.64.11.96.09-.05.6-.02,1.2.1,1.79,0,.09.05.17.12.23.1.06.23,0,.33-.06.47-.29.86-.69,1.12-1.18l.53,1.21c.04.12.12.23.23.3.16.06.33,0,.42-.15.09-.14.14-.3.15-.46l.19-1.15c0-.06.02-.11.06-.16.06-.05.13-.07.2-.06h1.43c.08-.25-.17-.49-.42-.6s-.53-.19-.66-.43c-.25-.48.4-1.16.12-1.58s-.86-.04-1.28.17Z"/>
        <path class="cls-5" d="m140.31,42.49s-.1.05-.16.05c-.11,0-.17-.1-.22-.19-.23-.5-.1-1.15-.46-1.58-.36.44-.65.92-.86,1.45l-1.35-.42c-.14.54-.05,1.11.25,1.58-.24.11-.45.26-.64.44-.19.19-.25.46-.17.72.31.08.64.11.96.09-.05.6-.01,1.2.11,1.79,0,.09.05.17.12.23.1.06.23,0,.33-.06.47-.29.86-.69,1.12-1.18l.53,1.21c.03.12.11.23.22.3.16.05.33,0,.43-.15.08-.14.13-.3.15-.46l.19-1.15c0-.06.03-.11.06-.16.06-.04.13-.07.2-.06h1.44c.08-.25-.17-.49-.42-.6s-.53-.19-.66-.43c-.25-.48.4-1.16.12-1.58s-.86-.04-1.29.17Z"/>
        <path class="cls-5" d="m196.7,46.17s-.1.05-.16.05c-.11,0-.17-.1-.22-.19-.23-.5-.09-1.15-.45-1.58-.36.44-.65.92-.86,1.45l-1.35-.42c-.13.53-.04,1.09.25,1.55-.24.1-.46.25-.64.44-.19.19-.25.46-.17.72.31.08.64.11.96.09-.05.6-.01,1.2.11,1.79,0,.09.05.17.12.23.1.06.23,0,.33-.06.47-.29.85-.7,1.12-1.18l.53,1.2c.03.13.11.23.22.31.16.05.33,0,.43-.15.08-.14.13-.3.15-.46l.19-1.15c0-.06.03-.12.06-.16.06-.04.13-.06.2-.05h1.44c.08-.25-.17-.49-.42-.6s-.53-.19-.66-.43c-.25-.48.4-1.16.12-1.58s-.86-.01-1.29.19Z"/>
        <path class="cls-1" d="m169.34,43.1s-.1.05-.16.05c-.11,0-.17-.11-.22-.19-.23-.53-.1-1.15-.46-1.58-.36.44-.65.92-.86,1.45l-1.35-.42c-.14.54-.04,1.11.25,1.58-.24.1-.45.25-.64.43-.19.19-.25.47-.17.72.31.07.64.11.96.09-.05.6-.01,1.19.11,1.78,0,.09.05.17.12.23.1.07.23,0,.33-.05.47-.29.85-.7,1.12-1.19l.53,1.21c.03.12.11.23.22.3.16.06.34,0,.43-.14.08-.14.13-.3.15-.46l.19-1.15c0-.06.03-.12.06-.16.06-.04.13-.06.2-.06h1.44c.08-.25-.17-.49-.42-.6s-.53-.19-.66-.43c-.25-.48.4-1.16.12-1.58s-.86-.04-1.29.17Z"/>
        <path class="cls-2" d="m160.75,46.83s-.1.05-.16.05c-.11,0-.17-.1-.22-.19-.23-.53-.09-1.15-.45-1.58-.36.44-.65.93-.86,1.45l-1.36-.42c-.13.53-.03,1.09.26,1.55-.24.1-.45.25-.64.43-.19.19-.25.47-.17.72.31.07.64.11.96.09-.05.6-.01,1.2.11,1.79,0,.09.05.17.12.23.1.06.23,0,.33-.06.47-.29.85-.7,1.12-1.19l.53,1.21c.03.13.11.23.22.31.16.05.33,0,.43-.15.08-.14.13-.3.15-.46l.19-1.15c0-.06.03-.12.06-.16.06-.04.13-.06.2-.06h1.44c.08-.26-.17-.5-.42-.6s-.53-.19-.66-.43c-.25-.48.4-1.16.12-1.58s-.86-.01-1.29.19Z"/>
        <path class="cls-1" d="m152.75,24.25s-.11.05-.16.05c-.1,0-.17-.1-.22-.19-.23-.53-.1-1.15-.45-1.58-.36.43-.65.92-.86,1.44l-1.36-.42c-.14.54-.04,1.11.26,1.58-.24.1-.46.25-.64.43-.18.19-.25.47-.16.72.31.08.64.11.96.09-.05.6-.02,1.2.1,1.79,0,.09.05.17.12.23.1.06.23,0,.33-.06.47-.29.86-.7,1.12-1.19l.53,1.21c.04.13.12.23.23.31.17.05.35-.03.43-.19.09-.14.14-.3.15-.46l.18-1.15c0-.06.03-.12.06-.16.06-.04.13-.06.2-.06h1.44c.08-.26-.17-.5-.42-.6s-.53-.19-.66-.43c-.25-.48.4-1.16.12-1.58s-.87-.01-1.29.22Z"/>
        <path class="cls-2" d="m168.52,53.75s-.11.04-.16.05c-.1,0-.17-.11-.22-.2-.23-.5-.1-1.15-.45-1.58-.36.43-.65.92-.86,1.45l-1.36-.42c-.14.54-.04,1.11.26,1.58-.24.1-.46.25-.64.43-.18.19-.24.47-.16.72.31.08.64.11.96.1-.05.6-.02,1.19.1,1.78,0,.09.05.17.12.23.11.05.24.02.33-.05.47-.29.85-.7,1.12-1.19l.53,1.21c.04.12.12.23.23.3.16.05.33,0,.42-.14.09-.14.14-.3.15-.46l.19-1.15c0-.12.09-.22.21-.23.02,0,.04,0,.06,0h1.43c.08-.25-.17-.49-.42-.6s-.53-.19-.66-.43c-.25-.48.4-1.16.12-1.58s-.86-.06-1.28.17Z"/>
      </g>
      <g id="fireworks_4" data-name="fireworks 4" class="cls-6">
        <path class="cls-5" d="m310.71,15.7c-.14-.17-.39-.2-.57-.06-.16.13-.2.36-.09.53.07.11.16.22.24.33.95,1.28,1.44,2.83,1.86,4.37.1.38.2.78.08,1.15.15-1.01.08-2.03-.2-3.01-.28-.97-.63-1.92-1.06-2.84-.07-.16-.16-.32-.26-.47Z"/>
        <path class="cls-3" d="m304.56,18.39c-.64-.02-.72.95-.08,1,.17.01.34.02.5.02,1.96.05,3.81.76,5.59,1.53.44.19.9.4,1.15.81-.83-.91-1.84-1.63-2.98-2.11-1.14-.48-2.31-.86-3.52-1.14-.21-.06-.43-.1-.65-.11Z"/>
        <path class="cls-1" d="m304.74,20.78c-.4.01-.31.59.09.59h.31c1.24-.05,2.5.29,3.73.67.31.07.6.21.84.42-.65-.5-1.39-.88-2.18-1.12-.77-.23-1.57-.41-2.37-.53-.14-.02-.28-.04-.43-.03Z"/>
        <path class="cls-5" d="m313,31.44c.12.39.65.16.55-.24-.03-.1-.06-.2-.09-.3-.35-1.18-.34-2.49-.28-3.77,0-.32.06-.63.2-.92-.33.76-.51,1.56-.55,2.39-.03.81,0,1.62.08,2.42.01.14.04.28.08.42Z"/>
        <path class="cls-1" d="m305.48,15.16c-.24-.04-.26.31-.02.37l.19.04c.74.13,1.46.49,2.14.87.18.08.33.2.45.36-.33-.38-.72-.7-1.16-.94-.43-.23-.88-.44-1.35-.61-.08-.03-.16-.06-.25-.08Z"/>
        <path class="cls-3" d="m301.73,24.54c-.62.32-.09,1.19.54.9.17-.08.33-.16.48-.24,1.89-.98,4.07-1.34,6.22-1.61.53-.07,1.09-.13,1.58.08-1.34-.35-2.74-.43-4.12-.25-1.36.19-2.71.48-4.02.87-.23.06-.46.15-.68.25Z"/>
        <path class="cls-5" d="m303.49,27.94c-.44.4.25.9.71.5.12-.1.24-.21.35-.32,1.35-1.27,3.13-2.17,4.91-3,.44-.2,2.22-.4,2.71-.4-1.25.11-3.81.5-4.95,1.01-1.12.53-2.2,1.14-3.23,1.82-.18.11-.35.25-.51.39Z"/>
        <path class="cls-3" d="m306.65,33.35c-.13.59.72.61.87,0,.04-.15.07-.31.11-.46.39-1.82,1.34-3.57,2.33-5.26.24-.42,1.6-1.61,2-1.87-.97.81-2.85,2.58-3.49,3.65-.61,1.07-1.15,2.18-1.61,3.32-.09.2-.16.41-.21.62Z"/>
        <path class="cls-3" d="m313.01,12.57c-.3-.62-1.16-.11-.89.52.07.16.15.32.23.48.93,1.88,1.25,4.05,1.49,6.19.06.52.11,1.08-.1,1.56.36-1.33.47-2.71.31-4.08-.16-1.35-.42-2.69-.79-4-.06-.23-.14-.46-.24-.68Z"/>
        <path class="cls-3" d="m308.2,13.62s.03.01.05.01c.03,0,.06-.03.07-.06.08-.17.03-.38.15-.51.12.14.21.3.28.47l.44-.14c.04.17.01.36-.08.51.08.03.14.08.2.14.06.06.08.15.05.23-.1.03-.21.04-.31.03.02.19,0,.39-.03.58,0,.03-.02.06-.04.07-.04.01-.08,0-.11-.02-.15-.09-.28-.23-.37-.39l-.16.39s-.04.08-.07.1c-.05.02-.11,0-.14-.05-.03-.05-.04-.1-.05-.15l-.06-.38s0-.04-.02-.05c-.02-.01-.04-.02-.06-.02h-.47c-.03-.08.05-.16.14-.2s.17-.06.21-.14c.08-.16-.13-.38-.04-.51s.29,0,.42.07Z"/>
        <path class="cls-5" d="m316.75,15.7c.13-.18.38-.22.56-.09.18.13.22.38.09.56-.08.11-.16.22-.24.33-.95,1.28-1.44,2.83-1.86,4.37-.1.38-.2.78-.09,1.15-.15-1.01-.08-2.03.2-3.01.28-.97.63-1.92,1.06-2.84.07-.16.16-.32.26-.47Z"/>
        <path class="cls-3" d="m322.9,18.39c.64-.02.72.95.08,1-.17.01-.34.02-.49.02-1.96.05-3.81.76-5.59,1.53-.44.19-.89.4-1.15.81.83-.91,1.84-1.63,2.98-2.11,1.14-.48,2.31-.86,3.51-1.14.21-.06.43-.1.65-.11Z"/>
        <path class="cls-5" d="m322.73,20.78c.4.01.31.59-.09.59h-.31c-1.24-.05-2.5.29-3.73.67-.31.07-.6.21-.84.42.65-.5,1.39-.88,2.18-1.12.78-.23,1.57-.41,2.37-.52.14-.03.28-.04.42-.04Z"/>
        <path class="cls-1" d="m321.98,15.16c.24-.04.26.31.02.37l-.19.04c-.74.13-1.46.49-2.14.87-.18.08-.33.2-.45.36.32-.38.72-.7,1.16-.94.44-.23.89-.44,1.35-.61.08-.03.16-.06.25-.08Z"/>
        <path class="cls-1" d="m315.67,32.17c-.05.24-.39.12-.34-.12,0-.06.03-.13.04-.19.17-.73.11-1.53.02-2.31,0-.19-.06-.38-.16-.55.23.45.37.93.42,1.43.05.49.07.99.05,1.48,0,.09-.01.17-.03.26Z"/>
        <path class="cls-5" d="m321.83,30.58c.19.32-.28.3-.48-.02-.05-.08-.1-.17-.15-.25-.58-.98-1.46-1.96-2.34-2.89-.21-.24-.45-.46-.72-.63.69.47,1.33,1.02,1.9,1.63.57.61,1.07,1.21,1.56,1.83.09.11.16.22.23.34Z"/>
        <path class="cls-1" d="m304.95,30.58c-.19.32.28.3.48-.02.05-.08.1-.17.15-.25.58-.98,1.46-1.96,2.34-2.89.21-.24.45-.46.73-.63-.69.47-1.33,1.02-1.91,1.63-.57.61-1.07,1.21-1.56,1.83-.09.11-.16.22-.23.34Z"/>
        <path class="cls-1" d="m311.12,32.17c.05.24.39.12.35-.12-.01-.06-.03-.13-.04-.19-.17-.73-.11-1.53-.02-2.31,0-.19.06-.38.16-.55-.23.45-.37.93-.42,1.43-.05.49-.07.99-.04,1.48,0,.09.01.17.03.26Z"/>
        <path class="cls-1" d="m320.04,17.58c.24-.04.26.31.02.37-.06.01-.13.02-.19.03-.74.13-1.46.49-2.14.87-.18.08-.33.2-.45.36.32-.38.72-.7,1.16-.94.43-.23.88-.44,1.35-.61.08-.03.16-.06.25-.08Z"/>
        <path class="cls-1" d="m317.77,12.84c.2-.13.36.19.16.33l-.16.1c-.64.4-1.17,1-1.66,1.61-.13.14-.23.31-.28.5.16-.48.4-.92.72-1.31.31-.38.66-.74,1.02-1.07.06-.06.13-.12.2-.17Z"/>
        <path class="cls-3" d="m325.74,24.54c.62.32.09,1.19-.54.9-.17-.08-.33-.16-.48-.24-1.88-.98-4.07-1.34-6.22-1.61-.53-.07-1.09-.13-1.58.08,1.34-.35,2.74-.43,4.12-.25,1.36.19,2.71.47,4.02.87.23.06.46.15.68.25Z"/>
        <path class="cls-5" d="m323.97,27.94c.44.4-.25.9-.71.5-.12-.1-.24-.21-.35-.32-1.35-1.27-3.13-2.17-4.91-3-.43-.2-2.23-.4-2.71-.4,1.25.11,3.81.5,4.94,1.01,1.12.53,2.2,1.14,3.23,1.82.18.11.35.25.51.39Z"/>
        <path class="cls-3" d="m318.75,34.02c.05.61-.79.51-.87-.1-.02-.16-.03-.32-.05-.47-.16-1.84-.89-3.71-1.66-5.51-.19-.44-1.39-1.79-1.75-2.11.86.92,2.5,2.91,3,4.06.48,1.14.88,2.31,1.19,3.5.06.21.1.42.13.63Z"/>
        <path class="cls-3" d="m319.26,13.62s-.03.01-.05.01c-.03,0-.06-.03-.07-.06-.07-.17-.03-.38-.15-.51-.12.14-.21.3-.28.47l-.44-.14c-.04.17-.01.36.08.51-.08.03-.14.08-.2.14-.06.06-.08.15-.05.23.1.03.21.04.31.03-.02.19,0,.39.03.58,0,.03.02.06.04.07.04.01.08,0,.11-.02.15-.09.28-.23.37-.39l.16.39s.04.08.07.1c.05.02.11,0,.14-.05.03-.05.04-.1.05-.15l.06-.38s0-.04.02-.05c.02-.01.04-.02.06-.02h.47c.03-.08-.06-.16-.14-.2s-.18-.06-.22-.14c-.08-.16.13-.38.04-.51s-.28,0-.42.07Z"/>
        <path class="cls-1" d="m320.6,31.85s-.03.01-.05.02c-.03,0-.06-.03-.07-.06-.07-.16-.03-.38-.15-.51-.12.14-.21.3-.28.47l-.44-.14c-.04.17-.01.36.08.51-.08.03-.14.08-.2.14-.06.06-.08.15-.05.23.1.02.21.03.31.03-.02.19,0,.39.03.58,0,.03.02.06.04.07.03.02.07,0,.11-.02.15-.09.28-.23.36-.39l.17.39s.04.08.07.1c.05.02.11,0,.14-.05.03-.05.05-.1.05-.15l.06-.38s0-.04.02-.05c.02-.01.04-.02.07-.02h.47c.03-.08-.06-.16-.14-.2s-.18-.06-.22-.14c-.08-.16.13-.38.04-.51s-.28,0-.42.07Z"/>
        <path class="cls-3" d="m324.35,19.63s-.03.01-.05.02c-.03,0-.06-.03-.07-.06-.08-.16-.03-.38-.15-.51-.12.14-.21.3-.28.47l-.44-.14c-.04.17-.01.36.08.51-.08.03-.14.08-.2.14-.06.06-.08.15-.05.23.1.02.21.03.31.03-.02.19,0,.39.03.58,0,.03.02.06.04.07.04.01.08,0,.11-.02.15-.09.28-.23.37-.39l.17.39s.04.08.07.1c.05.02.11,0,.14-.05.03-.05.04-.1.05-.15l.06-.38s0-.04.02-.05c.02-.01.04-.02.06-.02h.47c.03-.08-.06-.16-.14-.2s-.17-.06-.21-.14c-.08-.16.13-.38.04-.51s-.28,0-.42.07Z"/>
        <path class="cls-3" d="m309.35,33.68s-.05.02-.07.02c-.05,0-.08-.05-.1-.09-.1-.23-.04-.52-.2-.72-.16.2-.3.42-.39.66l-.62-.19c-.06.24-.02.5.12.71-.11.05-.21.12-.29.2-.08.09-.11.21-.08.32.14.04.29.05.44.04-.02.27,0,.54.05.81,0,.04.02.08.05.1.04.03.1,0,.15-.03.21-.13.39-.32.51-.54l.23.55c.02.06.05.11.1.14.07.03.16,0,.2-.07.04-.06.06-.13.07-.2l.08-.52c0-.06.04-.1.1-.1,0,0,.01,0,.02,0h.65c.04-.12-.08-.22-.19-.27s-.24-.08-.3-.2c-.11-.22.18-.53.05-.72-.16-.23-.4,0-.59.09Z"/>
        <path class="cls-3" d="m303.11,19.99s-.05.02-.07.02c-.05,0-.08-.05-.1-.09-.1-.23-.04-.52-.2-.72-.16.2-.3.42-.39.66l-.62-.19c-.06.24-.02.5.12.71-.11.05-.21.12-.29.2-.08.09-.11.21-.07.33.14.03.29.05.43.04-.02.27,0,.54.05.81,0,.04.02.08.05.1.04.03.1,0,.15-.02.21-.13.39-.32.51-.54l.23.55c.02.06.05.1.1.14.07.02.15,0,.19-.07.04-.06.06-.13.07-.2l.08-.52s.01-.05.03-.07c.03-.02.06-.03.09-.03h.65c.04-.12-.08-.22-.19-.27s-.24-.09-.3-.2c-.11-.22.18-.53.06-.72-.15-.22-.39,0-.58.09Z"/>
        <path class="cls-1" d="m322.04,28.47s-.02.01-.04.01c-.02,0-.04-.02-.05-.05-.05-.12-.02-.28-.11-.38-.08.11-.15.22-.2.35l-.33-.1c-.03.13,0,.26.06.38-.06.02-.11.06-.15.1-.05.05-.06.11-.04.17.08.02.15.03.23.02-.01.14,0,.29.03.43,0,.02.01.04.03.05.03.01.06,0,.08-.01.11-.07.21-.17.27-.29l.12.29s.03.06.05.07c.04.01.08,0,.1-.04.02-.04.03-.07.03-.12l.04-.28s.03-.05.06-.05c0,0,0,0,0,0h.35c.02-.06-.04-.12-.1-.14s-.13-.05-.16-.1c-.06-.12.09-.28.03-.38s-.2,0-.31.05Z"/>
        <path class="cls-1" d="m313.56,33.36s-.02.01-.04.01c-.02,0-.05-.02-.05-.05-.05-.12-.02-.28-.11-.38-.09.11-.15.22-.2.35l-.33-.1c-.03.13,0,.26.06.38-.06.02-.11.06-.15.1-.05.05-.06.11-.04.17.08.02.15.03.23.02-.01.14,0,.29.03.43,0,.02.01.04.03.06.02.01.06,0,.08-.01.11-.07.21-.17.27-.29l.12.29s.03.06.05.07c.04.01.08,0,.1-.04.02-.03.03-.07.03-.11l.05-.28s.03-.05.06-.05c0,0,0,0,0,0h.35c.02-.06-.04-.12-.1-.14s-.13-.05-.16-.1c-.06-.12.09-.28.03-.38s-.21,0-.31.04Z"/>
        <path class="cls-5" d="m305.37,16.23s-.02.01-.04.01c-.03,0-.04-.03-.05-.05-.06-.12-.02-.28-.11-.38-.09.1-.15.22-.2.35l-.34-.11c-.03.13-.01.26.06.38-.06.03-.11.06-.15.1-.04.05-.06.11-.04.17.08.02.15.03.23.02-.01.14,0,.29.02.43,0,.02.01.04.03.05.02.02.05,0,.08-.01.11-.07.21-.17.27-.29l.12.29s.03.06.05.07c.04.01.08,0,.1-.03.02-.03.03-.07.04-.11l.04-.28s0-.03.02-.04c.01-.01.03-.01.05-.01h.35c.02-.06-.04-.12-.1-.15s-.13-.04-.16-.1c-.06-.12.09-.28.03-.38s-.2,0-.29.05Z"/>
        <path class="cls-5" d="m309.73,25.89s-.03,0-.04,0c-.02,0-.04-.02-.05-.05-.06-.12-.02-.28-.11-.38-.09.11-.15.22-.2.35l-.33-.1c-.03.13,0,.26.06.38-.06.03-.11.06-.16.1-.04.05-.06.11-.04.17.08.02.15.03.23.02-.01.14,0,.29.02.43,0,.02.01.04.03.05.02.02.06,0,.08-.01.11-.07.21-.17.27-.29l.12.29s.03.06.05.07c.04.01.08,0,.1-.03.02-.03.03-.07.04-.11l.05-.28s0-.03.01-.04c.01,0,.03-.01.05-.01h.35c.02-.06-.04-.12-.1-.15s-.13-.04-.16-.1c-.06-.12.1-.28.03-.38s-.21,0-.31.06Z"/>
        <path class="cls-5" d="m306.56,22.12s-.02.01-.04.01c-.02,0-.05-.02-.05-.05-.06-.12-.02-.28-.11-.38-.09.1-.15.22-.2.35l-.33-.1c-.03.13,0,.26.06.38-.06.03-.11.06-.16.1-.04.05-.06.11-.04.17.08.02.15.03.23.02-.01.14,0,.29.02.43,0,.02.01.04.03.06.02.01.06,0,.08-.01.11-.07.21-.17.27-.29l.12.29s.03.06.05.07c.04.01.08,0,.1-.04.02-.03.03-.07.04-.11l.05-.28s0-.03.01-.04c.01-.01.03-.02.05-.01h.35c.02-.06-.04-.12-.1-.14s-.13-.05-.16-.1c-.06-.12.1-.28.03-.38s-.21,0-.31.04Z"/>
        <path class="cls-5" d="m320.17,23.01s-.02.01-.04.01c-.03,0-.05-.02-.05-.05-.06-.12-.02-.28-.11-.38-.09.11-.15.22-.2.35l-.33-.1c-.03.13,0,.26.06.38-.06.03-.11.06-.15.1-.05.05-.06.11-.04.17.08.02.15.03.23.02-.01.14,0,.29.02.43,0,.02.01.04.03.06.02.01.05,0,.08-.01.11-.07.21-.17.27-.29l.12.29s.03.06.05.07c.04.01.08,0,.1-.04.02-.03.03-.07.04-.11l.04-.28s.03-.05.06-.05c0,0,0,0,0,0h.35c.02-.06-.04-.12-.1-.14s-.13-.05-.16-.1c-.06-.12.09-.28.03-.38s-.21,0-.31.04Z"/>
        <path class="cls-1" d="m313.56,22.27s-.02.01-.04.01c-.02,0-.04-.02-.05-.05-.05-.12-.02-.28-.11-.38-.08.11-.15.22-.2.35l-.33-.1c-.03.13,0,.26.06.38-.06.02-.11.06-.15.1-.05.05-.06.11-.04.17.08.02.15.03.23.02-.01.14,0,.29.03.43,0,.02.01.04.03.05.03.01.06,0,.08-.01.11-.07.21-.17.27-.29l.12.29s.03.06.05.07c.04.01.08,0,.1-.04.02-.03.03-.07.03-.11l.05-.28s.03-.05.06-.05c0,0,0,0,0,0h.35c.02-.06-.04-.12-.1-.14s-.13-.05-.16-.1c-.06-.12.09-.28.03-.38s-.21,0-.31.04Z"/>
        <path class="cls-2" d="m311.49,23.17s-.03.01-.04.01c-.02,0-.04-.03-.05-.05-.05-.12-.02-.28-.11-.38-.09.11-.15.22-.2.35l-.33-.1c-.03.13,0,.26.06.38-.06.02-.11.06-.15.1-.05.05-.06.11-.04.17.08.02.15.03.23.02-.01.14,0,.29.03.43,0,.02.01.04.03.05.02.02.05,0,.08-.01.11-.07.21-.17.27-.29l.12.29s.03.06.05.07c.04.01.08,0,.1-.04.02-.03.03-.07.04-.11l.04-.28s.03-.05.06-.05c0,0,0,0,0,0h.35c.02-.06-.04-.12-.1-.15s-.13-.04-.16-.1c-.06-.12.09-.28.03-.38s-.21,0-.31.04Z"/>
        <path class="cls-1" d="m309.56,17.71s-.02.01-.04.01c-.02,0-.04-.02-.05-.05-.05-.12-.02-.28-.11-.38-.08.11-.15.22-.2.35l-.33-.1c-.03.13,0,.26.06.38-.06.02-.11.06-.15.1-.05.05-.06.11-.04.17.08.02.15.03.23.02-.01.14,0,.29.03.43,0,.02.01.04.03.05.02.02.06,0,.08-.01.11-.07.21-.17.27-.28l.12.29s.03.06.05.07c.04.01.08,0,.1-.03.02-.03.03-.07.03-.11l.05-.28s0-.03.02-.04c.01-.01.03-.02.05-.01h.35c.02-.06-.04-.12-.1-.15s-.13-.05-.16-.1c-.06-.12.09-.28.03-.38s-.21,0-.31.05Z"/>
        <path class="cls-2" d="m313.37,24.83s-.06.01-.08-.01c0,0,0-.01,0-.02-.06-.12-.02-.28-.11-.38-.08.11-.15.22-.2.35l-.33-.1c-.03.13,0,.26.06.38-.06.03-.11.06-.15.1-.05.05-.06.11-.04.17.08.02.15.03.23.02-.01.14,0,.29.02.43,0,.02.01.04.03.05.03.01.06,0,.08-.01.11-.07.21-.17.27-.28l.12.29s.03.06.05.07c.04.01.08,0,.1-.04.02-.03.03-.07.03-.11l.04-.28s0-.03.02-.04c.01-.01.03-.02.05-.01h.35c.02-.06-.04-.12-.1-.14s-.13-.05-.16-.1c-.06-.12.1-.28.03-.38s-.2,0-.3.05Z"/>
      </g>
      <g id="fireworks_3" data-name="fireworks 3" class="cls-7">
        <path class="cls-5" d="m237.16,13.92c-.03-.56-.87-.52-.86.04,0,.15.01.29.02.43.11,1.7-.35,3.39-.86,5.01-.13.4-.27.82-.59,1.09.73-.8,1.23-1.79,1.57-2.82s.53-2.1.69-3.18c.03-.19.04-.38.03-.57Z"/>
        <path class="cls-3" d="m230.06,12.78c-.56-.39-1.2.44-.66.85.14.11.29.21.43.31,1.73,1.18,2.99,2.89,4.15,4.61.28.42.57.87.57,1.39-.18-1.3-.74-2.53-1.46-3.63s-1.61-2.09-2.51-3.07c-.16-.17-.34-.33-.54-.46Z"/>
        <path class="cls-1" d="m228.84,15.03c-.37-.22-.62.35-.26.59.1.06.19.12.29.18,1.14.67,2.08,1.71,2.97,2.76.22.26.44.54.51.87-.3-.83-.74-1.6-1.31-2.27-.57-.66-1.18-1.27-1.83-1.84-.11-.1-.23-.2-.36-.28Z"/>
        <path class="cls-5" d="m230.09,29.43c-.12.42.49.52.63.1.04-.11.07-.22.1-.32.37-1.27,1.14-2.44,1.94-3.56.2-.27.41-.56.71-.71-.73.49-1.37,1.11-1.87,1.83-.5.71-.94,1.46-1.33,2.23-.07.13-.13.27-.17.42Z"/>
        <path class="cls-1" d="m232.76,10.4c-.19-.18-.42.13-.23.32.05.05.1.1.15.14.6.55,1.03,1.29,1.42,2.02.11.18.18.38.2.58-.07-.53-.24-1.05-.5-1.52-.25-.46-.54-.91-.86-1.33-.05-.08-.12-.15-.18-.21Z"/>
        <path class="cls-3" d="m223.93,16.67c-.74-.07-.78,1.02-.04,1.12.19.03.39.04.57.06,2.27.21,4.44,1.16,6.55,2.16.51.25,1.06.52,1.38.99-.98-1.12-2.24-1.96-3.57-2.62s-2.73-1.11-4.13-1.55c-.25-.08-.5-.13-.76-.16Z"/>
        <path class="cls-5" d="m223.55,20.75c-.64.11-.29.96.35.87.17-.02.34-.06.5-.08,1.95-.36,4.08-.14,6.16.15.51.07,2.25.92,2.67,1.21-1.19-.63-3.72-1.75-5.04-1.96-1.31-.17-2.63-.25-3.95-.24-.23,0-.46.01-.69.05Z"/>
        <path class="cls-3" d="m223.26,27.46c-.46.46.3.96.78.51.13-.12.25-.24.36-.35,1.4-1.4,3.28-2.43,5.16-3.38.46-.23,2.38-.52,2.89-.52-1.34.16-4.06.67-5.26,1.26-1.17.61-2.31,1.29-3.39,2.05-.19.13-.37.27-.54.43Z"/>
        <path class="cls-3" d="m241.05,12.43c.08-.73-.99-.77-1.1-.04-.03.19-.05.38-.07.57-.25,2.23-1.23,4.38-2.25,6.44-.25.51-.53,1.04-1,1.35,1.11-.96,1.98-2.19,2.64-3.5s1.15-2.68,1.61-4.06c.08-.24.14-.49.18-.75Z"/>
        <path class="cls-3" d="m236.11,10.59s.02.03.04.04c.03.02.07,0,.1-.02.16-.1.25-.32.43-.37.02.2.02.39-.02.59l.48.13c-.06.18-.2.33-.37.41.05.08.09.16.1.25.02.09-.01.18-.09.24-.11-.04-.21-.09-.3-.15-.1.18-.22.35-.37.5-.02.02-.05.04-.08.04-.04,0-.07-.04-.09-.08-.08-.17-.12-.36-.11-.55l-.37.24s-.08.05-.12.05c-.06-.01-.1-.06-.1-.12,0-.06.02-.11.04-.16l.16-.38s.02-.04.01-.06c0-.02-.03-.04-.05-.05l-.42-.27c.02-.09.14-.11.24-.1s.19.05.28,0c.17-.1.11-.42.26-.49.19-.07.25.17.33.31Z"/>
        <path class="cls-5" d="m242.6,17.42c.52-.2.83.58.32.8-.13.06-.27.11-.4.16-1.6.6-2.94,1.72-4.21,2.85-.31.28-.64.58-.74.99.43-1,1.12-1.86,1.92-2.59s1.7-1.35,2.6-1.94c.16-.11.33-.2.51-.27Z"/>
        <path class="cls-3" d="m246.58,23.41c.58.35.1,1.27-.51.95-.16-.08-.31-.18-.46-.27-1.79-1.09-3.87-1.52-5.92-1.87-.5-.08-1.04-.16-1.5.05,1.26-.37,2.61-.37,3.91-.17s2.57.6,3.83,1.01c.22.08.44.17.64.3Z"/>
        <path class="cls-5" d="m245.03,25.46c.36.25-.06.71-.43.48-.1-.06-.19-.12-.28-.19-1.08-.76-2.42-1.19-3.74-1.56-.33-.09-.67-.18-1-.11.88-.08,1.76.01,2.61.26.84.24,1.65.55,2.44.91.14.06.27.13.39.22Z"/>
        <path class="cls-1" d="m247.63,19.97c.24.1.05.43-.19.34-.07-.02-.13-.05-.19-.08-.74-.32-1.6-.4-2.43-.46-.21-.03-.42,0-.61.06.51-.16,1.05-.22,1.59-.18.53.04,1.05.12,1.57.23.09.02.18.05.27.08Z"/>
        <path class="cls-1" d="m232.06,31.63c-.19.19-.42-.11-.24-.31.05-.05.1-.1.15-.15.58-.56.99-1.32,1.36-2.07.11-.18.17-.38.18-.59-.05.54-.21,1.06-.45,1.54-.24.47-.51.93-.82,1.36-.05.08-.11.15-.18.22Z"/>
        <path class="cls-5" d="m238.55,33.77c-.02.4-.42.11-.42-.3,0-.11,0-.21.01-.32.05-1.22-.18-2.61-.43-3.97-.05-.34-.15-.67-.29-.99.35.83.61,1.69.77,2.57.17.87.26,1.72.34,2.56.02.15.02.29.02.44Z"/>
        <path class="cls-1" d="m223.34,23.97c-.36.18.07.43.45.26.1-.04.19-.09.28-.14,1.09-.55,2.45-.92,3.79-1.25.33-.1.67-.15,1.02-.14-.9.02-1.79.15-2.66.36-.86.21-1.67.47-2.47.75-.14.05-.28.1-.41.17Z"/>
        <path class="cls-1" d="m227.97,29c-.09.25.28.34.38.09.03-.06.05-.13.07-.19.27-.76.79-1.44,1.32-2.09.12-.17.28-.31.46-.4-.46.27-.87.63-1.21,1.05-.33.41-.63.85-.9,1.31-.05.08-.09.16-.13.25Z"/>
        <path class="cls-1" d="m244.47,21.02c.24.1.06.43-.19.34-.07-.02-.13-.05-.19-.08-.74-.32-1.6-.4-2.43-.46-.21-.03-.41,0-.61.06.52-.16,1.05-.22,1.59-.18.53.04,1.05.11,1.57.23.09.02.18.04.27.08Z"/>
        <path class="cls-1" d="m245.18,15.43c.26,0,.21.38-.05.39-.07,0-.14,0-.2,0-.81-.02-1.63.22-2.43.49-.2.05-.39.15-.54.29.42-.34.9-.6,1.41-.76.5-.16,1.02-.29,1.54-.37.09-.02.18-.03.28-.03Z"/>
        <path class="cls-3" d="m245.57,30.6c.37.64-.6,1.13-1.01.5-.11-.16-.2-.34-.29-.5-1.13-1.97-2.89-3.57-4.67-5.07-.44-.37-.91-.75-1.47-.84,1.42.43,2.71,1.23,3.86,2.16s2.14,2.03,3.12,3.11c.17.19.33.4.46.63Z"/>
        <path class="cls-5" d="m242.01,32.63c.16.63-.75.67-.94.04-.05-.16-.09-.33-.13-.49-.48-1.93-1.57-3.77-2.68-5.55-.27-.44-1.77-1.67-2.21-1.93,1.06.83,3.13,2.66,3.87,3.78.7,1.12,1.32,2.29,1.86,3.5.1.21.18.42.24.65Z"/>
        <path class="cls-3" d="m233.77,35.09c-.3.57-1,0-.72-.59.07-.16.15-.31.23-.45.92-1.75,1.35-3.85,1.7-5.93.09-.51-.21-2.42-.36-2.91.24,1.33.56,4.08.35,5.4-.23,1.3-.55,2.59-.95,3.84-.06.22-.15.44-.25.64Z"/>
        <path class="cls-3" d="m246.07,17s-.04,0-.06-.02c-.03-.02-.03-.06-.03-.1.03-.19.19-.36.16-.54-.19.06-.37.15-.53.26l-.32-.38c-.14.13-.22.31-.22.51-.09-.01-.18-.01-.27,0-.09.02-.16.09-.18.18.08.08.17.15.26.21-.13.17-.23.35-.31.54-.01.03-.02.06,0,.09.02.04.07.04.11.05.19,0,.38-.04.55-.13l-.08.45s0,.09,0,.13c.04.05.1.06.15.04.05-.02.1-.06.13-.11l.28-.31s.03-.03.05-.04c.02,0,.05,0,.07.02l.42.27c.07-.06.04-.18-.01-.26s-.12-.16-.11-.25c.02-.19.33-.27.33-.44,0-.21-.24-.17-.4-.19Z"/>
        <path class="cls-1" d="m236.7,34.2s-.04,0-.06-.02c-.03-.02-.03-.06-.03-.1.03-.19.19-.36.17-.55-.19.06-.37.15-.53.26l-.32-.38c-.14.13-.22.31-.22.51-.09-.01-.18-.01-.27,0-.09.02-.16.09-.19.18.08.08.17.15.26.21-.13.17-.23.35-.31.54-.02.03-.02.06,0,.09.02.04.07.04.11.05.19,0,.38-.04.55-.13l-.08.45s0,.09,0,.13c.04.04.1.06.15.04.05-.03.1-.06.13-.11l.27-.3s.06-.05.1-.03c0,0,.01,0,.02.01.14.09.29.18.42.27.07-.06.04-.18,0-.25s-.12-.16-.11-.25c.02-.19.33-.27.33-.44,0-.21-.24-.17-.4-.19Z"/>
        <path class="cls-3" d="m247.17,25.37s-.04,0-.06-.02c-.03-.02-.03-.06-.03-.1.03-.19.19-.36.17-.55-.19.06-.37.15-.53.26l-.32-.38c-.14.13-.22.31-.22.51-.09-.01-.18-.01-.27,0-.09.02-.16.09-.19.18.08.08.17.15.26.21-.13.17-.23.35-.31.54-.01.03-.02.06,0,.09.02.04.07.04.11.05.19,0,.38-.04.55-.13l-.08.45s0,.09,0,.13c.04.05.1.06.15.04.05-.02.1-.06.13-.11l.28-.31s.03-.03.05-.04c.03,0,.05,0,.07.02l.42.27c.07-.06.04-.18,0-.25s-.12-.16-.11-.25c.02-.19.33-.27.33-.44,0-.21-.24-.17-.41-.18Z"/>
        <path class="cls-3" d="m225.5,29.32s-.05,0-.08-.02c-.04-.03-.04-.09-.04-.14.04-.27.26-.5.23-.76-.26.08-.51.21-.73.36l-.45-.53c-.19.18-.3.44-.3.7-.12-.02-.25-.02-.38,0-.13.03-.22.12-.26.25.11.11.23.21.37.29-.18.23-.32.49-.43.76-.02.04-.02.08-.01.12.03.05.09.07.15.06.27,0,.53-.06.77-.19l-.11.63c-.02.06-.01.13.01.18.05.06.14.09.21.05.07-.04.13-.09.18-.15l.38-.42s.04-.04.07-.05c.03,0,.07,0,.1.03.2.13.4.25.59.38.1-.08.06-.25-.01-.36s-.17-.22-.16-.35c.03-.27.47-.37.47-.62,0-.29-.34-.23-.57-.25Z"/>
        <path class="cls-3" d="m227.82,13.37s-.05,0-.08-.02c-.04-.03-.04-.09-.04-.14.04-.27.26-.5.23-.76-.26.08-.51.21-.74.36l-.44-.53c-.19.18-.3.44-.31.71-.12-.02-.25-.02-.38,0-.13.03-.23.12-.26.25.11.11.23.21.37.29-.18.23-.32.49-.43.76-.02.04-.03.08-.01.12.02.05.09.06.15.06.27,0,.53-.06.77-.19l-.11.63c-.02.06-.01.12.01.18.05.06.14.09.21.05.07-.03.13-.09.18-.15l.38-.42s.04-.04.07-.05c.04,0,.07,0,.1.03.2.13.4.24.59.37.1-.08.06-.25-.01-.35s-.17-.22-.16-.35c.03-.26.47-.37.47-.61,0-.28-.34-.22-.57-.25Z"/>
        <path class="cls-1" d="m239.97,32s-.03,0-.04-.01c-.02-.01-.02-.05-.02-.07.02-.15.14-.26.12-.41-.14.04-.27.11-.39.19l-.24-.28c-.11.1-.16.24-.16.38-.07-.01-.13,0-.2,0-.07.02-.12.07-.14.13.06.06.12.11.19.15-.09.12-.17.26-.23.4-.01.02-.01.04,0,.07.01.03.05.03.08.03.14,0,.28-.03.41-.1l-.05.34s0,.07,0,.1c.03.03.07.05.11.03.04-.02.07-.05.1-.08l.2-.22s.05-.04.07-.02c0,0,0,0,.01.01l.31.2c.05-.04.03-.13,0-.19s-.09-.11-.08-.19c.01-.14.25-.2.25-.33s-.19-.13-.3-.14Z"/>
        <path class="cls-1" d="m229.48,31.49s-.03,0-.04-.01c-.02-.01-.02-.05-.02-.07.02-.14.14-.26.12-.41-.14.04-.27.11-.39.19l-.24-.28c-.11.1-.16.24-.16.38-.07-.01-.13,0-.2,0-.07.02-.12.07-.14.13.06.06.12.11.2.16-.09.12-.17.26-.23.4-.01.02-.01.04,0,.07.01.03.05.03.08.03.14,0,.28-.03.41-.1l-.05.34s0,.07,0,.1c.03.03.07.05.11.03.04-.02.07-.05.1-.08l.2-.22s.02-.02.04-.03c.02,0,.04,0,.05.02l.31.2c.05-.04.03-.13,0-.19s-.09-.11-.08-.18c.01-.14.25-.2.25-.33s-.18-.13-.3-.14Z"/>
        <path class="cls-5" d="m232.03,11.29s-.03,0-.04-.01c-.02-.02-.03-.05-.02-.07.02-.15.14-.27.12-.41-.14.04-.27.11-.39.19l-.24-.28c-.1.1-.16.24-.16.38-.07-.01-.13,0-.2,0-.07.02-.12.07-.14.13.06.06.12.11.2.16-.09.12-.17.26-.23.4-.01.02-.01.04,0,.07.01.03.05.03.08.03.14,0,.28-.03.41-.1l-.05.34s0,.07,0,.1c.03.03.07.05.11.03.04-.02.07-.05.1-.08l.2-.22s.02-.02.04-.03c.02,0,.04,0,.05.02l.31.2c.05-.04.03-.13,0-.19s-.09-.11-.08-.18c.01-.14.25-.2.25-.33s-.18-.13-.3-.14Z"/>
        <path class="cls-5" d="m230.36,22.52s-.03,0-.04-.01c-.02-.01-.02-.05-.02-.07.02-.15.14-.27.12-.41-.14.04-.27.11-.39.19l-.24-.28c-.1.1-.16.24-.16.38-.07-.01-.13,0-.2,0-.07.02-.12.07-.14.13.06.06.12.11.19.15-.09.12-.17.26-.23.4-.01.02-.01.04,0,.07.01.03.05.03.08.03.14,0,.28-.03.41-.1l-.05.34s0,.07,0,.1c.03.03.07.05.11.03.04-.02.07-.04.1-.08l.2-.22s.02-.02.04-.03c.02,0,.04,0,.05.02l.31.2c.05-.04.03-.13,0-.19s-.09-.11-.08-.18c.01-.14.25-.2.25-.33s-.19-.13-.31-.14Z"/>
        <path class="cls-5" d="m229.69,17.29s-.03,0-.04-.01c-.02-.02-.03-.05-.02-.07.02-.14.14-.26.12-.41-.14.04-.27.11-.39.19l-.24-.28c-.1.1-.16.24-.16.38-.07-.01-.13,0-.2,0-.07.02-.12.07-.14.13.06.06.12.11.19.15-.09.12-.17.26-.23.4-.01.02-.01.04,0,.07.01.03.05.03.08.03.14,0,.28-.03.41-.1l-.05.34s0,.07,0,.1c.03.03.07.05.11.03.04-.02.07-.04.1-.08l.2-.22s.02-.02.04-.03c.02,0,.04,0,.05.02l.31.2c.05-.04.03-.13,0-.19s-.09-.11-.08-.19c.01-.14.25-.2.25-.33s-.18-.13-.3-.14Z"/>
        <path class="cls-5" d="m241.44,25.99s-.03,0-.04-.01c-.02-.01-.02-.05-.02-.07.02-.15.14-.27.12-.41-.14.04-.27.11-.39.19l-.24-.28c-.1.1-.16.24-.16.38-.07-.01-.13,0-.2,0-.07.02-.12.07-.14.13.06.06.12.11.19.15-.09.12-.17.26-.23.4-.01.02-.01.04,0,.07.01.03.05.03.08.03.14,0,.28-.03.41-.1l-.05.34s0,.07,0,.1c.03.03.07.04.11.03.04-.02.07-.04.1-.08l.2-.22s.05-.04.07-.02c0,0,.01,0,.01.01l.31.2c.05-.04.03-.13,0-.19s-.09-.11-.08-.19c.01-.14.25-.2.25-.33s-.18-.13-.3-.14Z"/>
        <path class="cls-1" d="m235.92,21.49s-.03,0-.04-.01c-.02-.01-.02-.05-.02-.07.02-.15.14-.27.12-.41-.14.04-.27.11-.39.19l-.24-.28c-.1.1-.16.24-.16.38-.07-.01-.13,0-.2,0-.07.02-.12.07-.14.13.06.06.12.11.2.16-.09.12-.17.26-.23.4-.01.02-.01.04,0,.07.01.03.05.03.08.03.14,0,.28-.03.41-.1l-.05.34s0,.07,0,.1c.03.03.07.05.11.03.04-.02.07-.05.1-.08l.2-.22s.02-.02.04-.03c.02,0,.04,0,.05.02l.31.2c.05-.04.03-.13,0-.19s-.09-.11-.08-.18c.01-.14.25-.2.25-.33s-.18-.13-.3-.14Z"/>
        <path class="cls-2" d="m233.53,21.1s-.03,0-.04-.01c-.02-.02-.03-.05-.02-.07.02-.15.14-.26.12-.41-.14.04-.27.11-.39.19l-.24-.28c-.1.1-.16.24-.16.38-.07-.01-.13,0-.2,0-.07.02-.12.07-.14.13.06.06.12.11.19.15-.09.12-.17.26-.23.4-.01.02-.01.04,0,.07.01.03.05.03.08.03.14,0,.28-.03.41-.1l-.05.34s0,.07,0,.1c.03.03.07.04.11.03.04-.02.07-.04.1-.08l.2-.22s.02-.02.04-.03c.02,0,.04,0,.05.02l.31.2c.05-.04.03-.13,0-.19s-.09-.11-.08-.19c.01-.14.25-.2.25-.33s-.18-.13-.3-.14Z"/>
        <path class="cls-1" d="m234.96,15.06s-.03,0-.04-.01c-.02-.01-.02-.05-.02-.07.02-.15.14-.27.12-.41-.14.04-.27.11-.39.19l-.24-.28c-.11.1-.16.24-.16.38-.07-.01-.13,0-.2,0-.07.02-.12.07-.14.13.06.06.12.11.2.16-.09.12-.17.26-.23.4-.01.02-.01.04,0,.07.01.03.05.03.08.03.14,0,.28-.03.41-.1l-.05.34s0,.07,0,.1c.03.03.07.05.11.03.04-.02.07-.05.1-.08l.2-.22s.02-.02.04-.03c.02,0,.04,0,.05.02l.31.2c.05-.04.03-.13,0-.19s-.09-.11-.08-.18c.01-.14.25-.2.25-.33s-.18-.13-.3-.14Z"/>
        <path class="cls-2" d="m234.25,23.69s-.03,0-.04-.01c-.02-.01-.02-.05-.02-.07.02-.14.14-.26.12-.41-.14.04-.27.11-.39.19l-.24-.28c-.1.1-.16.24-.16.38-.07-.01-.13,0-.2,0-.07.02-.12.07-.14.13.06.06.12.11.2.16-.09.12-.17.26-.23.4-.01.02-.01.04,0,.07.01.03.05.03.08.04.14,0,.28-.03.41-.1l-.05.34s0,.07,0,.1c.03.03.07.05.11.03.04-.02.07-.05.1-.08l.2-.22s.02-.02.04-.03c.02,0,.04,0,.05.02l.31.2c.05-.04.03-.13,0-.19s-.09-.11-.08-.18c.01-.14.25-.2.25-.33s-.18-.13-.3-.14Z"/>
      </g>
      <g id="fireworks_3-2" data-name="fireworks 3" class="cls-7">
        <path class="cls-5" d="m13.98,11.59c-.43-.18-.71.47-.29.67.11.05.23.1.33.14,1.33.54,2.43,1.51,3.47,2.49.26.24.52.5.6.85-.33-.85-.9-1.59-1.56-2.22s-1.39-1.17-2.15-1.69c-.13-.09-.27-.17-.42-.23Z"/>
        <path class="cls-3" d="m10.51,16.53c-.5.28-.11,1.07.4.81.13-.07.27-.14.39-.21,1.53-.87,3.28-1.19,5.01-1.44.42-.06.87-.11,1.26.08-1.05-.34-2.18-.37-3.28-.23s-2.17.44-3.24.76c-.19.06-.37.14-.54.24Z"/>
        <path class="cls-1" d="m11.76,18.28c-.3.2.03.6.35.41.08-.05.16-.1.24-.15.93-.62,2.06-.94,3.18-1.23.28-.07.57-.14.84-.07-.74-.08-1.48-.03-2.2.16-.7.18-1.4.42-2.07.71-.12.05-.23.1-.34.17Z"/>
        <path class="cls-5" d="m23.09,22.63c.27.25.57-.18.31-.44-.07-.07-.14-.13-.21-.19-.83-.74-1.42-1.76-1.98-2.77-.14-.25-.27-.52-.27-.8.1.73.34,1.44.7,2.09.35.64.75,1.25,1.2,1.83.07.1.16.2.25.29Z"/>
        <path class="cls-1" d="m9.7,13.62c-.21.08-.06.36.16.29.06-.02.11-.04.16-.06.63-.25,1.35-.3,2.05-.33.17-.02.35,0,.51.07-.43-.14-.88-.21-1.33-.19-.44.02-.89.07-1.32.16-.08.01-.15.03-.23.06Z"/>
        <path class="cls-3" d="m11.2,22.59c-.33.53.48.96.83.44.09-.14.18-.28.26-.41.99-1.63,2.51-2.93,4.04-4.15.37-.3.78-.61,1.25-.67-1.2.33-2.31.97-3.29,1.73s-1.84,1.65-2.69,2.55c-.15.16-.29.33-.4.52Z"/>
        <path class="cls-5" d="m14.13,24.37c-.15.53.62.58.79.06.05-.14.08-.28.12-.41.45-1.61,1.4-3.13,2.38-4.6.24-.36,1.52-1.36,1.9-1.57-.91.67-2.69,2.17-3.33,3.09-.61.93-1.16,1.9-1.64,2.9-.09.17-.16.35-.21.54Z"/>
        <path class="cls-3" d="m19.09,27.06c.18.51.83.13.68-.4-.04-.14-.09-.27-.13-.4-.54-1.57-.63-3.37-.66-5.14,0-.43.48-1.99.67-2.37-.37,1.07-.99,3.31-.98,4.44.03,1.11.13,2.22.3,3.31.02.19.07.38.13.56Z"/>
        <path class="cls-3" d="m14.29,8.11c-.52-.33-.95.46-.44.82.13.09.27.18.4.26,1.59,1.01,2.86,2.54,4.03,4.07.29.38.59.78.65,1.25-.31-1.19-.93-2.3-1.67-3.28s-1.6-1.85-2.48-2.71c-.15-.15-.32-.29-.5-.41Z"/>
        <path class="cls-3" d="m11.08,11.16s.03,0,.05-.01c.03-.02.03-.05.02-.08-.02-.16-.15-.31-.12-.46.16.05.3.13.44.23l.28-.31c.11.11.18.27.17.43.08,0,.15,0,.23.01.08.02.13.08.15.16-.07.07-.14.12-.23.17.1.14.19.3.25.46.01.02.01.05,0,.07-.01.03-.06.03-.09.04-.16,0-.32-.04-.46-.12l.05.37s0,.08-.01.11c-.03.04-.08.05-.13.03-.04-.02-.08-.05-.11-.09l-.23-.26s-.02-.03-.04-.03c-.02,0-.04,0-.06.02l-.36.22c-.06-.05-.03-.15.01-.21s.11-.13.1-.21c-.01-.16-.28-.23-.27-.38.01-.17.22-.13.35-.14Z"/>
        <path class="cls-5" d="m18.63,8.77c.04-.47.74-.41.72.05,0,.12-.02.25-.03.36-.13,1.43.22,2.85.61,4.23.1.34.21.7.47.93-.6-.69-.99-1.53-1.25-2.41s-.39-1.78-.51-2.68c-.02-.16-.03-.32-.01-.49Z"/>
        <path class="cls-3" d="m24.61,7.97c.48-.31,1,.39.53.73-.12.09-.25.17-.37.25-1.48.96-2.57,2.36-3.59,3.78-.25.35-.5.72-.51,1.15.18-1.09.68-2.11,1.31-3.02s1.4-1.72,2.17-2.52c.14-.14.29-.27.46-.37Z"/>
        <path class="cls-5" d="m25.59,9.89c.32-.18.52.31.2.5-.08.05-.16.1-.25.14-.97.54-1.79,1.39-2.56,2.25-.19.21-.39.44-.45.72.27-.69.66-1.33,1.15-1.88.49-.54,1.02-1.05,1.58-1.51.09-.08.2-.16.31-.22Z"/>
        <path class="cls-1" d="m22.4,5.91c.17-.15.35.12.19.27-.04.04-.09.08-.13.12-.51.44-.89,1.06-1.24,1.67-.1.14-.16.31-.18.48.07-.45.22-.88.45-1.27.22-.38.48-.75.75-1.1.05-.06.1-.12.16-.17Z"/>
        <path class="cls-1" d="m25.48,21.95c.07.21-.24.28-.32.06-.02-.05-.04-.11-.06-.16-.21-.64-.63-1.23-1.06-1.79-.1-.15-.23-.27-.38-.35.38.24.72.54,1,.9.27.35.51.73.73,1.12.04.07.07.14.1.21Z"/>
        <path class="cls-5" d="m29.48,17.84c.3.16-.07.36-.38.21-.08-.04-.16-.08-.23-.13-.9-.49-2.03-.82-3.16-1.13-.28-.09-.56-.14-.85-.14.75.04,1.5.16,2.22.36.71.19,1.39.44,2.06.68.12.04.23.09.34.15Z"/>
        <path class="cls-1" d="m16.49,25.72c0,.34.35.1.36-.24,0-.09,0-.18,0-.27-.01-1.03.21-2.19.45-3.32.05-.29.14-.56.27-.82-.31.69-.55,1.4-.7,2.14-.16.72-.26,1.44-.35,2.14-.02.12-.03.25-.03.37Z"/>
        <path class="cls-1" d="m21.99,24.07c.15.16.36-.08.21-.26-.04-.04-.08-.09-.12-.13-.47-.49-.8-1.13-1.09-1.77-.09-.15-.13-.32-.14-.5.04.45.15.89.35,1.3.19.4.41.79.66,1.16.04.07.09.13.14.19Z"/>
        <path class="cls-1" d="m22.04,8.68c.17-.15.35.12.19.27-.04.04-.09.08-.13.11-.51.44-.89,1.06-1.24,1.67-.1.14-.16.31-.18.48.07-.45.22-.88.45-1.27.22-.38.47-.75.75-1.1.05-.06.1-.12.16-.17Z"/>
        <path class="cls-1" d="m18.08,6.09c.1-.2.37-.02.27.18-.02.05-.05.1-.08.15-.31.6-.43,1.31-.53,2.01-.04.17-.03.35.02.51-.1-.44-.12-.9-.06-1.34.06-.44.16-.88.29-1.3.02-.08.05-.15.08-.22Z"/>
        <path class="cls-3" d="m29.67,11.38c.62-.04.63.87,0,.94-.16.02-.33.03-.48.04-1.91.13-3.76.87-5.54,1.66-.44.19-.9.41-1.18.8.85-.91,1.93-1.6,3.05-2.12s2.32-.87,3.5-1.21c.21-.06.43-.1.65-.12Z"/>
        <path class="cls-5" d="m29.9,14.81c.53.11.23.81-.31.72-.14-.02-.28-.05-.42-.08-1.63-.35-3.42-.2-5.18-.02-.43.05-1.91.73-2.27.96,1.02-.5,3.16-1.39,4.28-1.53,1.1-.11,2.22-.15,3.33-.11.19,0,.39.02.57.06Z"/>
        <path class="cls-3" d="m28.72,21.93c.32.44-.37.76-.72.33-.09-.11-.17-.23-.26-.34-.98-1.34-2.41-2.44-3.85-3.47-.35-.25-1.91-.73-2.33-.8,1.09.31,3.29,1.08,4.21,1.72.9.65,1.75,1.37,2.55,2.13.14.13.27.27.39.43Z"/>
        <path class="cls-3" d="m19.58,5.99s-.02.03-.03.04c-.03.02-.06,0-.08-.02-.13-.09-.2-.28-.35-.32-.02.16-.02.33,0,.49l-.4.1c.05.15.16.28.3.35-.04.06-.08.13-.09.21-.02.08,0,.16.07.21.09-.03.18-.07.25-.12.08.16.18.3.3.43.02.02.04.03.06.04.04,0,.06-.04.08-.06.07-.14.11-.3.1-.46l.31.23s.06.04.1.04c.05,0,.08-.05.08-.1,0-.05-.01-.1-.03-.14l-.13-.32s-.01-.03,0-.05c0-.02.02-.04.04-.04l.36-.22c-.02-.08-.12-.1-.2-.09s-.16.03-.23,0c-.14-.08-.08-.35-.21-.41-.16-.08-.21.12-.29.24Z"/>
        <path class="cls-1" d="m29.13,19.4s-.02.03-.03.04c-.03.02-.06,0-.08-.02-.13-.09-.2-.28-.35-.33-.02.16-.02.33,0,.49l-.4.1c.05.15.16.28.3.35-.04.06-.08.13-.09.21-.02.08,0,.16.07.21.09-.03.18-.07.25-.12.08.16.18.3.3.43.02.02.04.04.06.04.03,0,.06-.03.07-.06.07-.14.11-.3.1-.46l.31.23s.06.04.1.04c.05-.01.08-.05.08-.1,0-.05-.01-.09-.03-.14l-.13-.32s-.01-.07.01-.09c0,0,.01,0,.02,0,.12-.07.24-.15.36-.22-.02-.08-.12-.1-.2-.09s-.16.03-.23,0c-.14-.08-.08-.35-.21-.41-.16-.08-.22.12-.29.24Z"/>
        <path class="cls-3" d="m26.31,8.24s-.02.03-.03.04c-.03.02-.06,0-.08-.02-.13-.09-.2-.28-.35-.33-.02.16-.02.33,0,.5l-.41.1c.05.15.16.28.3.35-.04.06-.08.13-.09.21-.02.08,0,.15.07.21.09-.03.18-.07.26-.12.08.16.18.3.3.43.02.02.04.04.06.04.03,0,.06-.03.07-.06.07-.14.11-.3.1-.46l.31.23s.06.04.1.04c.05-.01.08-.05.08-.1,0-.05-.01-.1-.03-.14l-.13-.32s-.01-.03,0-.05c0-.02.02-.04.04-.05l.36-.22c-.02-.08-.12-.1-.2-.09s-.16.03-.23,0c-.14-.08-.08-.35-.21-.41-.16-.08-.21.12-.29.24Z"/>
        <path class="cls-3" d="m21.33,26.06s-.03.04-.05.05c-.04.02-.08,0-.12-.02-.19-.13-.28-.38-.49-.45-.03.23-.03.46,0,.69l-.56.14c.07.21.22.39.42.49-.06.09-.11.18-.13.29-.02.11.01.22.09.29.13-.04.25-.1.36-.17.11.22.25.42.41.6.02.03.05.05.09.05.05,0,.09-.04.1-.09.1-.2.15-.43.14-.65l.43.31s.09.06.14.06c.07-.01.12-.07.12-.14,0-.07-.02-.13-.05-.19l-.18-.44s-.02-.05-.01-.07c.01-.03.03-.05.06-.06.17-.1.33-.21.5-.3-.03-.11-.16-.14-.27-.12s-.23.05-.32,0c-.19-.12-.11-.49-.29-.58-.22-.11-.3.17-.4.33Z"/>
        <path class="cls-3" d="m10.13,18.44s-.03.04-.05.05c-.04.02-.08,0-.12-.02-.19-.13-.28-.38-.49-.46-.03.23-.03.46,0,.69l-.56.14c.07.21.22.39.42.49-.06.09-.11.18-.13.29-.03.11.01.22.09.29.13-.04.25-.1.36-.17.11.22.25.42.41.6.02.03.05.05.09.06.05,0,.08-.05.1-.09.1-.2.15-.43.14-.65l.43.31s.09.06.14.06c.07-.01.12-.07.12-.14,0-.07-.02-.13-.04-.19l-.18-.44s-.01-.05-.01-.07c.01-.03.03-.05.06-.06.17-.1.33-.21.5-.31-.03-.11-.16-.14-.27-.12s-.23.05-.32,0c-.19-.12-.11-.49-.29-.58-.22-.1-.3.18-.4.34Z"/>
        <path class="cls-1" d="m28.67,16.12s-.01.02-.02.03c-.02.01-.04,0-.06-.01-.1-.07-.15-.2-.26-.24-.02.12-.02.24,0,.37l-.3.08c.04.12.12.21.23.26-.03.05-.06.1-.07.15-.01.06,0,.11.05.15.07-.02.13-.05.19-.09.06.12.13.22.22.32.01.02.03.03.05.03.03,0,.04-.03.05-.05.05-.11.08-.23.07-.35l.23.16s.05.03.08.03c.04,0,.06-.04.06-.08,0-.04,0-.07-.02-.1l-.09-.24s0-.05.01-.06c0,0,0,0,.01,0l.27-.16c-.01-.06-.09-.07-.14-.06s-.12.02-.17,0c-.1-.06-.06-.26-.16-.31s-.17.09-.22.17Z"/>
        <path class="cls-1" d="m24.42,23.85s-.01.02-.02.03c-.02.01-.04,0-.06-.01-.1-.07-.15-.2-.26-.24-.02.12-.02.25,0,.37l-.3.07c.04.12.12.21.23.26-.03.05-.06.1-.07.15-.01.06,0,.12.05.15.07-.02.13-.05.19-.09.06.12.13.22.22.32.01.02.03.03.05.03.03,0,.04-.03.06-.05.05-.11.08-.23.07-.35l.23.16s.05.03.08.03c.04,0,.06-.04.06-.08,0-.04,0-.07-.02-.1l-.09-.24s0-.02,0-.04c0-.01.02-.03.03-.03l.27-.16c-.01-.06-.09-.07-.15-.06s-.12.02-.17,0c-.1-.06-.06-.26-.16-.31s-.16.09-.22.18Z"/>
        <path class="cls-5" d="m10.11,14.49s-.01.02-.02.03c-.02,0-.05,0-.06-.01-.1-.07-.15-.2-.26-.24-.02.12-.02.24,0,.37l-.3.07c.04.12.12.21.23.26-.03.05-.06.1-.07.15-.01.06,0,.11.05.15.07-.02.13-.05.19-.09.06.12.13.22.22.32.01.02.03.03.05.03.03,0,.04-.03.06-.05.05-.11.08-.23.07-.35l.23.17s.05.03.08.03c.04,0,.06-.04.06-.08,0-.04,0-.07-.02-.1l-.09-.23s0-.02,0-.04c0-.01.02-.03.03-.03l.27-.16c-.01-.06-.09-.07-.15-.06s-.12.02-.17,0c-.1-.06-.06-.26-.16-.31s-.16.09-.22.18Z"/>
        <path class="cls-5" d="m17.98,19.88s-.01.02-.02.03c-.02.01-.04,0-.06-.01-.1-.07-.15-.2-.26-.24-.02.12-.02.24,0,.37l-.3.08c.04.11.12.21.23.26-.03.05-.06.1-.07.15-.01.06,0,.12.05.15.07-.02.13-.05.19-.09.06.12.13.22.22.32.01.02.03.03.05.03.03,0,.04-.03.05-.05.05-.11.08-.23.07-.35l.23.16s.05.03.08.03c.04,0,.06-.04.06-.07,0-.04,0-.07-.02-.1l-.09-.23s0-.03,0-.04c0-.01.02-.03.03-.03l.27-.16c-.01-.06-.09-.07-.14-.06s-.12.02-.17,0c-.1-.06-.06-.26-.16-.31s-.17.09-.22.18Z"/>
        <path class="cls-5" d="m13.78,18.47s-.01.02-.02.03c-.02,0-.05,0-.06-.01-.1-.07-.15-.2-.26-.24-.02.12-.02.25,0,.37l-.3.08c.04.11.12.21.23.26-.03.05-.06.1-.07.15-.01.06,0,.11.05.15.07-.02.13-.05.19-.09.06.12.13.22.22.32.01.02.03.03.05.03.03,0,.04-.03.06-.05.05-.11.08-.23.07-.35l.23.17s.05.03.07.03c.04,0,.06-.04.06-.08,0-.04,0-.07-.02-.1l-.09-.23s0-.02,0-.04c0-.02.02-.03.03-.03l.27-.16c-.01-.06-.09-.07-.14-.06s-.12.02-.17,0c-.1-.06-.06-.26-.15-.31s-.17.09-.22.18Z"/>
        <path class="cls-5" d="m24.67,12.79s-.01.02-.02.03c-.02.01-.04,0-.06-.01-.1-.07-.15-.2-.26-.24-.02.12-.02.24,0,.37l-.3.08c.04.11.12.21.23.26-.03.05-.06.1-.07.15-.01.06,0,.11.05.15.07-.02.13-.05.19-.09.06.12.13.22.22.32.01.02.03.03.05.03.03,0,.04-.03.05-.05.05-.11.08-.23.07-.35l.23.16s.05.03.08.03c.04,0,.06-.04.06-.07,0-.04,0-.07-.02-.1l-.09-.23s-.01-.05.01-.06c0,0,0,0,.01,0l.27-.16c-.01-.06-.09-.07-.14-.06s-.12.02-.17,0c-.1-.06-.06-.26-.15-.31s-.16.09-.22.18Z"/>
        <path class="cls-1" d="m19.24,15.31s-.01.02-.02.03c-.02.01-.04,0-.06-.01-.1-.07-.15-.2-.26-.24-.02.12-.02.24,0,.37l-.3.07c.04.12.12.21.23.26-.03.05-.06.1-.07.15-.01.06,0,.11.05.15.07-.02.13-.05.19-.09.06.12.13.22.22.32.01.02.03.03.05.03.03,0,.04-.03.06-.05.05-.11.08-.23.07-.35l.23.17s.05.03.08.03c.04,0,.06-.04.06-.08,0-.04,0-.07-.02-.1l-.09-.23s0-.02,0-.04c0-.01.02-.03.03-.03l.27-.16c-.01-.06-.09-.07-.15-.06s-.12.02-.17,0c-.1-.06-.06-.26-.16-.31s-.16.09-.22.18Z"/>
        <path class="cls-2" d="m18.07,16.97s-.01.02-.02.03c-.02,0-.05,0-.06-.01-.1-.07-.15-.2-.26-.24-.02.12-.02.25,0,.37l-.3.07c.04.11.12.21.23.26-.03.05-.06.1-.07.15-.01.06,0,.11.05.15.07-.02.13-.05.19-.09.06.12.13.22.22.32.01.02.03.03.05.03.03,0,.04-.03.06-.05.05-.11.08-.23.07-.35l.23.17s.05.03.08.03c.04,0,.06-.04.06-.07,0-.04,0-.07-.02-.1l-.09-.23s0-.02,0-.04c0-.02.02-.03.03-.03l.27-.16c-.01-.06-.09-.07-.14-.06s-.12.02-.17,0c-.1-.06-.06-.26-.15-.31s-.17.09-.22.18Z"/>
        <path class="cls-1" d="m14.03,13.67s-.01.02-.02.03c-.02.01-.04,0-.06-.01-.1-.07-.15-.2-.26-.24-.02.12-.02.24,0,.37l-.3.07c.04.12.12.21.23.26-.03.05-.06.1-.07.15-.01.06,0,.12.05.15.07-.02.13-.05.19-.09.06.12.13.22.22.32.01.02.03.03.05.03.03,0,.04-.03.05-.05.06-.11.08-.23.07-.35l.23.16s.05.03.08.03c.04,0,.06-.04.06-.08,0-.04,0-.07-.02-.1l-.09-.23s0-.02,0-.04c0-.01.02-.03.03-.03l.27-.16c-.01-.06-.09-.07-.15-.06s-.12.02-.17,0c-.1-.06-.06-.26-.16-.31s-.16.09-.22.17Z"/>
        <path class="cls-2" d="m20.29,17.38s-.01.02-.02.03c-.02.01-.04,0-.06-.01-.1-.07-.15-.2-.26-.24-.02.12-.02.25,0,.37l-.3.07c.04.12.12.21.23.26-.03.05-.06.1-.07.15-.01.06,0,.11.05.15.07-.02.13-.05.19-.09.06.12.13.22.22.32.01.02.03.03.05.03.03,0,.04-.03.06-.05.05-.11.08-.23.07-.35l.23.17s.05.03.08.03c.04,0,.06-.04.06-.08,0-.04,0-.07-.02-.1l-.09-.23s0-.02,0-.04c0-.01.02-.03.03-.03l.27-.16c-.01-.06-.09-.07-.15-.06s-.12.02-.17,0c-.1-.06-.06-.26-.16-.31s-.17.09-.22.18Z"/>
      </g>
      <g id="fireworks_2" data-name="fireworks 2">
        <path class="cls-4" d="m24.57,32.15h0c.28-.79,1.06-1.25,1.86-1.16.33.04.66.07.99.05,8.3-.49,18.58,4.26,29.52,10.77h0c-10.02-8.11-19.19-15.28-29.97-7.91-.77.53-1.86.34-2.31-.48-.18-.33-.25-.72-.14-1.13.01-.05.03-.1.04-.14h0s0,0,0,0Z"/>
        <path class="cls-4" d="m79.92,12.71h0c.68.44.97,1.27.74,2.01l-.03.08c-.23.74-.73,1.37-1.39,1.78-9.44,5.87,1.49,13.39-15.98,25.53h0c8.46-9.05,15.41-30.01,16.47-29.49.06.03.12.06.18.1h0Z"/>
        <path class="cls-4" d="m94.38,58.65h0c-.35.73-1.14,1.11-1.9.97l-.09-.02c-.76-.14-1.44-.56-1.93-1.16-6.95-8.67-13.12,3.07-27.25-12.83h0c9.99,7.32,31.63,11.74,31.24,12.85-.02.06-.05.13-.08.19h0s0,0,0,0h0Z"/>
        <path class="cls-4" d="m81.67,58.11h0c-.36.2-.95.17-1.42-.05l-.05-.02c-.47-.22-.84-.53-1.05-.86-2.96-4.8-9.12-1.69-15.45-10.79h0c5.19,4.95,18.5,11.33,18.05,11.66-.03.02-.05.04-.09.06h0Z"/>
        <path class="cls-4" d="m84.53,38.96h0c-.09.4-.5.82-.97,1.03l-.05.02c-.48.21-.95.28-1.34.21-5.56-.96-7.31,5.71-18.32,4.42h0c7.15-.6,20.75-6.35,20.7-5.78,0,.03,0,.07-.02.1h0,0Z"/>
        <path class="cls-4" d="m28.89,64.04h0c-.4-.71-.26-1.57.29-2.12l.06-.06c.55-.55,1.28-.86,2.06-.92,11.09-.76,4.97-12.52,26.09-15.04h0c-11.72,4.02-27.7,19.26-28.39,18.31-.04-.05-.08-.11-.11-.17,0,0,0,0,0,0Z"/>
        <path class="cls-4" d="m73.49,63.91h0c-.41.27-.94.22-1.29-.1l-.04-.04c-.35-.32-.57-.76-.63-1.24-.89-6.83-7.74-2.61-10.08-15.58h0c2.88,7.1,12.68,16.41,12.14,16.88-.03.03-.06.05-.1.08h0Z"/>
        <path class="cls-3" d="m61.07,75.15h0c-.63,0-1.16-.42-1.32-1l-.02-.07c-.16-.58-.09-1.2.17-1.75,3.72-7.84-6.54-8.12-.18-23.45h0c-1.76,9.5,2.41,26.14,1.51,26.25-.05,0-.11.01-.16.01h0Z"/>
        <path class="cls-3" d="m38.32,64.44h0c-.4-.48-.42-1.16-.07-1.65l.04-.06c.35-.49.86-.84,1.45-.99,8.41-2.13,2.08-10.22,17.95-15.1h0c-8.44,4.7-18.59,18.53-19.26,17.91-.04-.04-.07-.07-.11-.12h0Z"/>
        <path class="cls-3" d="m43.42,57.42h0c-.26-.24-.26-.6-.04-.88l.02-.03c.22-.28.55-.48.92-.59,5.33-1.48,1.33-5.53,11.39-8.78h0c-5.35,2.85-11.81,10.64-12.22,10.33-.02-.02-.05-.04-.07-.06h0Z"/>
        <path class="cls-4" d="m50.88,62.54h0c-.32-.13-.46-.47-.35-.8v-.04c.12-.34.36-.64.67-.87,4.47-3.26-.7-5.64,7.58-12.22h0c-4.01,4.55-7.31,14.11-7.81,13.97-.03,0-.06-.02-.08-.03h0Z"/>
        <polygon class="cls-3" points="29.06 39.86 29.87 42.37 32.51 42.37 30.38 43.91 31.19 46.42 29.06 44.87 26.93 46.42 27.74 43.91 25.62 42.37 28.25 42.37 29.06 39.86"/>
        <polygon class="cls-4" points="65.34 9.86 66.15 12.36 68.78 12.36 66.65 13.91 67.47 16.41 65.34 14.86 63.21 16.41 64.02 13.91 61.89 12.36 64.52 12.36 65.34 9.86"/>
        <polygon class="cls-3" points="84.6 36.73 85.41 39.23 88.04 39.23 85.91 40.78 86.72 43.28 84.6 41.73 82.47 43.28 83.28 40.78 81.15 39.23 83.78 39.23 84.6 36.73"/>
        <polygon class="cls-3" points="45.63 64.05 46.45 66.55 49.08 66.55 46.95 68.1 47.76 70.6 45.63 69.05 43.5 70.6 44.32 68.1 42.19 66.55 44.82 66.55 45.63 64.05"/>
        <polygon class="cls-3" points="60.41 36.73 61.22 39.23 63.86 39.23 61.73 40.78 62.54 43.28 60.41 41.73 58.28 43.28 59.09 40.78 56.97 39.23 59.6 39.23 60.41 36.73"/>
        <polygon class="cls-4" points="80.73 9.86 81.55 12.36 84.18 12.36 82.05 13.91 82.86 16.41 80.73 14.86 78.61 16.41 79.42 13.91 77.29 12.36 79.92 12.36 80.73 9.86"/>
        <polygon class="cls-4" points="27.68 59.34 28.71 61.76 31.34 61.53 29.35 63.25 30.38 65.68 28.12 64.32 26.14 66.05 26.73 63.49 24.47 62.13 27.09 61.9 27.68 59.34"/>
        <path class="cls-3" d="m50.2,13.08h0c.47-.23,1.01-.08,1.31.35l.03.05c.3.42.45.96.42,1.51-.36,7.87,7.51,4.35,7.5,19.41h0c-1.65-8.53-10.03-20.83-9.38-21.25.04-.02.08-.05.12-.07h0Z"/>
        <path class="cls-4" d="m43.34,24.75h0c.21-.26.56-.3.84-.11l.03.02c.28.19.5.48.63.83,1.83,4.94,5.41.8,9.3,10.09h0c-3.15-4.85-11.12-10.33-10.85-10.75.02-.02.03-.05.05-.07h0Z"/>
        <path class="cls-4" d="m37.28,39.11h0c.03-.34.3-.56.63-.56h.04c.34,0,.69.12.99.34,4.27,3.09,4.95-2.34,13.34,3.21h0c-5.31-2.28-14.98-2.4-15-2.9,0-.03,0-.06,0-.09h0Z"/>
      </g>
      <g id="fireworks_1" data-name="fireworks 1">
        <path class="cls-4" d="m237.38,49.52h0c.26-.73.99-1.17,1.73-1.08.31.03.62.06.93.04,7.75-.46,17.35,3.98,27.56,10.06h0c-9.35-7.57-17.91-14.26-27.98-7.38-.72.49-1.74.32-2.16-.45-.17-.31-.23-.67-.13-1.05.01-.04.03-.09.04-.13h0Z"/>
        <path class="cls-4" d="m289.06,31.37h0c.64.41.9,1.18.69,1.87l-.02.08c-.21.69-.68,1.28-1.29,1.66-8.81,5.48,1.39,12.5-14.92,23.83h0c7.9-8.45,14.39-28.02,15.38-27.54.06.03.11.06.17.09h0Z"/>
        <path class="cls-4" d="m302.56,74.26h0c-.33.68-1.07,1.04-1.78.91h-.08c-.71-.14-1.35-.54-1.8-1.1-6.49-8.1-12.25,2.86-25.44-11.98h0c9.33,6.84,29.53,10.96,29.17,12-.02.06-.05.12-.07.18h0Z"/>
        <path class="cls-4" d="m290.7,73.75h0c-.34.19-.88.16-1.32-.04l-.05-.02c-.44-.2-.78-.49-.98-.8-2.77-4.48-8.51-1.57-14.42-10.07h0c4.85,4.62,17.28,10.57,16.85,10.89-.02.02-.05.04-.08.05h0Z"/>
        <path class="cls-4" d="m293.36,55.87h0c-.08.38-.46.77-.91.96l-.05.02c-.45.2-.89.26-1.25.2-5.19-.9-6.82,5.33-17.1,4.12h0c6.67-.56,19.37-5.93,19.33-5.4,0,.03,0,.06-.01.09h0Z"/>
        <path class="cls-4" d="m241.41,79.29h0c-.37-.66-.24-1.47.27-1.98l.06-.06c.51-.51,1.2-.81,1.92-.86,10.35-.71,4.64-11.69,24.36-14.04h0c-10.94,3.75-25.86,17.98-26.51,17.09-.04-.05-.07-.1-.1-.16h0Z"/>
        <path class="cls-4" d="m283.05,79.17h0c-.38.26-.87.2-1.2-.09l-.04-.03c-.33-.3-.53-.71-.59-1.16-.83-6.38-7.23-2.43-9.41-14.54h0c2.69,6.63,11.84,15.32,11.33,15.76-.03.02-.06.05-.09.07h0Z"/>
        <path class="cls-3" d="m271.46,89.67h0c-.59,0-1.08-.39-1.23-.93l-.02-.06c-.15-.54-.09-1.12.16-1.63,3.48-7.32-6.11-7.58-.17-21.89h0c-1.65,8.87,2.25,24.4,1.41,24.51-.05,0-.1,0-.15,0h0Z"/>
        <path class="cls-3" d="m250.22,79.66h0c-.38-.45-.39-1.08-.07-1.54l.04-.05c.32-.46.81-.78,1.36-.92,7.85-1.99,1.94-9.54,16.75-14.1h0c-7.88,4.39-17.36,17.3-17.98,16.72-.04-.03-.07-.07-.1-.11h0Z"/>
        <path class="cls-3" d="m254.99,73.11h0c-.24-.22-.25-.56-.04-.82l.02-.03c.21-.26.51-.45.86-.55,4.98-1.39,1.24-5.16,10.64-8.2h0c-5,2.66-11.02,9.93-11.41,9.64-.02-.02-.04-.03-.06-.05h0Z"/>
        <path class="cls-4" d="m261.95,77.89h0c-.3-.13-.43-.44-.33-.75v-.04c.11-.31.33-.6.62-.81,4.18-3.05-.65-5.27,7.08-11.41h0c-3.74,4.25-6.83,13.17-7.3,13.04-.03,0-.05-.02-.08-.03h0Z"/>
        <polygon class="cls-3" points="241.58 56.72 242.34 59.05 244.79 59.05 242.8 60.5 243.56 62.84 241.58 61.39 239.59 62.84 240.35 60.5 238.36 59.05 240.82 59.05 241.58 56.72"/>
        <polygon class="cls-4" points="275.44 28.7 276.2 31.04 278.66 31.04 276.67 32.48 277.43 34.82 275.44 33.38 273.46 34.82 274.22 32.48 272.23 31.04 274.68 31.04 275.44 28.7"/>
        <polygon class="cls-3" points="293.42 53.79 294.18 56.13 296.64 56.13 294.65 57.57 295.41 59.91 293.42 58.46 291.44 59.91 292.19 57.57 290.21 56.13 292.66 56.13 293.42 53.79"/>
        <polygon class="cls-3" points="257.05 79.29 257.81 81.63 260.26 81.63 258.28 83.08 259.03 85.41 257.05 83.97 255.06 85.41 255.82 83.08 253.83 81.63 256.29 81.63 257.05 79.29"/>
        <polygon class="cls-3" points="270.84 53.79 271.6 56.13 274.06 56.13 272.07 57.57 272.83 59.91 270.84 58.46 268.86 59.91 269.62 57.57 267.63 56.13 270.09 56.13 270.84 53.79"/>
        <polygon class="cls-4" points="289.82 28.7 290.58 31.04 293.04 31.04 291.05 32.48 291.81 34.82 289.82 33.38 287.83 34.82 288.59 32.48 286.6 31.04 289.06 31.04 289.82 28.7"/>
        <polygon class="cls-4" points="240.29 74.9 241.25 77.16 243.7 76.94 241.85 78.56 242.81 80.82 240.7 79.55 238.85 81.17 239.4 78.77 237.29 77.51 239.74 77.29 240.29 74.9"/>
        <path class="cls-3" d="m261.31,31.71h0c.44-.22.94-.07,1.22.32l.03.04c.28.4.42.9.39,1.41-.34,7.35,7.01,4.06,7,18.12h0c-1.54-7.97-9.37-19.45-8.76-19.84.03-.02.07-.04.11-.06h0Z"/>
        <path class="cls-4" d="m254.9,42.6h0c.2-.25.52-.28.78-.11l.03.02c.26.17.47.45.59.77,1.71,4.61,5.05.75,8.69,9.42h0c-2.94-4.52-10.38-9.64-10.13-10.04.01-.02.03-.04.05-.07h0Z"/>
        <path class="cls-4" d="m249.25,56.01h0c.03-.31.28-.52.59-.52h.04c.32,0,.64.11.92.31,3.99,2.88,4.62-2.18,12.46,3h0c-4.96-2.13-13.99-2.24-14-2.71,0-.03,0-.05,0-.08h0Z"/>
      </g>
      <g id="fireworks_1-2" data-name="fireworks 1">
        <path class="cls-4" d="m316,56.56h0c-.08-.19-.01-.4.15-.51.07-.05.13-.1.19-.15,1.42-1.44,4.06-2.24,7.09-2.84h0c-3.13.16-5.95.35-6.71,3.43-.05.22-.28.36-.5.29-.09-.03-.16-.09-.21-.18,0-.01-.01-.02-.02-.03h0Z"/>
        <path class="cls-4" d="m322.87,44.05h0c.19-.03.38.07.46.24v.02c.09.17.1.37.05.55-.75,2.6,2.44,2.18,1.25,7.22h0c.06-3.01-2.08-7.93-1.81-8.01.02,0,.03,0,.05-.01h0Z"/>
        <path class="cls-4" d="m332.94,50.02h0c.06.19-.03.39-.19.48h-.02c-.16.11-.35.14-.54.11-2.67-.44-1.88,2.69-7.02,2.1h0c3-.3,7.63-3.01,7.74-2.75,0,.02.01.03.02.05h0Z"/>
        <path class="cls-4" d="m330.56,51.98h0c-.03.1-.14.18-.26.22h-.01c-.12.04-.24.05-.33.02-1.32-.39-1.92,1.18-4.55.56h0c1.74.05,5.19-.95,5.16-.82,0,0,0,.02,0,.02h0Z"/>
        <path class="cls-4" d="m327.96,48.05h0c.05.09.04.23,0,.34h0c-.05.13-.13.22-.21.27-1.16.73-.4,2.22-2.6,3.77h0c1.2-1.27,2.72-4.52,2.81-4.41,0,0,0,.01.01.02h0Z"/>
        <path class="cls-4" d="m321.96,61.63h0c-.19-.06-.3-.24-.29-.43v-.02c.01-.19.09-.36.22-.5,1.88-1.94-1.13-3.07,2.28-6.96h0c-1.47,2.63-1.89,7.98-2.17,7.92-.02,0-.03,0-.05-.01h0Z"/>
        <path class="cls-4" d="m330.02,54.36h0c-.03.12-.13.19-.25.19h-.01c-.12,0-.23-.05-.32-.12-1.27-1.09-1.82.79-4.35-1.18h0c1.67.82,4.96.91,4.94,1.08,0,0,0,.02,0,.03h0Z"/>
        <path class="cls-3" d="m329.59,58.42h0c-.11.1-.28.11-.4.03h-.01c-.12-.09-.21-.21-.25-.35-.6-2.02-2.5-.41-3.84-4.22h0c1.22,2.01,4.68,4.34,4.54,4.51,0,0-.02.02-.03.03h0Z"/>
        <path class="cls-3" d="m323.74,60.17h0c-.15-.02-.26-.14-.28-.29v-.02c-.02-.15.02-.29.1-.41,1.18-1.75-1.28-2.19.8-5.65h0c-.76,2.22-.36,6.37-.58,6.37-.01,0-.03,0-.04,0h0Z"/>
        <path class="cls-3" d="m323.52,58.07h0c-.09,0-.14-.07-.15-.15h0c0-.1.02-.19.07-.27.72-1.13-.66-1.22.64-3.44h0c-.51,1.39-.41,3.84-.54,3.85,0,0-.01,0-.02,0h0Z"/>
        <path class="cls-4" d="m325.7,57.79h0c-.08.03-.16-.01-.19-.09h0c-.04-.09-.04-.18-.02-.27.28-1.32-1.04-.91-.61-3.44h0c.01,1.48.97,3.74.85,3.8,0,0-.01,0-.02,0h0Z"/>
        <polygon class="cls-3" points="318.07 57.22 318.62 57.55 319.1 57.12 318.97 57.74 319.52 58.07 318.88 58.13 318.75 58.76 318.49 58.17 317.85 58.24 318.33 57.81 318.07 57.22"/>
        <polygon class="cls-4" points="319.76 45.9 320.32 46.22 320.79 45.8 320.66 46.42 321.21 46.74 320.58 46.81 320.44 47.43 320.18 46.85 319.55 46.92 320.02 46.49 319.76 45.9"/>
        <polygon class="cls-3" points="327.61 47.64 328.17 47.96 328.64 47.53 328.51 48.16 329.06 48.48 328.43 48.55 328.29 49.17 328.03 48.59 327.4 48.65 327.87 48.23 327.61 47.64"/>
        <polygon class="cls-3" points="325 58.91 325.55 59.23 326.03 58.81 325.89 59.43 326.45 59.75 325.81 59.82 325.67 60.44 325.42 59.86 324.78 59.92 325.26 59.5 325 58.91"/>
        <polygon class="cls-3" points="323.24 51.57 323.79 51.89 324.27 51.46 324.13 52.09 324.69 52.41 324.05 52.47 323.91 53.1 323.65 52.51 323.02 52.58 323.49 52.15 323.24 51.57"/>
        <polygon class="cls-4" points="322.55 43.4 323.1 43.72 323.58 43.3 323.45 43.92 324 44.24 323.36 44.31 323.23 44.93 322.97 44.35 322.33 44.42 322.81 43.99 322.55 43.4"/>
        <polygon class="cls-4" points="320.98 60.97 321.56 61.24 322 60.78 321.92 61.41 322.5 61.68 321.87 61.8 321.79 62.44 321.48 61.88 320.85 62 321.29 61.53 320.98 60.97"/>
        <path class="cls-3" d="m317.55,48.94h0c.05-.12.17-.18.29-.15h.01c.12.03.24.1.32.21,1.21,1.48,2.07-.43,4.51,2.3h0c-1.68-1.28-5.2-2.14-5.15-2.32,0-.01,0-.02.01-.03h0Z"/>
        <path class="cls-4" d="m318.2,52.17h0c0-.08.05-.14.13-.16h0c.08-.01.17,0,.25.05,1.13.6,1.11-.73,3.32.32h0c-1.36-.37-3.69-.06-3.71-.18,0,0,0-.01,0-.02h0Z"/>
        <path class="cls-4" d="m319.43,55.75h0c-.05-.07-.04-.15.02-.2h0c.06-.06.14-.1.23-.11,1.27-.13.52-1.23,2.94-1.58h0c-1.33.45-3.1,2-3.19,1.91,0,0,0-.01-.01-.02h0Z"/>
      </g>
      <g id="fireworks_1-3" data-name="fireworks 1">
        <path class="cls-4" d="m73.27,77.24h0c.13-.36.49-.57.85-.53.15.02.3.03.46.02,3.81-.22,8.54,1.96,13.56,4.95h0c-4.6-3.72-8.81-7.02-13.77-3.63-.35.24-.86.16-1.06-.22-.08-.15-.11-.33-.06-.52,0-.02.01-.04.02-.07h0Z"/>
        <path class="cls-4" d="m98.7,68.31h0c.31.2.44.58.34.92v.04c-.12.34-.35.63-.65.82-4.34,2.7.68,6.15-7.34,11.73h0c3.89-4.16,7.08-13.79,7.57-13.55.03.01.06.03.08.05h0Z"/>
        <path class="cls-4" d="m105.35,89.41h0c-.16.34-.52.51-.87.45h-.04c-.35-.07-.66-.26-.89-.54-3.19-3.98-6.03,1.41-12.52-5.9h0c4.59,3.36,14.53,5.39,14.35,5.9-.01.03-.02.06-.04.09h0Z"/>
        <path class="cls-4" d="m99.51,89.16h0c-.17.09-.43.08-.65-.02h-.02c-.22-.11-.39-.25-.48-.41-1.36-2.21-4.19-.77-7.1-4.96h0c2.38,2.27,8.5,5.2,8.29,5.36-.01,0-.03.02-.04.03h0Z"/>
        <path class="cls-4" d="m100.82,80.36h0c-.04.19-.23.38-.45.47h-.02c-.22.11-.44.14-.61.11-2.55-.44-3.36,2.62-8.42,2.03h0c3.28-.28,9.53-2.92,9.51-2.66,0,.01,0,.03,0,.05h0Z"/>
        <path class="cls-4" d="m75.26,91.89h0c-.18-.32-.12-.72.13-.97l.03-.03c.25-.25.59-.4.95-.42,5.1-.35,2.29-5.75,11.99-6.91h0c-5.38,1.85-12.73,8.85-13.04,8.41-.02-.03-.04-.05-.05-.08h0Z"/>
        <path class="cls-4" d="m95.75,91.83h0c-.19.13-.43.1-.59-.05l-.02-.02c-.16-.15-.26-.35-.29-.57-.41-3.14-3.56-1.2-4.63-7.16h0c1.32,3.26,5.83,7.54,5.58,7.75-.01.01-.03.02-.05.03h0Z"/>
        <path class="cls-3" d="m90.04,96.99h0c-.29,0-.53-.19-.6-.46v-.03c-.08-.27-.05-.55.07-.8,1.71-3.6-3.01-3.73-.08-10.77h0c-.81,4.36,1.11,12.01.69,12.06-.02,0-.05,0-.07,0h0Z"/>
        <path class="cls-3" d="m79.59,92.07h0c-.19-.22-.19-.53-.03-.76l.02-.03c.16-.23.4-.38.67-.45,3.86-.98.95-4.69,8.24-6.94h0c-3.88,2.16-8.54,8.51-8.85,8.23-.02-.02-.03-.03-.05-.05h0Z"/>
        <path class="cls-3" d="m81.94,88.85h0c-.12-.11-.12-.28-.02-.4h.01c.1-.14.25-.24.42-.28,2.45-.68.61-2.54,5.23-4.03h0c-2.46,1.31-5.42,4.89-5.62,4.75-.01,0-.02-.02-.03-.03h0Z"/>
        <path class="cls-4" d="m85.36,91.2h0c-.15-.06-.21-.22-.16-.37v-.02c.06-.15.16-.3.31-.4,2.05-1.5-.32-2.59,3.48-5.62h0c-1.84,2.09-3.36,6.48-3.59,6.42-.01,0-.03,0-.04-.01h0Z"/>
        <polygon class="cls-3" points="75.34 80.78 75.71 81.93 76.92 81.93 75.94 82.64 76.32 83.79 75.34 83.08 74.36 83.79 74.73 82.64 73.76 81.93 74.97 81.93 75.34 80.78"/>
        <polygon class="cls-4" points="92 67 92.38 68.15 93.59 68.15 92.61 68.86 92.98 70.01 92 69.3 91.03 70.01 91.4 68.86 90.42 68.15 91.63 68.15 92 67"/>
        <polygon class="cls-3" points="100.85 79.34 101.23 80.49 102.43 80.49 101.46 81.2 101.83 82.35 100.85 81.64 99.87 82.35 100.25 81.2 99.27 80.49 100.48 80.49 100.85 79.34"/>
        <polygon class="cls-3" points="82.95 91.89 83.33 93.04 84.53 93.04 83.56 93.75 83.93 94.9 82.95 94.19 81.97 94.9 82.35 93.75 81.37 93.04 82.58 93.04 82.95 91.89"/>
        <polygon class="cls-3" points="89.74 79.34 90.12 80.49 91.32 80.49 90.35 81.2 90.72 82.35 89.74 81.64 88.76 82.35 89.14 81.2 88.16 80.49 89.37 80.49 89.74 79.34"/>
        <polygon class="cls-4" points="99.08 67 99.45 68.15 100.66 68.15 99.68 68.86 100.06 70.01 99.08 69.3 98.1 70.01 98.47 68.86 97.5 68.15 98.7 68.15 99.08 67"/>
        <polygon class="cls-4" points="74.7 89.73 75.18 90.84 76.38 90.73 75.47 91.53 75.95 92.64 74.91 92.02 74 92.81 74.27 91.63 73.23 91.01 74.43 90.91 74.7 89.73"/>
        <path class="cls-3" d="m85.05,68.48h0c.22-.11.46-.03.6.16l.02.02c.14.2.21.44.19.69-.17,3.62,3.45,2,3.44,8.92h0c-.76-3.92-4.61-9.57-4.31-9.76.02-.01.04-.02.05-.03h0Z"/>
        <path class="cls-4" d="m81.9,73.84h0c.1-.12.26-.14.38-.05h.01c.13.1.23.23.29.39.84,2.27,2.49.37,4.27,4.63h0c-1.45-2.23-5.11-4.74-4.99-4.94,0-.01.01-.02.02-.03h0Z"/>
        <path class="cls-4" d="m79.11,80.43h0c.01-.15.14-.26.29-.26h.02c.16,0,.32.05.45.15,1.96,1.42,2.27-1.08,6.13,1.48h0c-2.44-1.05-6.88-1.1-6.89-1.33,0-.01,0-.03,0-.04h0Z"/>
      </g>
    </g>
  </g>
</svg>