<?xml version="1.0" encoding="UTF-8"?>
<svg id="projects_page_helper_image" data-name="projects page helper image" xmlns="http://www.w3.org/2000/svg" viewBox="0 0 500 100">
  <defs>
    <style>
      .cls-1 {
        fill: #f2f2f2;
      }

      .cls-2 {
        fill: #fff;
      }

      .cls-3 {
        fill: #ffb8b8;
      }

      .cls-4 {
        fill: #ff6363;
      }

      .cls-5 {
        fill: #ff6366;
      }

      .cls-6 {
        fill: #ccc;
      }

      .cls-7 {
        fill: #3f3d56;
      }

      .cls-8 {
        fill: #2f2e41;
      }
    </style>
  </defs>
  <g id="_500_wide_100_high" data-name="500 wide 100 high">
    <path id="ground" class="cls-6" d="M496.74,98.12H3c-1.03,0-1.86-.11-1.86-.24s.83-.24,1.86-.24H496.74c1.03,0,1.86,.11,1.86,.24s-.83,.24-1.86,.24Z"/>
    <g id="get_invited" data-name="get invited">
      <g id="female_with_envelope" data-name="female with envelope">
        <path class="cls-1" d="M411.74,26.27c-.56,1.17-1.6,2.04-2.69,2.75-1.15,.75-2.4,1.36-3.7,1.81-.18,.06-.36,.12-.54,.18h-7.74c-.05-.06-.1-.12-.15-.18-.49-.64-.75-1.46-.65-2.25,.13-1.05,.92-2.01,1.95-2.23,1.03-.22,2.2,.39,2.52,1.4,.17-1.94,.37-3.96,1.4-5.61,.93-1.5,2.55-2.57,4.31-2.76,1.03-.11,2.07,.08,3,.55,.09,.04,.17,.09,.25,.13,.56,.32,1.05,.73,1.44,1.23,1.09,1.38,1.36,3.4,.6,4.98Z"/>
        <path class="cls-2" d="M409.7,20.06s-.02,.09-.06,.12c-3.51,2.86-6.28,6.51-8.09,10.65-.03,.06-.05,.12-.08,.18h-.36c.03-.06,.05-.12,.08-.18,.34-.79,.71-1.57,1.13-2.33,.89-1.64,1.94-3.19,3.12-4.62,1.19-1.44,2.52-2.76,3.96-3.93,.01,0,.02-.02,.04-.02,.09-.04,.2,0,.24,.1,0,.01,0,.03,.01,.04Z"/>
        <path class="cls-7" d="M410.65,30.82h-36.34c-.31,0-.62,.08-.89,.24-.07,.04-.13,.08-.19,.12-.46,.34-.73,.88-.73,1.45v18.88c0,1,.81,1.81,1.81,1.81h36.34c1,0,1.81-.81,1.81-1.81v-18.88c0-1-.81-1.81-1.81-1.81Zm1.62,20.7c0,.89-.73,1.62-1.62,1.62h-36.34c-.89,0-1.62-.73-1.62-1.62v-18.88c0-.7,.46-1.32,1.12-1.54,.01,0,.03,0,.04-.01,.15-.04,.3-.07,.46-.07h36.34c.89,0,1.62,.73,1.62,1.62v18.88Z"/>
        <path class="cls-3" d="M439.43,56.51c1.13-.74,1.45-2.26,.71-3.39-.08-.12-.17-.23-.27-.34l1.36-16.24-3.9,.43-1.07,15.81c-.93,1-.87,2.55,.12,3.48,.83,.78,2.09,.88,3.04,.25Z"/>
        <polygon class="cls-3" points="425.54 95.25 422.75 95.25 421.42 84.46 425.54 84.47 425.54 95.25"/>
        <path class="cls-8" d="M420.75,94.45h5.39v3.4h-8.79c0-1.88,1.52-3.4,3.4-3.4Z"/>
        <polygon class="cls-3" points="445.39 95.25 442.59 95.25 441.26 84.46 445.39 84.47 445.39 95.25"/>
        <path class="cls-8" d="M440.59,94.45h5.39v3.4h-8.79c0-1.88,1.52-3.4,3.4-3.4Z"/>
        <path class="cls-8" d="M425.59,88.57s-.06,0-.09,0l-3.96-.32c-.63-.05-1.1-.6-1.05-1.23,0-.03,0-.06,.01-.09l6-37.11,.4-5.23c.04-.5,.4-.92,.89-1.03l6.04-1.32c.45-.1,.92,.08,1.18,.47l1.47,2.15c.58,.84,1.21,1.64,1.88,2.4,1.04,1.19,2.82,3.83,2.98,8.15,.04,1.42,.19,2.83,.44,4.23l4.86,26.17c.1,.62-.32,1.21-.95,1.31-.02,0-.04,0-.07,0l-3.75,.28c-.55,.05-1.07-.3-1.21-.84l-6.65-24.75c-.03-.12-.16-.19-.28-.16-.08,.02-.14,.08-.16,.16l-6.89,25.9c-.13,.5-.59,.85-1.1,.85Z"/>
        <circle class="cls-3" cx="436.11" cy="19.82" r="5.6"/>
        <path class="cls-5" d="M426.62,45.43l-.12-8c-.43-5.12,1.84-7.8,3.82-9.15,1.03-.7,2.3-.94,3.51-.67l4.41,.95c1.24,.27,2.32,1.04,2.98,2.12,.63,1.02,.81,2.26,.5,3.42-.31,1.07-.99,2-1.92,2.62-3.79,2.67-4.05,7.17-4.06,7.21v.09s-9.12,1.4-9.12,1.4Z"/>
        <path class="cls-5" d="M440.42,39.48h-3.88c-.57,0-1.03-.46-1.03-1.03v-6.73c0-1.64,1.33-2.96,2.96-2.96s2.96,1.33,2.96,2.96v6.73c0,.57-.46,1.03-1.03,1.03Z"/>
        <path class="cls-3" d="M414.38,40.75c-.89,1.07-2.48,1.21-3.55,.31-.08-.06-.15-.13-.22-.2-2.21-2.32,1.4-5.8,3.62-3.47h0c.08,.08,.15,.17,.22,.26l11.18-.28,1.33-2.44,4.1,1.59c-.79,1.22-1.69,6.01-3.75,5.78-.27,0-12.67-1.53-12.94-1.54Z"/>
        <path class="cls-5" d="M429.34,38.9l-3.13-2.29c-.46-.34-.55-.98-.22-1.43l3.98-5.42c.97-1.32,2.82-1.61,4.14-.64,1.32,.97,1.61,2.82,.64,4.14,0,0,0,0,0,0l-3.98,5.42c-.34,.46-.98,.55-1.43,.22Z"/>
        <path class="cls-8" d="M437.24,22.73c.37-.77,.23-1.69-.36-2.32-1.05-1.06-2.7-.35-4.12-.46-2.37-.17-3.99-3-3.28-5.27s3.23-3.68,5.6-3.53,4.52,1.62,5.95,3.52c.98-1.58,3.39-1.76,4.94-.74s2.36,2.87,2.69,4.7,.28,3.7,.56,5.54c.68,4.45,3.55,8.63,7.7,10.36s9.47,.62,12.18-2.97c1.09,8.93-3.99,17.48-12.36,20.79-2.25,.89-4.74,1.36-7.1,.87-3.82-.8-6.8-4.07-8.1-7.76-1.3-3.69-1.14-7.73-.51-11.59,.39-2.38,.82-5.19-.91-6.86-.49-.4-1.06-.69-1.67-.84-1.18-.36-1.85-1.6-1.5-2.78,.05-.18,.13-.35,.22-.51,.03-.05,.05-.1,.08-.15Z"/>
        <path class="cls-7" d="M392.45,42.06c-.14,0-.29-.04-.41-.11l-18.98-10.45s-.06-.08-.04-.13,.08-.06,.13-.04l18.98,10.45c.2,.11,.43,.11,.63,0l19.3-10.18s.1,0,.13,.04c.02,.05,0,.1-.04,.13h0s-19.3,10.18-19.3,10.18c-.12,.07-.26,.1-.4,.1Z"/>
        <path class="cls-7" d="M378.57,48.56h-2.67c-.42,0-.76-.34-.76-.76s.34-.76,.76-.76h2.67c.42,0,.76,.34,.76,.76s-.34,.76-.76,.76Z"/>
        <path class="cls-7" d="M381.71,51.13h-5.82c-.42,0-.76-.34-.76-.76s.34-.76,.76-.76h5.82c.42,0,.76,.34,.76,.76s-.34,.76-.76,.76Z"/>
        <circle class="cls-5" cx="392.44" cy="42.07" r="3.05"/>
      </g>
      <g id="male_with_envelope" data-name="male with envelope">
        <path class="cls-7" d="M65.16,65.63l20.96,8.84s0,0,0,0c1.35,.57,2.91-.06,3.48-1.42l5.63-13.34c.56-1.35-.07-2.91-1.42-3.48l-20.96-8.84c-1.35-.57-2.91,.06-3.48,1.42l-1.54,3.66-1.89,4.47-2.2,5.21c-.57,1.35,.06,2.91,1.42,3.48Zm-.16-.43c-1.08-.46-1.59-1.7-1.13-2.79l2.33-5.52,1.8-4.25h0s1.66-3.93,1.66-3.93c.17-.4,.46-.74,.83-.97,.17-.11,.36-.19,.56-.25,.46-.13,.95-.09,1.39,.09l21.54,9.09c.41,.17,.76,.48,.99,.86,.11,.18,.19,.37,.24,.57,.12,.45,.09,.93-.1,1.36l-5.78,13.71c-.46,1.08-1.7,1.59-2.79,1.13l-21.54-9.09h0Z"/>
        <path class="cls-7" d="M78.48,59.37l-7.63-11.88,.28-.08,7.72,11.95c.54,.82,1.52,1.23,2.48,1.02l13.76-2.78,.08,.24-13.59,2.82c-.59,.13-1.21,.07-1.77-.17-.54-.23-1.01-.61-1.33-1.11Z"/>
        <circle class="cls-5" cx="79.68" cy="60.86" r="3.54"/>
        <path class="cls-5" d="M39.01,57.59c2.66,7.99,13.56-.48,13.56-.48l-2.91-30.27c-4.36-3.39-8.96-.48-8.96-.48l-1.7,31.24Z"/>
        <polygon class="cls-3" points="39.59 84.42 35.87 84.46 36.8 95.16 39.59 95.16 39.59 84.42"/>
        <path class="cls-8" d="M31.43,97.75h0c0-1.87,1.51-3.38,3.38-3.38h5.37s0,3.38,0,3.38h-8.75s0,0,0,0Z"/>
        <polygon class="cls-3" points="49.65 84.42 53.76 84.42 52.44 95.16 49.65 95.16 49.65 84.42"/>
        <path class="cls-8" d="M57.81,97.75h-8.75v-3.38h5.37c1.87,0,3.38,1.51,3.38,3.38Z"/>
        <path class="cls-8" d="M54.88,55.78l-1.21,37.3-4.36-.24-4.6-28.58-4.96,28.94-3.75,.12-2.42-36.09c2.91-5.57,21.31-1.45,21.31-1.45Z"/>
        <circle class="cls-3" cx="44.99" cy="17.71" r="5.58"/>
        <path class="cls-8" d="M42.65,28.29c4.6,4.12-.24,26.4-.97,29.31-.73,2.91-1.94,2.91-3.88,.97s-2.91-2.18-2.91-2.18c0,0-.24,1.94-1.7,1.94s-.12-24.82,.36-28.46c.48-3.63,6.54-3.63,6.54-3.63l1.45-.97,1.09,3.03Z"/>
        <path class="cls-8" d="M47.49,28.29c-4.6,4.12,.24,26.4,.97,29.31s1.94,2.91,3.88,.97c1.94-1.94,2.91-2.18,2.91-2.18,0,0,.24,1.94,1.7,1.94s.12-24.82-.36-28.46-6.54-3.63-6.54-3.63l-1.45-.97-1.09,3.03Z"/>
        <path class="cls-8" d="M40.39,20.89c-1.33-.96-2.19-2.44-2.35-4.08-.32-3.15,1.98-5.95,5.13-6.27,.51-.05,1.07-.04,1.49-.34,.38-.26,.58-.71,.93-1.01,.45-.35,1.02-.49,1.57-.4,.55,.09,1.08,.27,1.58,.52,1.24,.55,2.55,1.23,3.12,2.46,.49,1.07,.27,2.38-.42,3.33-.73,.94-1.78,1.56-2.96,1.75-1.17,.17-2.36,.07-3.47-.31-.74-.23-1.46-.55-2.24-.57-.81-.03-1.6,.27-2.19,.83-1.22,1.15-1.27,3.08-.11,4.29l-.08-.21Z"/>
        <path class="cls-3" d="M68.93,55.07c-.23,1.11-1.2,1.92-2.33,1.95-1.35,.04-2.49-1.03-2.53-2.38l-3.54-5.31,2.39-2.43,3.71,5.22c.14,0,.29,.02,.43,.05,1.32,.29,2.15,1.58,1.87,2.9h0Z"/>
        <path class="cls-3" d="M33.05,60.11c-1.14-.74-1.46-2.26-.72-3.4l.12-6.38,3.35-.64,.07,6.4c.11,.09,.22,.18,.32,.29,.92,.99,.86,2.53-.12,3.45-.82,.78-2.08,.89-3.03,.27Z"/>
        <path class="cls-8" d="M54.77,44.71c4.18,4.4,5.15,5.39,5.44,6.06,.73,1.7,5.45-.61,5.45-.61-.02-9.33-9.66-21.72-9.66-21.72l-.27,1.06-.95,15.21h0Z"/>
        <path class="cls-8" d="M36.96,53.6c-.73,1.7-5.69-.61-5.69-.61-.84-9.2,2.28-22.94,2.28-22.94l.87-.55s3.27,22.4,2.54,24.1Z"/>
      </g>
      <g>
        <g id="plus">
          <circle class="cls-4" cx="206.49" cy="50.66" r="14.27"/>
          <path class="cls-2" d="M211.1,48.47h-2.42v-2.42c0-1.21-.98-2.19-2.19-2.19s-2.19,.98-2.19,2.19v2.42h-2.42c-1.21,0-2.19,.98-2.19,2.19s.98,2.19,2.19,2.19h2.42v6.42c0,1.21,.98,2.19,2.19,2.19s2.19-.98,2.19-2.19v-6.42h2.42c1.21,0,2.19-.98,2.19-2.19s-.98-2.19-2.19-2.19Z"/>
        </g>
        <g>
          <path d="M173.13,59.41c-1.17,.42-3.48,1.11-6.21,1.11-3.06,0-5.58-.78-7.56-2.67-1.74-1.68-2.82-4.38-2.82-7.53,.03-6.03,4.17-10.44,10.95-10.44,2.34,0,4.17,.51,5.04,.93l-.63,2.13c-1.08-.48-2.43-.87-4.47-.87-4.92,0-8.13,3.06-8.13,8.13s3.09,8.16,7.8,8.16c1.71,0,2.88-.24,3.48-.54v-6.03h-4.11v-2.1h6.66v9.72Z"/>
          <path d="M178.65,53.53c.06,3.57,2.34,5.04,4.98,5.04,1.89,0,3.03-.33,4.02-.75l.45,1.89c-.93,.42-2.52,.9-4.83,.9-4.47,0-7.14-2.94-7.14-7.32s2.58-7.83,6.81-7.83c4.74,0,6,4.17,6,6.84,0,.54-.06,.96-.09,1.23h-10.2Zm7.74-1.89c.03-1.68-.69-4.29-3.66-4.29-2.67,0-3.84,2.46-4.05,4.29h7.71Z"/>
        </g>
        <g>
          <path d="M232.84,42.61c.03,.9-.63,1.62-1.68,1.62-.93,0-1.59-.72-1.59-1.62s.69-1.65,1.65-1.65,1.62,.72,1.62,1.65Zm-2.94,18.6v-14.52h2.64v14.52h-2.64Z"/>
          <path d="M236.92,50.62c0-1.5-.03-2.73-.12-3.93h2.34l.15,2.4h.06c.72-1.38,2.4-2.73,4.8-2.73,2.01,0,5.13,1.2,5.13,6.18v8.67h-2.64v-8.37c0-2.34-.87-4.29-3.36-4.29-1.74,0-3.09,1.23-3.54,2.7-.12,.33-.18,.78-.18,1.23v8.73h-2.64v-10.59Z"/>
          <path d="M254.2,46.69l2.85,8.16c.48,1.32,.87,2.52,1.17,3.72h.09c.33-1.2,.75-2.4,1.23-3.72l2.82-8.16h2.76l-5.7,14.52h-2.52l-5.52-14.52h2.82Z"/>
          <path d="M270.55,42.61c.03,.9-.63,1.62-1.68,1.62-.93,0-1.59-.72-1.59-1.62s.69-1.65,1.65-1.65,1.62,.72,1.62,1.65Zm-2.94,18.6v-14.52h2.64v14.52h-2.64Z"/>
          <path d="M277.81,42.52v4.17h3.78v2.01h-3.78v7.83c0,1.8,.51,2.82,1.98,2.82,.69,0,1.2-.09,1.53-.18l.12,1.98c-.51,.21-1.32,.36-2.34,.36-1.23,0-2.22-.39-2.85-1.11-.75-.78-1.02-2.07-1.02-3.78v-7.92h-2.25v-2.01h2.25v-3.48l2.58-.69Z"/>
          <path d="M285.85,54.43c.06,3.57,2.34,5.04,4.98,5.04,1.89,0,3.03-.33,4.02-.75l.45,1.89c-.93,.42-2.52,.9-4.83,.9-4.47,0-7.14-2.94-7.14-7.32s2.58-7.83,6.81-7.83c4.74,0,6,4.17,6,6.84,0,.54-.06,.96-.09,1.23h-10.2Zm7.74-1.89c.03-1.68-.69-4.29-3.66-4.29-2.67,0-3.84,2.46-4.05,4.29h7.71Z"/>
          <path d="M311.95,39.91v17.55c0,1.29,.03,2.76,.12,3.75h-2.37l-.12-2.52h-.06c-.81,1.62-2.58,2.85-4.95,2.85-3.51,0-6.21-2.97-6.21-7.38-.03-4.83,2.97-7.8,6.51-7.8,2.22,0,3.72,1.05,4.38,2.22h.06v-8.67h2.64Zm-2.64,12.69c0-.33-.03-.78-.12-1.11-.39-1.68-1.83-3.06-3.81-3.06-2.73,0-4.35,2.4-4.35,5.61,0,2.94,1.44,5.37,4.29,5.37,1.77,0,3.39-1.17,3.87-3.15,.09-.36,.12-.72,.12-1.14v-2.52Z"/>
        </g>
      </g>
    </g>
  </g>
</svg>