<?xml version="1.0" encoding="UTF-8"?>
<svg id="projects_page_helper_image" data-name="projects page helper image" xmlns="http://www.w3.org/2000/svg" viewBox="0 0 200 100">
  <defs>
    <style>
      .cls-1 {
        fill: #2f2e41;
      }

      .cls-1, .cls-2 {
        stroke-width: 0px;
      }

      .cls-2 {
        fill: #f06467;
      }
    </style>
  </defs>
  <g id="_200_wide_100_high" data-name="200 wide 100 high">
    <g id="central_place" data-name="central place">
      <g>
        <path class="cls-2" d="m89.16,11.59c-1.41-6.16-7.53-10.02-13.69-8.62-.29.07-.59.15-.85.23l2.73,11.99,11.99-2.72c-.05-.28-.11-.58-.17-.87Z"/>
        <path class="cls-2" d="m88,14.57l-11.99,2.72-2.72-11.99c-6.04,1.87-9.42,8.28-7.55,14.32,1.87,6.04,8.28,9.42,14.32,7.55,5.39-1.67,8.76-7.02,7.94-12.6h.01Z"/>
      </g>
      <g>
        <g>
          <path class="cls-1" d="m100.72,160.69c-1.33,0-2.69-.04-4.02-.13l-.37-.02.09-1.41.37.02c1.3.08,2.62.12,3.92.12h.38l.04.37v1.04h-.41s0,0,0,0Zm3.62-1.52l.37-.02c1.31-.09,2.64-.22,3.95-.39l.37-.05.18,1.4-.37.05c-1.33.17-2.69.31-4.04.4l-.37.02-.09-1.41Zm-11.68,1c-1.34-.17-2.69-.39-4-.65l-.37-.07.27-1.39.37.07c1.29.25,2.61.47,3.91.64l.37.05-.18,1.4-.37-.05Zm19.54-1.99l.37-.07c1.29-.26,2.59-.56,3.86-.9l.36-.1.37,1.37-.36.1c-1.3.35-2.63.66-3.95.92l-.37.07-.28-1.39Zm-27.5.42c-1.3-.35-2.61-.74-3.88-1.17l-.35-.12.45-1.34.36.12c1.25.42,2.53.81,3.79,1.15l.36.1-.36,1.37-.36-.1Zm35.17-2.42l.35-.12c1.25-.42,2.49-.89,3.7-1.4l.35-.14.54,1.31-.35.14c-1.24.52-2.52,1-3.79,1.43l-.36.12-.45-1.34Zm-42.85-.18c-1.25-.52-2.49-1.08-3.7-1.68l-.34-.17.63-1.27.34.17c1.19.59,2.4,1.14,3.62,1.64l.35.14-.54,1.31-.35-.14Zm50.18-2.81l.34-.17c1.18-.59,2.36-1.21,3.49-1.87l.32-.19.71,1.23-.32.19c-1.16.67-2.37,1.32-3.57,1.91l-.34.17-.63-1.27Zm-57.46-.79c-1.17-.67-2.33-1.4-3.45-2.15l-.31-.21.79-1.18.31.21c1.09.73,2.23,1.44,3.37,2.1l.32.19-.71,1.23-.32-.19Zm64.34-3.14l.31-.21c1.09-.73,2.17-1.51,3.22-2.31l.3-.23.86,1.12-.3.23c-1.06.82-2.17,1.61-3.29,2.36l-.31.21-.79-1.18Zm-71.08-1.37c-1.07-.82-2.12-1.69-3.14-2.57l-.28-.25.93-1.07.28.25c.99.87,2.02,1.71,3.07,2.52l.3.23-.86,1.12-.3-.23Zm77.4-3.42l.28-.25c.99-.86,1.96-1.78,2.89-2.71l.27-.27,1,1-.27.27c-.96.96-1.95,1.89-2.96,2.77l-.28.25-.94-1.06Zm-83.5-1.93c-.96-.96-1.89-1.95-2.78-2.96l-.25-.28,1.06-.94.25.28c.87.99,1.78,1.96,2.71,2.89l.27.26-1,1-.27-.27Zm89.14-3.64l.25-.28c.87-.99,1.72-2.02,2.52-3.06l.23-.3,1.12.86-.23.3c-.82,1.07-1.69,2.12-2.58,3.14l-.25.28-1.06-.94Zm-94.49-2.45c-.82-1.07-1.62-2.18-2.37-3.29l-.21-.31,1.18-.79.21.31c.73,1.09,1.51,2.17,2.31,3.22l.23.3-1.12.86-.23-.3Zm99.36-3.81l.21-.31c.73-1.09,1.44-2.23,2.1-3.37l.19-.32,1.23.71-.19.32c-.68,1.17-1.4,2.33-2.15,3.45l-.21.31-1.18-.79Zm-103.87-2.93c-.68-1.17-1.32-2.37-1.92-3.57l-.17-.34,1.27-.63.17.34c.58,1.17,1.21,2.35,1.87,3.49l.19.32-1.23.71-.19-.32Zm107.89-3.92l.17-.34c.58-1.18,1.13-2.4,1.64-3.61l.14-.35,1.31.54-.14.35c-.52,1.25-1.08,2.49-1.68,3.7l-.17.34-1.27-.63Zm-111.48-3.34c-.52-1.24-1-2.52-1.43-3.79l-.12-.35,1.34-.46.12.35c.43,1.25.9,2.5,1.4,3.7l.14.35-1.31.54-.14-.35Zm114.57-3.97l.12-.36c.42-1.25.81-2.52,1.15-3.79l.1-.36,1.37.37-.1.36c-.35,1.3-.74,2.6-1.18,3.88l-.12.36-1.34-.45Zm-117.18-3.71c-.35-1.3-.66-2.63-.92-3.95l-.07-.37,1.39-.28.07.37c.26,1.29.56,2.59.9,3.86l.1.36-1.37.37-.1-.36Zm119.27-3.94l.07-.37c.26-1.29.47-2.61.64-3.91l.05-.37,1.4.18-.05.37c-.17,1.34-.4,2.68-.66,4l-.07.37-1.39-.27Zm-120.85-4.02c-.18-1.33-.31-2.69-.4-4.04l-.02-.37,1.41-.09.02.37c.09,1.31.22,2.64.39,3.95l.05.37-1.4.19-.05-.37Zm121.93-3.83l.02-.37c.08-1.31.13-2.65.13-3.96v-.53s1.42,0,1.42,0v.53c0,1.35-.04,2.71-.13,4.06l-.02.37-1.41-.09Zm-122.46-3.88v-.38c0-1.4.04-2.74.13-4.05l.02-.37,1.41.09-.02.37c-.08,1.29-.12,2.59-.12,3.88v.38l-.38.08h-1.04Zm122.48-4.57c-.09-1.32-.22-2.64-.39-3.94l-.05-.37,1.4-.19.05.37c.18,1.33.31,2.69.4,4.04l.03.37-1.41.1-.02-.37Zm-122.01-3.52l.05-.37c.17-1.34.39-2.69.65-4l.07-.37,1.39.27-.07.37c-.25,1.29-.47,2.61-.64,3.91l-.05.37-1.4-.18Zm120.96-4.33c-.26-1.29-.56-2.59-.91-3.86l-.1-.36,1.37-.37.1.36c.35,1.3.66,2.63.93,3.95l.07.37-1.39.28-.07-.37Zm-119.45-3.63l.1-.36c.35-1.3.74-2.61,1.17-3.89l.12-.36,1.34.45-.12.36c-.42,1.24-.81,2.52-1.14,3.79l-.1.36-1.37-.36Zm117.39-4.02c-.43-1.24-.9-2.49-1.4-3.7l-.14-.35,1.31-.55.14.35c.52,1.24,1,2.52,1.44,3.79l.12.35-1.34.46-.12-.35Zm-114.83-3.69l.14-.35c.51-1.25,1.08-2.49,1.67-3.7l.17-.34,1.27.63-.17.34c-.58,1.18-1.13,2.4-1.64,3.62l-.14.35-1.31-.54Zm111.79-3.61c-.58-1.17-1.21-2.34-1.88-3.49l-.19-.32,1.22-.71.19.32c.68,1.16,1.32,2.37,1.92,3.57l.17.34-1.27.63-.17-.34Zm-108.25-3.69l.19-.32c.68-1.17,1.4-2.33,2.14-3.45l.21-.31,1.18.79-.21.31c-.73,1.1-1.44,2.23-2.09,3.37l-.19.32-1.23-.71Zm104.27-3.15c-.73-1.09-1.51-2.17-2.32-3.21l-.23-.3,1.12-.87.23.3c.82,1.07,1.62,2.17,2.37,3.29l.21.31-1.18.79-.21-.31Zm-99.8-3.62l.23-.3c.82-1.08,1.69-2.13,2.57-3.14l.25-.28,1.07.93-.25.28c-.87.99-1.71,2.02-2.51,3.07l-.23.3-1.12-.86Zm94.96-2.65c-.87-.99-1.79-1.96-2.72-2.89l-.27-.26,1-1,.27.26c.95.95,1.89,1.94,2.78,2.96l.25.28-1.06.94-.25-.28Zm-89.65-3.49l.26-.27c.95-.96,1.95-1.89,2.96-2.78l.28-.25.94,1.06-.28.25c-1,.88-1.97,1.79-2.89,2.71l-.27.27-1-1Zm84.04-2.11c-.99-.86-2.02-1.71-3.07-2.51l-.3-.23.86-1.12.3.23c1.07.82,2.13,1.68,3.14,2.57l.28.25-.93,1.07-.28-.25Zm-77.98-3.29l.3-.23c1.06-.82,2.17-1.62,3.29-2.37l.31-.21.79,1.18-.31.21c-1.09.73-2.18,1.51-3.22,2.31l-.3.23-.86-1.12Zm71.69-1.53c-1.09-.73-2.23-1.43-3.37-2.09l-.32-.19.71-1.23.32.19c1.17.67,2.33,1.4,3.45,2.14l.31.21-.79,1.18-.31-.21Zm-64.99-3.02l.32-.19c1.16-.67,2.36-1.32,3.57-1.92l.34-.17.63,1.27-.34.17c-1.17.58-2.34,1.21-3.49,1.88l-.32.19-.71-1.22Zm58.11-.93c-1.18-.58-2.4-1.13-3.62-1.63l-.35-.14.54-1.31.35.14c1.24.51,2.49,1.07,3.7,1.67l.34.17-.62,1.27-.34-.17Zm-50.88-2.71l.35-.14c1.25-.52,2.52-1,3.79-1.43l.35-.12.46,1.34-.36.12c-1.24.42-2.48.89-3.7,1.4l-.35.14-.54-1.31Zm43.54-.31c-1.24-.42-2.52-.8-3.8-1.14l-.36-.1.36-1.37.36.1c1.3.34,2.61.74,3.89,1.17l.36.12-.45,1.34-.35-.12Zm-35.89-2.35l.36-.1c1.3-.35,2.62-.66,3.95-.92l.37-.07.28,1.39-.37.07c-1.29.26-2.59.56-3.86.9l-.36.1-.37-1.37Zm28.23.32c-1.29-.25-2.61-.47-3.91-.63l-.37-.05.18-1.4.37.05c1.33.17,2.68.39,4,.65l.37.07-.27,1.39-.37-.07Zm-20.29-1.96l.37-.05c1.34-.18,2.7-.31,4.04-.4l.37-.02.09,1.41-.37.02c-1.32.09-2.65.22-3.94.39l-.37.05-.19-1.4Zm12.43.95c-1.27-.08-2.56-.12-3.85-.12h-.49v-1.42h.49c1.31,0,2.64.04,3.94.12l.37.02-.09,1.41-.37-.02Z"/>
          <path class="cls-1" d="m100.71,37.03c1.3,0,2.62.04,3.91.12l-.04.67c-1.28-.08-2.58-.12-3.87-.12h-.12s0-.67,0-.67h.12m-4.15.14l.04.66c-1.32.09-2.66.22-3.97.39l-.09-.66c1.32-.18,2.67-.31,4.01-.4m12.07.37c1.33.17,2.67.39,3.98.64l-.13.65c-1.3-.25-2.62-.47-3.94-.64l.08-.66m-20.06.69l.13.65c-1.3.26-2.61.57-3.88.91l-.17-.64c1.29-.35,2.61-.66,3.93-.92m27.97.86c1.29.34,2.59.73,3.86,1.16l-.21.63c-1.25-.42-2.54-.81-3.82-1.15l.17-.64m-35.76,1.24l.22.63c-1.25.43-2.5.9-3.72,1.41l-.26-.62c1.23-.51,2.5-.99,3.77-1.43m43.4,1.34c1.24.51,2.48,1.07,3.68,1.66l-.29.6c-1.19-.59-2.41-1.14-3.64-1.64l.25-.62m-50.83,1.76l.3.6c-1.19.59-2.37,1.22-3.51,1.89l-.33-.58c1.16-.67,2.35-1.31,3.55-1.91m58.07,1.8c1.16.67,2.31,1.38,3.43,2.13l-.37.55c-1.1-.74-2.24-1.44-3.39-2.1l.33-.58m-65.04,2.24l.37.55c-1.1.74-2.19,1.52-3.24,2.33l-.41-.53c1.06-.82,2.16-1.61,3.27-2.35m71.75,2.23c1.06.81,2.11,1.67,3.12,2.55l-.44.5c-1-.87-2.04-1.72-3.09-2.53l.4-.53m-78.13,2.68l.44.5c-.99.87-1.97,1.79-2.91,2.73l-.47-.47c.95-.95,1.93-1.88,2.94-2.76m84.2,2.62c.95.95,1.88,1.93,2.76,2.94l-.5.44c-.87-.99-1.79-1.97-2.73-2.91l.47-.47m-89.9,3.09l.5.44c-.87,1-1.72,2.04-2.53,3.09l-.53-.41c.81-1.06,1.68-2.11,2.56-3.12m95.23,2.96c.82,1.06,1.61,2.16,2.36,3.27l-.55.37c-.74-1.1-1.52-2.19-2.33-3.23l.53-.41m-100.13,3.44l.55.37c-.74,1.1-1.45,2.24-2.11,3.39l-.58-.33c.67-1.16,1.39-2.31,2.13-3.43m104.63,3.25c.67,1.16,1.32,2.35,1.91,3.55l-.6.3c-.59-1.18-1.22-2.36-1.89-3.51l.58-.33m-108.66,3.74l.6.29c-.59,1.19-1.14,2.41-1.65,3.64l-.62-.25c.51-1.24,1.07-2.48,1.66-3.68m112.24,3.47c.51,1.23,1,2.5,1.43,3.76l-.63.22c-.43-1.25-.9-2.5-1.41-3.72l.61-.26m-115.32,3.99l.63.21c-.42,1.25-.81,2.54-1.15,3.82l-.64-.17c.34-1.29.74-2.59,1.16-3.86m117.93,3.63c.35,1.29.66,2.61.92,3.93l-.65.13c-.26-1.3-.57-2.6-.91-3.88l.64-.17m-120,4.16l.65.13c-.26,1.3-.47,2.62-.64,3.94l-.66-.09c.17-1.33.39-2.67.65-3.98m121.58,3.74c.18,1.33.31,2.68.4,4.01l-.67.04c-.09-1.32-.22-2.66-.4-3.97l.66-.09m-122.61,4.25l.67.04c-.08,1.29-.12,2.61-.12,3.91v.08h-.67v-.08c0-1.31.04-2.64.12-3.95m123.15,3.79v.16c0,1.34-.04,2.7-.13,4.03h0s-.67-.04-.67-.04c.08-1.32.13-2.66.13-3.99v-.16s.67,0,.67,0m-122.48,4.22c.09,1.32.22,2.66.39,3.97l-.66.09c-.17-1.32-.31-2.67-.4-4.01l.67-.04m121.3,3.89l.66.09c-.17,1.33-.39,2.67-.65,3.98l-.65-.13c.26-1.3.47-2.62.65-3.94m-120.26,4.01c.26,1.3.56,2.61.91,3.88l-.64.17c-.35-1.29-.66-2.61-.92-3.93l.65-.13m118.71,3.81l.64.17c-.35,1.29-.74,2.59-1.17,3.86l-.63-.21c.43-1.25.81-2.54,1.16-3.82m-116.64,3.89c.43,1.25.9,2.5,1.41,3.73l-.62.26c-.51-1.23-.99-2.5-1.42-3.77l.63-.21m114.08,3.66l.62.26c-.51,1.24-1.08,2.48-1.67,3.68l-.6-.3c.59-1.19,1.14-2.41,1.65-3.64m-111.02,3.69c.59,1.18,1.22,2.37,1.88,3.51l-.58.33c-.67-1.16-1.31-2.35-1.91-3.55l.6-.3m107.49,3.47l.58.33c-.67,1.16-1.39,2.31-2.13,3.42l-.55-.37c.74-1.1,1.45-2.24,2.11-3.39m-103.49,3.42c.74,1.1,1.52,2.19,2.33,3.24l-.53.41c-.82-1.06-1.61-2.16-2.35-3.27l.55-.37m99.05,3.21l.53.41c-.82,1.06-1.68,2.11-2.56,3.12l-.5-.44c.87-1,1.73-2.03,2.53-3.08m-94.19,3.11c.87.99,1.79,1.97,2.73,2.91l-.47.47c-.95-.95-1.88-1.94-2.76-2.94l.5-.44m88.93,2.88l.47.47c-.95.95-1.94,1.87-2.94,2.76l-.44-.5c1-.87,1.97-1.79,2.91-2.73m-83.29,2.75c1,.87,2.03,1.73,3.08,2.53l-.41.53c-1.06-.81-2.11-1.68-3.12-2.56l.44-.5m77.3,2.51l.41.53c-1.06.82-2.16,1.61-3.27,2.35l-.37-.55c1.1-.74,2.19-1.52,3.24-2.33m-70.97,2.35c1.1.74,2.24,1.45,3.39,2.11l-.33.58c-1.16-.67-2.31-1.39-3.43-2.13l.37-.55m64.35,2.08l.33.58c-1.16.67-2.35,1.31-3.55,1.9l-.3-.6c1.19-.59,2.37-1.22,3.51-1.88m-57.43,1.91c1.19.59,2.41,1.14,3.64,1.65l-.25.62c-1.24-.51-2.47-1.07-3.68-1.67l.29-.6m50.29,1.62l.26.62c-1.24.51-2.5.99-3.77,1.42l-.21-.63c1.25-.42,2.5-.9,3.73-1.4m-42.92,1.43c1.26.42,2.54.81,3.82,1.15l-.17.64c-1.29-.34-2.59-.74-3.86-1.17l.21-.63m35.37,1.13l.17.64c-1.29.35-2.61.65-3.93.91l-.13-.65c1.3-.26,2.61-.56,3.88-.9m-27.67.92c1.3.26,2.62.47,3.94.64l-.09.66c-1.33-.17-2.67-.39-3.98-.65l.13-.65m19.85.63l.09.66c-1.33.17-2.68.31-4.01.39l-.04-.67c1.32-.09,2.66-.22,3.97-.39m-11.94.39c1.31.08,2.64.13,3.95.13h.04s0,.67,0,.67h-.03s0,0,0,0c-1.33,0-2.67-.04-3.99-.13l.04-.67m3.95-123.24h-.12s-.75,0-.75,0v2.17h.75s.12,0,.12,0c1.27,0,2.56.04,3.82.12l.75.05.05-.75.04-.67.05-.75-.75-.05c-1.31-.08-2.64-.12-3.96-.12h0Zm-3.45.09l-.75.05c-1.35.09-2.72.23-4.06.4l-.74.1.1.74.09.66.1.74.74-.1c1.29-.17,2.61-.3,3.92-.39l.75-.05-.05-.75-.04-.66-.05-.75h0Zm10.73.33l-.1.74-.08.66-.1.74.74.1c1.3.17,2.61.38,3.89.63l.74.14.14-.74.13-.65.14-.74-.74-.14c-1.33-.26-2.68-.48-4.03-.65l-.74-.1h0Zm-18.83.65l-.74.15c-1.33.27-2.67.58-3.97.93l-.72.19.19.72.17.64.19.72.72-.2c1.26-.34,2.55-.64,3.84-.9l.74-.15-.15-.74-.13-.65-.15-.74h0Zm26.85.82l-.19.73-.17.64-.19.72.72.19c1.26.34,2.53.72,3.77,1.13l.71.24.24-.71.21-.63.24-.71-.71-.24c-1.28-.43-2.6-.83-3.91-1.18l-.73-.19h0Zm-34.76,1.2l-.71.24c-1.28.44-2.56.92-3.81,1.44l-.69.29.29.69.26.62.29.69.69-.29c1.21-.5,2.44-.97,3.68-1.39l.71-.24-.24-.71-.22-.63-.24-.71h0Zm42.53,1.31l-.29.69-.25.62-.29.69.69.29c1.21.5,2.42,1.05,3.59,1.62l.67.33.33-.67.29-.6.33-.67-.67-.33c-1.22-.6-2.47-1.16-3.73-1.68l-.69-.29h0Zm-50.09,1.73l-.67.33c-1.21.6-2.42,1.25-3.59,1.93l-.65.38.38.65.33.58.38.65.65-.38c1.13-.66,2.3-1.28,3.47-1.86l.67-.33-.33-.67-.3-.6-.33-.67h0Zm57.46,1.78l-.37.65-.33.58-.37.65.65.37c1.14.65,2.26,1.35,3.35,2.08l.62.42.42-.62.37-.55.42-.62-.62-.42c-1.13-.75-2.3-1.48-3.47-2.15l-.65-.37h0Zm-64.56,2.22l-.62.42c-1.13.76-2.24,1.56-3.31,2.38l-.59.46.46.59.41.53.46.59.59-.46c1.04-.8,2.11-1.57,3.2-2.3l.62-.42-.42-.62-.37-.55-.42-.62h0Zm71.41,2.22l-.46.6-.4.53-.46.6.6.46c1.04.79,2.06,1.63,3.05,2.5l.56.49.49-.56.44-.5.49-.56-.56-.49c-1.02-.89-2.08-1.76-3.16-2.59l-.6-.46h0Zm-77.93,2.68l-.56.5c-1.02.89-2.02,1.83-2.97,2.79l-.53.53.53.53.47.47.53.53.53-.53c.92-.93,1.89-1.83,2.87-2.7l.56-.5-.5-.56-.44-.5-.5-.56h0Zm84.14,2.62l-.53.53-.47.47-.53.53.53.53c.93.92,1.83,1.89,2.7,2.87l.5.56.56-.5.5-.44.56-.5-.5-.56c-.89-1.01-1.83-2.01-2.8-2.97l-.53-.53h0Zm-89.97,3.09l-.49.56c-.89,1.02-1.76,2.08-2.59,3.16l-.46.6.6.46.53.41.6.46.46-.6c.8-1.04,1.64-2.06,2.5-3.05l.49-.56-.56-.49-.5-.44-.56-.49h0Zm95.43,2.97l-.59.46-.53.41-.59.46.46.59c.8,1.03,1.57,2.11,2.3,3.19l.42.62.62-.42.55-.37.62-.42-.42-.62c-.75-1.12-1.56-2.24-2.39-3.31l-.46-.59h0Zm-100.47,3.45l-.42.62c-.75,1.13-1.48,2.29-2.16,3.47l-.37.65.65.37.58.33.65.37.37-.65c.65-1.13,1.35-2.26,2.08-3.35l.42-.62-.62-.42-.55-.37-.62-.42h0Zm105.1,3.26l-.65.38-.58.33-.65.38.38.65c.66,1.13,1.29,2.3,1.87,3.47l.33.67.67-.33.6-.3.67-.33-.33-.67c-.6-1.21-1.25-2.42-1.93-3.59l-.38-.65h0Zm-109.27,3.76l-.33.67c-.6,1.22-1.17,2.47-1.68,3.72l-.29.69.69.29.62.25.69.29.29-.69c.5-1.21,1.05-2.42,1.62-3.59l.33-.67-.67-.33-.6-.29-.67-.33h0Zm112.98,3.49l-.69.29-.61.26-.69.29.29.69c.5,1.2.97,2.44,1.39,3.68l.24.71.71-.24.63-.22.71-.24-.24-.71c-.44-1.28-.92-2.56-1.45-3.81l-.29-.69h0Zm-116.19,4.02l-.24.71c-.43,1.28-.83,2.6-1.18,3.91l-.19.72.72.19.64.17.72.19.19-.72c.34-1.27.72-2.53,1.14-3.77l.24-.71-.71-.24-.63-.21-.71-.24h0Zm118.93,3.66l-.72.2-.64.17-.72.2.2.72c.34,1.26.64,2.55.9,3.83l.15.74.74-.15.65-.13.74-.15-.15-.74c-.27-1.33-.58-2.67-.93-3.97l-.2-.72h0Zm-121.12,4.2l-.14.74c-.26,1.33-.48,2.69-.65,4.03l-.1.74.74.1.66.09.74.1.1-.74c.17-1.3.38-2.61.63-3.89l.14-.74-.74-.14-.65-.13-.74-.14h0Zm122.82,3.78l-.74.1-.66.09-.74.1.1.74c.17,1.3.3,2.62.39,3.92l.05.75.75-.05.67-.04.75-.05-.05-.75c-.09-1.35-.23-2.72-.41-4.06l-.1-.74h0Zm-123.96,4.3l-.05.75c-.08,1.32-.13,2.66-.13,3.99v.08s0,.75,0,.75h2.17v-.75s0-.08,0-.08c0-1.29.04-2.58.12-3.86l.05-.75-.75-.05-.67-.04-.75-.05h0Zm124.6,3.84h-2.17v.75s0,.16,0,.16c0,1.31-.04,2.63-.13,3.94l-.05.75.75.05.67.04.75.05.05-.75c.09-1.35.13-2.72.13-4.08v-.16s0-.75,0-.75h0Zm-122.53,4.18l-.75.05-.67.04-.75.05.05.75c.09,1.36.22,2.72.4,4.06l.1.74.74-.1.66-.09.74-.1-.1-.74c-.17-1.3-.3-2.61-.39-3.92l-.05-.75h0Zm119.95,3.85l-.1.74c-.17,1.3-.38,2.61-.64,3.89l-.15.74.74.15.65.13.74.15.15-.74c.26-1.33.49-2.69.66-4.03l.1-.74-.74-.1-.66-.09-.74-.1h0Zm-119.02,3.97l-.74.15-.65.13-.74.15.15.74c.26,1.33.58,2.67.93,3.97l.19.72.72-.19.64-.17.72-.19-.19-.72c-.34-1.26-.64-2.55-.9-3.84l-.15-.74h0Zm117.59,3.77l-.19.72c-.34,1.26-.72,2.53-1.14,3.77l-.24.71.71.24.63.21.71.24.24-.71c.44-1.28.83-2.6,1.18-3.91l.19-.72-.72-.19-.64-.17-.72-.19h0Zm-115.64,3.86l-.71.24-.63.21-.71.24.24.71c.44,1.28.92,2.56,1.44,3.81l.29.69.69-.29.62-.26.69-.29-.29-.69c-.5-1.21-.97-2.44-1.39-3.68l-.24-.71h0Zm113.21,3.63l-.29.69c-.5,1.21-1.05,2.42-1.63,3.59l-.33.67.67.33.6.3.67.33.33-.67c.6-1.22,1.17-2.47,1.69-3.72l.29-.69-.69-.29-.62-.26-.69-.29h0Zm-110.28,3.66l-.67.33-.6.3-.67.33.33.67c.6,1.21,1.25,2.42,1.93,3.59l.38.65.65-.38.58-.33.65-.38-.38-.65c-.66-1.13-1.28-2.3-1.86-3.47l-.33-.67h0Zm106.88,3.45l-.38.65c-.65,1.13-1.36,2.26-2.09,3.35l-.42.62.62.42.55.37.62.42.42-.62c.75-1.13,1.48-2.29,2.16-3.47l.38-.65-.65-.38-.58-.33-.65-.38h0Zm-103.01,3.41l-.62.42-.55.37-.62.42.42.62c.75,1.12,1.55,2.24,2.38,3.31l.46.59.59-.46.53-.41.59-.46-.46-.59c-.8-1.04-1.57-2.11-2.3-3.2l-.42-.62h0Zm98.71,3.19l-.46.59c-.8,1.04-1.64,2.06-2.5,3.05l-.49.56.56.49.5.44.56.49.49-.56c.9-1.02,1.77-2.08,2.59-3.15l.46-.59-.59-.46-.53-.41-.59-.46h0Zm-93.99,3.1l-.56.5-.5.44-.56.5.49.56c.89,1.02,1.83,2.02,2.79,2.98l.53.53.53-.53.47-.47.53-.53-.53-.53c-.92-.92-1.83-1.89-2.7-2.87l-.5-.56h0Zm88.86,2.88l-.53.53c-.93.92-1.89,1.83-2.88,2.69l-.56.49.5.56.44.5.49.56.56-.49c1.02-.89,2.02-1.83,2.98-2.79l.53-.53-.53-.53-.47-.47-.53-.53h0Zm-83.36,2.75l-.49.56-.44.5-.49.56.56.49c1.02.89,2.08,1.77,3.16,2.59l.59.46.46-.59.41-.53.46-.59-.59-.46c-1.04-.8-2.06-1.64-3.05-2.5l-.56-.49h0Zm77.5,2.51l-.59.46c-1.04.8-2.11,1.57-3.2,2.3l-.62.42.42.62.37.55.42.62.62-.42c1.13-.75,2.24-1.55,3.31-2.38l.59-.46-.46-.59-.41-.53-.46-.59h0Zm-71.31,2.36l-.42.62-.37.55-.42.62.62.42c1.13.75,2.3,1.48,3.47,2.16l.65.38.38-.65.33-.58.37-.65-.65-.38c-1.13-.65-2.26-1.35-3.35-2.08l-.62-.42h0Zm64.83,2.1l-.65.38c-1.13.65-2.3,1.28-3.47,1.86l-.67.33.33.67.3.6.33.67.67-.33c1.21-.6,2.42-1.25,3.59-1.93l.65-.38-.38-.65-.33-.58-.38-.65h0Zm-58.05,1.93l-.33.67-.29.6-.33.67.67.33c1.22.6,2.47,1.17,3.72,1.69l.69.29.29-.69.25-.62.29-.69-.69-.29c-1.21-.5-2.41-1.05-3.59-1.63l-.67-.33h0Zm51.04,1.65l-.69.29c-1.21.5-2.44.97-3.68,1.39l-.71.24.24.71.21.63.24.71.71-.24c1.28-.43,2.56-.92,3.81-1.44l.69-.29-.29-.69-.26-.62-.29-.69h0Zm-43.79,1.46l-.24.71-.21.63-.24.71.71.24c1.28.43,2.6.83,3.91,1.18l.72.19.19-.72.17-.64.19-.72-.72-.19c-1.26-.34-2.53-.72-3.77-1.14l-.71-.24h0Zm36.38,1.17l-.72.19c-1.26.34-2.55.64-3.84.89l-.74.15.15.74.13.65.15.74.74-.15c1.33-.26,2.67-.57,3.98-.93l.72-.19-.19-.72-.17-.64-.19-.72h0Zm-28.79.96l-.15.74-.13.65-.14.74.74.15c1.33.26,2.68.48,4.03.66l.74.1.1-.74.09-.66.1-.74-.74-.1c-1.3-.17-2.61-.38-3.89-.63l-.74-.15h0Zm21.09.67l-.74.1c-1.3.17-2.62.3-3.92.38l-.75.05.05.75.04.67.05.75.75-.05c1.35-.09,2.72-.22,4.06-.4l.74-.1-.1-.74-.09-.66-.1-.74h0Zm-13.29.44l-.05.75-.04.67-.05.75.75.05c1.34.09,2.7.13,4.04.13h.75l.04-.75v-1.42h-.76s0,0-.01,0c-1.32,0-2.63-.04-3.92-.12l-.75-.05h0Z"/>
        </g>
        <g>
          <path class="cls-1" d="m100.36,140.61h.38c1.29,0,2.59-.06,3.87-.18l.37-.03.13,1.41-.37.03c-1.32.12-2.66.18-4,.18h-.38s0-1.42,0-1.42Zm-3.62,1.24c-1.33-.12-2.66-.3-3.97-.55l-.37-.07.26-1.39.37.07c1.26.23,2.55.41,3.84.53l.37.03-.13,1.41-.37-.03Zm11.33-1.88l.37-.07c1.26-.24,2.53-.53,3.77-.89l.36-.1.39,1.36-.36.1c-1.28.36-2.59.67-3.9.91l-.37.07-.26-1.39Zm-19.2.42c-1.28-.36-2.56-.79-3.8-1.27l-.35-.14.51-1.32.35.14c1.2.46,2.43.88,3.67,1.23l.36.1-.39,1.36-.36-.1Zm26.66-2.47l.35-.14c1.2-.47,2.39-.99,3.54-1.57l.34-.17.63,1.27-.34.17c-1.19.6-2.42,1.14-3.66,1.62l-.35.14-.51-1.32Zm-34.12-.41c-1.19-.59-2.37-1.25-3.5-1.95l-.32-.2.75-1.2.32.2c1.09.68,2.23,1.31,3.38,1.89l.34.17-.63,1.27-.34-.17Zm41.07-2.98l.32-.2c1.09-.68,2.17-1.42,3.19-2.19l.3-.23.85,1.13-.3.23c-1.06.8-2.17,1.57-3.3,2.27l-.32.2-.75-1.2Zm-47.88-1.23c-1.06-.8-2.09-1.66-3.08-2.56l-.28-.25.95-1.05.28.25c.95.87,1.95,1.7,2.98,2.47l.3.23-.85,1.13-.3-.23Zm54.09-3.38l.28-.25c.95-.87,1.87-1.79,2.74-2.74l.25-.28,1.05.95-.25.28c-.9.98-1.85,1.94-2.83,2.83l-.28.25-.95-1.05Zm-60-2c-.9-.98-1.76-2.02-2.56-3.08l-.23-.3,1.13-.85.23.3c.78,1.03,1.61,2.03,2.48,2.98l.25.28-1.05.96-.25-.28Zm65.27-3.67l.23-.3c.77-1.03,1.51-2.1,2.19-3.19l.2-.32,1.2.75-.2.32c-.7,1.12-1.46,2.24-2.27,3.3l-.23.3-1.13-.85Zm-70.1-2.71c-.7-1.13-1.36-2.31-1.95-3.49l-.17-.34,1.27-.63.17.34c.57,1.15,1.21,2.28,1.89,3.38l.2.32-1.2.75-.2-.32Zm74.23-3.83l.17-.34c.57-1.15,1.1-2.34,1.57-3.54l.14-.35,1.32.51-.14.35c-.48,1.24-1.03,2.47-1.62,3.66l-.17.34-1.27-.63Zm-77.81-3.32c-.48-1.24-.91-2.52-1.28-3.8l-.1-.36,1.36-.39.1.36c.35,1.24.77,2.47,1.23,3.67l.14.35-1.32.51-.14-.35Zm80.67-3.87l.1-.36c.35-1.24.65-2.51.88-3.77l.07-.37,1.39.26-.07.37c-.24,1.31-.55,2.62-.91,3.9l-.1.36-1.36-.39Zm-82.87-3.82c-.24-1.3-.43-2.64-.55-3.96l-.03-.37,1.41-.13.03.37c.12,1.28.3,2.57.53,3.84l.07.37-1.39.26-.07-.37Zm84.35-3.77l.03-.37c.12-1.28.18-2.58.18-3.87v-.38l.38-.1h1.04v.38c0,1.43-.06,2.78-.18,4.1l-.03.37-1.41-.13Zm-85.09-3.82v-.38c0-1.37.06-2.69.18-4l.03-.37,1.41.13-.03.37c-.11,1.26-.17,2.55-.17,3.82v.38l-.38.05h-1.04Zm85.11-4.39c-.12-1.29-.3-2.58-.54-3.83l-.07-.37,1.39-.26.07.37c.25,1.31.43,2.64.56,3.96l.03.37-1.41.13-.04-.37Zm-84.46-3.58l.07-.37c.24-1.3.55-2.62.91-3.9l.1-.36,1.36.39-.1.36c-.35,1.24-.65,2.51-.88,3.77l-.07.37-1.39-.26Zm83.03-4.02c-.35-1.24-.77-2.47-1.24-3.67l-.14-.35,1.32-.52.14.35c.48,1.24.92,2.52,1.28,3.79l.1.36-1.36.39-.1-.36Zm-80.92-3.69l.14-.35c.48-1.24,1.02-2.47,1.61-3.67l.17-.34,1.27.63-.17.34c-.57,1.15-1.1,2.35-1.56,3.54l-.13.35-1.32-.51Zm78.11-3.51c-.57-1.15-1.21-2.28-1.89-3.38l-.2-.32,1.2-.75.2.32c.7,1.13,1.36,2.3,1.96,3.49l.17.34-1.27.63-.17-.33Zm-74.61-3.68l.2-.32c.7-1.13,1.46-2.24,2.26-3.3l.23-.3,1.13.85-.23.3c-.78,1.03-1.51,2.1-2.19,3.2l-.2.32-1.2-.74Zm70.52-2.89c-.78-1.02-1.61-2.03-2.48-2.97l-.25-.28,1.04-.96.25.28c.9.98,1.76,2.01,2.57,3.07l.23.3-1.13.86-.23-.3Zm-65.75-3.54l.25-.28c.89-.98,1.84-1.93,2.83-2.83l.28-.25.96,1.04-.28.25c-.95.87-1.87,1.79-2.74,2.74l-.25.28-1.05-.95Zm60.53-2.16c-.95-.86-1.95-1.7-2.98-2.47l-.3-.23.85-1.13.3.23c1.06.8,2.1,1.66,3.08,2.55l.28.25-.95,1.05-.28-.25Zm-54.67-3.29l.3-.23c1.06-.8,2.17-1.57,3.3-2.27l.32-.2.75,1.2-.32.2c-1.09.68-2.16,1.42-3.19,2.2l-.3.23-.86-1.13Zm48.49-1.37c-1.1-.68-2.23-1.31-3.39-1.88l-.34-.17.63-1.27.34.17c1.19.59,2.37,1.25,3.5,1.95l.32.2-.74,1.21-.32-.2Zm-41.73-2.92l.34-.17c1.19-.6,2.42-1.14,3.66-1.62l.35-.14.51,1.32-.35.14c-1.2.47-2.39,1-3.54,1.57l-.34.17-.63-1.27Zm34.8-.53c-1.2-.46-2.44-.88-3.67-1.22l-.36-.1.39-1.36.36.1c1.28.36,2.56.79,3.8,1.26l.35.14-.51,1.32-.35-.13Zm-27.38-2.44l.36-.1c1.28-.37,2.59-.67,3.9-.92l.37-.07.26,1.39-.37.07c-1.27.24-2.53.54-3.77.89l-.36.1-.39-1.36Zm19.93.34c-1.26-.23-2.55-.41-3.84-.52l-.37-.03.13-1.41.37.03c1.33.12,2.66.3,3.97.54l.37.07-.26,1.39-.37-.07Zm-12.08-1.89l.37-.04c1.32-.12,2.67-.19,4-.19h.37s0,1.42,0,1.42h-.38c-1.29,0-2.59.06-3.87.18l-.37.03-.13-1.41Z"/>
          <path class="cls-1" d="m100.64,55.69v.67c-1.3,0-2.61.06-3.9.18h0s-.06-.66-.06-.66c1.31-.12,2.64-.18,3.96-.19m3.96.17c1.31.12,2.64.3,3.93.54l-.12.66c-1.27-.23-2.58-.41-3.87-.53l.06-.66m-11.86.56l.12.65c-1.28.24-2.55.54-3.8.9l-.18-.64c1.27-.36,2.57-.67,3.86-.91m19.66.87c1.27.36,2.54.78,3.77,1.25l-.24.62c-1.21-.47-2.46-.88-3.71-1.23l.18-.64m-27.28,1.31l.24.62c-1.21.47-2.41,1-3.57,1.59l-.3-.6c1.18-.59,2.4-1.13,3.63-1.61m34.68,1.54c1.18.59,2.35,1.24,3.47,1.93l-.35.57c-1.1-.68-2.25-1.32-3.42-1.9l.3-.6m-41.77,2.01l.35.57c-1.1.69-2.18,1.43-3.22,2.22h0s-.4-.53-.4-.53c1.05-.8,2.15-1.55,3.27-2.25m48.52,2.16c1.05.79,2.08,1.64,3.06,2.53l-.45.49c-.96-.87-1.97-1.71-3.01-2.49l.4-.53m-54.84,2.63l.45.49c-.96.88-1.89,1.81-2.76,2.77l-.49-.45c.89-.98,1.83-1.92,2.8-2.81m60.71,2.7c.89.97,1.75,2,2.54,3.05l-.53.4c-.79-1.03-1.63-2.04-2.5-3l.49-.45m-66.04,3.16l.53.4c-.78,1.04-1.52,2.12-2.21,3.23l-.57-.35c.69-1.12,1.45-2.22,2.24-3.28m70.84,3.15c.7,1.12,1.35,2.29,1.94,3.46l-.6.3c-.58-1.16-1.22-2.3-1.91-3.41l.57-.35m-75.01,3.59l.6.3c-.58,1.16-1.11,2.37-1.58,3.58l-.62-.24c.47-1.23,1.01-2.45,1.6-3.63m78.57,3.49c.48,1.23.91,2.49,1.27,3.76l-.64.18c-.36-1.25-.78-2.49-1.25-3.7l.62-.24m-81.42,3.91l.64.18c-.35,1.25-.65,2.53-.89,3.81l-.66-.12c.24-1.3.54-2.6.9-3.87m83.6,3.72c.24,1.29.43,2.61.55,3.93l-.66.06c-.12-1.3-.3-2.6-.54-3.87l.65-.12m-85.04,4.08l.66.06c-.12,1.27-.17,2.57-.17,3.85v.05h-.67v-.05c0-1.3.06-2.62.18-3.91m85.79,3.81v.1c0,1.32-.06,2.66-.18,3.97l-.66-.06c.12-1.29.18-2.6.18-3.9v-.1s.67,0,.67,0m-85.11,4.05c.12,1.29.3,2.6.54,3.87l-.65.12c-.24-1.29-.43-2.62-.55-3.93l.66-.06m83.73,3.82l.66.12c-.24,1.3-.55,2.6-.9,3.86l-.64-.18c.35-1.25.65-2.53.89-3.8m-82.3,3.85c.36,1.25.78,2.49,1.25,3.7l-.62.24c-.48-1.23-.9-2.49-1.26-3.76l.64-.18m80.17,3.66l.62.24c-.48,1.23-1.02,2.45-1.61,3.63l-.6-.3c.58-1.16,1.11-2.36,1.58-3.57m-77.34,3.62c.58,1.16,1.22,2.31,1.91,3.41l-.57.35c-.7-1.12-1.35-2.28-1.94-3.46l.6-.3m73.86,3.37l.57.35c-.69,1.12-1.45,2.22-2.25,3.27l-.53-.4c.78-1.04,1.53-2.12,2.21-3.22m-69.73,3.26c.78,1.03,1.62,2.04,2.5,3l-.49.45c-.89-.97-1.74-2-2.54-3.05l.53-.4m65.03,2.97l.49.45c-.89.97-1.83,1.92-2.81,2.81h0s-.45-.49-.45-.49c.96-.87,1.89-1.8,2.76-2.76m-59.76,2.8c.96.87,1.97,1.71,3.01,2.5l-.4.53c-1.05-.79-2.08-1.65-3.05-2.53l.45-.49m53.99,2.47l.4.53c-1.05.8-2.15,1.55-3.27,2.25h0s-.35-.57-.35-.57c1.1-.68,2.18-1.43,3.22-2.21m-47.76,2.24c1.1.68,2.25,1.32,3.41,1.9l-.3.6c-1.18-.59-2.35-1.24-3.47-1.93l.35-.57m41.13,1.88l.3.6c-1.18.59-2.4,1.13-3.63,1.61h0s-.24-.62-.24-.62c1.21-.47,2.41-1,3.57-1.58m-34.14,1.6c1.21.47,2.46.89,3.71,1.24l-.18.64c-1.27-.36-2.53-.78-3.76-1.26l.24-.62m26.86,1.23l.18.64c-1.27.36-2.57.67-3.86.91h0s-.12-.65-.12-.65c1.28-.24,2.56-.54,3.8-.89m-19.35.9c1.27.24,2.58.42,3.87.53l-.06.66c-1.31-.12-2.64-.3-3.93-.54l.12-.66m11.68.53l.06.66c-1.31.12-2.64.18-3.96.18v-.67c1.3,0,2.61-.06,3.9-.18m-3.25-85.87h-.75c-1.34,0-2.7.07-4.03.19l-.75.07.07.75.06.66.07.75.75-.07c1.27-.12,2.56-.18,3.83-.18h.75s0-.75,0-.75v-.67s0-.75,0-.75h0Zm2.54.11l-.07.75-.06.66-.07.75.75.07c1.27.11,2.55.29,3.8.52l.74.14.14-.74.12-.66.14-.74-.74-.14c-1.32-.24-2.66-.43-4-.55l-.75-.07h0Zm-10.58.5l-.74.14c-1.32.25-2.64.56-3.93.93l-.72.21.21.72.18.64.21.72.72-.21c1.23-.35,2.48-.65,3.73-.88l.74-.14-.14-.74-.12-.65-.14-.74h0Zm18.54.82l-.2.72-.18.64-.2.72.72.2c1.23.35,2.45.75,3.64,1.21l.7.27.27-.7.24-.62.27-.7-.7-.27c-1.25-.48-2.54-.91-3.83-1.28l-.72-.2h0Zm-26.34,1.26l-.7.27c-1.25.49-2.49,1.04-3.69,1.64l-.67.34.34.67.3.6.34.67.67-.34c1.14-.57,2.32-1.09,3.51-1.56l.7-.27-.27-.7-.24-.62-.27-.7h0Zm33.92,1.51l-.33.67-.3.6-.33.67.67.33c1.14.57,2.27,1.2,3.36,1.86l.64.39.39-.64.35-.57.39-.64-.64-.39c-1.14-.71-2.33-1.37-3.53-1.96l-.67-.33h0Zm-41.19,1.98l-.64.4c-1.14.71-2.26,1.48-3.33,2.29l-.6.45.45.6.4.53.45.6.6-.45c1.02-.77,2.08-1.5,3.16-2.18l.64-.4-.4-.64-.35-.57-.4-.64h0Zm48.13,2.14l-.45.6-.4.53-.45.6.6.45c1.02.77,2.01,1.59,2.96,2.45l.55.5.5-.55.45-.49.5-.56-.56-.5c-.99-.9-2.04-1.77-3.11-2.58l-.6-.45h0Zm-54.64,2.62l-.55.51c-.99.91-1.95,1.87-2.85,2.86l-.5.55.55.5.49.45.55.5.5-.55c.86-.94,1.77-1.86,2.71-2.72l.55-.51-.51-.55-.45-.49-.51-.55h0Zm60.71,2.7l-.55.51-.49.45-.55.51.51.55c.86.94,1.69,1.93,2.46,2.95l.45.6.6-.45.53-.4.6-.45-.45-.6c-.81-1.07-1.68-2.11-2.59-3.1l-.51-.55h0Zm-66.24,3.17l-.45.6c-.81,1.07-1.58,2.19-2.28,3.33l-.39.64.64.39.57.35.64.39.39-.64c.67-1.08,1.4-2.15,2.17-3.17l.45-.6-.6-.45-.53-.4-.6-.45h0Zm71.23,3.17l-.64.4-.57.35-.64.4.4.64c.68,1.08,1.31,2.21,1.88,3.35l.34.67.67-.34.6-.3.67-.34-.34-.67c-.6-1.2-1.27-2.38-1.98-3.52l-.4-.64h0Zm-75.59,3.62l-.33.67c-.6,1.2-1.15,2.45-1.63,3.7l-.27.7.7.27.62.24.7.27.27-.7c.46-1.19.98-2.37,1.55-3.51l.33-.67-.67-.33-.6-.3-.67-.33h0Zm79.33,3.53l-.7.27-.62.24-.7.27.27.7c.46,1.19.88,2.41,1.23,3.64l.21.72.72-.21.64-.18.72-.21-.21-.72c-.37-1.29-.8-2.57-1.29-3.83l-.27-.7h0Zm-82.37,3.95l-.2.72c-.36,1.29-.67,2.62-.92,3.93l-.14.74.74.14.66.12.74.14.14-.74c.23-1.25.52-2.51.87-3.74l.2-.72-.72-.2-.64-.18-.72-.2h0Zm84.72,3.77l-.74.14-.65.12-.74.14.14.74c.23,1.25.41,2.53.53,3.8l.07.75.75-.07.66-.06.75-.07-.07-.75c-.13-1.34-.32-2.69-.56-4l-.14-.74h0Zm-86.32,4.14l-.07.75c-.12,1.32-.18,2.66-.18,3.98v.75l.75.05h1.42v-.75c0-1.31.06-2.59.17-3.84l.07-.75-.75-.07-.66-.06-.75-.07h0Zm87.21,3.88h-2.17v.75s0,.1,0,.1c0,1.28-.06,2.57-.17,3.83l-.07.75.75.07.66.06.75.07.07-.75c.12-1.33.18-2.69.18-4.04v-.1s0-.75,0-.75h0Zm-85.18,3.99l-.75.07-.66.06-.75.07.07.75c.12,1.34.31,2.68.56,4l.14.74.74-.14.65-.12.74-.14-.14-.74c-.23-1.25-.41-2.53-.53-3.8l-.07-.75h0Zm82.46,3.76l-.14.74c-.23,1.25-.53,2.51-.87,3.74l-.2.72.72.2.64.18.72.2.2-.72c.37-1.29.68-2.61.92-3.93l.14-.74-.74-.14-.66-.12-.74-.14h0Zm-81.18,3.8l-.72.21-.64.18-.72.21.21.72c.37,1.29.8,2.58,1.29,3.83l.27.7.7-.27.62-.24.7-.27-.27-.7c-.46-1.19-.87-2.41-1.22-3.64l-.21-.72h0Zm79.22,3.61l-.27.7c-.46,1.19-.98,2.37-1.55,3.51l-.33.67.67.33.6.3.67.33.33-.67c.6-1.2,1.15-2.44,1.63-3.7l.27-.7-.7-.27-.62-.24-.7-.27h0Zm-76.58,3.58l-.67.34-.6.3-.67.34.34.67c.6,1.2,1.26,2.39,1.97,3.52l.4.64.64-.4.57-.35.64-.4-.4-.64c-.67-1.08-1.3-2.21-1.87-3.35l-.34-.67h0Zm73.28,3.34l-.4.64c-.67,1.08-1.4,2.15-2.17,3.17l-.45.6.6.45.53.4.6.45.45-.6c.81-1.07,1.58-2.19,2.28-3.33l.4-.64-.64-.4-.57-.35-.64-.4h0Zm-69.35,3.24l-.6.45-.53.4-.6.45.45.6c.81,1.07,1.68,2.11,2.58,3.1l.51.55.55-.51.49-.45.55-.51-.51-.55c-.86-.94-1.69-1.93-2.46-2.95l-.45-.6h0Zm64.83,2.96l-.51.55c-.86.94-1.77,1.86-2.71,2.72l-.55.51.51.55.45.49.51.55.55-.51c.99-.9,1.95-1.86,2.86-2.86l.51-.55-.55-.51-.49-.45-.55-.51h0Zm-59.76,2.8l-.5.55-.45.49-.51.55.55.51c.99.9,2.04,1.77,3.11,2.58l.6.45.45-.6.4-.53.45-.6-.6-.45c-1.02-.77-2.01-1.59-2.95-2.45l-.55-.5h0Zm54.19,2.48l-.6.45c-1.02.77-2.08,1.5-3.16,2.17l-.64.4.4.64.35.57.4.64.64-.4c1.14-.71,2.26-1.48,3.33-2.29l.6-.45-.45-.6-.4-.53-.45-.6h0Zm-48.15,2.25l-.39.64-.35.57-.39.64.64.39c1.14.71,2.33,1.37,3.53,1.97l.67.33.33-.67.3-.6.33-.67-.67-.33c-1.14-.57-2.27-1.2-3.35-1.87l-.64-.39h0Zm41.71,1.91l-.67.34c-1.14.57-2.32,1.09-3.51,1.55l-.7.27.27.7.24.62.27.7.7-.27c1.25-.48,2.49-1.03,3.69-1.63l.67-.33-.33-.67-.3-.6-.33-.67h0Zm-34.9,1.64l-.27.7-.24.62-.27.7.7.27c1.25.48,2.54.91,3.83,1.28l.72.2.2-.72.18-.64.2-.72-.72-.2c-1.23-.35-2.45-.76-3.64-1.22l-.7-.27h0Zm27.81,1.27l-.72.21c-1.23.35-2.48.64-3.74.88l-.74.14.14.74.12.65.14.74.74-.14c1.32-.25,2.64-.56,3.93-.92l.72-.21-.21-.72-.18-.64-.21-.72h0Zm-20.47.95l-.14.74-.12.66-.14.74.74.14c1.32.24,2.66.43,4,.55l.75.07.07-.75.06-.66.07-.75-.75-.07c-1.27-.12-2.55-.29-3.8-.52l-.74-.14h0Zm12.96.59l-.75.07c-1.27.12-2.56.18-3.84.18h-.75s0,.75,0,.75v.67s0,.75,0,.75h.75c1.34,0,2.7-.06,4.03-.19l.75-.07-.07-.75-.06-.66-.07-.75h0Z"/>
        </g>
        <g>
          <path class="cls-1" d="m101.38,187.03c-.22,0-.45,0-.67,0-18.59-.05-36.4-5.78-51.52-16.59C16.7,147.12,3.92,104.71,18.12,67.31c6.71-17.55,18.53-32.26,34.21-42.57l-3.08-2.47,1.43.25c.61.11,1.34.16,2.15.16,1.33,0,2.88-.15,4.23-.42l.99-.19-.63.79c-1.07,1.36-2.54,3.63-3.15,5.55l-.44,1.38-.78-3.83C21.07,46.89,6.44,87,17.46,123.68c10.96,36.46,45.17,61.93,83.21,61.93.21,0,.43,0,.65,0l-1.48-3.62,1.13.91c1.57,1.26,4.05,2.34,5.7,2.88l.96.31-.93.39c-1.6.67-3.99,1.94-5.45,3.32l-1.05.99,1.19-3.76Z"/>
          <path class="cls-1" d="m57.13,22.63c-1.25,1.58-2.63,3.83-3.22,5.67l-.6-2.96C20.84,46.3,5.95,86.68,17.1,123.79c11.07,36.85,45.29,62.2,83.57,62.2.4,0,.8,0,1.2,0l-1.14-2.79c1.5,1.21,3.9,2.31,5.82,2.94-1.86.78-4.16,2.07-5.57,3.39l.91-2.87c-.39,0-.79.01-1.18.01-18.4-.05-36.33-5.82-51.3-16.52C17.01,146.88,4.32,104.73,18.47,67.45c6.69-17.52,18.77-32.46,34.5-42.68l-2.35-1.89c.67.11,1.42.16,2.21.16,1.46,0,3.02-.17,4.3-.42m1.84-1.12l-1.98.39c-1.33.26-2.85.41-4.16.41-.79,0-1.49-.05-2.08-.15l-2.86-.49,2.26,1.81,1.55,1.24c-15.54,10.34-27.26,25.01-33.93,42.47-14.25,37.55-1.42,80.14,31.21,103.57,15.18,10.85,33.07,16.61,51.74,16.66.05,0,.1,0,.16,0l-.6,1.88-.88,2.76,2.11-1.99c1.43-1.35,3.77-2.59,5.34-3.25l1.87-.78-1.92-.63c-1.62-.53-4.05-1.58-5.58-2.81l-2.26-1.82,1.09,2.68.72,1.77s-.06,0-.09,0c-18.64,0-36.46-5.92-51.54-17.13-15.1-11.22-25.93-26.62-31.31-44.53-10.92-36.35,3.45-76.07,34.98-97l.38,1.87.58,2.84.87-2.76c.59-1.87,2.03-4.1,3.09-5.43l1.25-1.59h0Z"/>
        </g>
        <g>
          <path class="cls-1" d="m148.3,171.86c.99-1.42,2.33-3.77,2.82-5.73l.36-1.4,1,3.78c21.26-15.77,34.04-39.94,35.08-66.41.92-23.21-7.26-45.38-23.03-62.44-15.64-16.92-36.89-26.8-59.88-27.84l1.28,3.7-1.08-.97c-1.5-1.34-3.92-2.55-5.54-3.17l-.94-.36.95-.34c1.63-.58,4.08-1.72,5.62-3.03l1.1-.94-1.39,3.69c37.48,1.69,69.84,26.89,80.65,62.85,10.7,35.62-2.17,74.31-32.03,96.43l3.21,2.28-1.44-.16c-.37-.04-.77-.06-1.21-.06-1.53,0-3.45.26-5.14.69l-.98.25.58-.83Z"/>
          <path class="cls-1" d="m105.19,7.94l-1.06,2.82c37.54,1.47,70.01,26.62,80.82,62.61,10.73,35.71-2.22,74.3-32.31,96.33l2.46,1.75c-.39-.04-.81-.06-1.25-.06-1.71,0-3.68.3-5.23.7,1.16-1.65,2.4-3.98,2.88-5.85l.77,2.92c21.49-15.73,34.63-40.41,35.68-67.02,1.9-48.19-35.63-88.8-83.82-90.69l.99,2.85c-1.44-1.29-3.77-2.52-5.65-3.24,1.9-.68,4.27-1.84,5.74-3.09m1.72-2.45l-2.21,1.87c-1.5,1.27-3.9,2.39-5.5,2.96l-1.91.68,1.89.73c1.59.61,3.96,1.79,5.42,3.1l2.16,1.93-.95-2.74-.63-1.81c47.17,2.45,83.86,42.53,82,89.87-.51,12.95-4,25.83-10.08,37.27-5.91,11.11-14.34,20.95-24.4,28.52l-.49-1.85-.74-2.8-.71,2.81c-.48,1.9-1.79,4.21-2.76,5.6l-1.16,1.66,1.96-.5c1.66-.43,3.55-.68,5.05-.68.42,0,.82.02,1.17.06l2.88.32-2.36-1.68-1.61-1.15c29.69-22.27,42.44-60.92,31.75-96.53-10.8-35.95-43.06-61.19-80.47-63.09l.7-1.85,1.02-2.71h0Z"/>
        </g>
        <circle class="cls-1" cx="100.71" cy="98.67" r="13.66"/>
      </g>
    </g>
  </g>
</svg>