<?xml version="1.0" encoding="UTF-8"?>
<svg id="projects_page_helper_image" data-name="projects page helper image" xmlns="http://www.w3.org/2000/svg" viewBox="0 0 340 100">
  <defs>
    <style>
      .cls-1 {
        fill: #2f2e41;
      }

      .cls-1, .cls-2, .cls-3, .cls-4, .cls-5, .cls-6 {
        stroke-width: 0px;
      }

      .cls-2 {
        fill: #ccc;
      }

      .cls-3 {
        fill: #fff;
      }

      .cls-4 {
        fill: #ffb8b8;
      }

      .cls-5 {
        fill: #f06467;
      }

      .cls-6 {
        fill: #e6e6e6;
      }
    </style>
  </defs>
  <g id="_340_wide_100_high" data-name="340 wide 100 high">
    <path id="ground" class="cls-2" d="m338.39,98.12H1.33c-.18,0-.33-.06-.33-.12s.15-.12.33-.12h337.05c.18,0,.33.06.33.12s-.15.12-.33.12Z"/>
    <g id="subscriptions">
      <g>
        <path id="Path_204-44" data-name="Path 204-44" class="cls-6" d="m49.41,49.37c-10.43,0-18.9-8.45-18.9-18.88,0-10.43,8.45-18.9,18.88-18.9h171.97c10.43,0,18.89,8.46,18.89,18.89s-8.46,18.89-18.89,18.89H49.41Z"/>
        <path id="Path_205-45" data-name="Path 205-45" class="cls-3" d="m49.41,14.04c-9.07,0-16.43,7.36-16.43,16.43s7.36,16.43,16.43,16.43h171.95c9.07,0,16.43-7.36,16.43-16.43s-7.36-16.43-16.43-16.43H49.41Z"/>
        <rect id="Rectangle_15" data-name="Rectangle 15" class="cls-6" x="101.02" y="14.04" width=".55" height="32.86"/>
        <rect id="Rectangle_17" data-name="Rectangle 17" class="cls-6" x="169.2" y="14.04" width=".55" height="32.86"/>
        <rect id="Rectangle_7" data-name="Rectangle 7" class="cls-5" x="101.57" y="14.04" width="67.63" height="32.86"/>
        <path id="Path_198-46" data-name="Path 198-46" class="cls-3" d="m135.42,20.46c-5.55,0-10.05,4.5-10.05,10.05s4.5,10.05,10.05,10.05,10.05-4.5,10.05-10.05-4.5-10.05-10.05-10.05h0Zm0,3.01c1.66,0,3.01,1.35,3.01,3.01s-1.35,3.01-3.01,3.01c-1.66,0-3.01-1.35-3.01-3.01,0-1.66,1.35-3.01,3.01-3.01h0Zm0,14.51c-2.42-.01-4.67-1.22-6.03-3.22.05-2.01,4.02-3.12,6.03-3.12s5.98,1.11,6.03,3.12c-1.36,2-3.61,3.2-6.03,3.22Z"/>
        <path id="Path_200-47" data-name="Path 200-47" class="cls-6" d="m67.24,20.46c-5.55,0-10.05,4.5-10.05,10.05s4.5,10.05,10.05,10.05,10.05-4.5,10.05-10.05-4.5-10.05-10.05-10.05h0Zm0,3.01c1.66,0,3.01,1.35,3.01,3.01,0,1.66-1.35,3.01-3.01,3.01-1.66,0-3.01-1.35-3.01-3.01s1.35-3.01,3.01-3.01h0Zm0,14.51c-2.42-.01-4.67-1.22-6.03-3.22.05-2.01,4.02-3.12,6.03-3.12s5.98,1.11,6.03,3.12c-1.36,2-3.61,3.2-6.03,3.22Z"/>
        <path id="Path_242-48" data-name="Path 242-48" class="cls-6" d="m203.53,20.46c-5.55,0-10.05,4.5-10.05,10.05s4.5,10.05,10.05,10.05,10.05-4.5,10.05-10.05-4.5-10.05-10.05-10.05h0Zm0,3.01c1.66,0,3.01,1.35,3.01,3.01,0,1.66-1.35,3.01-3.01,3.01-1.66,0-3.01-1.35-3.01-3.01s1.35-3.01,3.01-3.01h0Zm0,14.51c-2.42-.01-4.67-1.22-6.03-3.22.05-2.01,4.02-3.12,6.03-3.12s5.98,1.11,6.03,3.12c-1.36,2-3.61,3.2-6.03,3.22Z"/>
        <rect id="Rectangle_9" data-name="Rectangle 9" class="cls-5" x="123.69" y="63.14" width="23.45" height="23.45" rx="2.51" ry="2.51"/>
        <rect id="Rectangle_12" data-name="Rectangle 12" class="cls-6" x="191.81" y="63.06" width="23.45" height="23.45" rx="2.51" ry="2.51"/>
        <rect id="Rectangle_13" data-name="Rectangle 13" class="cls-3" x="195.16" y="66.32" width="17.08" height="17.08"/>
        <path id="Path_202-49" data-name="Path 202-49" class="cls-3" d="m134.32,78.5l-2.96-3.81,1.72-1.34,1.4,1.8,4.74-5,1.58,1.5-6.49,6.85Z"/>
        <path id="Path_203-50" data-name="Path 203-50" class="cls-6" d="m202.54,78.5l-2.96-3.81,1.72-1.34,1.4,1.8,4.74-5,1.58,1.5-6.49,6.85Z"/>
        <rect id="Rectangle_18" data-name="Rectangle 18" class="cls-6" x="55.52" y="63.06" width="23.45" height="23.45" rx="2.51" ry="2.51"/>
        <rect id="Rectangle_19" data-name="Rectangle 19" class="cls-3" x="58.87" y="66.32" width="17.08" height="17.08"/>
        <path id="Path_243-51" data-name="Path 243-51" class="cls-6" d="m66.25,78.5l-2.96-3.81,1.72-1.34,1.4,1.8,4.74-5,1.58,1.5-6.49,6.85Z"/>
      </g>
      <g id="Group_15" data-name="Group 15">
        <path id="Path_257-52" data-name="Path 257-52" class="cls-4" d="m307.4,95.31h-2.74l-1.3-10.56h4.04v10.56Z"/>
        <path id="Path_258-53" data-name="Path 258-53" class="cls-1" d="m302.71,94.53h5.28v3.32h-8.61c0-1.84,1.49-3.32,3.32-3.32Z"/>
        <path id="Path_259-54" data-name="Path 259-54" class="cls-4" d="m279.42,95.31h-2.74l-1.3-10.56h4.04v10.56Z"/>
        <path id="Path_260-55" data-name="Path 260-55" class="cls-1" d="m274.73,94.53h5.28v3.32h-8.61c0-1.84,1.49-3.32,3.32-3.32h0Z"/>
        <path id="Path_261-56" data-name="Path 261-56" class="cls-1" d="m288.57,16.96v-1.2c0-4.27,3.46-7.72,7.72-7.72h0c4.27,0,7.72,3.46,7.72,7.72v1.2c0,3.08-2.49,5.57-5.57,5.57h-4.31c-3.08,0-5.57-2.49-5.57-5.57h0Z"/>
        <circle id="Ellipse_36" data-name="Ellipse 36" class="cls-4" cx="296.3" cy="17.06" r="5.88"/>
        <path id="Path_263-57" data-name="Path 263-57" class="cls-4" d="m264.3,37.28c.9-.85,2.32-.81,3.18.09.09.1.17.2.25.31l5.04-.95,1.33,2.92-7.14,1.25c-1.09.61-2.46.23-3.08-.86-.51-.91-.34-2.05.43-2.76Z"/>
        <path id="Path_264-58" data-name="Path 264-58" class="cls-2" d="m291.71,26.65l.07.1-8.27,5.45-13.95,4.46c-.38.12-.62.5-.58.9l.3,2.62c.05.46.47.79.93.74.03,0,.05,0,.08-.01l13.13-2.82c.64-.14,1.24-.4,1.77-.78l9.29-6.61c1.07-.77,1.33-2.26.56-3.33-.75-1.05-2.19-1.32-3.26-.61l-.07-.1Z"/>
        <path id="Path_265-59" data-name="Path 265-59" class="cls-1" d="m304.71,92.31c-.43,0-.82-.25-.99-.65l-12.55-31.02c-.08-.18-.29-.27-.47-.19-.1.04-.17.12-.2.22l-10.24,30.2c-.18.57-.78.89-1.35.71-.02,0-.04-.01-.06-.02l-3.43-1.29c-.38-.14-.65-.48-.69-.89-1.55-13.46,11.93-47.43,12.06-47.78l.04-.09,12.28,2.72.03.03c4.9,5.35,8.93,39.06,9.69,45.77.06.5-.24.97-.71,1.14l-3.03,1.07c-.11.04-.24.06-.36.06h0Z"/>
        <path id="Path_266-60" data-name="Path 266-60" class="cls-2" d="m294.13,45.34c-2.98,0-6.29-.59-7.31-3.04l-.02-.06.03-.05c.81-1.32,1.87-3.58,1.3-4-1.13-.83-1.68-2.21-1.63-4.08.11-4.06,2.87-7.67,6.89-8.98h0c1.12-.36,2.26-.65,3.42-.88,1.7-.34,3.47.09,4.82,1.19,1.37,1.11,2.16,2.76,2.18,4.52.04,4.34-.63,10.39-4.05,14.54-.16.19-.38.32-.63.37-1.65.3-3.32.45-4.99.47Z"/>
        <path id="Path_267-61" data-name="Path 267-61" class="cls-4" d="m293.02,45.18c.34-1.21,1.58-1.92,2.8-1.6.12.03.23.08.35.13l3.83-3.48,2.66,1.79-5.48,4.85c-.51.92-1.58,1.37-2.59,1.1-1.2-.33-1.9-1.57-1.58-2.76,0,0,0-.01,0-.02Z"/>
        <path id="Path_268-62" data-name="Path 268-62" class="cls-2" d="m299.39,45.22c-.25,0-.49-.09-.68-.24l-1.51-1.23c-.46-.38-.53-1.06-.15-1.52.05-.06.11-.12.18-.17l6.33-4.86c.16-.12.19-.34.07-.5l-3.91-5.17c-.94-1.24-.85-2.97.21-4.1h0c1.12-1.21,2.98-1.36,4.28-.34l.02.03,4.08,5.85c1.58,1.24,1.86,3.53.62,5.11-.2.26-.44.49-.7.68l-8.2,6.26c-.19.14-.41.21-.64.21h0Z"/>
        <path id="Path_269-63" data-name="Path 269-63" class="cls-1" d="m291.08,15.41v-2.92l5.21-2.28,4.97,2.28v2.92c0,.26-.21.48-.48.48h-9.22c-.26,0-.48-.21-.48-.48h0Z"/>
        <circle id="Ellipse_30" data-name="Ellipse 30" class="cls-1" cx="300.75" cy="7.73" r="3.27"/>
        <path id="Path_185-64" data-name="Path 185-64" class="cls-1" d="m297.74,5.98c0-1.8,1.46-3.27,3.26-3.27.22,0,.43.02.64.06-1.63-.77-3.58-.07-4.35,1.56-.77,1.63-.07,3.58,1.56,4.35.24.11.49.2.75.25-1.14-.54-1.88-1.69-1.88-2.95h0Z"/>
      </g>
    </g>
  </g>
</svg>