<?xml version="1.0" encoding="UTF-8"?>
<svg id="projects_page_helper_image" data-name="projects page helper image" xmlns="http://www.w3.org/2000/svg" viewBox="0 0 200 100">
  <defs>
    <style>
      .cls-1 {
        fill: #f2f2f2;
      }

      .cls-2 {
        fill: #e6e6e6;
      }

      .cls-3 {
        fill: #fff;
      }

      .cls-4 {
        fill: #ffb8b8;
      }

      .cls-5 {
        fill: #ff6366;
      }

      .cls-6 {
        fill: #ff6584;
      }

      .cls-7 {
        fill: #a0616a;
      }

      .cls-8 {
        fill: #ccc;
      }

      .cls-9 {
        fill: #3f3d56;
      }

      .cls-10 {
        fill: #2f2e41;
      }
    </style>
  </defs>
  <path id="ground" class="cls-8" d="M197.86,98.24H1.84c-.41,0-.74-.11-.74-.24s.33-.24,.74-.24H197.86c.41,0,.74,.11,.74,.24s-.33,.24-.74,.24Z"/>
  <g id="start_a_new_project" data-name="start a new project">
    <circle class="cls-1" cx="65.23" cy="12.92" r="1.34"/>
    <circle class="cls-1" cx="59.88" cy="12.92" r="1.34"/>
    <circle class="cls-1" cx="54.54" cy="12.92" r="1.34"/>
    <circle class="cls-1" cx="49.19" cy="12.92" r="1.34"/>
    <circle class="cls-1" cx="65.23" cy="18.52" r="1.34"/>
    <circle class="cls-1" cx="59.88" cy="18.52" r="1.34"/>
    <circle class="cls-1" cx="54.54" cy="18.52" r="1.34"/>
    <circle class="cls-1" cx="49.19" cy="18.52" r="1.34"/>
    <circle class="cls-1" cx="65.23" cy="24.12" r="1.34"/>
    <circle class="cls-1" cx="59.88" cy="24.12" r="1.34"/>
    <circle class="cls-1" cx="54.54" cy="24.12" r="1.34"/>
    <circle class="cls-1" cx="49.19" cy="24.12" r="1.34"/>
    <circle class="cls-1" cx="65.23" cy="29.72" r="1.34"/>
    <circle class="cls-1" cx="59.88" cy="29.72" r="1.34"/>
    <circle class="cls-1" cx="54.54" cy="29.72" r="1.34"/>
    <circle class="cls-1" cx="49.19" cy="29.72" r="1.34"/>
    <circle class="cls-1" cx="65.23" cy="35.31" r="1.34"/>
    <circle class="cls-1" cx="59.88" cy="35.31" r="1.34"/>
    <circle class="cls-1" cx="54.54" cy="35.31" r="1.34"/>
    <circle class="cls-1" cx="49.19" cy="35.31" r="1.34"/>
    <circle class="cls-1" cx="65.23" cy="40.91" r="1.34"/>
    <circle class="cls-1" cx="59.88" cy="40.91" r="1.34"/>
    <circle class="cls-1" cx="54.54" cy="40.91" r="1.34"/>
    <circle class="cls-1" cx="49.19" cy="40.91" r="1.34"/>
    <path class="cls-8" d="M53.44,77.49v.41c0,1.43,1.16,2.59,2.59,2.59h18.66c1.43,0,2.59-1.16,2.59-2.59v-.41c0-.61-.21-1.19-.6-1.66-.13-.15-.28-.29-.44-.41,0,0-10.26-.23-10.26-.52h-9.95c-1.43,0-2.59,1.16-2.59,2.59Z"/>
    <rect class="cls-8" x="64.17" y="80.4" width="2.7" height="17.42"/>
    <path class="cls-8" d="M74.53,97.72c0,.29-4.08,.11-9.12,.11s-9.12,.18-9.12-.11,4.08-2.6,9.12-2.6,9.12,2.31,9.12,2.6Z"/>
    <path class="cls-7" d="M70.83,77.14c.74-.99,.53-2.38-.46-3.12-.11-.08-.22-.15-.33-.21l-5.71-19.47-4.35,2.13,6.98,18.46c-.48,1.14,.06,2.45,1.2,2.93,.95,.4,2.06,.1,2.67-.74h0Z"/>
    <path class="cls-5" d="M65.62,57.6l-4.87,1.32c-.53,.14-1.08-.17-1.23-.7-.01-.05-.02-.1-.03-.14l-.59-4.99c-.39-1.48,.49-3,1.97-3.39,1.47-.39,2.99,.48,3.39,1.96l2.01,4.59c.22,.51-.01,1.09-.52,1.31-.04,.02-.09,.04-.14,.05h0Z"/>
    <polygon class="cls-7" points="72.1 95.68 74.64 95.68 75.85 89.08 72.1 89.08 72.1 95.68"/>
    <path class="cls-10" d="M71.45,94.85h5.01s0,0,0,0c1.76,0,3.19,1.43,3.19,3.19h0v.1h-8.2s0-3.29,0-3.29Z"/>
    <path class="cls-10" d="M75.05,92.14s-.06,0-.09,0l-3.52-.26c-.51-.05-.89-.5-.84-1.02,0-.08,.03-.16,.05-.23l4.71-10.58c.07-.19,.05-.4-.04-.58-.09-.18-.26-.31-.46-.36-2.21-.58-7.89-2.12-12.81-3.92-2.11-.77-3.43-1.89-3.94-3.32-.67-1.88,.32-3.6,.37-3.67l.03-.06,4.63,.42,5.02,.43,10.99,5.89c1.91,1.03,2.71,3.36,1.83,5.35l-5.07,11.36c-.15,.34-.48,.55-.85,.55Z"/>
    <circle class="cls-7" cx="63.94" cy="42.54" r="5.09"/>
    <polygon class="cls-7" points="70.65 95.47 73.19 95.47 74.4 88.88 70.65 88.88 70.65 95.47"/>
    <path class="cls-10" d="M70,94.64h5.01s0,0,0,0c1.76,0,3.19,1.43,3.19,3.19h0v.1h-8.2s0-3.29,0-3.29Z"/>
    <path class="cls-10" d="M73.6,92.76s-.06,0-.09,0l-3.52-.26c-.51-.05-.89-.5-.84-1.02,0-.08,.03-.16,.05-.23l4.71-10.58c.07-.19,.05-.4-.04-.58-.09-.18-.26-.31-.46-.36-2.21-.58-7.89-2.12-12.81-3.92-2.11-.77-3.43-1.89-3.94-3.32-.67-1.88,.32-3.6,.37-3.67l.03-.06,4.63,.42,5.02,.43,10.99,5.89c1.91,1.03,2.71,3.36,1.83,5.35l-5.07,11.36c-.15,.34-.48,.55-.85,.55Z"/>
    <path class="cls-10" d="M65.51,50.52l-5.39-1.87s-3.38,2.6-1.76,9.05c.85,3.33,.6,6.84-.7,10.02-.16,.39-.34,.78-.54,1.15,0,0,6.01,7.26,11.61,1.87l-2.18-10.47s3.42-6.95-1.04-9.75Z"/>
    <path class="cls-10" d="M64.57,47.8c-.72-1.08-1.3-2.59-.5-3.62,.79-1.02,2.34-.87,3.55-1.32,1.68-.63,2.65-2.6,2.35-4.37s-1.72-3.23-3.41-3.83-3.6-.4-5.25,.29c-2.04,.85-3.79,2.49-4.52,4.58s-.34,4.58,1.18,6.18c1.63,1.72,4.19,2.17,6.56,2.15"/>
    <path class="cls-10" d="M59.83,38.55c-.91,.74-2.31,.41-3.29-.24s-1.78-1.58-2.84-2.09c-1.87-.9-4.13-.3-5.95,.7s-3.43,2.38-5.36,3.16-4.38,.82-5.83-.66c-.96,2.79,.52,5.82,3.3,6.78,1.5,.52,3.16,.34,4.52-.49,2.11-1.28,3.27-3.97,5.63-4.68,1.31-.39,2.71-.08,4.03,.27s2.7,.71,4.03,.42,2.58-1.49,2.41-2.84l-.67-.33Z"/>
    <path class="cls-5" d="M76.41,86.53c-.54-3.5-.54-7.07,0-10.57,.07-.43,.44-.75,.88-.75h8.27c.27,0,.53,.12,.7,.34,.17,.22,.23,.5,.17,.77-.77,3.24-.77,6.61,0,9.85,.07,.27,0,.55-.17,.77-.17,.21-.42,.34-.7,.34h-8.27c-.44,0-.81-.32-.88-.75Z"/>
    <path class="cls-3" d="M83.01,80.33h-4.34c-.34,0-.62-.28-.62-.62v-.24c0-.34,.28-.62,.62-.62h4.34c.34,0,.62,.28,.62,.62v.24c0,.34-.28,.62-.62,.62Z"/>
    <path class="cls-3" d="M83.01,82.89h-4.34c-.34,0-.62-.28-.62-.62v-.24c0-.34,.28-.62,.62-.62h4.34c.34,0,.62,.28,.62,.62v.24c0,.34-.28,.62-.62,.62Z"/>
    <path class="cls-7" d="M78.59,76.21c.47-1.14-.08-2.44-1.22-2.9-.12-.05-.25-.09-.38-.12l-10.4-17.42-3.68,3.15,11.38,16.13c-.18,1.22,.67,2.36,1.89,2.54,1.02,.15,2.02-.42,2.4-1.38h0Z"/>
    <path class="cls-10" d="M68.66,58.59l-4.39,2.49c-.48,.27-1.09,.1-1.36-.37-.02-.04-.05-.09-.06-.13l-1.82-4.69c-.75-1.34-.27-3.03,1.06-3.78,1.33-.75,3.01-.28,3.77,1.05l3.09,3.95c.34,.43,.26,1.06-.17,1.4-.04,.03-.08,.06-.12,.08h0Z"/>
    <path class="cls-9" d="M115.32,64.71H31.14c-.74,0-1.35,.6-1.35,1.35s.6,1.35,1.35,1.35h2.38v29.34c0,.74,.6,1.35,1.35,1.35s1.35-.6,1.35-1.35v-26.75l15.11,27.39c.37,.64,1.2,.86,1.84,.49,.64-.37,.86-1.19,.49-1.84l-15.79-28.63H110.03v.02l-15.78,28.61c-.37,.64-.15,1.47,.49,1.84s1.47,.15,1.84-.49l13.45-24.38v23.74c0,.74,.6,1.35,1.35,1.35s1.35-.6,1.35-1.35v-28.63l.39-.71h2.2c.74,0,1.35-.6,1.35-1.35s-.6-1.35-1.35-1.35Z"/>
    <path class="cls-8" d="M64.11,63.88h16.38c.4,0,.73,.32,.73,.73h0c0,.4-.32,.73-.73,.73h-16.38c-.4,0-.73-.32-.73-.73h0c0-.4,.32-.73,.73-.73Z"/>
    <path class="cls-8" d="M91.48,65.33h-18.45c-.74,0-1.35-.6-1.35-1.35v-10.16c0-.74,.6-1.35,1.35-1.35h18.45c.74,0,1.35,.6,1.35,1.35v10.16c0,.74-.6,1.35-1.35,1.35Z"/>
    <circle class="cls-3" cx="82.25" cy="58.9" r="1.24"/>
    <path class="cls-3" d="M107.12,2.7c-.67,0-1.21,.54-1.21,1.21V40.3c0,.67,.54,1.21,1.21,1.21h28.76c.67,0,1.21-.54,1.21-1.21V3.91c0-.67-.54-1.21-1.21-1.21h-28.76Z"/>
    <path class="cls-2" d="M105.56,40.3V3.91c0-.86,.7-1.56,1.56-1.56h28.76c.86,0,1.56,.7,1.56,1.56V40.3c0,.86-.7,1.56-1.56,1.56h-28.76c-.86,0-1.56-.7-1.56-1.56Zm1.56-37.6c-.67,0-1.21,.54-1.21,1.21V40.3c0,.67,.54,1.21,1.21,1.21h28.76c.67,0,1.21-.54,1.21-1.21V3.91c0-.67-.54-1.21-1.21-1.21h-28.76Z"/>
    <path class="cls-5" d="M123.12,19.06v-7.47c0-.43,.35-.78,.78-.78h6.33c.43,0,.78,.35,.78,.78v7.47c0,.43-.35,.78-.78,.78h-6.33c-.43,0-.78-.35-.78-.78Z"/>
    <path class="cls-8" d="M110.81,22.53v-7.47c0-.43,.35-.78,.78-.78h6.33c.43,0,.78,.35,.78,.78v7.47c0,.43-.35,.78-.78,.78h-6.33c-.43,0-.78-.35-.78-.78Z"/>
    <path class="cls-6" d="M120.69,33.1v-7.47c0-.43,.35-.78,.78-.78h6.33c.43,0,.78,.35,.78,.78v7.47c0,.43-.35,.78-.78,.78h-6.33c-.43,0-.78-.35-.78-.78Z"/>
    <circle class="cls-1" cx="168.98" cy="4.8" r="1.34"/>
    <circle class="cls-1" cx="168.98" cy="10.15" r="1.34"/>
    <circle class="cls-1" cx="168.98" cy="15.49" r="1.34"/>
    <circle class="cls-1" cx="168.98" cy="20.83" r="1.34"/>
    <circle class="cls-1" cx="163.38" cy="4.8" r="1.34"/>
    <circle class="cls-1" cx="163.38" cy="10.15" r="1.34"/>
    <circle class="cls-1" cx="163.38" cy="15.49" r="1.34"/>
    <circle class="cls-1" cx="163.38" cy="20.83" r="1.34"/>
    <circle class="cls-1" cx="157.78" cy="4.8" r="1.34"/>
    <circle class="cls-1" cx="157.78" cy="10.15" r="1.34"/>
    <circle class="cls-1" cx="157.78" cy="15.49" r="1.34"/>
    <circle class="cls-1" cx="157.78" cy="20.83" r="1.34"/>
    <circle class="cls-1" cx="152.18" cy="4.8" r="1.34"/>
    <circle class="cls-1" cx="152.18" cy="10.15" r="1.34"/>
    <circle class="cls-1" cx="152.18" cy="15.49" r="1.34"/>
    <circle class="cls-1" cx="152.18" cy="20.83" r="1.34"/>
    <circle class="cls-1" cx="146.58" cy="4.8" r="1.34"/>
    <circle class="cls-1" cx="146.58" cy="10.15" r="1.34"/>
    <circle class="cls-1" cx="146.58" cy="15.49" r="1.34"/>
    <circle class="cls-1" cx="146.58" cy="20.83" r="1.34"/>
    <circle class="cls-1" cx="140.99" cy="4.8" r="1.34"/>
    <circle class="cls-1" cx="140.99" cy="10.15" r="1.34"/>
    <circle class="cls-1" cx="140.99" cy="15.49" r="1.34"/>
    <circle class="cls-1" cx="140.99" cy="20.83" r="1.34"/>
    <path class="cls-4" d="M146.39,52.37c-.43-1.18,.18-2.49,1.36-2.92,.08-.03,.16-.05,.25-.07,.1-.02,.2-.04,.3-.05l5.04-8.83-1.27-2.19,3.17-2.44,2.42,3.37c.59,.83,.57,1.95-.05,2.76l-6.92,8.86c.03,.07,.05,.14,.06,.21,.29,1.23-.46,2.46-1.69,2.75-.08,.02-.17,.04-.25,.05-.09,.01-.19,.02-.28,.02-.96,0-1.81-.6-2.14-1.5Z"/>
    <polygon class="cls-4" points="136.56 95.84 134.01 95.84 132.81 86.03 136.56 86.03 136.56 95.84"/>
    <path class="cls-10" d="M132.2,95.11h4.9v3.09h-7.99c0-1.7,1.38-3.09,3.09-3.09Z"/>
    <polygon class="cls-4" points="157.5 95.84 154.96 95.84 153.75 86.03 157.5 86.03 157.5 95.84"/>
    <path class="cls-10" d="M153.14,95.11h4.9v3.09h-7.99c0-1.7,1.38-3.09,3.09-3.09Z"/>
    <path class="cls-5" d="M155.94,36.34l-5.71,2.17-1.39-3.87c-.38-1.06,.06-2.24,1.04-2.8h0c.99-.56,2.25-.32,2.96,.58l3.11,3.92Z"/>
    <path class="cls-10" d="M136.78,87.9l-4.79-1.09c-.53-.12-.87-.63-.79-1.17,1.92-12.17,3.77-19.3,8.53-28.35,.07-.17,.81-3.59,1.3-5.86-.01-.52,.36-.96,.87-1.04l8.92-1.37c.13-.05,.28-.07,.42-.06l.09,.02v.09c0,.09-.09,.1-.13,.11l-.12,.02c.14,.06,.26,.15,.37,.25,3.91,4.7,5.94,20.12,8.53,37.15,.03,.28-.07,.56-.27,.76-.19,.21-.45,.33-.73,.33l-5.7,.14c-.52,.01-.96-.36-1.04-.87l-3.84-22.2c-.07-.45-.49-.76-.94-.69-.27,.04-.5,.21-.61,.45-3.1,6.31-5.99,11.77-8.83,22.66-.12,.45-.52,.77-.99,.77-.08,0-.16,0-.23-.03Z"/>
    <path class="cls-5" d="M141.42,51.68c-.24-.17-.4-.44-.43-.74-.73-6.82-.22-12.16,1.56-16.33,.63-1.45,1.9-2.54,3.44-2.94l4.61-.23h.02c2.14,1.06,3.34,3.38,2.95,5.73-1.48,3.91-2.73,7.98-1.78,11.27,.08,.28,.04,.58-.1,.83-.14,.24-.37,.42-.65,.48l-8.79,2.09c-.29,.07-.59,0-.83-.16Z"/>
    <path class="cls-4" d="M139.44,41.88l-8.85-6.98c-.07,.02-.14,.05-.21,.06-.63,.15-1.3,.02-1.83-.35-.54-.37-.89-.96-.96-1.6-.12-1.05,.5-2.05,1.49-2.41,1.19-.43,2.49,.19,2.92,1.38,.03,.08,.05,.16,.07,.25,.02,.1,.04,.2,.05,.3l8.81,5.08,2.19-1.26,2.43,3.18-3.4,2.43c-.82,.58-1.92,.55-2.71-.07Z"/>
    <path class="cls-5" d="M146.63,40.51l-5.05-3.43,2.37-3.36c.65-.92,1.87-1.24,2.89-.75h0c1.03,.49,1.55,1.66,1.22,2.75l-1.43,4.79Z"/>
    <circle class="cls-4" cx="149.06" cy="24.63" r="5.09"/>
    <path class="cls-10" d="M147.19,23.87c-1.31,.9-3.03,1.82-4.36,.86-.88-.63-1.15-1.79-.8-2.8,.64-1.83,2.4-2.64,4.08-3.25,2.19-.8,4.57-1.44,6.82-.87s4.25,2.76,3.84,5.05c-.33,1.84-2.07,3.38-1.82,5.24,.25,1.87,2.35,2.85,4.21,3.19s3.93,.44,5.26,1.77c1.7,1.7,1.28,4.74-.32,6.53s-4.02,2.61-6.36,3.16c-3.1,.73-6.45,1.12-9.4-.1s-5.24-4.49-4.38-7.56c.36-1.3,1.21-2.39,2.03-3.46s1.65-2.18,1.96-3.49c.26-1.09,.07-2.36-.66-3.18-.27-.29-.32-.73-.12-1.08v-.02Z"/>
  </g>
</svg>