<?xml version="1.0" encoding="UTF-8"?>
<svg id="projects_page_helper_image" data-name="projects page helper image" xmlns="http://www.w3.org/2000/svg" viewBox="0 0 150 100">
  <defs>
    <style>
      .cls-1 {
        fill: #fff;
      }

      .cls-2 {
        fill: #ff6366;
      }

      .cls-3 {
        fill: #ff6584;
      }

      .cls-4 {
        fill: #3f3d56;
      }
    </style>
  </defs>
  <g id="_150_wide_100_high" data-name="150 wide 100 high">
    <path id="ground" class="cls-4" d="M147.67,98.24H2.33c-.3,0-.55-.11-.55-.24s.24-.24,.55-.24H147.67c.3,0,.55,.11,.55,.24s-.24,.24-.55,.24Z"/>
    <g id="organizations">
      <g>
        <circle class="cls-3" cx="30.93" cy="50.73" r="7.97"/>
        <path class="cls-1" d="M47.25,96.01h0c-.58,0-1.06-.47-1.06-1.06V32.81c0-.58,.47-1.06,1.06-1.06h52.31c.58,0,1.06,.47,1.06,1.06v48.32c0,.58-.47,1.05-1.05,1.06l-52.31,13.82Z"/>
        <path class="cls-4" d="M85.91,22.97h-24.29V8.9c0-.62,.5-1.12,1.12-1.12h22.04c.62,0,1.12,.5,1.12,1.12v14.07Zm-24.04-.25h23.79V8.9c0-.48-.39-.87-.87-.87h-22.04c-.48,0-.87,.39-.87,.87v13.82Z"/>
        <path class="cls-1" d="M68.54,13.13h10.46c.55,0,1,.45,1,1v14.94h-12.45V14.13c0-.55,.45-1,1-1h0Z"/>
        <path class="cls-4" d="M70.59,8.02h-5.11V2.92c0-.34,.28-.62,.62-.62h3.86c.34,0,.62,.28,.62,.62v5.11Zm-4.86-.25h4.61V2.92c0-.21-.17-.37-.37-.37h-3.86c-.21,0-.37,.17-.37,.37V7.77Z"/>
        <path class="cls-4" d="M112.55,82.84s-.1,0-.15,0c-3.08-.03-6.04-1.19-8.33-3.26-.08-.08-.17-.15-.25-.23l-.04-.04v-23.89c.09-.17,.18-.35,.26-.52,2.59-5.26,5.61-8.16,8.51-8.16,4.18,0,7.41,5.73,8.97,9.14,2.17,4.75,3.68,10.63,3.68,14.31,0,6.93-5.58,12.57-12.51,12.65-.05,0-.1,0-.14,0Zm-8.52-3.64c.07,.07,.14,.13,.21,.19,2.24,2.02,5.15,3.16,8.17,3.19,.05,0,.1,0,.15,0,.05,0,.09,0,.14,0,6.76-.08,12.27-5.64,12.27-12.4,0-3.64-1.5-9.48-3.66-14.2-1.53-3.36-4.71-9-8.75-9-2.8,0-5.74,2.85-8.28,8.02-.08,.16-.16,.33-.24,.49v23.71Z"/>
        <path class="cls-4" d="M112.55,97.94c-.08,0-.14-.06-.14-.14v-29.25c0-.08,.06-.14,.14-.14,.08,0,.14,.06,.14,.14h0v29.25c0,.08-.06,.14-.14,.14Z"/>
        <path class="cls-4" d="M38.2,97.94c-.08,0-.14-.06-.14-.14v-29.25c0-.08,.06-.14,.14-.14s.14,.06,.14,.14c0,0,0,0,0,0v29.25c0,.08-.06,.14-.14,.14Z"/>
        <path class="cls-4" d="M112.55,74.01s-.08-.02-.11-.05l-7.21-8.31c-.05-.06-.05-.15,.01-.2,.06-.05,.15-.05,.2,.01l7.21,8.31c.05,.06,.05,.15-.01,.2-.03,.02-.06,.03-.09,.04Z"/>
        <path class="cls-4" d="M112.55,78.81c-.08,0-.14-.06-.14-.14,0-.04,.02-.07,.04-.1l4.09-4.09c.06-.06,.15-.06,.2,0,.06,.06,.06,.15,0,.2l-4.09,4.09s-.06,.04-.1,.04Z"/>
        <path class="cls-4" d="M125.81,98h-10.71v-.12c0-2.96,2.39-5.36,5.35-5.36,2.96,0,5.36,2.39,5.36,5.35h0s0,.13,0,.13Zm-10.46-.25h10.21c-.07-2.82-2.41-5.05-5.23-4.98-2.72,.07-4.91,2.26-4.98,4.98h0Z"/>
        <path class="cls-4" d="M118.61,94.98v2.76h0c0,.08,.06,.14,.14,.14,.08,0,.14-.06,.14-.14v-.88s1.65-1.41,1.65-1.41c0,0,0,0,0,0,.06-.05,.07-.14,.01-.2-.05-.06-.14-.07-.2-.01l-1.46,1.26v-1.5c0-.08-.06-.14-.14-.14s-.14,.06-.14,.14Z"/>
        <path class="cls-4" d="M137.81,98h-10.71v-.12c0-2.96,2.39-5.36,5.35-5.36,2.96,0,5.36,2.39,5.36,5.35h0s0,.13,0,.13Zm-10.46-.25h10.21c-.07-2.82-2.41-5.05-5.23-4.98-2.72,.07-4.91,2.26-4.98,4.98h0Z"/>
        <path class="cls-4" d="M132.45,94.84c-.08,0-.14,.06-.14,.14v1.5l-1.46-1.26c-.06-.05-.15-.04-.2,.01-.05,.06-.04,.15,.01,.2,0,0,0,0,0,0l1.65,1.41v.88c0,.08,.06,.14,.14,.14,.08,0,.14-.06,.14-.14h0v-2.76c0-.08-.06-.14-.14-.14Z"/>
        <path class="cls-4" d="M36.02,98h-10.71v-.12c0-2.96,2.4-5.36,5.36-5.36s5.36,2.4,5.36,5.36v.12Zm-10.46-.25h10.21c-.07-2.82-2.41-5.05-5.23-4.98-2.72,.07-4.91,2.26-4.98,4.98h0Z"/>
        <path class="cls-4" d="M28.82,94.98v2.76s0,0,0,0c0,.08,.06,.14,.14,.14s.14-.06,.14-.14v-.88s1.65-1.41,1.65-1.41c0,0,0,0,0,0,.06-.05,.07-.14,.01-.2-.05-.06-.14-.07-.2-.01l-1.46,1.26v-1.5c0-.08-.06-.14-.14-.14s-.14,.06-.14,.14Z"/>
        <path class="cls-4" d="M38.33,82.84s-.1,0-.15,0c-6.93-.08-12.51-5.72-12.51-12.65,0-3.68,1.51-9.56,3.68-14.31,1.56-3.41,4.8-9.14,8.97-9.14,1.72,0,3.45,.98,5.15,2.91,.08,.1,.17,.19,.25,.29l.03,.03v31.63l-.07,.03c-.08,.04-.17,.08-.25,.12-1.56,.69-3.25,1.06-4.96,1.07-.05,0-.1,0-.14,0Zm0-35.85c-4.04,0-7.21,5.64-8.75,9-2.15,4.72-3.66,10.56-3.66,14.2,0,6.76,5.5,12.32,12.26,12.4,.05,0,.1,0,.15,0,.05,0,.09,0,.14,0,1.68-.01,3.33-.37,4.86-1.05,.06-.03,.12-.05,.17-.08v-31.38c-.07-.09-.15-.17-.22-.25-1.65-1.88-3.32-2.83-4.96-2.83Z"/>
        <path class="cls-4" d="M38.33,74.01s-.08-.02-.11-.05l-7.21-8.31c-.05-.06-.05-.15,.01-.2,.06-.05,.15-.05,.2,.01l7.21,8.31c.05,.06,.05,.15-.01,.2-.03,.02-.06,.03-.09,.04Z"/>
        <path class="cls-4" d="M38.33,78.81c-.08,0-.14-.06-.14-.14,0-.04,.02-.07,.04-.1l4.09-4.09c.06-.06,.15-.06,.2,0,.06,.06,.06,.15,0,.2l-4.09,4.09s-.06,.04-.1,.04Z"/>
        <path class="cls-4" d="M49.58,23.96l.09,.18c.04,.08,.06,.17,.06,.25v4.92h4.36v-4.92c0-.09,.02-.18,.06-.25l.09-.18h-4.67Zm4.26,.44v4.67h-3.86v-4.67c0-.06,0-.13-.02-.19h3.91c-.01,.06-.02,.12-.02,.19h0Zm1.22-.44l.09,.18c.04,.08,.06,.17,.06,.25v4.92h4.36v-4.92c0-.09,.02-.18,.06-.25l.09-.18h-4.67Zm4.26,.44v4.67h-3.86v-4.67c0-.06,0-.13-.02-.19h3.91c-.01,.06-.02,.12-.02,.19h0Zm1.22-.44l.09,.18c.04,.08,.06,.17,.06,.25v4.92h4.36v-4.92c0-.09,.02-.18,.06-.25l.09-.18h-4.67Zm4.26,.44v4.67h-3.86v-4.67c0-.06,0-.13-.02-.19h3.91c-.01,.06-.02,.12-.02,.19h0Zm1.22-.44l.09,.18c.04,.08,.06,.17,.06,.25v4.92h4.36v-4.92c0-.09,.02-.18,.06-.25l.09-.18h-4.67Zm4.26,.44v4.67h-3.86v-4.67c0-.06,0-.13-.02-.19h3.91c-.01,.06-.02,.12-.02,.19Zm1.22-.44l.09,.18c.04,.08,.06,.17,.06,.25v4.92h4.36v-4.92c0-.09,.02-.18,.06-.25l.09-.18h-4.67Zm4.26,.44v4.67h-3.86v-4.67c0-.06,0-.13-.02-.19h3.91c-.01,.06-.02,.12-.02,.19Zm1.22-.44l.09,.18c.04,.08,.06,.17,.06,.25v4.92h4.36v-4.92c0-.09,.02-.18,.06-.25l.09-.18h-4.67Zm4.26,.44v4.67h-3.86v-4.67c0-.06,0-.13-.02-.19h3.91c-.01,.06-.02,.12-.02,.19Zm1.22-.44l.09,.18c.04,.08,.06,.17,.06,.25v4.92h4.36v-4.92c0-.09,.02-.18,.06-.25l.09-.18h-4.67Zm4.26,.44v4.67h-3.86v-4.67c0-.06,0-.13-.02-.19h3.91c-.01,.06-.02,.12-.02,.19Zm1.22-.44l.09,.18c.04,.08,.06,.17,.06,.25v4.92h4.36v-4.92c0-.09,.02-.18,.06-.25l.09-.18h-4.67Zm4.26,.44v4.67h-3.86v-4.67c0-.06,0-.13-.02-.19h3.91c-.01,.06-.02,.12-.02,.19Zm1.22-.44l.09,.18c.04,.08,.06,.17,.06,.25v4.92h4.36v-4.92c0-.09,.02-.18,.06-.25l.09-.18h-4.67Zm4.26,.44v4.67h-3.86v-4.67c0-.06,0-.13-.02-.19h3.91c-.01,.06-.02,.12-.02,.19Zm-4.26-.44l.09,.18c.04,.08,.06,.17,.06,.25v4.92h4.36v-4.92c0-.09,.02-.18,.06-.25l.09-.18h-4.67Zm4.26,.44v4.67h-3.86v-4.67c0-.06,0-.13-.02-.19h3.91c-.01,.06-.02,.12-.02,.19Zm-9.74-.44l.09,.18c.04,.08,.06,.17,.06,.25v4.92h4.36v-4.92c0-.09,.02-.18,.06-.25l.09-.18h-4.67Zm4.26,.44v4.67h-3.86v-4.67c0-.06,0-.13-.02-.19h3.91c-.01,.06-.02,.12-.02,.19Zm-9.74-.44l.09,.18c.04,.08,.06,.17,.06,.25v4.92h4.36v-4.92c0-.09,.02-.18,.06-.25l.09-.18h-4.67Zm4.26,.44v4.67h-3.86v-4.67c0-.06,0-.13-.02-.19h3.91c-.01,.06-.02,.12-.02,.19Zm-9.74-.44l.09,.18c.04,.08,.06,.17,.06,.25v4.92h4.36v-4.92c0-.09,.02-.18,.06-.25l.09-.18h-4.67Zm4.26,.44v4.67h-3.86v-4.67c0-.06,0-.13-.02-.19h3.91c-.01,.06-.02,.12-.02,.19Zm-9.74-.44l.09,.18c.04,.08,.06,.17,.06,.25v4.92h4.36v-4.92c0-.09,.02-.18,.06-.25l.09-.18h-4.67Zm4.26,.44v4.67h-3.86v-4.67c0-.06,0-.13-.02-.19h3.91c-.01,.06-.02,.12-.02,.19Zm-9.74-.44l.09,.18c.04,.08,.06,.17,.06,.25v4.92h4.36v-4.92c0-.09,.02-.18,.06-.25l.09-.18h-4.67Zm4.26,.44v4.67h-3.86v-4.67c0-.06,0-.13-.02-.19h3.91c-.01,.06-.02,.12-.02,.19Zm-9.74-.44l.09,.18c.04,.08,.06,.17,.06,.25v4.92h4.36v-4.92c0-.09,.02-.18,.06-.25l.09-.18h-4.67Zm4.26,.44v4.67h-3.86v-4.67c0-.06,0-.13-.02-.19h3.91c-.01,.06-.02,.12-.02,.19h0Zm-9.74-.44l.09,.18c.04,.08,.06,.17,.06,.25v4.92h4.36v-4.92c0-.09,.02-.18,.06-.25l.09-.18h-4.67Zm4.26,.44v4.67h-3.86v-4.67c0-.06,0-.13-.02-.19h3.91c-.01,.06-.02,.12-.02,.19h0Zm-9.74-.44l.09,.18c.04,.08,.06,.17,.06,.25v4.92h4.36v-4.92c0-.09,.02-.18,.06-.25l.09-.18h-4.67Zm4.26,.44v4.67h-3.86v-4.67c0-.06,0-.13-.02-.19h3.91c-.01,.06-.02,.12-.02,.19h0Zm39.57-.44l.09,.18c.04,.08,.06,.17,.06,.25v4.92h4.36v-4.92c0-.09,.02-.18,.06-.25l.09-.18h-4.67Zm4.26,.44v4.67h-3.86v-4.67c0-.06,0-.13-.02-.19h3.91c-.01,.06-.02,.12-.02,.19Zm-9.74-.44l.09,.18c.04,.08,.06,.17,.06,.25v4.92h4.36v-4.92c0-.09,.02-.18,.06-.25l.09-.18h-4.67Zm4.26,.44v4.67h-3.86v-4.67c0-.06,0-.13-.02-.19h3.91c-.01,.06-.02,.12-.02,.19Zm-9.74-.44l.09,.18c.04,.08,.06,.17,.06,.25v4.92h4.36v-4.92c0-.09,.02-.18,.06-.25l.09-.18h-4.67Zm4.26,.44v4.67h-3.86v-4.67c0-.06,0-.13-.02-.19h3.91c-.01,.06-.02,.12-.02,.19Zm-9.74-.44l.09,.18c.04,.08,.06,.17,.06,.25v4.92h4.36v-4.92c0-.09,.02-.18,.06-.25l.09-.18h-4.67Zm4.26,.44v4.67h-3.86v-4.67c0-.06,0-.13-.02-.19h3.91c-.01,.06-.02,.12-.02,.19Zm-9.74-.44l.09,.18c.04,.08,.06,.17,.06,.25v4.92h4.36v-4.92c0-.09,.02-.18,.06-.25l.09-.18h-4.67Zm4.26,.44v4.67h-3.86v-4.67c0-.06,0-.13-.02-.19h3.91c-.01,.06-.02,.12-.02,.19Zm-9.74-.44l.09,.18c.04,.08,.06,.17,.06,.25v4.92h4.36v-4.92c0-.09,.02-.18,.06-.25l.09-.18h-4.67Zm4.26,.44v4.67h-3.86v-4.67c0-.06,0-.13-.02-.19h3.91c-.01,.06-.02,.12-.02,.19Zm-9.74-.44l.09,.18c.04,.08,.06,.17,.06,.25v4.92h4.36v-4.92c0-.09,.02-.18,.06-.25l.09-.18h-4.67Zm4.26,.44v4.67h-3.86v-4.67c0-.06,0-.13-.02-.19h3.91c-.01,.06-.02,.12-.02,.19h0Zm-9.74-.44l.09,.18c.04,.08,.06,.17,.06,.25v4.92h4.36v-4.92c0-.09,.02-.18,.06-.25l.09-.18h-4.67Zm4.26,.44v4.67h-3.86v-4.67c0-.06,0-.13-.02-.19h3.91c-.01,.06-.02,.12-.02,.19h0Zm-9.74-.44l.09,.18c.04,.08,.06,.17,.06,.25v4.92h4.36v-4.92c0-.09,.02-.18,.06-.25l.09-.18h-4.67Zm4.26,.44v4.67h-3.86v-4.67c0-.06,0-.13-.02-.19h3.91c-.01,.06-.02,.12-.02,.19h0Zm39.57-.44l.09,.18c.04,.08,.06,.17,.06,.25v4.92h4.36v-4.92c0-.09,.02-.18,.06-.25l.09-.18h-4.67Zm4.26,.44v4.67h-3.86v-4.67c0-.06,0-.13-.02-.19h3.91c-.01,.06-.02,.12-.02,.19Zm-9.74-.44l.09,.18c.04,.08,.06,.17,.06,.25v4.92h4.36v-4.92c0-.09,.02-.18,.06-.25l.09-.18h-4.67Zm4.26,.44v4.67h-3.86v-4.67c0-.06,0-.13-.02-.19h3.91c-.01,.06-.02,.12-.02,.19Zm-9.74-.44l.09,.18c.04,.08,.06,.17,.06,.25v4.92h4.36v-4.92c0-.09,.02-.18,.06-.25l.09-.18h-4.67Zm4.26,.44v4.67h-3.86v-4.67c0-.06,0-.13-.02-.19h3.91c-.01,.06-.02,.12-.02,.19Zm-9.74-.44l.09,.18c.04,.08,.06,.17,.06,.25v4.92h4.36v-4.92c0-.09,.02-.18,.06-.25l.09-.18h-4.67Zm4.26,.44v4.67h-3.86v-4.67c0-.06,0-.13-.02-.19h3.91c-.01,.06-.02,.12-.02,.19Zm-9.74-.44l.09,.18c.04,.08,.06,.17,.06,.25v4.92h4.36v-4.92c0-.09,.02-.18,.06-.25l.09-.18h-4.67Zm4.26,.44v4.67h-3.86v-4.67c0-.06,0-.13-.02-.19h3.91c-.01,.06-.02,.12-.02,.19Zm-9.74-.44l.09,.18c.04,.08,.06,.17,.06,.25v4.92h4.36v-4.92c0-.09,.02-.18,.06-.25l.09-.18h-4.67Zm4.26,.44v4.67h-3.86v-4.67c0-.06,0-.13-.02-.19h3.91c-.01,.06-.02,.12-.02,.19Zm-9.74-.44l.09,.18c.04,.08,.06,.17,.06,.25v4.92h4.36v-4.92c0-.09,.02-.18,.06-.25l.09-.18h-4.67Zm4.26,.44v4.67h-3.86v-4.67c0-.06,0-.13-.02-.19h3.91c-.01,.06-.02,.12-.02,.19h0Zm-9.74-.44l.09,.18c.04,.08,.06,.17,.06,.25v4.92h4.36v-4.92c0-.09,.02-.18,.06-.25l.09-.18h-4.67Zm4.26,.44v4.67h-3.86v-4.67c0-.06,0-.13-.02-.19h3.91c-.01,.06-.02,.12-.02,.19h0Zm-9.74-.44l.09,.18c.04,.08,.06,.17,.06,.25v4.92h4.36v-4.92c0-.09,.02-.18,.06-.25l.09-.18h-4.67Zm4.26,.44v4.67h-3.86v-4.67c0-.06,0-.13-.02-.19h3.91c-.01,.06-.02,.12-.02,.19h0Zm39.57-.44l.09,.18c.04,.08,.06,.17,.06,.25v4.92h4.36v-4.92c0-.09,.02-.18,.06-.25l.09-.18h-4.67Zm4.26,.44v4.67h-3.86v-4.67c0-.06,0-.13-.02-.19h3.91c-.01,.06-.02,.12-.02,.19Zm-9.74-.44l.09,.18c.04,.08,.06,.17,.06,.25v4.92h4.36v-4.92c0-.09,.02-.18,.06-.25l.09-.18h-4.67Zm4.26,.44v4.67h-3.86v-4.67c0-.06,0-.13-.02-.19h3.91c-.01,.06-.02,.12-.02,.19Zm-9.74-.44l.09,.18c.04,.08,.06,.17,.06,.25v4.92h4.36v-4.92c0-.09,.02-.18,.06-.25l.09-.18h-4.67Zm4.26,.44v4.67h-3.86v-4.67c0-.06,0-.13-.02-.19h3.91c-.01,.06-.02,.12-.02,.19Zm-9.74-.44l.09,.18c.04,.08,.06,.17,.06,.25v4.92h4.36v-4.92c0-.09,.02-.18,.06-.25l.09-.18h-4.67Zm4.26,.44v4.67h-3.86v-4.67c0-.06,0-.13-.02-.19h3.91c-.01,.06-.02,.12-.02,.19Zm-9.74-.44l.09,.18c.04,.08,.06,.17,.06,.25v4.92h4.36v-4.92c0-.09,.02-.18,.06-.25l.09-.18h-4.67Zm4.26,.44v4.67h-3.86v-4.67c0-.06,0-.13-.02-.19h3.91c-.01,.06-.02,.12-.02,.19Zm-9.74-.44l.09,.18c.04,.08,.06,.17,.06,.25v4.92h4.36v-4.92c0-.09,.02-.18,.06-.25l.09-.18h-4.67Zm4.26,.44v4.67h-3.86v-4.67c0-.06,0-.13-.02-.19h3.91c-.01,.06-.02,.12-.02,.19Zm-9.74-.44l.09,.18c.04,.08,.06,.17,.06,.25v4.92h4.36v-4.92c0-.09,.02-.18,.06-.25l.09-.18h-4.67Zm4.26,.44v4.67h-3.86v-4.67c0-.06,0-.13-.02-.19h3.91c-.01,.06-.02,.12-.02,.19h0Zm-9.74-.44l.09,.18c.04,.08,.06,.17,.06,.25v4.92h4.36v-4.92c0-.09,.02-.18,.06-.25l.09-.18h-4.67Zm4.26,.44v4.67h-3.86v-4.67c0-.06,0-.13-.02-.19h3.91c-.01,.06-.02,.12-.02,.19h0Zm-9.74-.44l.09,.18c.04,.08,.06,.17,.06,.25v4.92h4.36v-4.92c0-.09,.02-.18,.06-.25l.09-.18h-4.67Zm4.26,.44v4.67h-3.86v-4.67c0-.06,0-.13-.02-.19h3.91c-.01,.06-.02,.12-.02,.19h0Zm39.57-.44l.09,.18c.04,.08,.06,.17,.06,.25v4.92h4.36v-4.92c0-.09,.02-.18,.06-.25l.09-.18h-4.67Zm4.26,.44v4.67h-3.86v-4.67c0-.06,0-.13-.02-.19h3.91c-.01,.06-.02,.12-.02,.19Zm-9.65-.25c.04,.08,.06,.17,.06,.25v4.92h4.36v-4.92c0-.09,.02-.18,.06-.25l.09-.18h-4.67l.09,.18Zm4.19,.07c-.01,.06-.02,.12-.02,.19v4.67h-3.86v-4.67c0-.06,0-.13-.02-.19h3.91Zm-9.67-.07c.04,.08,.06,.17,.06,.25v4.92h4.36v-4.92c0-.09,.02-.18,.06-.25l.09-.18h-4.67l.09,.18Zm4.19,.07c-.01,.06-.02,.12-.02,.19v4.67h-3.86v-4.67c0-.06,0-.13-.02-.19h3.91Zm-9.67-.07c.04,.08,.06,.17,.06,.25v4.92h4.36v-4.92c0-.09,.02-.18,.06-.25l.09-.18h-4.67l.09,.18Zm4.19,.07c-.01,.06-.02,.12-.02,.19v4.67h-3.86v-4.67c0-.06,0-.13-.02-.19h3.91Zm-9.67-.07c.04,.08,.06,.17,.06,.25v4.92h4.36v-4.92c0-.09,.02-.18,.06-.25l.09-.18h-4.67l.09,.18Zm4.19,.07c-.01,.06-.02,.12-.02,.19v4.67h-3.86v-4.67c0-.06,0-.13-.02-.19h3.91Zm-9.67-.07c.04,.08,.06,.17,.06,.25v4.92h4.36v-4.92c0-.09,.02-.18,.06-.25l.09-.18h-4.67l.09,.18Zm4.19,.07c-.01,.06-.02,.12-.02,.19v4.67h-3.86v-4.67c0-.06,0-.13-.02-.19h3.91Zm-9.67-.07c.04,.08,.06,.17,.06,.25v4.92h4.36v-4.92c0-.09,.02-.18,.06-.25l.09-.18h-4.67l.09,.18Zm4.19,.07c-.01,.06-.02,.12-.02,.19v4.67h-3.86v-4.67c0-.06,0-.13-.02-.19h3.91Zm-9.67-.07c.04,.08,.06,.17,.06,.25v4.92h4.36v-4.92c0-.09,.02-.18,.06-.25l.09-.18h-4.67l.09,.18Zm4.19,.07c-.01,.06-.02,.12-.02,.19v4.67h-3.86v-4.67c0-.06,0-.13-.02-.19h3.91Zm-9.67-.07c.04,.08,.06,.17,.06,.25v4.92h4.36v-4.92c0-.09,.02-.18,.06-.25l.09-.18h-4.67l.09,.18Zm4.19,.07c-.01,.06-.02,.12-.02,.19v4.67h-3.86v-4.67c0-.06,0-.13-.02-.19h3.91Zm39.64-.07c.04,.08,.06,.17,.06,.25v4.92h4.36v-4.92c0-.09,.02-.18,.06-.25l.09-.18h-4.67l.09,.18Zm4.19,.07c-.01,.06-.02,.12-.02,.19v4.67h-3.86v-4.67c0-.06,0-.13-.02-.19h3.91Zm-9.67-.07c.04,.08,.06,.17,.06,.25v4.92h4.36v-4.92c0-.09,.02-.18,.06-.25l.09-.18h-4.67l.09,.18Zm4.19,.07c-.01,.06-.02,.12-.02,.19v4.67h-3.86v-4.67c0-.06,0-.13-.02-.19h3.91Zm-9.67-.07c.04,.08,.06,.17,.06,.25v4.92h4.36v-4.92c0-.09,.02-.18,.06-.25l.09-.18h-4.67l.09,.18Zm4.19,.07c-.01,.06-.02,.12-.02,.19v4.67h-3.86v-4.67c0-.06,0-.13-.02-.19h3.91Zm-9.67-.07c.04,.08,.06,.17,.06,.25v4.92h4.36v-4.92c0-.09,.02-.18,.06-.25l.09-.18h-4.67l.09,.18Zm4.19,.07c-.01,.06-.02,.12-.02,.19v4.67h-3.86v-4.67c0-.06,0-.13-.02-.19h3.91Zm-9.67-.07c.04,.08,.06,.17,.06,.25v4.92h4.36v-4.92c0-.09,.02-.18,.06-.25l.09-.18h-4.67l.09,.18Zm4.19,.07c-.01,.06-.02,.12-.02,.19v4.67h-3.86v-4.67c0-.06,0-.13-.02-.19h3.91Zm-9.67-.07c.04,.08,.06,.17,.06,.25v4.92h4.36v-4.92c0-.09,.02-.18,.06-.25l.09-.18h-4.67l.09,.18Zm4.19,.07c-.01,.06-.02,.12-.02,.19v4.67h-3.86v-4.67c0-.06,0-.13-.02-.19h3.91Zm-9.67-.07c.04,.08,.06,.17,.06,.25v4.92h4.36v-4.92c0-.09,.02-.18,.06-.25l.09-.18h-4.67l.09,.18Zm4.19,.07c-.01,.06-.02,.12-.02,.19v4.67h-3.86v-4.67c0-.06,0-.13-.02-.19h3.91Zm-9.67-.07c.04,.08,.06,.17,.06,.25v4.92h4.36v-4.92c0-.09,.02-.18,.06-.25l.09-.18h-4.67l.09,.18Zm4.19,.07c-.01,.06-.02,.12-.02,.19v4.67h-3.86v-4.67c0-.06,0-.13-.02-.19h3.91Zm-9.67-.07c.04,.08,.06,.17,.06,.25v4.92h4.36v-4.92c0-.09,.02-.18,.06-.25l.09-.18h-4.67l.09,.18Zm4.19,.07c-.01,.06-.02,.12-.02,.19v4.67h-3.86v-4.67c0-.06,0-.13-.02-.19h3.91Zm49.05,5.85h-1.48c-.17-.59-.71-.99-1.32-1h-.81v-4.67c0-.1-.02-.2-.06-.29,.35-.21,.47-.67,.26-1.02-.13-.23-.38-.37-.64-.37H48.8c-.41,0-.75,.33-.75,.74,0,.26,.14,.51,.37,.64-.04,.09-.06,.19-.06,.29v4.67h-.81c-.61,0-1.15,.41-1.32,1h-1.61c-.62,0-1.12,.5-1.12,1.12V96.94c0,.62,.5,1.12,1.12,1.12h58.28c.62,0,1.12-.5,1.12-1.12V31.19c0-.62-.5-1.12-1.12-1.12Zm.87,66.88c0,.36-.23,.69-.57,.82-.1,.04-.2,.06-.3,.05H44.63c-.1,0-.21-.02-.3-.05-.34-.13-.57-.45-.57-.82V31.19c0-.48,.39-.87,.87-.87h1.81l.02-.1c.11-.52,.57-.9,1.1-.9h1.06v-4.92c0-.1,.03-.2,.08-.29l.08-.13-.14-.05c-.26-.09-.39-.38-.3-.64,.07-.2,.26-.33,.47-.33h50.06c.27,0,.5,.22,.5,.5,0,.21-.13,.4-.33,.47l-.14,.05,.08,.13c.05,.09,.08,.19,.08,.29v4.92h1.06c.53,0,.99,.38,1.1,.9l.02,.1h1.68c.48,0,.87,.39,.87,.87V96.94ZM49.58,23.96l.09,.18c.04,.08,.06,.17,.06,.25v4.92h4.36v-4.92c0-.09,.02-.18,.06-.25l.09-.18h-4.67Zm4.26,.44v4.67h-3.86v-4.67c0-.06,0-.13-.02-.19h3.91c-.01,.06-.02,.12-.02,.19h0Zm1.22-.44l.09,.18c.04,.08,.06,.17,.06,.25v4.92h4.36v-4.92c0-.09,.02-.18,.06-.25l.09-.18h-4.67Zm4.26,.44v4.67h-3.86v-4.67c0-.06,0-.13-.02-.19h3.91c-.01,.06-.02,.12-.02,.19h0Zm1.22-.44l.09,.18c.04,.08,.06,.17,.06,.25v4.92h4.36v-4.92c0-.09,.02-.18,.06-.25l.09-.18h-4.67Zm4.26,.44v4.67h-3.86v-4.67c0-.06,0-.13-.02-.19h3.91c-.01,.06-.02,.12-.02,.19h0Zm1.22-.44l.09,.18c.04,.08,.06,.17,.06,.25v4.92h4.36v-4.92c0-.09,.02-.18,.06-.25l.09-.18h-4.67Zm4.26,.44v4.67h-3.86v-4.67c0-.06,0-.13-.02-.19h3.91c-.01,.06-.02,.12-.02,.19Zm1.22-.44l.09,.18c.04,.08,.06,.17,.06,.25v4.92h4.36v-4.92c0-.09,.02-.18,.06-.25l.09-.18h-4.67Zm4.26,.44v4.67h-3.86v-4.67c0-.06,0-.13-.02-.19h3.91c-.01,.06-.02,.12-.02,.19Zm1.22-.44l.09,.18c.04,.08,.06,.17,.06,.25v4.92h4.36v-4.92c0-.09,.02-.18,.06-.25l.09-.18h-4.67Zm4.26,.44v4.67h-3.86v-4.67c0-.06,0-.13-.02-.19h3.91c-.01,.06-.02,.12-.02,.19Zm1.22-.44l.09,.18c.04,.08,.06,.17,.06,.25v4.92h4.36v-4.92c0-.09,.02-.18,.06-.25l.09-.18h-4.67Zm4.26,.44v4.67h-3.86v-4.67c0-.06,0-.13-.02-.19h3.91c-.01,.06-.02,.12-.02,.19Zm1.22-.44l.09,.18c.04,.08,.06,.17,.06,.25v4.92h4.36v-4.92c0-.09,.02-.18,.06-.25l.09-.18h-4.67Zm4.26,.44v4.67h-3.86v-4.67c0-.06,0-.13-.02-.19h3.91c-.01,.06-.02,.12-.02,.19Zm1.22-.44l.09,.18c.04,.08,.06,.17,.06,.25v4.92h4.36v-4.92c0-.09,.02-.18,.06-.25l.09-.18h-4.67Zm4.26,.44v4.67h-3.86v-4.67c0-.06,0-.13-.02-.19h3.91c-.01,.06-.02,.12-.02,.19Zm-48.1-.44l.09,.18c.04,.08,.06,.17,.06,.25v4.92h4.36v-4.92c0-.09,.02-.18,.06-.25l.09-.18h-4.67Zm4.26,.44v4.67h-3.86v-4.67c0-.06,0-.13-.02-.19h3.91c-.01,.06-.02,.12-.02,.19h0Zm1.22-.44l.09,.18c.04,.08,.06,.17,.06,.25v4.92h4.36v-4.92c0-.09,.02-.18,.06-.25l.09-.18h-4.67Zm4.26,.44v4.67h-3.86v-4.67c0-.06,0-.13-.02-.19h3.91c-.01,.06-.02,.12-.02,.19h0Zm1.22-.44l.09,.18c.04,.08,.06,.17,.06,.25v4.92h4.36v-4.92c0-.09,.02-.18,.06-.25l.09-.18h-4.67Zm4.26,.44v4.67h-3.86v-4.67c0-.06,0-.13-.02-.19h3.91c-.01,.06-.02,.12-.02,.19h0Zm1.22-.44l.09,.18c.04,.08,.06,.17,.06,.25v4.92h4.36v-4.92c0-.09,.02-.18,.06-.25l.09-.18h-4.67Zm4.26,.44v4.67h-3.86v-4.67c0-.06,0-.13-.02-.19h3.91c-.01,.06-.02,.12-.02,.19Zm1.22-.44l.09,.18c.04,.08,.06,.17,.06,.25v4.92h4.36v-4.92c0-.09,.02-.18,.06-.25l.09-.18h-4.67Zm4.26,.44v4.67h-3.86v-4.67c0-.06,0-.13-.02-.19h3.91c-.01,.06-.02,.12-.02,.19Zm1.22-.44l.09,.18c.04,.08,.06,.17,.06,.25v4.92h4.36v-4.92c0-.09,.02-.18,.06-.25l.09-.18h-4.67Zm4.26,.44v4.67h-3.86v-4.67c0-.06,0-.13-.02-.19h3.91c-.01,.06-.02,.12-.02,.19Zm1.22-.44l.09,.18c.04,.08,.06,.17,.06,.25v4.92h4.36v-4.92c0-.09,.02-.18,.06-.25l.09-.18h-4.67Zm4.26,.44v4.67h-3.86v-4.67c0-.06,0-.13-.02-.19h3.91c-.01,.06-.02,.12-.02,.19Zm1.22-.44l.09,.18c.04,.08,.06,.17,.06,.25v4.92h4.36v-4.92c0-.09,.02-.18,.06-.25l.09-.18h-4.67Zm4.26,.44v4.67h-3.86v-4.67c0-.06,0-.13-.02-.19h3.91c-.01,.06-.02,.12-.02,.19Zm1.22-.44l.09,.18c.04,.08,.06,.17,.06,.25v4.92h4.36v-4.92c0-.09,.02-.18,.06-.25l.09-.18h-4.67Zm4.26,.44v4.67h-3.86v-4.67c0-.06,0-.13-.02-.19h3.91c-.01,.06-.02,.12-.02,.19Zm-48.1-.44l.09,.18c.04,.08,.06,.17,.06,.25v4.92h4.36v-4.92c0-.09,.02-.18,.06-.25l.09-.18h-4.67Zm4.26,.44v4.67h-3.86v-4.67c0-.06,0-.13-.02-.19h3.91c-.01,.06-.02,.12-.02,.19h0Zm1.22-.44l.09,.18c.04,.08,.06,.17,.06,.25v4.92h4.36v-4.92c0-.09,.02-.18,.06-.25l.09-.18h-4.67Zm4.26,.44v4.67h-3.86v-4.67c0-.06,0-.13-.02-.19h3.91c-.01,.06-.02,.12-.02,.19h0Zm1.22-.44l.09,.18c.04,.08,.06,.17,.06,.25v4.92h4.36v-4.92c0-.09,.02-.18,.06-.25l.09-.18h-4.67Zm4.26,.44v4.67h-3.86v-4.67c0-.06,0-.13-.02-.19h3.91c-.01,.06-.02,.12-.02,.19h0Zm1.22-.44l.09,.18c.04,.08,.06,.17,.06,.25v4.92h4.36v-4.92c0-.09,.02-.18,.06-.25l.09-.18h-4.67Zm4.26,.44v4.67h-3.86v-4.67c0-.06,0-.13-.02-.19h3.91c-.01,.06-.02,.12-.02,.19Zm1.22-.44l.09,.18c.04,.08,.06,.17,.06,.25v4.92h4.36v-4.92c0-.09,.02-.18,.06-.25l.09-.18h-4.67Zm4.26,.44v4.67h-3.86v-4.67c0-.06,0-.13-.02-.19h3.91c-.01,.06-.02,.12-.02,.19Zm1.22-.44l.09,.18c.04,.08,.06,.17,.06,.25v4.92h4.36v-4.92c0-.09,.02-.18,.06-.25l.09-.18h-4.67Zm4.26,.44v4.67h-3.86v-4.67c0-.06,0-.13-.02-.19h3.91c-.01,.06-.02,.12-.02,.19Zm1.22-.44l.09,.18c.04,.08,.06,.17,.06,.25v4.92h4.36v-4.92c0-.09,.02-.18,.06-.25l.09-.18h-4.67Zm4.26,.44v4.67h-3.86v-4.67c0-.06,0-.13-.02-.19h3.91c-.01,.06-.02,.12-.02,.19Zm1.22-.44l.09,.18c.04,.08,.06,.17,.06,.25v4.92h4.36v-4.92c0-.09,.02-.18,.06-.25l.09-.18h-4.67Zm4.26,.44v4.67h-3.86v-4.67c0-.06,0-.13-.02-.19h3.91c-.01,.06-.02,.12-.02,.19Zm1.22-.44l.09,.18c.04,.08,.06,.17,.06,.25v4.92h4.36v-4.92c0-.09,.02-.18,.06-.25l.09-.18h-4.67Zm4.26,.44v4.67h-3.86v-4.67c0-.06,0-.13-.02-.19h3.91c-.01,.06-.02,.12-.02,.19Zm-48.1-.44l.09,.18c.04,.08,.06,.17,.06,.25v4.92h4.36v-4.92c0-.09,.02-.18,.06-.25l.09-.18h-4.67Zm4.26,.44v4.67h-3.86v-4.67c0-.06,0-.13-.02-.19h3.91c-.01,.06-.02,.12-.02,.19h0Zm1.22-.44l.09,.18c.04,.08,.06,.17,.06,.25v4.92h4.36v-4.92c0-.09,.02-.18,.06-.25l.09-.18h-4.67Zm4.26,.44v4.67h-3.86v-4.67c0-.06,0-.13-.02-.19h3.91c-.01,.06-.02,.12-.02,.19h0Zm1.22-.44l.09,.18c.04,.08,.06,.17,.06,.25v4.92h4.36v-4.92c0-.09,.02-.18,.06-.25l.09-.18h-4.67Zm4.26,.44v4.67h-3.86v-4.67c0-.06,0-.13-.02-.19h3.91c-.01,.06-.02,.12-.02,.19h0Zm1.22-.44l.09,.18c.04,.08,.06,.17,.06,.25v4.92h4.36v-4.92c0-.09,.02-.18,.06-.25l.09-.18h-4.67Zm4.26,.44v4.67h-3.86v-4.67c0-.06,0-.13-.02-.19h3.91c-.01,.06-.02,.12-.02,.19Zm1.22-.44l.09,.18c.04,.08,.06,.17,.06,.25v4.92h4.36v-4.92c0-.09,.02-.18,.06-.25l.09-.18h-4.67Zm4.26,.44v4.67h-3.86v-4.67c0-.06,0-.13-.02-.19h3.91c-.01,.06-.02,.12-.02,.19Zm1.22-.44l.09,.18c.04,.08,.06,.17,.06,.25v4.92h4.36v-4.92c0-.09,.02-.18,.06-.25l.09-.18h-4.67Zm4.26,.44v4.67h-3.86v-4.67c0-.06,0-.13-.02-.19h3.91c-.01,.06-.02,.12-.02,.19Zm1.22-.44l.09,.18c.04,.08,.06,.17,.06,.25v4.92h4.36v-4.92c0-.09,.02-.18,.06-.25l.09-.18h-4.67Zm4.26,.44v4.67h-3.86v-4.67c0-.06,0-.13-.02-.19h3.91c-.01,.06-.02,.12-.02,.19Zm1.22-.44l.09,.18c.04,.08,.06,.17,.06,.25v4.92h4.36v-4.92c0-.09,.02-.18,.06-.25l.09-.18h-4.67Zm4.26,.44v4.67h-3.86v-4.67c0-.06,0-.13-.02-.19h3.91c-.01,.06-.02,.12-.02,.19Zm1.22-.44l.09,.18c.04,.08,.06,.17,.06,.25v4.92h4.36v-4.92c0-.09,.02-.18,.06-.25l.09-.18h-4.67Zm4.26,.44v4.67h-3.86v-4.67c0-.06,0-.13-.02-.19h3.91c-.01,.06-.02,.12-.02,.19Z"/>
        <path class="cls-2" d="M64.39,45.76h-9.18c-.4,0-.73-.33-.73-.73v-4.89c0-.4,.33-.73,.73-.73h9.18c.4,0,.73,.33,.73,.73v4.89c0,.4-.33,.73-.73,.73Z"/>
        <path class="cls-2" d="M78.36,45.76h-9.18c-.4,0-.73-.33-.73-.73v-4.89c0-.4,.33-.73,.73-.73h9.18c.4,0,.73,.33,.73,.73v4.89c0,.4-.33,.73-.73,.73Z"/>
        <path class="cls-2" d="M92.34,45.76h-9.18c-.4,0-.73-.33-.73-.73v-4.89c0-.4,.33-.73,.73-.73h9.18c.4,0,.73,.33,.73,.73v4.89c0,.4-.33,.73-.73,.73Z"/>
        <path class="cls-2" d="M64.39,62.07h-9.18c-.4,0-.73-.33-.73-.73v-4.89c0-.4,.33-.73,.73-.73h9.18c.4,0,.73,.33,.73,.73v4.89c0,.4-.33,.73-.73,.73Z"/>
        <path class="cls-2" d="M78.36,62.07h-9.18c-.4,0-.73-.33-.73-.73v-4.89c0-.4,.33-.73,.73-.73h9.18c.4,0,.73,.33,.73,.73v4.89c0,.4-.33,.73-.73,.73Z"/>
        <path class="cls-2" d="M92.34,62.07h-9.18c-.4,0-.73-.33-.73-.73v-4.89c0-.4,.33-.73,.73-.73h9.18c.4,0,.73,.33,.73,.73v4.89c0,.4-.33,.73-.73,.73Z"/>
        <path class="cls-2" d="M64.39,78.39h-9.18c-.4,0-.73-.33-.73-.73v-4.89c0-.4,.33-.73,.73-.73h9.18c.4,0,.73,.33,.73,.73v4.89c0,.4-.33,.73-.73,.73Z"/>
        <path class="cls-2" d="M78.36,78.39h-9.18c-.4,0-.73-.33-.73-.73v-4.89c0-.4,.33-.73,.73-.73h9.18c.4,0,.73,.33,.73,.73v4.89c0,.4-.33,.73-.73,.73Z"/>
        <path class="cls-2" d="M92.34,78.39h-9.18c-.4,0-.73-.33-.73-.73v-4.89c0-.4,.33-.73,.73-.73h9.18c.4,0,.73,.33,.73,.73v4.89c0,.4-.33,.73-.73,.73Z"/>
        <path class="cls-4" d="M62.9,46.39h-10.64c-.54,0-.97-.43-.97-.97v-5.67c0-.54,.43-.97,.97-.97h10.64c.54,0,.97,.43,.97,.97v5.67c0,.54-.43,.97-.97,.97Zm-10.64-7.36c-.4,0-.72,.32-.72,.72v5.67c0,.4,.32,.72,.72,.72h10.64c.4,0,.72-.32,.72-.72v-5.67c0-.4-.32-.72-.72-.72h-10.64Z"/>
        <path class="cls-4" d="M79.09,46.39h-10.64c-.54,0-.97-.43-.97-.97v-5.67c0-.54,.43-.97,.97-.97h10.64c.54,0,.97,.43,.97,.97v5.67c0,.54-.43,.97-.97,.97Zm-10.64-7.36c-.4,0-.72,.32-.72,.72v5.67c0,.4,.32,.72,.72,.72h10.64c.4,0,.72-.32,.72-.72v-5.67c0-.4-.32-.72-.72-.72h-10.64Z"/>
        <path class="cls-4" d="M95.28,46.39h-10.64c-.54,0-.97-.43-.97-.97v-5.67c0-.54,.43-.97,.97-.97h10.64c.54,0,.97,.43,.97,.97v5.67c0,.54-.43,.97-.97,.97Zm-10.64-7.36c-.4,0-.72,.32-.72,.72v5.67c0,.4,.32,.72,.72,.72h10.64c.4,0,.72-.32,.72-.72v-5.67c0-.4-.32-.72-.72-.72h-10.64Z"/>
        <path class="cls-4" d="M62.9,62.7h-10.64c-.54,0-.97-.43-.97-.97v-5.67c0-.54,.43-.97,.97-.97h10.64c.54,0,.97,.43,.97,.97v5.67c0,.54-.43,.97-.97,.97Zm-10.64-7.36c-.4,0-.72,.32-.72,.72v5.67c0,.4,.32,.72,.72,.72h10.64c.4,0,.72-.32,.72-.72v-5.67c0-.4-.32-.72-.72-.72h-10.64Z"/>
        <path class="cls-4" d="M79.09,62.7h-10.64c-.54,0-.97-.43-.97-.97v-5.67c0-.54,.43-.97,.97-.97h10.64c.54,0,.97,.43,.97,.97v5.67c0,.54-.43,.97-.97,.97Zm-10.64-7.36c-.4,0-.72,.32-.72,.72v5.67c0,.4,.32,.72,.72,.72h10.64c.4,0,.72-.32,.72-.72v-5.67c0-.4-.32-.72-.72-.72h-10.64Z"/>
        <path class="cls-4" d="M95.28,62.7h-10.64c-.54,0-.97-.43-.97-.97v-5.67c0-.54,.43-.97,.97-.97h10.64c.54,0,.97,.43,.97,.97v5.67c0,.54-.43,.97-.97,.97Zm-10.64-7.36c-.4,0-.72,.32-.72,.72v5.67c0,.4,.32,.72,.72,.72h10.64c.4,0,.72-.32,.72-.72v-5.67c0-.4-.32-.72-.72-.72h-10.64Z"/>
        <path class="cls-4" d="M62.9,79.02h-10.64c-.54,0-.97-.43-.97-.97v-5.67c0-.54,.43-.97,.97-.97h10.64c.54,0,.97,.43,.97,.97v5.67c0,.54-.43,.97-.97,.97Zm-10.64-7.36c-.4,0-.72,.32-.72,.72v5.67c0,.4,.32,.72,.72,.72h10.64c.4,0,.72-.32,.72-.72v-5.67c0-.4-.32-.72-.72-.72h-10.64Z"/>
        <path class="cls-4" d="M79.09,79.02h-10.64c-.54,0-.97-.43-.97-.97v-5.67c0-.54,.43-.97,.97-.97h10.64c.54,0,.97,.43,.97,.97v5.67c0,.54-.43,.97-.97,.97Zm-10.64-7.36c-.4,0-.72,.32-.72,.72v5.67c0,.4,.32,.72,.72,.72h10.64c.4,0,.72-.32,.72-.72v-5.67c0-.4-.32-.72-.72-.72h-10.64Z"/>
        <path class="cls-4" d="M95.28,79.02h-10.64c-.54,0-.97-.43-.97-.97v-5.67c0-.54,.43-.97,.97-.97h10.64c.54,0,.97,.43,.97,.97v5.67c0,.54-.43,.97-.97,.97Zm-10.64-7.36c-.4,0-.72,.32-.72,.72v5.67c0,.4,.32,.72,.72,.72h10.64c.4,0,.72-.32,.72-.72v-5.67c0-.4-.32-.72-.72-.72h-10.64Z"/>
        <path class="cls-4" d="M80.06,86.2c0-.59-.47-1.08-1.06-1.08h-5.23v12.89h6.29v-11.8Z"/>
        <path class="cls-4" d="M73.89,97.88h-6.54v-11.64c0-.65,.53-1.18,1.18-1.18h5.36v12.83Zm-6.29-.25h6.04v-12.33h-5.11c-.52,0-.93,.42-.93,.93v11.4Z"/>
        <circle class="cls-4" cx="68.17" cy="91.96" r=".37"/>
      </g>
    </g>
  </g>
</svg>