<?xml version="1.0" encoding="UTF-8"?>
<svg id="projects_page_helper_image" data-name="projects page helper image" xmlns="http://www.w3.org/2000/svg" viewBox="0 0 200 100">
  <defs>
    <style>
      .cls-1 {
        fill: #f2f2f2;
      }

      .cls-2 {
        fill: #e6e6e6;
      }

      .cls-3 {
        fill: #fff;
      }

      .cls-4 {
        fill: #ffb8b8;
      }

      .cls-5 {
        fill: #ff0004;
      }

      .cls-6 {
        fill: #a0616a;
      }

      .cls-7 {
        fill: #ccc;
      }

      .cls-8 {
        fill: #3f3d56;
      }

      .cls-9 {
        fill: #2f2e41;
      }
    </style>
  </defs>
  <g id="_200_wide_100_high" data-name="200 wide 100 high">
    <path id="ground" class="cls-7" d="m197.86,98.24H1.84c-.41,0-.74-.11-.74-.24s.33-.24.74-.24h196.01c.41,0,.74.11.74.24s-.33.24-.74.24Z"/>
    <g id="work_chat" data-name="work chat">
      <path class="cls-2" d="m76.05,86.6c-2.02.71-4.27.32-5.93-1.04-2.08-1.74-2.73-4.62-3.26-7.28l-1.57-7.87,3.28,2.26c2.36,1.63,4.77,3.3,6.41,5.66s2.35,5.57,1.03,8.12"/>
      <path class="cls-1" d="m75.76,96.13c.33-2.42.67-4.87.44-7.32-.21-2.17-.87-4.29-2.22-6.03-.72-.92-1.59-1.71-2.57-2.33-.26-.16-.49.25-.24.41,1.71,1.08,3.03,2.67,3.77,4.55.82,2.09.95,4.37.81,6.59-.09,1.34-.27,2.68-.45,4.01-.03.12.04.25.16.29.13.03.25-.04.29-.16h0Z"/>
      <path class="cls-2" d="m72.56,91.85c-.87,1.32-2.36,2.09-3.94,2.03-1.99-.09-3.66-1.49-5.15-2.81l-4.43-3.91,2.93-.14c2.11-.1,4.27-.19,6.28.45s3.86,2.21,4.23,4.29"/>
      <path class="cls-1" d="m76.7,97.52c-1.6-2.83-3.45-5.97-6.77-6.98-.92-.28-1.89-.38-2.85-.29-.3.03-.23.49.07.47,1.61-.13,3.21.29,4.54,1.2,1.28.87,2.28,2.08,3.12,3.37.52.79.98,1.61,1.44,2.43.15.26.58.07.43-.19h0Z"/>
      <path class="cls-7" d="m119.56,40.84l-34.86,28.89c-.91.76-2.27.63-3.02-.28l-14.7-17.73c-.76-.91-.63-2.27.28-3.02l34.86-28.89c.91-.76,2.27-.63,3.02.28l14.7,17.73c.76.91.63,2.27-.28,3.02Z"/>
      <path class="cls-3" d="m118.16,39.97l-34.06,28.23c-.47.39-1.17.32-1.56-.15l-14.03-16.93c-.39-.47-.32-1.17.15-1.56l34.06-28.23c.47-.39,1.17-.32,1.56.15l14.03,16.93c.39.47.32,1.17-.15,1.56Z"/>
      <path class="cls-7" d="m119.73,45.88l-7.01-.66,5.01-3.95,2.7,3.26c.22.25.25.62.09.91-.05.1-.12.18-.2.25-.17.14-.38.2-.6.18Z"/>
      <path class="cls-7" d="m105.67,33.33l-17.23,14.28c-.44.37-1.1.31-1.47-.14-.37-.44-.31-1.1.14-1.47l17.23-14.28c.44-.37,1.1-.31,1.47.14.37.44.31,1.1-.14,1.47h0Z"/>
      <path class="cls-7" d="m97.23,34.57l-11.62,9.63c-.44.37-1.1.31-1.47-.14-.37-.44-.31-1.1.14-1.47h0l11.62-9.63c.44-.37,1.1-.31,1.47.14.37.44.31,1.1-.14,1.47h0Z"/>
      <circle class="cls-5" cx="79.23" cy="51.02" r="3.25"/>
      <circle class="cls-2" cx="105.1" cy="43.46" r="1.04"/>
      <circle class="cls-2" cx="107.91" cy="41.13" r="1.04"/>
      <circle class="cls-2" cx="110.71" cy="38.81" r="1.04"/>
      <polygon class="cls-4" points="94.12 95.71 96.51 95.71 97.65 86.49 94.12 86.49 94.12 95.71"/>
      <path class="cls-9" d="m93.51,94.93h4.71s0,0,0,0c1.66,0,3,1.34,3,3h0v.1h-7.71s0-3.1,0-3.1Z"/>
      <polygon class="cls-4" points="85.55 95.71 87.94 95.71 89.07 86.49 85.55 86.49 85.55 95.71"/>
      <path class="cls-9" d="m84.94,94.93h4.71s0,0,0,0c1.66,0,3,1.34,3,3h0v.1h-7.71s0-3.1,0-3.1Z"/>
      <path class="cls-9" d="m87.94,92.89h-2.03c-.47,0-.86-.37-.88-.85l-.06-1.78c-.51-14.22-1.04-28.92,2.24-35.53l.03-.05,10.89-.39,2.19,20.06c.09.86.06,1.72-.1,2.57l-2.89,15.23c-.08.43-.46.73-.9.71l-2.28-.07c-.48-.02-.86-.43-.84-.91,0-.02,0-.03,0-.05l1.79-14.09c.06-.61,0-1.22-.16-1.81l-2.23-7.8c-.04-.16-.21-.25-.36-.2-.11.03-.19.13-.21.24l-3.33,23.96c-.06.43-.43.75-.87.76Z"/>
      <circle class="cls-4" cx="89.25" cy="29.45" r="4.79"/>
      <path class="cls-5" d="m97.62,55.77h-9.91c-.48,0-.88-.39-.88-.88,0-.04,0-.08,0-.13l.49-3.35-2.87-7.9c-1.1-3.02.46-6.36,3.48-7.45.39-.14.79-.24,1.2-.3h0c2.52-.35,4.97.98,6.05,3.28l.63,1.34,2.66,14.35c.09.48-.23.93-.7,1.02-.05,0-.11.01-.16.01h0Z"/>
      <path class="cls-4" d="m76.71,64.18c1.13-.26,1.83-1.39,1.57-2.51-.03-.12-.07-.24-.11-.35l7.72-17.44-4.42-1.11-6.2,17.49c-1.04.53-1.45,1.8-.92,2.83.44.87,1.42,1.32,2.37,1.09h0Z"/>
      <path class="cls-5" d="m84.84,46.99l-4.29-2.01c-.47-.22-.67-.78-.45-1.25.02-.04.04-.08.07-.12l2.61-3.94c.62-1.3,2.17-1.85,3.47-1.23,1.29.62,1.85,2.16,1.24,3.46l-1.35,4.51c-.15.5-.67.78-1.17.63-.04-.01-.09-.03-.13-.05h0Z"/>
      <path class="cls-4" d="m108.91,19.3c.35,1.1-.26,2.28-1.36,2.63-.12.04-.24.06-.36.08l-11.03,15.56-3.22-3.22,11.85-14.28c-.08-1.16.8-2.16,1.96-2.24.97-.06,1.86.54,2.15,1.47h0Z"/>
      <path class="cls-5" d="m98.72,35.75c.03.27-.06.54-.24.74l-3.19,3.47c-.81,1.19-2.43,1.5-3.62.7-1.19-.8-1.5-2.42-.71-3.61l2.05-4.26c.22-.47.79-.66,1.25-.44.04.02.08.04.12.07l3.93,2.66c.23.15.37.4.41.67Z"/>
      <path class="cls-9" d="m95.54,27.44c0-.43-.06-.86-.18-1.28-.77-2.85-3.62-4.56-6.48-4.13-.56-.16-1.13-.24-1.71-.24h0c-3.04,0-5.62,2.21-6.09,5.22l-2.31,14.86h12.47l2.01-12.97c.07-.48.09-.97.05-1.46h2.22Z"/>
      <path class="cls-6" d="m159.29,35.67c1.08-.1,2.04.69,2.14,1.76.01.11.01.23,0,.35l6.38,2.81-3.04,1.96-5.59-2.97c-1.08-.16-1.82-1.16-1.66-2.24.13-.9.87-1.59,1.77-1.67h0Z"/>
      <circle class="cls-6" cx="185.01" cy="27.39" r="4.79"/>
      <polygon class="cls-6" points="176.34 95.65 173.95 95.65 172.82 86.43 176.34 86.43 176.34 95.65"/>
      <path class="cls-9" d="m176.95,97.97h-7.71v-.1c0-1.66,1.34-3,3-3h4.71s0,3.1,0,3.1Z"/>
      <polygon class="cls-6" points="186.28 95.65 183.89 95.65 182.76 86.43 186.28 86.43 186.28 95.65"/>
      <path class="cls-9" d="m186.89,97.97h-7.71v-.1c0-1.66,1.34-3,3-3h4.71s0,3.1,0,3.1Z"/>
      <path class="cls-9" d="m186.17,93.69s-.07,0-.11,0l-3.5-.43c-.42-.05-.75-.4-.77-.83l-1.02-22.95c0-.16-.15-.28-.31-.28-.11,0-.2.07-.25.17l-2.62,8.73-.54,14.02c-.02.48-.43.86-.91.84-.02,0-.05,0-.07,0l-3.03-.36c-.45-.05-.78-.44-.77-.89l.26-13.2,2.05-20.72h.09s12.48.48,12.48.48l-.11,34.54c0,.48-.39.87-.88.87Z"/>
      <path class="cls-8" d="m186.69,60.17s-.02,0-.02,0l-12.57-.33c-.48-.01-.87-.42-.85-.9,0-.03,0-.06,0-.1l2.42-17.77c.31-2.43,1.63-4.61,3.64-6,1.77-1.22,3.98-1.61,6.06-1.08,4.39,1.11,7.02,5.82,5.87,10.5l-3.7,15.01c-.1.39-.45.67-.85.67Z"/>
      <path class="cls-8" d="m170.2,46.05c-.83,0-1.64-.24-2.33-.69l-7.33-4.81c-.4-.27-.52-.81-.25-1.21.03-.04.06-.08.1-.12l1.1-1.17c.25-.26.63-.35.96-.21l8.19,3.26,7.58-5.42c1.42-1.01,3.38-.68,4.39.73,1.01,1.42.68,3.38-.73,4.39-.14.1-.3.19-.45.27l-9.37,4.55c-.58.28-1.21.42-1.85.42Z"/>
      <path class="cls-9" d="m186.67,31.97c.82.19,1.8.34,2.39-.26.1-.11.2-.24.28-.37l.76-1.17c.58-.89,1.18-1.81,1.43-2.85.59-2.49-.94-4.98-3.43-5.57-.02,0-.04,0-.06-.01-1.14-.26-2.25-.69-3.42-.61s-2.53.05-3.51-.58c.06.28.39,1.54.39,1.54,0,0-1.47,1.35-1.76,1.68,1.39-.62,3.03.01,3.64,1.41.1.22.16.44.2.67.08.51.03,1.08.34,1.5.29.4.81.54,1.24.77,1.3.74,1.86,2.31,1.33,3.71l.18.14Z"/>
      <path class="cls-7" d="m180.92,61.88h-39.68c-1.04,0-1.88-.84-1.88-1.88v-20.18c0-1.04.84-1.88,1.88-1.88h39.68c1.04,0,1.88.84,1.88,1.88v20.18c0,1.04-.84,1.88-1.88,1.88Z"/>
      <path class="cls-3" d="m180.46,60.51h-38.77c-.54,0-.97-.43-.97-.97v-19.27c0-.54.43-.97.97-.97h38.77c.54,0,.97.43.97.97v19.27c0,.54-.43.97-.97.97Z"/>
      <path class="cls-7" d="m178.22,65.38l-4.36-4.36,5.59.14v3.71c0,.29-.17.56-.44.67-.09.04-.18.06-.28.06-.19,0-.37-.08-.5-.21Z"/>
      <path class="cls-7" d="m175.74,49.04h-19.61c-.5,0-.91-.41-.91-.91s.41-.91.91-.91h19.61c.5,0,.91.41.91.91s-.41.91-.91.91Z"/>
      <path class="cls-7" d="m169.36,45.17h-13.23c-.5,0-.91-.41-.91-.91s.41-.91.91-.91h13.23c.5,0,.91.41.91.91s-.41.91-.91.91Z"/>
      <circle class="cls-5" cx="148.01" cy="46.19" r="2.85"/>
      <circle class="cls-2" cx="169.7" cy="55.56" r=".91"/>
      <circle class="cls-2" cx="172.89" cy="55.56" r=".91"/>
      <circle class="cls-2" cx="176.08" cy="55.56" r=".91"/>
      <path class="cls-6" d="m180.3,59.48c.12-1.08,1.09-1.85,2.16-1.73.11.01.23.04.34.07l4.05-5.67,1.3,3.38-4.05,4.86c-.38,1.02-1.51,1.54-2.53,1.17-.85-.31-1.38-1.17-1.28-2.08Z"/>
      <path class="cls-8" d="m184.94,59.17c-.06,0-.13,0-.19,0-.26-.03-.49-.18-.62-.4l-.86-1.36c-.19-.3-.18-.69.03-.98l5.19-7.12-3.37-8.69c-.63-1.59.14-3.39,1.72-4.04h0c1.6-.67,3.45.08,4.12,1.69.08.19.14.39.18.59l2.09,10.21c.3,1.46-.2,2.98-1.3,3.99l-6.47,5.91c-.14.13-.32.21-.52.23Z"/>
      <path class="cls-7" d="m47.06,49.92H7.38c-1.04,0-1.88-.84-1.88-1.88v-20.18c0-1.04.84-1.88,1.88-1.88h39.68c1.04,0,1.88.84,1.88,1.88v20.18c0,1.04-.84,1.88-1.88,1.88Z"/>
      <path class="cls-3" d="m46.61,48.56H7.84c-.54,0-.97-.43-.97-.97v-19.27c0-.54.43-.97.97-.97h38.77c.54,0,.97.43.97.97v19.27c0,.54-.43.97-.97.97Z"/>
      <path class="cls-7" d="m44.36,53.42l-4.36-4.36,5.59.14v3.71c0,.29-.17.56-.44.67-.09.04-.18.06-.28.06-.19,0-.37-.08-.5-.21Z"/>
      <path class="cls-7" d="m41.89,37.09h-19.61c-.5,0-.91-.41-.91-.91s.41-.91.91-.91h19.61c.5,0,.91.41.91.91s-.41.91-.91.91Z"/>
      <path class="cls-7" d="m35.5,33.21h-13.23c-.5,0-.91-.41-.91-.91s.41-.91.91-.91h13.23c.5,0,.91.41.91.91s-.41.91-.91.91h0Z"/>
      <circle class="cls-5" cx="14.16" cy="34.24" r="2.85"/>
      <circle class="cls-2" cx="35.84" cy="43.6" r=".91"/>
      <circle class="cls-2" cx="39.04" cy="43.6" r=".91"/>
      <circle class="cls-2" cx="42.23" cy="43.6" r=".91"/>
      <path class="cls-4" d="m45.42,24.04c-1.02.37-1.55,1.49-1.18,2.51.04.11.09.21.15.31l-4.56,5.26,3.59.48,3.78-5.07c.91-.6,1.15-1.83.55-2.73-.51-.76-1.46-1.07-2.32-.76Z"/>
      <path class="cls-4" d="m14.94,26.15c.37,1.02-.16,2.14-1.18,2.51-.11.04-.22.07-.33.09l-1.14,6.87-2.66-2.46,1.49-6.15c-.11-1.08.67-2.05,1.76-2.16.91-.09,1.76.44,2.06,1.3h0Z"/>
      <polygon class="cls-4" points="22.07 95.65 24.46 95.65 25.6 86.43 22.07 86.43 22.07 95.65"/>
      <path class="cls-9" d="m21.46,94.87h4.71s0,0,0,0c1.66,0,3,1.34,3,3h0v.1h-7.71s0-3.1,0-3.1Z"/>
      <polygon class="cls-4" points="9.79 95.65 12.18 95.65 13.32 86.43 9.79 86.43 9.79 95.65"/>
      <path class="cls-9" d="m9.18,94.87h4.71s0,0,0,0c1.66,0,3,1.34,3,3h0v.1h-7.71s0-3.1,0-3.1Z"/>
      <circle class="cls-4" cx="21.57" cy="27.93" r="4.79"/>
      <path class="cls-9" d="m21,92.59l-.4-25.22c0-.16-.14-.29-.3-.29-.13,0-.25.09-.28.22l-6.49,24.67c-.1.41-.47.69-.89.67l-3.56-.15c-.48-.02-.86-.43-.84-.91,0-.02,0-.05,0-.07l5.51-31.7v-.09s15.35.73,15.35.73h.1s-3.29,32.2-3.29,32.2c-.04.46-.42.81-.87.81h-3.16c-.48,0-.87-.39-.88-.86Z"/>
      <path class="cls-9" d="m33.11,62.58l-22.25-1.83c-.48-.04-.84-.46-.8-.95,0-.08.02-.15.05-.23l3.5-9.69.2-11.5c.03-1.74,1.47-3.13,3.21-3.1.01,0,.03,0,.04,0l1.48-1.34h5.42l.47.62,3.77.58c1.38.22,2.45,1.31,2.65,2.7l3.2,23.74c.06.48-.27.92-.75.99-.04,0-.08,0-.12,0-.02,0-.05,0-.07,0Z"/>
      <path class="cls-9" d="m28.78,36.26l9.49-2.78,4.29-5.65c.24-.32.67-.43,1.04-.28l2.68,1.15c.45.19.65.71.46,1.15-.01.03-.03.07-.05.1l-3.21,5.51c-.52.9-1.32,1.61-2.27,2.03l-11.16,4.93-1.28-6.16Z"/>
      <path class="cls-9" d="m10.57,40.42c-1.15-.83-1.79-2.2-1.68-3.62l.42-5.52c.04-.46.42-.81.87-.81h0l3.14.03c.48,0,.87.4.87.89,0,.05,0,.11-.02.16l-.58,2.98,4.16,1.76-3.51,6.82-3.69-2.68Z"/>
      <path class="cls-9" d="m24.36,22.19s-5.01-2.7-7.74.49,1.04,8.16,1.04,8.16l5.37.68s.19-3.65,1.47-3.58,5.25-4.53-.15-5.74Z"/>
    </g>
  </g>
</svg>