<?xml version="1.0" encoding="UTF-8"?>
<svg id="projects_page_helper_image" data-name="projects page helper image" xmlns="http://www.w3.org/2000/svg" viewBox="0 0 150 100">
  <defs>
    <style>
      .cls-1 {
        fill: #f2f2f2;
      }

      .cls-2, .cls-3 {
        fill: #e6e6e6;
      }

      .cls-4 {
        fill: #fff;
      }

      .cls-5 {
        fill: #ffb6b6;
      }

      .cls-6 {
        fill: #e4e4e4;
      }

      .cls-7 {
        fill: #ff6363;
      }

      .cls-8 {
        fill: #9e616a;
      }

      .cls-9 {
        fill: #ccc;
      }

      .cls-10 {
        fill: #3f3d56;
      }

      .cls-11 {
        fill: #2f2e41;
      }

      .cls-3 {
        stroke: #fff;
        stroke-miterlimit: 10;
      }
    </style>
  </defs>
  <g id="_150_wide_100_high" data-name="150 wide 100 high">
    <path id="ground" class="cls-10" d="M147.67,98.24H2.33c-.3,0-.55-.11-.55-.24s.24-.24,.55-.24H147.67c.3,0,.55,.11,.55,.24s-.24,.24-.55,.24Z"/>
    <g id="project">
      <path class="cls-6" d="M37.58,77.58l-.73,3.64c-.05,.28-.11,.56-.17,.84-.61-.13-1.24-.09-1.82,.1,.47,.67,.89,1.37,1.25,2.1-.46,1.41-1.13,2.71-2.25,3.65-1.53,1.25-3.6,1.62-5.46,.96l.03-.14c-1.21-2.34-.55-5.3,.95-7.47,.77-1.07,1.67-2.03,2.7-2.85,1.01-.85,2.11-1.6,3.2-2.35,.68-.47,1.6-.29,2.07,.38,.23,.33,.31,.74,.23,1.13Z"/>
      <path id="b311a411-101b-4365-a37b-2cdfec47a637-287" class="cls-1" d="M28.66,97.64c-.31-2.23-.62-4.48-.41-6.73,.19-2,.8-3.95,2.04-5.55,.66-.85,1.46-1.57,2.37-2.15,.24-.15,.45,.23,.22,.37-1.57,.99-2.79,2.46-3.47,4.19-.76,1.92-.88,4.02-.75,6.06,.08,1.23,.25,2.46,.41,3.69,.03,.12-.04,.23-.15,.27-.12,.03-.23-.04-.27-.15h0Z"/>
      <path class="cls-4" d="M28.44,3.16c-2.13,0-3.86,1.73-3.87,3.87v61.52c0,2.13,1.73,3.86,3.87,3.87H119.9c2.13,0,3.86-1.73,3.87-3.87V7.02c0-2.13-1.73-3.86-3.87-3.87H28.44Z"/>
      <path class="cls-4" d="M119.9,72.91H28.44c-2.41,0-4.36-1.95-4.36-4.36V7.02c0-2.41,1.95-4.36,4.36-4.36H119.9c2.41,0,4.36,1.95,4.36,4.36v61.52c0,2.41-1.95,4.36-4.36,4.36Z"/>
      <path class="cls-2" d="M31.28,15.99c10.65-.19,21.3-.21,31.95-.08,10.65,.13,21.3,.42,31.94,.88,5.97,.25,11.94,.56,17.91,.91,.48,.03,.48-.72,0-.75-10.63-.63-21.27-1.1-31.92-1.41-10.65-.31-21.3-.46-31.95-.46-5.98,0-11.96,.06-17.93,.16-.48,0-.48,.75,0,.75h0Z"/>
      <path class="cls-2" d="M105.5,11.32l4.66-.35c.48-.04,.48-.78,0-.75l-4.66,.35c-.48,.04-.48,.78,0,.75Z"/>
      <path class="cls-2" d="M105.5,15.79l4.66-.35c.48-.04,.48-.78,0-.75l-4.66,.35c-.48,.04-.48,.78,0,.75Z"/>
      <path class="cls-2" d="M105.15,13.75l6.62,.6c.48,.04,.47-.7,0-.75l-6.62-.6c-.48-.04-.47,.7,0,.75Z"/>
      <path class="cls-2" d="M34.04,10.31c-.66,0-1.26,.39-1.52,1-.3,.6-.16,1.32,.34,1.76,.46,.39,1.09,.52,1.67,.34,.6-.21,1-.77,1-1.4,.03-.7-.39-1.34-1.04-1.61-.2-.05-.4,.06-.46,.26-.05,.2,.07,.4,.26,.46,.06,.03-.06-.03,0,0,.02,.01,.05,.03,.07,.04,.02,.01,.04,.03,.06,.04,.07,.05-.03-.03,.01,0,.04,.04,.08,.07,.11,.11,.01,.01,.07,.06,.02,.03-.03-.02-.01-.02,0,0,0,.01,.02,.03,.03,.04,.03,.04,.06,.09,.08,.14,0,.01,.01,.02,.02,.03,.01,.02,.03,.03,0,0-.02-.02,0-.02,0,0,0,.02,.01,.03,.02,.05,.02,.05,.03,.1,.04,.15,0,.02,0,.05,.01,.07,.02,.09,0-.05,0,.01,0,.05,0,.11,0,.16,0,.02,0,.05,0,.07,0,.01,0,.02,0,.04,0,.06,0-.02,0-.03-.02,.05-.03,.1-.03,.15,0,.02-.01,.05-.02,.07-.03,.08,.02-.04,0,.01-.02,.05-.05,.09-.08,.14-.01,.02-.06,.06-.02,.03,.04-.03-.02,.02-.03,.04-.02,.02-.03,.04-.05,.05-.01,.01-.02,.02-.04,.03,0,0,.06-.04,.03-.02-.04,.03-.09,.06-.13,.08,0,0-.07,.03-.06,.03,0-.01,.08-.03,.02-.01-.01,0-.02,0-.03,.01-.05,.02-.1,.03-.15,.04-.01,0-.02,0-.04,0-.04,0,.04,0,.04,0-.03,0-.06,0-.08,0-.05,0-.11,0-.16,0-.01,0-.02,0-.04,0-.03,0-.05-.02-.01,0,.03,.02,.03,0,0,0-.01,0-.02,0-.04,0-.05,0-.1-.02-.16-.04-.03,0-.05-.02-.08-.03-.01,0-.02,0-.03-.01,0,0,.07,.03,.03,.01-.05-.03-.09-.05-.14-.07-.02-.01-.05-.03-.07-.05-.01,0-.02-.01-.03-.02,0,0,.06,.05,.03,.02-.04-.04-.08-.07-.11-.11,0,0-.02-.02-.02-.03h0s-.02-.03,0,0c.02,0,.02,.03,0,0,0-.01-.01-.02-.02-.03-.03-.04-.06-.09-.08-.14,0,0,.03,.09,0,.02,0-.01,0-.03-.01-.04,0-.03-.02-.05-.02-.08,0-.03,0-.05-.02-.08-.01-.04,0,.03,0,.03,0,0,0-.04,0-.05,0-.06,0-.12,0-.17,0-.05,0,.04,0,.03,0-.01,0-.03,0-.04,0-.03,.01-.06,.02-.09,0-.03,.02-.07,.03-.1,0-.01,.01-.03,.01-.04,.02-.05-.03,.06,0,.01,.04-.06,.06-.12,.1-.18,0-.01,.06-.09,.03-.05-.03,.04,.03-.03,.04-.05,.05-.05,.1-.09,.15-.14,.03-.03-.02,.01-.02,.02,.01-.01,.03-.02,.04-.03,.03-.02,.05-.03,.08-.05,.03-.02,.07-.03,.09-.05,.04-.02-.03,0-.03,.01,.02,0,.03-.01,.05-.02,.03-.01,.15-.06,.18-.05,0,0-.1,0-.02,0,.02,0,.04,0,.05,0,.04,0,.07,0,.11,0,.21,0,.37-.17,.37-.37,0-.2-.17-.37-.37-.37h0Z"/>
      <path class="cls-2" d="M39.26,10.31c-.66,0-1.26,.39-1.52,1-.3,.6-.16,1.32,.34,1.76,.46,.39,1.09,.52,1.67,.34,.6-.21,1-.77,1-1.4,.03-.7-.39-1.34-1.04-1.61-.2-.05-.4,.06-.46,.26-.05,.2,.07,.4,.26,.46,.06,.03-.06-.03,0,0,.02,.01,.05,.03,.07,.04,.02,.01,.04,.03,.06,.04,.07,.05-.03-.03,.01,0,.04,.04,.08,.07,.11,.11,.01,.01,.07,.06,.02,.03-.03-.02-.01-.02,0,0,0,.01,.02,.03,.03,.04,.03,.04,.06,.09,.08,.14,0,.01,.01,.02,.02,.03,.01,.02,.03,.03,0,0-.02-.02,0-.02,0,0,0,.02,.01,.03,.02,.05,.02,.05,.03,.1,.04,.15,0,.02,0,.05,.01,.07,.02,.09,0-.05,0,.01,0,.05,0,.11,0,.16,0,.02,0,.05,0,.07,0,.01,0,.02,0,.04,0,.06,0-.02,0-.03-.02,.05-.03,.1-.03,.15,0,.02-.01,.05-.02,.07-.03,.08,.02-.04,0,.01-.02,.05-.05,.09-.08,.14-.01,.02-.06,.06-.02,.03,.04-.03-.02,.02-.03,.04-.02,.02-.03,.04-.05,.05-.01,.01-.02,.02-.04,.03,0,0,.06-.04,.03-.02-.04,.03-.09,.06-.13,.08,0,0-.07,.03-.06,.03,0-.01,.08-.03,.02-.01-.01,0-.02,0-.03,.01-.05,.02-.1,.03-.15,.04-.01,0-.02,0-.04,0-.04,0,.04,0,.04,0-.03,0-.06,0-.08,0-.05,0-.11,0-.16,0-.01,0-.02,0-.04,0-.03,0-.05-.02-.01,0,.03,.02,.03,0,0,0-.01,0-.02,0-.04,0-.05,0-.1-.02-.16-.04-.03,0-.05-.02-.08-.03-.01,0-.02,0-.03-.01,0,0,.07,.03,.03,.01-.05-.03-.09-.05-.14-.07-.02-.01-.05-.03-.07-.05-.01,0-.02-.01-.03-.02,0,0,.06,.05,.03,.02-.04-.04-.08-.07-.11-.11,0,0-.02-.02-.02-.03h0s-.02-.03,0,0c.02,0,.02,.03,0,0,0-.01-.01-.02-.02-.03-.03-.04-.06-.09-.08-.14,0,0,.03,.09,0,.02,0-.01,0-.03-.01-.04,0-.03-.02-.05-.02-.08,0-.03,0-.05-.02-.08-.01-.04,0,.03,0,.03,0,0,0-.04,0-.05,0-.06,0-.12,0-.17,0-.05,0,.04,0,.03,0-.01,0-.03,0-.04,0-.03,.01-.06,.02-.09,0-.03,.02-.07,.03-.1,0-.01,.01-.03,.01-.04,.02-.05-.03,.06,0,.01,.04-.06,.06-.12,.1-.18,0-.01,.06-.09,.03-.05-.03,.04,.03-.03,.04-.05,.05-.05,.1-.09,.15-.14,.03-.03-.02,.01-.02,.02,.01-.01,.03-.02,.04-.03,.03-.02,.05-.03,.08-.05,.03-.02,.07-.03,.09-.05,.04-.02-.03,0-.03,.01,.02,0,.03-.01,.05-.02,.03-.01,.15-.06,.18-.05,0,0-.1,0-.02,0,.02,0,.04,0,.05,0,.04,0,.07,0,.11,0,.21,0,.37-.17,.37-.37,0-.2-.17-.37-.37-.37h0Z"/>
      <path class="cls-2" d="M44.48,10.31c-.66,0-1.26,.39-1.52,1-.3,.6-.16,1.32,.34,1.76,.46,.39,1.09,.52,1.67,.34,.6-.21,1-.77,1-1.4,.03-.7-.39-1.34-1.04-1.61-.2-.05-.4,.06-.46,.26-.05,.2,.07,.4,.26,.46,.06,.03-.06-.03,0,0,.02,.01,.05,.03,.07,.04,.02,.01,.04,.03,.06,.04,.07,.05-.03-.03,.01,0,.04,.04,.08,.07,.11,.11,.01,.01,.07,.06,.02,.03-.03-.02-.01-.02,0,0,0,.01,.02,.03,.03,.04,.03,.04,.06,.09,.08,.14,0,.01,.01,.02,.02,.03,.01,.02,.03,.03,0,0-.02-.02,0-.02,0,0,0,.02,.01,.03,.02,.05,.02,.05,.03,.1,.04,.15,0,.02,0,.05,.01,.07,.02,.09,0-.05,0,.01,0,.05,0,.11,0,.16,0,.02,0,.05,0,.07,0,.01,0,.02,0,.04,0,.06,0-.02,0-.03-.02,.05-.03,.1-.03,.15,0,.02-.01,.05-.02,.07-.03,.08,.02-.04,0,.01-.02,.05-.05,.09-.08,.14-.01,.02-.06,.06-.02,.03,.04-.03-.02,.02-.03,.04-.02,.02-.03,.04-.05,.05-.01,.01-.02,.02-.04,.03,0,0,.06-.04,.03-.02-.04,.03-.09,.06-.13,.08,0,0-.07,.03-.06,.03,0-.01,.08-.03,.02-.01-.01,0-.02,0-.03,.01-.05,.02-.1,.03-.15,.04-.01,0-.02,0-.04,0-.04,0,.04,0,.04,0-.03,0-.06,0-.08,0-.05,0-.11,0-.16,0-.01,0-.02,0-.04,0-.03,0-.05-.02-.01,0,.03,.02,.03,0,0,0-.01,0-.02,0-.04,0-.05,0-.1-.02-.16-.04-.03,0-.05-.02-.08-.03-.01,0-.02,0-.03-.01,0,0,.07,.03,.03,.01-.05-.03-.09-.05-.14-.07-.02-.01-.05-.03-.07-.05-.01,0-.02-.01-.03-.02,0,0,.06,.05,.03,.02-.04-.04-.08-.07-.11-.11,0,0-.02-.02-.02-.03h0s-.02-.03,0,0c.02,0,.02,.03,0,0,0-.01-.01-.02-.02-.03-.03-.04-.06-.09-.08-.14,0,0,.03,.09,0,.02,0-.01,0-.03-.01-.04,0-.03-.02-.05-.02-.08,0-.03,0-.05-.02-.08-.01-.04,0,.03,0,.03,0,0,0-.04,0-.05,0-.06,0-.12,0-.17,0-.05,0,.04,0,.03,0-.01,0-.03,0-.04,0-.03,.01-.06,.02-.09,0-.03,.02-.07,.03-.1,0-.01,.01-.03,.01-.04,.02-.05-.03,.06,0,.01,.04-.06,.06-.12,.1-.18,0-.01,.06-.09,.03-.05-.03,.04,.03-.03,.04-.05,.05-.05,.1-.09,.15-.14,.03-.03-.02,.01-.02,.02,.01-.01,.03-.02,.04-.03,.03-.02,.05-.03,.08-.05,.03-.02,.07-.03,.09-.05,.04-.02-.03,0-.03,.01,.02,0,.03-.01,.05-.02,.03-.01,.15-.06,.18-.05,0,0-.1,0-.02,0,.02,0,.04,0,.05,0,.04,0,.07,0,.11,0,.21,0,.37-.17,.37-.37,0-.2-.17-.37-.37-.37h0Z"/>
      <path class="cls-3" d="M119.9,72.91H28.44c-2.41,0-4.36-1.95-4.36-4.36V7.02c0-2.41,1.95-4.36,4.36-4.36H119.9c2.41,0,4.36,1.95,4.36,4.36v61.52c0,2.41-1.95,4.36-4.36,4.36ZM28.44,3.16c-2.13,0-3.86,1.73-3.87,3.87v61.52c0,2.13,1.73,3.86,3.87,3.87H119.9c2.13,0,3.86-1.73,3.87-3.87V7.02c0-2.13-1.73-3.86-3.87-3.87H28.44Z"/>
      <path class="cls-2" d="M28.29,58.13l32.17-.1,32-.1,18.05-.05c.21,0,.37-.18,.36-.39,0-.2-.16-.35-.36-.36l-32.17,.1-32,.1-18.05,.05c-.21,0-.37,.18-.36,.39,0,.2,.16,.35,.36,.36Z"/>
      <path class="cls-2" d="M44.51,57.52l.2-11.74c0-.48-.74-.48-.75,0l-.2,11.74c0,.48,.74,.48,.75,0Z"/>
      <path class="cls-2" d="M59.89,57.65l.48-14.76,.14-4.22c.02-.48-.73-.48-.75,0l-.48,14.76-.14,4.22c-.02,.48,.73,.48,.75,0Z"/>
      <path class="cls-2" d="M75.22,31.67c-.29,5.23-.83,20.65-1.13,25.88-.03,.48,.72,.48,.75,0,.29-5.23,.83-20.65,1.13-25.88,.03-.48-.72-.48-.75,0Z"/>
      <path class="cls-2" d="M90.47,52.3l-.09,5.03c0,.48,.74,.48,.75,0,.11-5.94,.38-5.74,.42-7.42,0-.48-.74-.48-.75,0,0,0-.22-3.54-.32,2.39Z"/>
      <path class="cls-2" d="M105.42,39.1l.08,14.1,.02,4.04c0,.21,.18,.37,.39,.36,.2,0,.35-.16,.36-.36l-.08-14.1-.02-4.04c0-.21-.18-.37-.39-.36-.2,0-.35,.16-.36,.36Z"/>
      <path class="cls-2" d="M28.35,57.71c-.62-1.7,.77-3.33,2.2-4.06,1.71-.88,3.68-1.08,5.42-1.92,2.58-1.26,4.46-3.53,6.13-5.8,1.72-2.33,3.3-4.84,5.49-6.78,1.15-1.04,2.51-1.83,3.99-2.31,1.87-.58,3.84-.62,5.77-.39,3.98,.48,7.67,2.13,11.52,3.18,3.62,.99,7.61,1.54,11.17,0,1.81-.78,3.28-2.08,4.87-3.21,1.54-1.11,3.25-1.93,5.07-2.45,3.57-.99,7.47-.73,10.79,.95,3.05,1.52,5.47,4.08,6.83,7.21,1.58,3.76,1.37,7.97,.86,11.93-.13,1.02-.29,2.04-.45,3.06-.07,.47,.64,.67,.72,.2,.64-4.08,1.28-8.3,.48-12.41-.69-3.59-2.66-6.8-5.55-9.04-2.9-2.25-6.51-3.38-10.17-3.21-1.92,.09-3.81,.51-5.59,1.24-1.84,.76-3.41,1.89-4.99,3.08-1.63,1.22-3.31,2.24-5.34,2.63-1.96,.39-4.01,.24-5.96-.12-4.04-.75-7.8-2.48-11.8-3.37-3.71-.82-7.71-.9-11.03,1.19-2.55,1.61-4.36,4.11-6.09,6.53-1.72,2.39-3.45,4.95-5.96,6.59-1.53,1-3.25,1.37-4.97,1.93-1.72,.56-3.37,1.51-4.07,3.27-.3,.72-.32,1.54-.07,2.28,.16,.45,.88,.25,.72-.2h0Z"/>
      <polygon class="cls-2" points="44.26 44.15 44.26 44.15 44.27 44.15 44.26 44.15"/>
      <path class="cls-2" d="M45.56,43.47c-.36-.63-1.12-.91-1.8-.66-.33,.12-.6,.37-.74,.69-.01,.03-.02,.07-.03,.1-.02,.03-.04,.05-.05,.08-.37,.73-.07,1.62,.66,1.99,.54,.27,1.2,.19,1.65-.22,.56-.5,.69-1.33,.31-1.98Zm-.93,.63s0,.04,0,0Zm-.09-.22s0,0,0,0Zm-.42,.17s0-.01,0,0Zm.1,.08s.01,0,0,0Zm.04,.02h0s0,0,0,0h0s0,0,0,0h0s0,0,0,0c0,0,0,0,0,0,.04-.02,.01-.01-.01,0h0s-.03-.01-.05-.02c0,0,0,0,0,0-.01-.01-.09-.07-.02,0-.01-.01-.03-.03-.04-.04,0,0-.02-.02-.02-.03,0-.02-.02-.03-.03-.05h0s0-.02,0-.02c0,0,0,0,0-.01,0-.01,0-.03,0-.04h0s.02-.04,.03-.05c-.05,.08,.02,0,.03-.02,0,0,0,0,0,0,0,0,0,0,0,0,.02,0,.03-.02,.05-.03,.02-.01,.1-.03,.02-.01,.02,0,.04-.01,.06-.02,0,0,.03,0,.05,0,.01,0,.03,0,.03,0,0,0,.01,0,.02,0-.01,0,.05,.01,.07,.02,0,0,0,0,0,0,.02,.01,.03,.02,.05,.03-.07-.05,0,0,.01,.02,0,0,.02,.02,.02,.03,0,0,.01,.02,.02,.03,.01,.02,.02,.04,.04,.06h0s0,0,0,0c0,.03,.02,.07,.03,.1,0,0,0,0,0,0,0,.02,0,.04,0,.06h0c-.12-.06-.26-.06-.37,0h0Z"/>
      <path class="cls-2" d="M44.27,44.15s0,0,0,0h0Z"/>
      <path class="cls-2" d="M44.27,44.15h0s0,0,0,0Z"/>
      <path class="cls-2" d="M44.27,44.15h0s0,0,0,0Z"/>
      <polygon class="cls-2" points="44.27 44.15 44.27 44.15 44.27 44.15 44.27 44.15"/>
      <polygon class="cls-2" points="60.18 37.19 60.18 37.19 60.18 37.19 60.18 37.19"/>
      <path class="cls-2" d="M61.47,36.51c-.36-.63-1.12-.91-1.8-.66-.33,.12-.6,.37-.74,.69-.01,.03-.02,.07-.03,.1-.02,.03-.04,.05-.05,.08-.37,.73-.07,1.62,.66,1.99,.54,.27,1.2,.19,1.65-.22,.56-.5,.69-1.33,.31-1.98Zm-.93,.63s0,.04,0,0Zm-.09-.22s0,0,0,0Zm-.42,.17s0-.01,0,0Zm.1,.08s.01,0,0,0Zm.04,.02h0s0,0,0,0h0s0,0,0,0h0s0,0,0,0c0,0,0,0,0,0,.04-.02,.01-.01-.01,0h0s-.03-.01-.05-.02c0,0,0,0,0,0-.01-.01-.09-.07-.02,0-.01-.01-.03-.03-.04-.04,0,0-.02-.02-.02-.03,0-.02-.02-.03-.03-.05h0s0-.02,0-.02c0,0,0,0,0-.01,0-.01,0-.03,0-.04h0s.02-.04,.03-.05c-.05,.08,.02,0,.03-.02,0,0,0,0,0,0,0,0,0,0,0,0,.02,0,.03-.02,.05-.03,.02-.01,.1-.03,.02-.01,.02,0,.04-.01,.06-.02,0,0,.03,0,.05,0,.01,0,.03,0,.03,0,0,0,.01,0,.02,0-.01,0,.05,.01,.07,.02,0,0,0,0,0,0,.02,.01,.03,.02,.05,.03-.07-.05,0,0,.01,.02,0,0,.02,.02,.02,.03,0,0,.01,.02,.02,.03,.01,.02,.02,.04,.04,.06h0s0,0,0,0c0,.03,.02,.07,.03,.1,0,0,0,0,0,0,0,.02,0,.04,0,.06h0c-.12-.06-.26-.06-.37,0h0Z"/>
      <path class="cls-2" d="M60.18,37.19h0s0,0,0,0Z"/>
      <polygon class="cls-2" points="60.18 37.19 60.18 37.19 60.18 37.19 60.18 37.19"/>
      <path class="cls-2" d="M60.18,37.19s0,0,0,0h0Z"/>
      <path class="cls-2" d="M60.18,37.19h0s0,0,0,0Z"/>
      <polygon class="cls-2" points="75.59 40.67 75.59 40.67 75.59 40.67 75.59 40.67"/>
      <path class="cls-2" d="M76.88,29.55c-.36-.63-1.12-.91-1.8-.66-.33,.12-.6,.37-.74,.69-.01,.03-.02,.07-.03,.1-.02,.03-.04,.05-.05,.08-.37,.73-.07,1.62,.66,1.99,.54,.27,1.2,.19,1.65-.22,.56-.5,.69-1.33,.31-1.98Zm-.93,.63s0,.04,0,0Zm-.09-.22s0,0,0,0Zm-.42,.17s0-.01,0,0Zm.1,.08s.01,0,0,0Zm.04,.02h0s0,0,0,0h0s0,0,0,0h0s0,0,0,0c0,0,0,0,0,0,.04-.02,.01-.01-.01,0h0s-.03-.01-.05-.02c0,0,0,0,0,0-.01-.01-.09-.07-.02,0-.01-.01-.03-.03-.04-.04,0,0-.02-.02-.02-.03,0-.02-.02-.03-.03-.05h0s0-.02,0-.02c0,0,0,0,0-.01,0-.01,0-.03,0-.04h0s.02-.04,.03-.05c-.05,.08,.02,0,.03-.02,0,0,0,0,0,0,0,0,0,0,0,0,.02,0,.03-.02,.05-.03,.02-.01,.1-.03,.02-.01,.02,0,.04-.01,.06-.02,0,0,.03,0,.05,0,.01,0,.03,0,.03,0,0,0,.01,0,.02,0-.01,0,.05,.01,.07,.02,0,0,0,0,0,0,.02,.01,.03,.02,.05,.03-.07-.05,0,0,.01,.02,0,0,.02,.02,.02,.03,0,0,.01,.02,.02,.03,.01,.02,.02,.04,.04,.06h0s0,0,0,0c0,.03,.02,.07,.03,.1,0,0,0,0,0,0,0,.02,0,.04,0,.06h0c-.12-.06-.26-.06-.37,0h0Z"/>
      <polygon class="cls-2" points="75.59 40.67 75.59 40.67 75.59 40.67 75.59 40.67"/>
      <path class="cls-2" d="M75.59,40.67h0s0,0,0,0Z"/>
      <path class="cls-2" d="M75.59,40.67h0s0,0,0,0Z"/>
      <path class="cls-2" d="M75.59,40.67s0,0,0,0h0Z"/>
      <path class="cls-2" d="M92.55,48.69c-.36-.63-1.12-.91-1.8-.66-.33,.12-.6,.37-.74,.69-.01,.03-.02,.07-.03,.1-.02,.03-.04,.05-.05,.08-.37,.73-.07,1.62,.66,1.99,.54,.27,1.2,.19,1.65-.22,.56-.5,.69-1.33,.31-1.98Zm-.93,.63s0,.04,0,0Zm-.09-.22s0,0,0,0Zm-.42,.17s0-.01,0,0Zm.1,.08s.01,0,0,0Zm.04,.02h0s0,0,0,0h0s0,0,0,0h0s0,0,0,0c0,0,0,0,0,0,.04-.02,.01-.01-.01,0h0s-.03-.01-.05-.02c0,0,0,0,0,0-.01-.01-.09-.07-.02,0-.01-.01-.03-.03-.04-.04,0,0-.02-.02-.02-.03,0-.02-.02-.03-.03-.05h0s0-.02,0-.02c0,0,0,0,0-.01,0-.01,0-.03,0-.04h0s.02-.04,.03-.05c-.05,.08,.02,0,.03-.02,0,0,0,0,0,0,0,0,0,0,0,0,.02,0,.03-.02,.05-.03,.02-.01,.1-.03,.02-.01,.02,0,.04-.01,.06-.02,0,0,.03,0,.05,0,.01,0,.03,0,.03,0,0,0,.01,0,.02,0-.01,0,.05,.01,.07,.02,0,0,0,0,0,0,.02,.01,.03,.02,.05,.03-.07-.05,0,0,.01,.02,0,0,.02,.02,.02,.03,0,0,.01,.02,.02,.03,.01,.02,.02,.04,.04,.06h0s0,0,0,0c0,.03,.02,.07,.03,.1,0,0,0,0,0,0,0,.02,0,.04,0,.06h0c-.12-.06-.26-.06-.37,0h0Z"/>
      <polygon class="cls-2" points="91.25 32.97 91.25 32.97 91.25 32.97 91.25 32.97"/>
      <path class="cls-2" d="M91.25,32.97h0s0,0,0,0Z"/>
      <path class="cls-2" d="M91.25,32.97h0s0,0,0,0Z"/>
      <path class="cls-2" d="M91.26,32.97s0,0,0,0h0Z"/>
      <polygon class="cls-2" points="91.25 32.97 91.25 32.97 91.25 32.97 91.25 32.97"/>
      <path class="cls-2" d="M105.92,37.94h0s0,0,0,0Z"/>
      <path class="cls-2" d="M107.21,37.25c-.36-.63-1.12-.91-1.8-.66-.33,.12-.6,.37-.74,.69-.01,.03-.02,.07-.03,.1-.02,.03-.04,.05-.05,.08-.37,.73-.07,1.62,.66,1.99,.54,.27,1.2,.19,1.65-.22,.56-.5,.69-1.33,.31-1.98Zm-.93,.63s0,.04,0,0Zm-.09-.22s0,0,0,0Zm-.42,.17s0-.01,0,0Zm.1,.08s.01,0,0,0Zm.04,.02h0s0,0,0,0h0s0,0,0,0h0s0,0,0,0c0,0,0,0,0,0,.04-.02,.01-.01-.01,0h0s-.03-.01-.05-.02c0,0,0,0,0,0-.01-.01-.09-.07-.02,0-.01-.01-.03-.03-.04-.04,0,0-.02-.02-.02-.03,0-.02-.02-.03-.03-.05h0s0-.02,0-.02c0,0,0,0,0-.01,0-.01,0-.03,0-.04h0s.02-.04,.03-.05c-.05,.08,.02,0,.03-.02,0,0,0,0,0,0,0,0,0,0,0,0,.02,0,.03-.02,.05-.03,.02-.01,.1-.03,.02-.01,.02,0,.04-.01,.06-.02,0,0,.03,0,.05,0,.01,0,.03,0,.03,0,0,0,.01,0,.02,0-.01,0,.05,.01,.07,.02,0,0,0,0,0,0,.02,.01,.03,.02,.05,.03-.07-.05,0,0,.01,.02,0,0,.02,.02,.02,.03,0,0,.01,.02,.02,.03,.01,.02,.02,.04,.04,.06h0s0,0,0,0c0,.03,.02,.07,.03,.1,0,0,0,0,0,0,0,.02,0,.04,0,.06h0c-.12-.06-.26-.06-.37,0h0Z"/>
      <polygon class="cls-2" points="105.92 37.94 105.92 37.94 105.92 37.94 105.92 37.94"/>
      <polygon class="cls-2" points="105.92 37.94 105.92 37.94 105.92 37.94 105.92 37.94"/>
      <path class="cls-2" d="M105.92,37.94s0,0,0,0h0Z"/>
      <path class="cls-2" d="M105.92,37.94h0s0,0,0,0Z"/>
      <path class="cls-10" d="M101.9,19.33l-11.56,.64c-.14,0-.26-.1-.27-.24,0-.13,.08-.24,.21-.27l11.82-1.92-.2,1.79Z"/>
      <path class="cls-5" d="M116.59,45.07l4.36-7.33,3.22,1.52s-5.55,6.93-5.72,7.13c.21,.92-.37,1.83-1.29,2.04-.92,.21-1.83-.37-2.04-1.29-.21-.92,.37-1.83,1.29-2.04,.06-.01,.12-.02,.19-.03h0Z"/>
      <path class="cls-7" d="M118.4,28.04l7.06,3.68c1.75,1.26,2.15,3.7,.89,5.45-.07,.1-.15,.19-.23,.28l-4.87,5.58-2.12-2.87,1.63-3.42-3.16-.83,.8-7.88Z"/>
      <path class="cls-5" d="M98.29,19.45l-.79,8.49h-3.56s2.04-8.63,2.12-8.89c-.58-.74-.45-1.81,.29-2.39s1.81-.45,2.39,.29,.45,1.81-.29,2.39c-.05,.04-.1,.07-.15,.11h0Z"/>
      <path class="cls-7" d="M105.38,36.81l-8.2-1.5c-3.45-.42-4.87-2.69-4.24-4.9l2-7.13,3.15,1.69v3.79s4.39-.6,4.39-.6l2.9,8.66Z"/>
      <polygon class="cls-5" points="102.03 95.47 99.77 95.47 98.7 86.78 102.03 86.78 102.03 95.47"/>
      <path class="cls-11" d="M102.1,97.82h-6.93v-.09c0-1.49,1.21-2.7,2.7-2.7h0l1.27-.96,2.36,.96h.6s0,2.78,0,2.78Z"/>
      <polygon class="cls-5" points="117.97 95.47 120.22 95.47 121.3 86.78 117.97 86.78 117.97 95.47"/>
      <path class="cls-11" d="M117.89,97.82h6.93v-.09c0-1.49-1.21-2.7-2.7-2.7h0l-1.27-.96-2.36,.96h-.6s0,2.78,0,2.78Z"/>
      <path class="cls-11" d="M98.6,80.39c.03-.5,.3-3.24,.3-3.24l.63-5.82,1.12-15.42,1-4.05,4.93,1.92,4-1.92,4.75,1.52,3.7,1.39s0,.59,.03,1.31c.04,.94,.1,2.09,.26,2.39,.26,.53,.2,3.37,.2,3.37,0,0,.26,5.78,.59,6.41s.4,1.95,.3,2.22,.33,7.21,.33,7.21c0,0,1.11,12.28,.41,14.14s-3.32,.64-3.32,.64c0,0,.13-.49-.63-.73s-3.08-17.65-3.08-17.65c0,0-.43-3.57-.83-4.6s-.76-3.9-.76-3.9c0,0-2.45-4.76-2.48-5.82,0,0-.32-.99-.62,.1s-1.19,3.7-1.19,3.7l-.87,3.21-1.02,4.79-.66,4.03s-.99,5.35-1.15,5.59,0,5.12,0,5.12c0,0-.77,4.17-1.85,4.89s-3.96,.01-3.96,.01c0,0-.17-10.33-.14-10.83Z"/>
      <path class="cls-7" d="M102.29,38.82l-.63,8.16-.95,.98c-.35,.36-.34,.94,.02,1.29,0,0,.02,.02,.03,.02h0l-.52,.89-.18,2.82c-.2,.82,.31,1.65,1.13,1.85,.09,.02,.19,.04,.29,.04l16.32,.77c.84,.04,1.56-.61,1.6-1.46,0-.09,0-.18-.01-.27l-1.39-10.45v-.78l-.62-1.51,.32-5.05,.74-8.02-4.32-1.11-2.34-1.61-4.07,.06-2.47,2.03-3.29,.52-2.49,.49-.32,.69,.63-.14,2.3,8.96,.21,.83Z"/>
      <circle class="cls-5" cx="109.65" cy="19.49" r="4.79"/>
      <path class="cls-11" d="M108.49,23.97l3.46-.18c.44-.02,.93-.06,1.25-.37,.17-.19,.31-.41,.39-.65,.32-.74,.64-1.49,.95-2.23,.43-1.03,.85-2.12,.74-3.24-.03-.51-.24-.99-.6-1.35-.38-.36-.95-.42-1.39-.14-.11-.71-.54-1.34-1.17-1.69-.63-.35-1.34-.5-2.05-.44-1.03,.07-2.02,.46-2.82,1.11-.23,.21-.47,.4-.72,.57-.26,.17-.58,.23-.88,.16-.31-.08-.51-.38-.47-.69-.51,.38-.64,1.08-.31,1.62-.37,.15-.78,.1-1.1-.13-.67,.33-.94,1.14-.61,1.81,.33,.67,1.14,.94,1.81,.61,.08-.04,.15-.08,.22-.13,.21,.29,.13,.69,.1,1.05s.07,.81,.42,.91c.47,.13,.85-.5,1.34-.49,.24,.02,.46,.16,.58,.38,.12,.21,.19,.44,.23,.68l.63,2.82"/>
      <path class="cls-7" d="M78.66,39.83h-4.26c-.48,0-.9-.36-.96-.84-.26-1.94-.26-3.9,0-5.84,.07-.47,.47-.83,.95-.84,1.34-.6,2.79-.6,4.29,0,.28,0,.55,.13,.73,.35,.19,.23,.26,.53,.2,.82-.34,1.7-.34,3.46,0,5.16,.06,.29-.02,.59-.2,.82-.18,.22-.46,.35-.75,.35Z"/>
      <path class="cls-4" d="M78.21,34.55h-3.59c-.12,0-.23-.1-.23-.22s.1-.23,.22-.23c0,0,0,0,0,0h3.59c.12,0,.23,.1,.23,.22s-.1,.23-.22,.23c0,0,0,0,0,0Z"/>
      <path class="cls-4" d="M78.21,36.34h-3.59c-.12,0-.23-.1-.23-.22s.1-.23,.22-.23c0,0,0,0,0,0h3.59c.12,0,.23,.1,.23,.22s-.1,.23-.22,.23c0,0,0,0,0,0Z"/>
      <path class="cls-4" d="M78.21,38.13h-3.59c-.12,0-.23-.1-.23-.22s.1-.23,.22-.23c0,0,0,0,0,0h3.59c.12,0,.23,.1,.23,.22s-.1,.23-.22,.23c0,0,0,0,0,0Z"/>
      <path class="cls-8" d="M45.81,57.42c.64-.65,.64-1.69,0-2.34-.07-.07-.14-.13-.22-.19l2.63-13.07-2.91,.93-2.11,12.64c-.47,.79-.22,1.81,.57,2.28,.66,.39,1.5,.29,2.04-.26h0Z"/>
      <path class="cls-9" d="M49.69,29.77l-1.8-1.36s-1.59-.11-1.87,2.76-.86,8.46-.86,8.46l-2.76,12.78,3.82,.84,2.95-13.79,1.77-4.09-1.25-5.58Z"/>
      <polygon class="cls-8" points="46.72 50.63 56.88 50.46 57.73 43.52 46.72 43.52 46.72 50.63"/>
      <polygon class="cls-8" points="55.86 93.34 58.21 93.34 59.32 84.3 55.86 84.3 55.86 93.34"/>
      <polygon class="cls-8" points="41.17 93.56 43.52 93.54 44.57 84.49 41.52 85.19 41.17 93.56"/>
      <polygon class="cls-5" points="48.51 37.54 47.98 38.92 48.08 40.3 58.48 43.91 57.97 37.86 56.8 36.48 48.51 37.54"/>
      <circle class="cls-8" cx="52.97" cy="21.4" r="3.71"/>
      <path class="cls-11" d="M55.28,92.19l3.71-.22v1.59l3.52,2.43c.45,.31,.56,.93,.25,1.38-.19,.27-.49,.43-.82,.43h-4.41l-.76-1.57-.3,1.57h-1.66l.47-5.61Z"/>
      <path class="cls-11" d="M40.37,92.41l3.71-.25v1.59s3.55,2.41,3.55,2.41c.45,.31,.57,.93,.26,1.38-.18,.27-.49,.43-.81,.43l-4.41,.03-.77-1.57-.29,1.57h-1.66s.43-5.6,.43-5.6Z"/>
      <path class="cls-11" d="M40.44,86.62l1.71-13.65,2.03-14.39c-1.49-2.76,1.86-11.34,1.86-11.34l.47,.02,10.7,2.02h0c2.19,5.96,2.91,8.91,2.79,15.27l-.43,22.86h.14c.47,0,.85,.38,.85,.85s-.38,.85-.85,.85h-4.23c-.47,0-.85-.38-.85-.84,0-.47,.38-.85,.84-.85h.11l-3.88-27.21-3.29,11.43-3.72,14.9c1.35-.34,1.14,.45,1.14,.89,0,.47-.38,.85-.85,.85h-4.23c-.47,0-.85-.38-.85-.84,0-.35,.21-.66,.53-.79h0Z"/>
      <path class="cls-9" d="M45.21,47.69l.34-3.39c.07-.28,.32-.49,.61-.51,.14-1.61,.73-8.57,.77-8.87h0s.27-5.78,.27-5.78c.02-.43,.36-.78,.8-.81l1.43-.09s.07-.03,.07-.08c0-.66,.54-1.2,1.2-1.2h4.22c.57,0,1.04,.42,1.11,.98,0,.04,.04,.07,.08,.07h0c.99-.02,1.85,.69,2.02,1.66,.58,3.36,1.73,10.98,1.16,15.21-.2,1.47,.23,.31,.31,1.54,.02,.24-.07,.48-.23,.66,.34,.12,.51,.49,.39,.83l.07-.02c-.09,.36-.46,.58-.82,.49,0,0,0,0,0,0l-11.04,1.5c-.36-.09-2.85-1.84-2.76-2.2Z"/>
      <path class="cls-8" d="M74.72,33.92c-.26,.87-1.18,1.37-2.06,1.11-.09-.03-.18-.06-.27-.11l-4.27,3.9-.57-3,4.14-3.23c.47-.79,1.48-1.05,2.28-.59,.66,.39,.97,1.18,.74,1.92h0Z"/>
      <path class="cls-9" d="M59.86,30.94s-1.49-3.36-3.37-2.7-.91,3.93-.91,3.93l7.06,10.64s10.19-6.54,8.95-6.58-1.61-2.3-1.61-2.3l-5.38,2.69-.18-.96-.29,.29-.75-.59-3.51-4.43Z"/>
      <path class="cls-11" d="M48.6,19.12c-.57,.27-1.21-.14-1.7-.55l.18,.15c-.87,.85-1.28,2.06-1.47,3.26-.2,1.2-.22,2.42-.47,3.61-.25,1.19-.77,2.38-1.74,3.11-1.3,.97-3.09,.91-4.69,.61-.02,0-.04,0-.06-.01,.43-1.24,.6-2.55,.51-3.86-.43,1.31-1.16,2.5-2.13,3.48-1.06-.29-2.09-.67-3.09-1.12-.65-.3-1.34-.7-1.52-1.39-.18-.68,.24-1.4,.79-1.83s1.24-.66,1.88-.96c.63-.31,1.26-.74,1.52-1.4,.59-1.51-1.08-3.25-.43-4.74,.32-.73,1.11-1.13,1.84-1.44,1.13-.47,2.28-.86,3.46-1.17,1.04-.27,2.12-.49,3.17-.31s2.09,.82,2.47,1.82c.63,.21,1.31,.46,1.71,.99,.41,.53,.37,1.45-.23,1.74Z"/>
      <path class="cls-11" d="M53.67,17.37c-1.63-1.29-2.95-1.07-3.96-.27-.17-.19-.9,.33-1.14,.26l-.89,1.67c-.46,.81-.65,1.63-.57,2.1-.84,2.36,1.16,3.96,3.52,4.8,.94,.34,1.97,.35,2.92,.04l.03-.4,.18,.33s2.16,4.45,2.67,4.65c-.31-.8-1.13-4.62-1.36-5.42-.31-1.08-.1-2.8,.08-3.86,.11-.65,.12-1.32,.02-1.97v-.03s.5,1.02,.5,1.02l1.13-.71c-.43-1.26-.44-2.77-3.14-2.21Z"/>
    </g>
  </g>
</svg>