<?xml version="1.0" encoding="UTF-8"?>
<svg id="projects_page_helper_image" data-name="projects page helper image" xmlns="http://www.w3.org/2000/svg" viewBox="0 0 200 100">
  <defs>
    <style>
      .cls-1 {
        fill: #f2f2f2;
      }

      .cls-2, .cls-3 {
        fill: #fff;
      }

      .cls-4 {
        fill: #ffb8b8;
      }

      .cls-5 {
        fill: #ff6366;
      }

      .cls-6, .cls-7 {
        fill: #ccc;
      }

      .cls-8 {
        fill: #3f3d56;
      }

      .cls-9 {
        fill: #2f2e41;
      }

      .cls-3, .cls-10, .cls-7 {
        stroke: #fff;
        stroke-miterlimit: 10;
      }

      .cls-10 {
        fill: #e6e6e6;
      }
    </style>
  </defs>
  <path id="ground" class="cls-6" d="M197.86,98.24H1.84c-.41,0-.74-.11-.74-.24s.33-.24,.74-.24H197.86c.41,0,.74,.11,.74,.24s-.33,.24-.74,.24Z"/>
  <g id="accept_terms" data-name="accept terms">
    <g id="document">
      <path class="cls-10" d="M106.95,42.35s-.02,0-.03,0h-1.67s0-.25,0-.25h1.67s.83,.02,1.56-.86c1.09-1.32,1.98-4.58,.06-12.64-2.58-10.83-.43-20.41,.62-24.02,.18-.64-.18-1.3-.82-1.48-.11-.03-.22-.05-.33-.05h-24.91c-.38,0-.75,.18-.97,.49-.44,.61-1.05,1.78-1.43,3.89l-.24-.04c.39-2.16,1.02-3.36,1.47-3.99,.27-.37,.71-.6,1.17-.6h24.91c.8,0,1.45,.65,1.45,1.44,0,.14-.02,.27-.06,.4-1.04,3.59-3.18,13.12-.61,23.89,1.95,8.17,1.01,11.5-.12,12.86-.74,.9-1.56,.94-1.72,.94Z"/>
      <path class="cls-7" d="M102.46,46.84s-.02,0-.03,0h-1.67s0-.25,0-.25h1.67s.83,.02,1.56-.86c1.09-1.32,1.98-4.58,.06-12.64-2.58-10.83-.43-20.41,.62-24.02,.18-.64-.18-1.3-.82-1.48-.11-.03-.22-.05-.33-.05h-24.91c-.38,0-.75,.18-.97,.49-.44,.61-1.05,1.78-1.43,3.89l-.24-.04c.39-2.16,1.02-3.36,1.47-3.99,.27-.37,.71-.6,1.17-.6h24.91c.8,0,1.45,.65,1.45,1.44,0,.14-.02,.27-.06,.4-1.04,3.59-3.18,13.12-.61,23.89,1.95,8.17,1.01,11.5-.12,12.86-.74,.9-1.56,.94-1.72,.94Z"/>
      <path class="cls-3" d="M97.97,51.33s-.02,0-.03,0h-24.53c-.8,0-1.45-.65-1.45-1.44,0-.18,.03-.37,.1-.54,.89-2.22,2.09-7.56,.11-18.3-2.33-12.69-.24-17.28,.76-18.66,.27-.37,.71-.6,1.17-.6h24.91c.8,0,1.45,.65,1.45,1.44,0,.14-.02,.27-.06,.4-1.04,3.59-3.18,13.12-.61,23.89,1.95,8.17,1.01,11.5-.12,12.86-.74,.9-1.56,.94-1.72,.94Z"/>
      <path class="cls-8" d="M97.97,51.33s-.02,0-.03,0h-24.53c-.8,0-1.45-.65-1.45-1.44,0-.18,.03-.37,.1-.54,.89-2.22,2.09-7.56,.11-18.3-2.33-12.69-.24-17.28,.76-18.66,.27-.37,.71-.6,1.17-.6h24.91c.8,0,1.45,.65,1.45,1.44,0,.14-.02,.27-.06,.4-1.04,3.59-3.18,13.12-.61,23.89,1.95,8.17,1.01,11.5-.12,12.86-.74,.9-1.56,.94-1.72,.94ZM74.12,12.03c-.38,0-.75,.18-.97,.49-.99,1.36-3.03,5.87-.72,18.47,1.89,10.27,.97,15.69-.13,18.44-.15,.37-.11,.79,.12,1.11,.22,.33,.6,.53,1,.53h24.54s.83,.02,1.56-.86c1.09-1.32,1.98-4.58,.06-12.64-2.58-10.83-.43-20.41,.62-24.02,.18-.64-.18-1.3-.82-1.48-.11-.03-.22-.05-.33-.05h-24.91Z"/>
      <path class="cls-5" d="M94.79,22.86h-19.55c-.54,0-.98-.44-.98-.98s.44-.98,.98-.98h19.55c.54,0,.98,.44,.98,.98s-.44,.98-.98,.98Z"/>
      <path class="cls-6" d="M94.79,27.04h-19.55c-.54,0-.98-.44-.98-.98s.44-.98,.98-.98h19.55c.54,0,.98,.44,.98,.98s-.44,.98-.98,.98Z"/>
      <path class="cls-6" d="M94.79,31.22h-19.55c-.54,0-.98-.44-.98-.98s.44-.98,.98-.98h19.55c.54,0,.98,.44,.98,.98s-.44,.98-.98,.98Z"/>
      <path class="cls-6" d="M96.27,35.4h-19.55c-.54,0-.98-.44-.98-.98s.44-.98,.98-.98h19.55c.54,0,.98,.44,.98,.98s-.44,.98-.98,.98Z"/>
      <path class="cls-6" d="M96.27,39.58h-19.55c-.54,0-.98-.44-.98-.98s.44-.98,.98-.98h19.55c.54,0,.98,.44,.98,.98s-.44,.98-.98,.98Z"/>
      <path class="cls-5" d="M84.46,18.67h-9.22c-.54,0-.98-.44-.98-.98s.44-.98,.98-.98h9.22c.54,0,.98,.44,.98,.98s-.44,.98-.98,.98Z"/>
      <path class="cls-8" d="M83.27,46.32c.2-.84,1.13-1.12,1.89-1.09,.48,.03,.96,.11,1.43,.23,.49,.11,.98,.24,1.46,.38,.89,.25,1.76,.56,2.66,.76,.75,.16,1.56,.26,2.31,.03,.72-.22,1.33-.75,1.52-1.49,.18-.7-.07-1.46-.74-1.78-.62-.29-1.39-.14-1.7,.51-.34,.74,0,1.55,.55,2.09,.31,.29,.65,.55,1.01,.77,.37,.25,.78,.44,1.21,.54,.71,.15,1.56-.07,1.93-.75,.08-.15,.13-.32,.14-.5,.02-.24-.35-.23-.37,0-.06,.68-.85,.99-1.45,.92-.4-.07-.78-.21-1.12-.44-.33-.19-.64-.41-.93-.66-.5-.44-.97-1.15-.64-1.83,.27-.55,.99-.55,1.43-.19,.53,.43,.43,1.22,.09,1.73-.39,.57-1.08,.81-1.74,.83-.72,.03-1.43-.14-2.11-.33-.85-.24-1.69-.51-2.55-.74-.48-.13-.97-.25-1.47-.34-.47-.1-.95-.14-1.42-.1-.77,.09-1.56,.54-1.75,1.34-.05,.23,.3,.33,.36,.1h0Z"/>
    </g>
    <g id="person">
      <g>
        <path class="cls-2" d="M140.32,84.32c.04,4.39,.36,8.78,.96,13.14,.02,.15,.04,.31,.07,.46l41.16-.23c.12-.15,.24-.31,.36-.46,.38-.51,.74-1.04,1.08-1.59,1.59-2.64,2.32-5.73,1.59-7.86v-.03c-.17-.47-.42-.9-.74-1.27-1.66-1.87-5.02-1.56-8.07-.05,2.74-2.99,4.91-6.77,5.08-10.14,.16-3.29-1.56-5.64-3.42-7.64-.06-.07-.12-.13-.18-.19-.03-.03-.06-.06-.09-.1-1.46-1.52-3.15-3.02-5.61-2.84-2.69,.2-5.68,2.46-7.77,5.09-2.09,2.63-3.49,5.61-4.9,8.53-1.41,2.91-2.94,5.9-5.21,8.39,3.07-3.88,5.54-8.3,6.46-12.6s.11-8.42-2.63-10.45c-.83-.6-1.79-.98-2.8-1.13-.12-.02-.24-.04-.36-.05-2.53-.29-5.56,.59-8.13,2.68-2.83,2.31-4.8,5.72-5.77,8.97-.98,3.24-1.08,6.37-1.05,9.39Z"/>
        <path class="cls-1" d="M167.25,97.77h.79c.25-.16,.5-.32,.75-.47,.16-.1,.31-.19,.47-.29,2.61-1.59,5.24-3.12,7.88-4.59,2.64-1.47,5.29-2.86,7.96-4.19,.15-.06,.23-.22,.19-.38,0,0,0-.02-.01-.03-.04-.07-.12-.1-.24-.04-.33,.16-.66,.33-.98,.5-2.67,1.35-5.34,2.77-7.99,4.26-2.65,1.49-5.28,3.04-7.9,4.66-.06,.03-.11,.07-.17,.1-.25,.15-.5,.31-.75,.46Z"/>
        <path class="cls-1" d="M157.1,97.82h.49c.11-.16,.22-.31,.33-.46,2.58-3.62,5.16-7.23,7.74-10.85,4.22-5.92,8.44-11.84,12.66-17.76,.03-.03,.04-.07,.05-.11,.04-.13-.06-.21-.18-.19-.11,.02-.2,.07-.26,.16-2.37,3.32-4.73,6.64-7.1,9.96-4.2,5.89-8.4,11.78-12.6,17.67-.27,.37-.53,.75-.8,1.12-.11,.15-.22,.31-.33,.46Z"/>
        <path class="cls-1" d="M146.26,95c.02,.82,.08,1.63,.15,2.43,.01,.15,.03,.31,.04,.46h.51c-.02-.16-.03-.31-.04-.46-.11-1.16-.18-2.32-.19-3.52-.01-3.33,.31-6.65,.97-9.91,.7-3.51,1.7-6.96,3-10.29,1.36-3.52,3-6.93,4.9-10.18,.04-.05,.05-.12,.05-.18-.02-.15-.21-.19-.36-.05-.03,.03-.05,.06-.07,.09-.24,.41-.47,.81-.69,1.22-1.83,3.28-3.4,6.69-4.69,10.22-1.23,3.35-2.16,6.8-2.79,10.31-.59,3.26-.85,6.57-.76,9.88Z"/>
      </g>
      <g>
        <path class="cls-2" d="M58.76,74.93c-.98-3.24-2.94-6.66-5.77-8.97-2.57-2.09-5.6-2.97-8.13-2.68-.12,.01-.24,.03-.36,.05-1.01,.15-1.97,.54-2.8,1.13-2.74,2.02-3.54,6.15-2.63,10.45s3.39,8.71,6.46,12.6c-2.27-2.49-3.79-5.47-5.21-8.39-1.41-2.91-2.8-5.9-4.9-8.53-2.09-2.63-5.08-4.89-7.77-5.09-2.46-.18-4.15,1.32-5.61,2.84-.03,.03-.06,.06-.09,.1-.06,.06-.12,.13-.18,.19-1.87,2-3.59,4.35-3.42,7.64,.17,3.37,2.34,7.15,5.08,10.14-3.05-1.51-6.41-1.82-8.07,.05-.32,.37-.57,.8-.73,1.27v.03c-.74,2.13-.01,5.22,1.57,7.86,.33,.55,.69,1.08,1.08,1.59,.12,.16,.23,.31,.36,.46l41.16,.23c.02-.15,.04-.31,.07-.46,.6-4.35,.93-8.74,.96-13.14,.03-3.02-.07-6.14-1.05-9.39Z"/>
        <path class="cls-1" d="M32.13,97.3c-.06-.03-.11-.07-.17-.1-2.62-1.62-5.25-3.17-7.9-4.66-2.65-1.49-5.31-2.91-7.99-4.26-.33-.17-.66-.33-.98-.5-.12-.06-.2-.03-.24,.04,0,0-.01,.02-.01,.03-.04,.15,.04,.31,.19,.38,2.67,1.33,5.32,2.73,7.96,4.19,2.64,1.46,5.27,2.99,7.88,4.59,.16,.1,.32,.19,.47,.29,.25,.15,.5,.31,.75,.46h.79c-.25-.15-.5-.3-.75-.46Z"/>
        <path class="cls-1" d="M42.7,97.36c-.27-.37-.53-.75-.8-1.12-4.2-5.89-8.4-11.78-12.6-17.67-2.37-3.32-4.73-6.64-7.1-9.96-.06-.09-.15-.15-.26-.16-.12-.01-.22,.06-.18,.19,.01,.04,.03,.08,.05,.11,4.22,5.92,8.44,11.84,12.66,17.76,2.58,3.62,5.16,7.23,7.74,10.85,.11,.15,.22,.31,.33,.46h.49c-.11-.15-.22-.3-.33-.46Z"/>
        <path class="cls-1" d="M53.11,85.12c-.63-3.51-1.57-6.96-2.79-10.31-1.29-3.53-2.86-6.94-4.69-10.22-.23-.41-.46-.81-.69-1.22-.02-.03-.04-.07-.07-.09-.14-.14-.34-.1-.36,.05,0,.06,0,.13,.05,.18,1.9,3.26,3.54,6.66,4.9,10.18,1.3,3.34,2.3,6.78,3,10.29,.66,3.26,.98,6.58,.97,9.91-.01,1.2-.09,2.37-.19,3.52-.01,.15-.03,.31-.04,.46h.51c.01-.15,.03-.3,.04-.46,.07-.8,.13-1.61,.15-2.43,.08-3.31-.17-6.62-.76-9.88Z"/>
      </g>
      <path class="cls-8" d="M96.81,47.01c-.24-.2-.27-.55-.07-.79,.09-.11,.23-.18,.38-.2,1.22-.12,2.45,0,3.61,.37l11.9,3.68c.65,.2,1.01,.89,.81,1.54s-.89,1.01-1.54,.81l-11.9-3.68c-1.17-.36-2.25-.95-3.19-1.73Z"/>
      <path class="cls-4" d="M145.59,62.27c-1.22-.51-1.8-1.92-1.28-3.14,.05-.13,.12-.26,.2-.37l-2.04-10.67,5.2-.41,.31,10.43c1.07,.79,1.29,2.31,.49,3.37-.67,.89-1.86,1.22-2.88,.78Z"/>
      <path class="cls-5" d="M142.14,56.77l-5.29-24.66c-.45-2.11,.89-4.19,3-4.64,2.11-.45,4.19,.89,4.64,3,0,0,0,0,0,0l5.29,24.66c.12,.54-.23,1.08-.77,1.19l-5.67,1.22c-.54,.12-1.08-.23-1.19-.77,0,0,0,0,0,0Z"/>
      <polygon class="cls-4" points="133.45 95.56 130.71 95.56 129.41 85 133.45 85 133.45 95.56"/>
      <path class="cls-9" d="M128.76,94.78h5.28v3.32h-8.6c0-1.84,1.49-3.32,3.32-3.32Z"/>
      <polygon class="cls-4" points="142.6 95.34 139.86 95.34 138.56 84.78 142.6 84.78 142.6 95.34"/>
      <path class="cls-9" d="M137.91,94.55h5.28v3.32h-8.6c0-1.84,1.49-3.32,3.32-3.32Z"/>
      <path class="cls-9" d="M130.17,93.59c-.21-.17-.34-.42-.36-.68l-3.18-34.99c-.05-.55,.36-1.04,.91-1.09,.02,0,.04,0,.05,0l15.95-.6c.55-.02,1.02,.41,1.04,.97,0,.02,0,.05,0,.07l-1.28,34.86c-.02,.5-.41,.92-.91,.96l-3.22,.29c-.55,.05-1.04-.36-1.09-.91,0,0,0-.02,0-.02l-1.48-22.14c0-.18-.15-.32-.33-.31,0,0,0,0,0,0h0c-.18,0-.33,.13-.33,.31,0,0,0,0,0,0l-1.32,22.29c-.03,.49-.41,.89-.9,.94l-2.81,.28c-.27,.03-.53-.05-.74-.22h0Z"/>
      <circle class="cls-4" cx="136.31" cy="16.75" r="5.48"/>
      <path class="cls-5" d="M125.75,58.15c-.2-.22-.28-.53-.23-.82,1.01-6.15,.44-15.19-.22-21.7-.35-3.51,1.2-6.94,4.07-9l2.86-2.45c.19-.16,.43-.25,.68-.24l7.11,.2c.26,0,.5,.11,.68,.29l1.1,2.43h.01c2.66,1.96,4.16,5.12,4,8.42l-1.05,21.64c-.03,.52-.45,.94-.97,.96l-17.26,.61s-.02,0-.03,0c-.29,0-.56-.12-.76-.34Z"/>
      <path class="cls-4" d="M105.04,49.12c-.03-1.32,1.01-2.42,2.34-2.46,.14,0,.28,0,.42,.03l8.9-6.23,2.5,4.58-9.39,4.56c-.29,1.3-1.58,2.12-2.88,1.83-1.09-.24-1.87-1.2-1.89-2.31h0Z"/>
      <path class="cls-5" d="M112.53,50.21c-.26-.04-.5-.18-.66-.4l-3.43-4.68c-.33-.45-.23-1.08,.22-1.4l20.33-14.92c1.74-1.28,4.18-.9,5.46,.84,1.28,1.74,.9,4.18-.84,5.46h0l-20.33,14.92c-.17,.13-.38,.19-.59,.19-.05,0-.1,0-.15-.01Z"/>
      <path class="cls-9" d="M136.59,21.63c.73-.89,.65-2.25,.06-3.24s-1.57-1.67-2.59-2.21-2.1-.95-3.06-1.59-.92-3.32-1.17-4.44l.61,.2c-.23-.3-.31-1.18-.54-1.48,.69,.07,1.22,.72,1.91,.79l-.4-1.07c2.36-.15,3.83,1.49,6.19,1.35,1.17-.07,2.44-.12,3.4,.55,.84,.58,1.26,1.59,1.54,2.57,.6,2.1,.69,4.46-.34,6.39s-3.4,3.23-5.47,2.53l-.12-.35Z"/>
    </g>
  </g>
</svg>