<?xml version="1.0" encoding="UTF-8"?>
<svg id="projects_page_helper_image" data-name="projects page helper image" xmlns="http://www.w3.org/2000/svg" viewBox="0 0 50 50">
  <defs>
    <style>
      .cls-1 {
        fill: #ffb6b6;
      }

      .cls-2 {
        fill: #ff6366;
      }

      .cls-3 {
        fill: #2f2e41;
      }
    </style>
  </defs>
  <path class="cls-3" d="M39.87,24.87c-.86,3.63,3.65,3.13,1.56,9.9,0,3.89-4.97,3.65-8.85,3.65h-15.11c-2.61,.17-8.2-.53-7.81-3.13l2.08-5.21c.77-2.93-2.67-3.12-2.62-6.15,.05-3.24,3.17-6.27,4.18-8.44,1-2.15,2.76-4.04,7.29-3.65,1.55,.14,6.26-.39,7.78-.03h0c2.71,.65,5.27,1.83,7.53,3.48h0c1.19,1.18,2.15,2.58,2.83,4.14,.64,1.46,1.03,3.06,1.12,4.73v.02c.01,.23,.02,.45,.02,.68Z"/>
  <path class="cls-2" d="M34.14,34.24l-15.37,1.3h0c-.7,.46,1.69,1.21-.83,3.18-1.87,1.46-8.89,1.82-10.96,5.07s-1.84,5.2-1.8,7.08c0,0,41.01,1.87,40.94-.28s1.11-8.4-2.78-9.92-7.73-.45-7.49-2.01c.32-.8-.32-3.68-1.7-4.41h0Z"/>
  <path class="cls-1" d="M27.98,14.7c5.99,0,10.85,4.86,10.85,10.85,0,5.03-3.43,9.27-8.08,10.49-.89,.23,5.02,3.03-2.68,3.03s-2.4-2.86-3.47-3.2c-4.34-1.42-7.48-5.5-7.48-10.32,0-5.99,4.86-10.85,10.85-10.85Z"/>
  <path class="cls-3" d="M41.43,23.82c-.41,.59-2.6-1.58-5.95-1.82-.85-.06-2.78,2.82-4.99,2.86-1.46,.03-2.36,.02-4.17,0-2.13-.02-2.71-.06-3.13-.52-.8-.89-.14-2.47-.52-2.6-.32-.11-1.14,.87-1.56,2.08-.89,2.55,2.29,6.09,2.6,9.38,.33,3.54-2.95-3.24-2.6,0,.39,3.65,1.77,3.37,1.75,4.69,0,.2-.06,.37-.19,.52-.11,.14-.22,.19-2.08,.52-2.23,.4-3.35,.6-3.65,.52-.77-.2-1.54-1.3-2.08-2.08-.9-1.29-.26,.01,0-1.56,.25-1.52,1.03-1.72,1.04-3.13,.01-1.77-1.22-2.31-2.08-4.17-1.59-3.44-.04-7.42,.52-8.85,.27-.69,.75-1.56,1.6-3,.68-1.16,1.59-2.18,2.7-2.94,1.66-1.14,3.58-1.93,5.66-2.24,1.14-.17,2.3-.08,3.42,.19l2.9,.7c1.22,.29,2.37,.82,3.38,1.56h0c.95,0,1.77,.61,2.09,1.5,.03,.09,.06,.15,.09,.14,5.23-1.64,5.23,3.21,5.17,6.24,0,.31,0,.58,.05,.81v.02c.1,.6,.13,1.04,.02,1.2Z"/>
  <path class="cls-3" d="M13.23,20.88c-2.44-.68-3.87-3.21-3.19-5.65,.68-2.44,3.21-3.87,5.65-3.19,2.44,.68,4.22,4.87,1.72,5.24-2.98,.44-1.74,4.28-4.18,3.6h0Z"/>
</svg>