<?xml version="1.0" encoding="UTF-8"?>
<svg id="projects_page_helper_image" data-name="projects page helper image" xmlns="http://www.w3.org/2000/svg" viewBox="0 0 50 50">
  <defs>
    <style>
      .cls-1 {
        fill: #ffb7b7;
      }

      .cls-2 {
        fill: #cbcbcb;
      }

      .cls-3 {
        fill: #2f2e41;
      }
    </style>
  </defs>
  <path class="cls-1" d="M14.87,16.55c2.98-6,10.26-8.44,16.25-5.46s8.44,10.26,5.46,16.25c-1.06,2.13-2.65,3.81-4.54,4.96-.55,.33,1.74,5.21,5.74,4.89s-11.97,5.71-14.8,4.43c1.73-1.73,2.7-7.24,1.14-7.64-1.29-.17-2.57-.55-3.79-1.16-6-2.98-8.44-10.26-5.46-16.25Z"/>
  <path class="cls-2" d="M39.92,35.16l14.53,7.66-1.25,14.53-32.8,4.46-1.69-16.44,4.56-4.14,16.64-6.07Z"/>
  <path class="cls-3" d="M23.28,40.02l-2.65,2.16S4.04,50.48,3.4,56.22l6.77,13.47s8.4-1.57,17.05-3.67c-.64-12.12,.62-26.87-3.95-25.99Z"/>
  <path class="cls-3" d="M34.43,35.88l5.84-.97s21.7,5.74,24.89,15.31l-13.01,9.75s-17.62,8.11-16.34-3.37-2.51-19.52-1.38-20.72Z"/>
  <path class="cls-3" d="M36.97,10.08l.57-1.14-2.86-1.42s-3.15-5.13-8.86-3.69-8.27,2.3-8.27,2.3l-2.85,1.43,1.43,1.42-2.57,.86,1.71,.85-1.99,1.15,1.07,5.88s1.78-4.46,5.21-2.75,9.7-.88,9.7-.88l5.45,10.54s1.12-3.7,3.13-2.71c0,0,5.12-8.15-.88-11.85Z"/>
</svg>