<?xml version="1.0" encoding="UTF-8"?>
<svg id="projects_page_helper_image" data-name="projects page helper image" xmlns="http://www.w3.org/2000/svg" viewBox="0 0 50 50">
  <defs>
    <style>
      .cls-1 {
        fill: #ffb6b6;
      }

      .cls-2 {
        fill: #ff6366;
      }

      .cls-3 {
        fill: #2f2e41;
      }
    </style>
  </defs>
  <polygon class="cls-3" points="39.38 38.44 20.66 38.44 20.66 13.11 36.85 21.97 39.38 38.44"/>
  <circle class="cls-1" cx="24.12" cy="21.82" r="12.16"/>
  <polygon class="cls-1" points="17.14 35.77 16.59 30.22 27.55 28.17 34.03 43.93 22.77 56.89 14.74 41.12 17.14 35.77"/>
  <path class="cls-2" d="M51.09,52.53c-.44,.44-18.27,7.45-27.64,7.45C14.8,59.98,6.6,57.07-.03,51.71c0,0,0,0-.01,0-.2-.16-.4-.33-.6-.49,.04-.1,.07-.2,.11-.3,2.13-5.56,6.34-8.27,8.9-9.46,1.27-.59,2.13-.81,2.13-.81l3-5.41,2.11,3.94,1.56,2.91,6.39,11.92,5.51-13.72,1.71-4.25,.44-1.09,2.08,1.62,1.97,1.53,3.97,.88,3.22,.71,4.37,.97c1.77,1.44,2.84,4.18,3.44,7.58,.02,.12,.95,4.17,.81,4.31Z"/>
  <path class="cls-3" d="M17.72,8c1.48-2.49,4.2-4.19,7.08-4.45,2.88-.25,5.86,.96,7.75,3.15,1.13,1.31,1.86,2.91,2.96,4.24,2.36,2.86,6.39,4.54,7.42,8.1,.45,1.56,.23,3.22,0,4.82-.2,1.37-.39,2.75-.59,4.12-.15,1.07-.3,2.2,.1,3.2,.47,1.18,1.6,1.95,2.32,2.99,1.24,1.77,1.15,4.35-.21,6.02-.59,.73-1.37,1.27-1.99,1.98s-1.08,1.66-.82,2.56c.5,1.72,3.2,2.13,3.49,3.9,.15,.9-.47,1.81-1.29,2.22s-1.78,.43-2.69,.31c-3.46-.42-6.66-2.58-8.34-5.63-1.68-3.05-1.81-6.91-.32-10.06,1.22-2.59,3.49-4.87,3.46-7.73-.01-1.56-.73-3.01-1.43-4.41-1.43-2.85-2.86-5.7-4.29-8.55-.77-1.53-1.66-3.17-3.23-3.83-1.22-.51-2.6-.31-3.91-.1s-2.68,.41-3.91-.09-2.15-1.98-1.56-3.16"/>
  <path class="cls-3" d="M19.85,8.13c-2.35-.77-4.98,.47-6.57,2.36-1.59,1.89-2.36,4.32-3.1,6.68-.42,1.35-.84,2.7-1.26,4.06-.4,1.27-.79,2.54-1.19,3.82-.47,1.5-.94,3.09-.55,4.61,.28,1.1,.99,2.1,1,3.23,.02,1.18-.73,2.22-1.37,3.21-.65,.99-1.26,2.16-.95,3.31,.47,1.74,2.89,2.69,2.75,4.49-.04,.6-.39,1.15-.38,1.75,0,.76,.61,1.42,1.31,1.73,.7,.3,1.49,.32,2.25,.31,2.34-.04,4.68-.32,6.97-.83,.88-.2,1.78-.44,2.51-.96s1.28-1.4,1.18-2.29c-.15-1.4-1.65-2.19-2.41-3.37-.74-1.16-.73-2.64-1.05-3.98-.44-1.85-1.53-3.46-2.35-5.17-3.08-6.44-2-14.64,2.63-20.06,.41-.48,.86-.96,1.03-1.57,.17-.61-.05-1.38-.64-1.59"/>
</svg>