<?xml version="1.0" encoding="UTF-8"?>
<svg id="projects_page_helper_image" data-name="projects page helper image" xmlns="http://www.w3.org/2000/svg" viewBox="0 0 50 50">
  <defs>
    <style>
      .cls-1 {
        fill: #ff6366;
      }

      .cls-2 {
        fill: #a0616a;
      }

      .cls-3 {
        fill: #2f2e41;
      }
    </style>
  </defs>
  <g>
    <g>
      <circle class="cls-2" cx="25.06" cy="24.94" r="11.64"/>
      <polygon class="cls-2" points="15.42 39.18 17.85 32.98 30.38 31.1 31.73 44.82 19.06 45.09 15.42 39.18"/>
    </g>
    <path class="cls-3" d="M36.81,27.09c-.15,.61-.46,2.05-.93,2.05-.39,0-.76-6.25-.37-7.28,.45-1.19-.73-2.69-1.61-3.46-1.59-1.39-5.12,1.59-8.71,.24-.1-.04-.08-.03-1.21-.48-3.49-1.39-3.67-1.43-3.87-1.45-1.69-.17-3.76,1.22-4.6,2.9-.88,1.75-.14,3.26-.97,7.5-.1,.49-.25,1.2-.48,1.21-.43,.02-.86-2.3-.97-2.9-.46-2.54-.91-4.99,0-7.75,.1-.3,.71-1.41,1.94-3.63,1.76-3.19,2.65-4.8,2.9-5.08,1.84-2.07,5.18-3.95,7.99-3.15,1.42,.41,1.16,1.06,2.9,1.69,3.1,1.13,5.8-.25,6.29,.73,.26,.52-.47,.95-.48,1.94-.02,1.7,2.13,2.19,3.39,3.87,.68,.9,1.83,.91-1.2,13.04h0Z"/>
  </g>
  <path class="cls-1" d="M51.23,49.43c-.47,.53-.96,1.04-1.46,1.55-6.77,6.77-15.77,10.5-25.35,10.5-8.28,0-16.13-2.79-22.48-7.91,0,0,0,0-.01,0-.84-.68-1.66-1.4-2.44-2.16,.01-.12,.03-.24,.05-.35,.11-.78,.23-1.53,.37-2.21,1.13-5.62,15.93-11.53,16.32-11.68,0,0,0,0,0,0,0,0,1.91,7.02,10.07,6.93,5.56-.06,4.48-6.93,4.48-6.93,0,0,.07,.01,.19,.04,1.61,.34,12.76,2.79,17.16,6.14,1.34,1.02,2.3,3.19,2.99,5.78,.03,.11,.06,.22,.09,.34Z"/>
</svg>